<svg width="48" height="48" viewBox="0 0 48 48" fill="none" xmlns="http://www.w3.org/2000/svg">
  <!-- Main Globe Background -->
  <circle cx="24" cy="24" r="15" fill="#4573df" stroke="#2d4fa2" stroke-width="1.5"/>
  
  <!-- Globe Grid Lines (subtle) -->
  <path d="M24 9V39M9 24H39" stroke="#ffffff" stroke-width="0.8" opacity="0.3"/>
  <ellipse cx="24" cy="24" rx="15" ry="7.5" stroke="#ffffff" stroke-width="0.8" opacity="0.3" fill="none"/>
  <ellipse cx="24" cy="24" rx="7.5" ry="15" stroke="#ffffff" stroke-width="0.8" opacity="0.3" fill="none"/>
  
  <!-- Continents (cleaner, more recognizable) -->
  <path d="M14 18C16 16 20 15 24 17C26 19 28 17 30 19C32 21 34 19 36 21" 
        stroke="#ffffff" stroke-width="1.3" fill="none" stroke-linecap="round"/>
  <path d="M12 28C14 26 18 28 22 26C24 24 28 26 32 28C34 30 36 28 38 30" 
        stroke="#ffffff" stroke-width="1.3" fill="none" stroke-linecap="round"/>
  
  <!-- Remote Work Elements -->
  <!-- Laptop (bottom left, well-spaced) -->
  <g transform="translate(6, 32)">
    <rect x="0" y="0" width="8" height="5" rx="1" fill="#ff9800"/>
    <rect x="1" y="1" width="6" height="3" fill="#2d4fa2"/>
    <rect x="-0.5" y="5" width="9" height="1" rx="0.5" fill="#ff9800"/>
    <!-- Screen glow -->
    <rect x="1" y="1" width="6" height="3" fill="#667eea" opacity="0.3"/>
  </g>
  
  <!-- Home Office (bottom right, well-spaced) -->
  <g transform="translate(34, 30)">
    <path d="M0 4L4 0L8 4V8H0V4Z" fill="#667eea"/>
    <rect x="2" y="5" width="1.5" height="3" fill="#ffffff"/>
    <path d="M4 0L2 2H6L4 0Z" fill="#ff9800"/>
    <!-- Chimney smoke -->
    <circle cx="6.5" cy="1" r="0.5" fill="#ffffff" opacity="0.6"/>
    <circle cx="7" cy="0.5" r="0.3" fill="#ffffff" opacity="0.4"/>
  </g>
  
  <!-- Connection Waves (more prominent) -->
  <path d="M18 26C20 24 22 26 24 24C26 26 28 24 30 26" 
        stroke="#ff9800" stroke-width="1.5" fill="none" stroke-linecap="round" 
        stroke-dasharray="3,2" opacity="0.8"/>
  
  <!-- Work-Life Balance Symbol (center, clear) -->
  <circle cx="24" cy="24" r="5" fill="none" stroke="#ffffff" stroke-width="1.5" opacity="0.9"/>
  <path d="M24 19V29M19 24H29" stroke="#ffffff" stroke-width="1.5" stroke-linecap="round" opacity="0.9"/>
  
  <!-- Freedom/Flexibility Indicators -->
  <circle cx="8" cy="12" r="1.5" fill="#ff9800" opacity="0.8"/>
  <circle cx="40" cy="36" r="1.5" fill="#667eea" opacity="0.8"/>
  <circle cx="6" cy="36" r="1.2" fill="#4573df" opacity="0.8"/>
  <circle cx="42" cy="12" r="1.2" fill="#ff9800" opacity="0.6"/>
  
  <!-- Subtle movement lines -->
  <path d="M10 14C12 12 14 14 16 12" stroke="#667eea" stroke-width="1" 
        fill="none" stroke-linecap="round" opacity="0.4"/>
  <path d="M32 36C34 34 36 36 38 34" stroke="#4573df" stroke-width="1" 
        fill="none" stroke-linecap="round" opacity="0.4"/>
</svg>
