<svg width="48" height="48" viewBox="0 0 48 48" fill="none" xmlns="http://www.w3.org/2000/svg">
<path d="M24 39C32.2843 39 39 32.2843 39 24C39 15.7157 32.2843 9 24 9C15.7157 9 9 15.7157 9 24C9 32.2843 15.7157 39 24 39Z" fill="#4573DF" stroke="#2D4FA2" stroke-width="1.5"/>
<path opacity="0.3" d="M24 9V39M9 24H39" stroke="white" stroke-width="0.8"/>
<path opacity="0.3" d="M24 31.5C32.2843 31.5 39 28.1421 39 24C39 19.8579 32.2843 16.5 24 16.5C15.7157 16.5 9 19.8579 9 24C9 28.1421 15.7157 31.5 24 31.5Z" stroke="white" stroke-width="0.8"/>
<path opacity="0.3" d="M24 39C28.1421 39 31.5 32.2843 31.5 24C31.5 15.7157 28.1421 9 24 9C19.8579 9 16.5 15.7157 16.5 24C16.5 32.2843 19.8579 39 24 39Z" stroke="white" stroke-width="0.8"/>
<path d="M9.5 33H3.5C2.94772 33 2.5 33.4477 2.5 34V37C2.5 37.5523 2.94772 38 3.5 38H9.5C10.0523 38 10.5 37.5523 10.5 37V34C10.5 33.4477 10.0523 33 9.5 33Z" fill="#FF9800"/>
<path d="M9.5 34H3.5V37H9.5V34Z" fill="#2D4FA2"/>
<path d="M10.5 38H2.5C2.22386 38 2 38.2239 2 38.5C2 38.7761 2.22386 39 2.5 39H10.5C10.7761 39 11 38.7761 11 38.5C11 38.2239 10.7761 38 10.5 38Z" fill="#FF9800"/>
<path opacity="0.3" d="M9.5 34H3.5V37H9.5V34Z" fill="#667EEA"/>
<path opacity="0.8" d="M18 17C20 15 22 17 24 15C26 17 28 15 30 17" stroke="#FF9800" stroke-width="1.5" stroke-linecap="round" stroke-dasharray="3 2"/>
<path opacity="0.9" d="M24 29C26.7614 29 29 26.7614 29 24C29 21.2386 26.7614 19 24 19C21.2386 19 19 21.2386 19 24C19 26.7614 21.2386 29 24 29Z" stroke="white" stroke-width="1.5"/>
<path opacity="0.9" d="M24 19V29M19 24H29" stroke="white" stroke-width="1.5" stroke-linecap="round"/>
<path opacity="0.8" d="M6.5 13C7.32843 13 8 12.3284 8 11.5C8 10.6716 7.32843 10 6.5 10C5.67157 10 5 10.6716 5 11.5C5 12.3284 5.67157 13 6.5 13Z" fill="#FF9800"/>
<path opacity="0.8" d="M41.5 13C42.3284 13 43 12.3284 43 11.5C43 10.6716 42.3284 10 41.5 10C40.6716 10 40 10.6716 40 11.5C40 12.3284 40.6716 13 41.5 13Z" fill="#667EEA"/>
<path opacity="0.8" d="M5.2 36.4C5.86274 36.4 6.4 35.8627 6.4 35.2C6.4 34.5373 5.86274 34 5.2 34C4.53726 34 4 34.5373 4 35.2C4 35.8627 4.53726 36.4 5.2 36.4Z" fill="#4573DF"/>
<path opacity="0.8" d="M41.5 13C42.3284 13 43 12.3284 43 11.5C43 10.6716 42.3284 10 41.5 10C40.6716 10 40 10.6716 40 11.5C40 12.3284 40.6716 13 41.5 13Z" fill="#FF9800"/>
<path d="M38 34L42 30L46 34V38H38V34Z" fill="#667EEA"/>
<path d="M41.5 35H40V38H41.5V35Z" fill="white"/>
<path d="M42 30L40 32H44L42 30Z" fill="#FF9800"/>
<path opacity="0.6" d="M44.5 31.5C44.7761 31.5 45 31.2761 45 31C45 30.7239 44.7761 30.5 44.5 30.5C44.2239 30.5 44 30.7239 44 31C44 31.2761 44.2239 31.5 44.5 31.5Z" fill="white"/>
<path opacity="0.4" d="M45 30.8C45.1657 30.8 45.3 30.6657 45.3 30.5C45.3 30.3343 45.1657 30.2 45 30.2C44.8343 30.2 44.7 30.3343 44.7 30.5C44.7 30.6657 44.8343 30.8 45 30.8Z" fill="white"/>
</svg>
