<svg width="48" height="48" viewBox="0 0 48 48" fill="none" xmlns="http://www.w3.org/2000/svg">
<path d="M8 10H40V38C40 39.1046 39.1046 40 38 40H10C8.89543 40 8 39.1046 8 38V10Z" fill="#4573DF"/>
<path d="M8 10H38V36H10C8.89543 36 8 35.1046 8 34V10Z" fill="#2D4FA2"/>
<path opacity="0.8" d="M36 14H12V16H36V14Z" fill="white"/>
<path opacity="0.6" d="M32 18H12V20H32V18Z" fill="white"/>
<path opacity="0.6" d="M34 22H12V24H34V22Z" fill="white"/>
<path opacity="0.6" d="M30 26H12V28H30V26Z" fill="white"/>
<path d="M30 0L36 6H32V12H28V6H24L30 0Z" fill="#FF9800"/>
<path d="M32 8V12L30 13L28 12V8" fill="#FF9800"/>
<path d="M14 33C14.5523 33 15 32.5523 15 32C15 31.4477 14.5523 31 14 31C13.4477 31 13 31.4477 13 32C13 32.5523 13.4477 33 14 33Z" fill="#667EEA"/>
<path d="M18 31C18.5523 31 19 30.5523 19 30C19 29.4477 18.5523 29 18 29C17.4477 29 17 29.4477 17 30C17 30.5523 17.4477 31 18 31Z" fill="#667EEA"/>
<path d="M22 33C22.5523 33 23 32.5523 23 32C23 31.4477 22.5523 31 22 31C21.4477 31 21 31.4477 21 32C21 32.5523 21.4477 33 22 33Z" fill="#FF9800"/>
<path opacity="0.5" d="M10 10H8V38H10V10Z" fill="#667EEA"/>
</svg>
