<svg width="31" height="28" viewBox="0 0 31 28" fill="none" xmlns="http://www.w3.org/2000/svg">
<g id="Ai icon" clip-path="url(#clip0_438_1180)">
<path id="Vector" fill-rule="evenodd" clip-rule="evenodd" d="M12.2034 16.8433H10.7074L13.5603 8.89404H15.1608L18.0137 16.8433H16.5177L15.8479 14.7888H12.8819L12.2121 16.8433H12.2034ZM14.3779 10.3157H14.3432L13.2298 13.6965H15.4826L14.3779 10.3157Z" fill="#F07527"/>
<path id="Vector_2" d="M20.2927 16.8433H18.8662V8.89404H20.2927V16.8433Z" fill="#F07527"/>
<path id="Vector_3" fill-rule="evenodd" clip-rule="evenodd" d="M0 14.3467C0 11.4861 2.06145 9.10217 4.78395 8.59938C4.74916 8.29598 4.73176 7.9839 4.73176 7.67183C4.72306 3.43282 8.16751 0 12.4209 0C15.2478 0 17.7267 1.5257 19.0575 3.78824C19.3967 3.71889 19.7534 3.68421 20.1187 3.68421C22.615 3.68421 24.7113 5.34861 25.3723 7.61981C28.5384 7.97523 30.9913 10.6452 30.9913 13.8873C30.9913 17.3375 28.2166 20.1375 24.7722 20.1981H16.1437V22.3653H17.4484C17.9268 22.3653 18.3182 22.7554 18.3182 23.2322V24.5498H23.5022V23.2322C23.5022 22.7554 23.8937 22.3653 24.3721 22.3653H28.2862C28.7646 22.3653 29.156 22.7554 29.156 23.2322V27.1331C29.156 27.6099 28.7646 28 28.2862 28H24.3721C23.8937 28 23.5022 27.6099 23.5022 27.1331V25.8502H18.3182V27.1331C18.3182 27.6099 17.9268 28 17.4484 28H13.5342C13.0558 28 12.6644 27.6099 12.6644 27.1331V25.8502H7.48036V27.1331C7.48036 27.6099 7.08895 28 6.61055 28H2.70511C2.22671 28 1.8353 27.6099 1.8353 27.1331V23.2322C1.8353 22.7554 2.22671 22.3653 2.70511 22.3653H6.61925C7.09764 22.3653 7.48906 22.7554 7.48906 23.2322V24.5498H12.6731V23.2322C12.6731 22.7554 13.0645 22.3653 13.5429 22.3653H14.8476V20.1981H5.79293C2.59203 20.1548 0 17.5542 0 14.3467ZM24.7548 18.8978H24.7113H24.6678H5.81033C3.32267 18.8632 1.30471 16.8433 1.30471 14.3467C1.30471 12.1276 2.90516 10.2724 5.0188 9.87368L6.21914 9.6483L6.07127 8.44334C6.03648 8.19195 6.02778 7.93189 6.02778 7.67183C6.02778 4.15232 8.88945 1.30031 12.4209 1.30031C14.7694 1.30031 16.8221 2.55728 17.9355 4.44706L18.4052 5.24458L19.3098 5.07121C19.5707 5.0192 19.8403 4.99319 20.1187 4.99319C22.0149 4.99319 23.6153 6.25882 24.1198 7.99257L24.3634 8.82477L25.2332 8.92012C27.7382 9.19752 29.6953 11.3214 29.6953 13.896C29.6953 16.6353 27.4947 18.8545 24.7548 18.9065V18.8978ZM13.9778 23.6743V26.7084H17.0222V23.6743H13.9778ZM3.14001 26.6997V23.6656H6.18434V26.6997H3.14001ZM24.8157 23.6743V26.7084H27.86V23.6743H24.8157Z" fill="#3C7ABE"/>
</g>
<defs>
<clipPath id="clip0_438_1180">
<rect width="31" height="28" fill="white"/>
</clipPath>
</defs>
</svg>
