<svg width="30" height="30" viewBox="0 0 30 30" fill="none" xmlns="http://www.w3.org/2000/svg">
<g id="Big Data Analytics" clip-path="url(#clip0_438_1177)">
<path id="Vector" fill-rule="evenodd" clip-rule="evenodd" d="M19.9071 14.8509V11.6743C19.9071 11.6743 19.9071 11.6582 19.9071 11.6501C19.9071 11.1422 19.4764 10.6746 18.7669 10.3198C17.9054 9.88447 16.6216 9.61035 15.1858 9.61035C12.5845 9.61035 10.4814 10.5214 10.473 11.6501V18.3983C10.473 19.527 12.5845 20.4381 15.1858 20.4381C17.7872 20.4381 19.8987 19.527 19.8987 18.3983V14.8509H19.9071ZM15.1943 13.6899C13.8345 13.6899 12.6098 13.44 11.7483 13.0368V14.8428H11.8074C11.8834 14.9154 12.0524 15.0444 12.3902 15.1895C13.0405 15.4717 14.0372 15.6813 15.2027 15.6813C16.3682 15.6813 17.3564 15.4717 18.0152 15.1895C18.353 15.0444 18.5135 14.9234 18.598 14.8428H18.6571V13.0368C17.7956 13.44 16.5709 13.6899 15.2112 13.6899H15.1943ZM18.6402 16.2457V18.3338C18.6064 18.3741 18.4797 18.5354 17.9983 18.745C17.348 19.0272 16.3514 19.2368 15.1858 19.2368C14.0203 19.2368 13.0321 19.0272 12.3733 18.745C11.9003 18.5354 11.7652 18.3822 11.7314 18.3338V16.2457C12.5929 16.6488 13.8176 16.8987 15.1774 16.8987C16.5372 16.8987 17.7618 16.6488 18.6233 16.2457H18.6402ZM18.0068 11.9968C18.3446 11.8517 18.5051 11.7307 18.5895 11.6501C18.5304 11.5937 18.4291 11.5131 18.2432 11.4163C18.201 11.3921 18.1503 11.3679 18.0912 11.3438C18.0659 11.3357 18.0405 11.3196 18.0152 11.3115C17.3649 11.0293 16.3682 10.8197 15.2027 10.8197C14.0372 10.8197 13.049 11.0293 12.3902 11.3115C12.0524 11.4566 11.8919 11.5776 11.8074 11.6582C11.8834 11.7307 12.0524 11.8597 12.3902 12.0049C13.0405 12.2871 14.0372 12.4967 15.2027 12.4967C16.3682 12.4967 17.3564 12.2871 18.0152 12.0049L18.0068 11.9968Z" fill="#F07527"/>
<path id="Vector_2" fill-rule="evenodd" clip-rule="evenodd" d="M9.44258 2.1204C9.44258 0.943295 10.4392 0 11.6639 0C12.2213 0 12.728 0.193496 13.1166 0.51599C13.7753 0.209621 14.4764 0.0403117 15.1943 0.0403117C17.6182 0.0403117 19.7973 1.91884 21.3091 4.90997C23.446 4.75679 25.3294 5.03091 26.7399 5.73233C27.0524 5.57915 27.3987 5.49046 27.7703 5.49046C29.0034 5.49046 30 6.44182 30 7.61086C30 8.19941 29.7551 8.72346 29.3497 9.11045C29.6199 10.868 28.902 12.9401 27.424 15.0202C29.3835 17.7694 29.9916 20.5106 28.7838 22.5101C27.576 24.5095 24.7804 25.3722 21.3091 25.1303C19.7973 28.1215 17.6182 30 15.1943 30C12.7703 30 10.5912 28.1215 9.0794 25.1303C6.48649 25.3077 4.2821 24.8804 2.82095 23.8162C2.63514 23.8646 2.43244 23.8887 2.22974 23.8887C0.996629 23.8887 0.00845337 22.9374 0.00845337 21.7683C0.00845337 21.0347 0.396967 20.3897 0.988183 20.0027C1.03886 18.4628 1.73987 16.7455 2.96453 15.0202C1.00508 12.2709 0.388521 9.53776 1.60474 7.53023C2.81251 5.53077 5.60812 4.6681 9.0794 4.90997C9.34122 4.38592 9.62839 3.90218 9.93244 3.45069C9.62839 3.08788 9.44258 2.62833 9.44258 2.1204ZM13.8936 2.1204C13.8936 1.91884 13.8683 1.72534 13.8091 1.53991C14.2737 1.34641 14.7382 1.24966 15.1943 1.24966C16.7821 1.24966 18.522 2.43483 19.9324 4.99059L19.9662 5.04703C18.4544 5.26471 16.8412 5.67589 15.1943 6.27251C13.5473 5.67589 11.9341 5.26471 10.4223 5.04703L10.4561 4.99059C10.625 4.68422 10.7939 4.40204 10.9713 4.13598C11.1909 4.20855 11.4274 4.2408 11.6723 4.2408C12.9054 4.2408 13.8936 3.28944 13.8936 2.1204ZM21.9172 6.08707C23.5135 6.03064 24.8058 6.24026 25.7939 6.63531C25.6335 6.92556 25.549 7.25611 25.549 7.6028C25.549 8.7799 26.5456 9.72319 27.7703 9.72319C27.8885 9.72319 28.0152 9.71513 28.125 9.69901C28.1672 10.868 27.7196 12.3031 26.6554 13.9156L26.6216 13.9721C25.6672 12.8272 24.4848 11.6985 23.125 10.6342C22.8463 8.97339 22.4071 7.43349 21.8497 6.07095H21.9172V6.08707ZM8.46285 23.9613C6.50339 24.0339 4.99156 23.7033 3.96116 23.1067C4.26521 22.7439 4.45102 22.2843 4.45102 21.7764C4.45102 20.6235 3.48818 19.6802 2.28041 19.656C2.39866 18.6321 2.86318 17.4389 3.72467 16.1247L3.75845 16.0683C4.71284 17.2131 5.88683 18.3418 7.25507 19.4061C7.53379 21.0669 7.97298 22.6068 8.53041 23.9694H8.46285V23.9613ZM11.6639 1.20935C11.1318 1.20935 10.7095 1.62053 10.7095 2.1204C10.7095 2.62026 11.1402 3.03144 11.6639 3.03144C12.1875 3.03144 12.6182 2.62026 12.6182 2.1204C12.6182 1.62053 12.1875 1.20935 11.6639 1.20935ZM27.4747 6.69981C27.1115 6.69981 26.8159 7.09487 26.8159 7.57861C26.8159 8.06235 27.1115 8.4574 27.4747 8.4574C27.8378 8.4574 28.1335 8.06235 28.1335 7.57861C28.1335 7.09487 27.8378 6.69981 27.4747 6.69981ZM2.22129 20.8573C1.6892 20.8573 1.2669 21.2685 1.2669 21.7683C1.2669 22.2682 1.69764 22.6875 2.22129 22.6875C2.74494 22.6875 3.17568 22.2763 3.17568 21.7683C3.17568 21.2604 2.74494 20.8573 2.22129 20.8573ZM19.9662 24.9933L19.9324 25.0497C18.5135 27.6055 16.7737 28.7906 15.1943 28.7906C13.6149 28.7906 11.8666 27.6055 10.4476 25.0497L10.4139 24.9933C11.9257 24.7756 13.5389 24.3644 15.1858 23.7678C16.8328 24.3644 18.446 24.7756 19.9578 24.9933H19.9662ZM13.4544 23.0664C12.2044 23.4453 10.9966 23.7033 9.85643 23.8484C9.41724 22.8406 9.04562 21.7119 8.7669 20.4864C9.48481 20.9702 10.2534 21.4378 11.0473 21.8812C11.8497 22.3246 12.652 22.7197 13.4544 23.0744V23.0664ZM16.9341 23.0664C17.7365 22.7116 18.5389 22.3166 19.3412 21.8732C20.1436 21.4297 20.9037 20.9702 21.6216 20.4784C21.3429 21.7038 20.9713 22.8326 20.5321 23.8404C19.4003 23.7033 18.1841 23.4453 16.9341 23.0583V23.0664ZM18.7078 20.8331C19.8818 20.1881 20.9628 19.4867 21.951 18.745C22.1284 17.5679 22.2213 16.3182 22.2213 15.0202C22.2213 13.7221 22.1284 12.4805 21.951 11.2954C20.9713 10.5617 19.8818 9.86025 18.7078 9.2072C17.5338 8.56221 16.3514 8.01398 15.1943 7.57055C14.0372 8.01398 12.8547 8.56221 11.6808 9.2072C10.5068 9.85219 9.42568 10.5536 8.43751 11.2954C8.26014 12.4725 8.16724 13.7221 8.16724 15.0202C8.16724 16.3182 8.26014 17.5598 8.43751 18.745C9.41724 19.4786 10.5068 20.1801 11.6808 20.8331C12.8547 21.4781 14.0372 22.0263 15.1943 22.4698C16.3514 22.0263 17.5338 21.4781 18.7078 20.8331ZM21.8497 23.9532C22.4071 22.5907 22.8463 21.0508 23.125 19.3899C24.4932 18.3257 25.6672 17.197 26.6216 16.0521L26.6554 16.1086C28.2686 18.5595 28.4713 20.5912 27.6774 21.8973C26.8835 23.2115 24.9409 24.0581 21.9088 23.9452H21.8412L21.8497 23.9532ZM23.3615 17.6082C24.3328 16.7616 25.1689 15.8909 25.8699 15.0282C25.1774 14.1575 24.3328 13.2868 23.3615 12.4483C23.446 13.2868 23.4882 14.1494 23.4882 15.0282C23.4882 15.907 23.446 16.7697 23.3615 17.6082ZM20.5321 6.19995C19.4003 6.33701 18.1841 6.595 16.9341 6.98199C17.7365 7.33674 18.5389 7.73179 19.3412 8.17522C20.1436 8.61865 20.9037 9.07821 21.6216 9.57001C21.3429 8.34453 20.9713 7.2158 20.5321 6.20801V6.19995ZM9.85643 6.19995C10.9882 6.33701 12.2044 6.595 13.4544 6.98199C12.652 7.33674 11.8497 7.73179 11.0473 8.17522C10.2449 8.61865 9.48481 9.07821 8.7669 9.57001C9.04562 8.34453 9.41724 7.2158 9.85643 6.20801V6.19995ZM8.53886 6.09514C7.98143 7.45767 7.54224 8.99758 7.26352 10.6584C5.89528 11.7227 4.72129 12.8514 3.7669 13.9962L3.73312 13.9398C2.11994 11.4888 1.91724 9.45714 2.71116 8.15103C3.50507 6.83687 5.44764 5.99033 8.47974 6.1032H8.5473L8.53886 6.09514ZM7.02703 12.4402C6.05575 13.2868 5.2196 14.1575 4.52703 15.0202C5.2196 15.8909 6.0642 16.7616 7.02703 17.6001C6.94257 16.7616 6.90035 15.899 6.90035 15.0202C6.90035 14.1414 6.94257 13.2787 7.02703 12.4402Z" fill="#3C7ABE"/>
</g>
<defs>
<clipPath id="clip0_438_1177">
<rect width="30" height="30" fill="white"/>
</clipPath>
</defs>
</svg>
