<svg width="105" height="105" viewBox="0 0 105 105" fill="none" xmlns="http://www.w3.org/2000/svg">
<g id="c language icon">
<path id="Vector" d="M94.6641 25.1836L55.043 2.37891C54.3867 1.96875 53.4844 1.80469 52.5 1.80469C51.5156 1.80469 50.6133 2.05078 49.957 2.37891L10.582 25.2656C9.1875 26.0859 8.20312 28.1367 8.20312 29.6953V75.3867C8.20312 76.2891 8.36719 77.3555 9.02344 78.2578L96.6328 27.3984C96.1406 26.4141 95.4023 25.6758 94.6641 25.1836Z" fill="#659AD3"/>
<path id="Vector_2" d="M8.77734 78.1758C9.1875 78.832 9.76172 79.4062 10.3359 79.7344L49.875 102.621C50.5312 103.031 51.4336 103.195 52.418 103.195C53.4023 103.195 54.3047 102.949 54.9609 102.621L94.3359 79.7344C95.7305 78.9141 96.7148 76.8633 96.7148 75.3047V29.6133C96.7148 28.875 96.6328 28.0547 96.2227 27.3164L8.77734 78.1758Z" fill="#03599C"/>
<path id="Vector_3" d="M69.9727 62.4258C66.5273 68.4961 59.9648 72.5977 52.5 72.5977C41.4258 72.5977 32.4023 63.5742 32.4023 52.5C32.4023 41.4258 41.4258 32.4023 52.5 32.4023C59.9648 32.4023 66.5273 36.5039 69.9727 42.6562L80.6367 36.5039C75.0586 26.7422 64.5586 20.0977 52.5 20.0977C34.6172 20.0977 20.0977 34.6172 20.0977 52.5C20.0977 70.3828 34.6172 84.9023 52.5 84.9023C64.4766 84.9023 74.9766 78.3398 80.5547 68.6602L69.9727 62.4258Z" fill="white"/>
</g>
</svg>
