<svg width="32" height="32" viewBox="0 0 32 32" fill="none" xmlns="http://www.w3.org/2000/svg">
<g id="CopyrightTwoTone" clip-path="url(#clip0_1125_763)">
<path id="Vector" d="M16 0C7.16429 0 0 7.16429 0 16C0 24.8357 7.16429 32 16 32C24.8357 32 32 24.8357 32 16C32 7.16429 24.8357 0 16 0ZM16 29.2857C8.66429 29.2857 2.71429 23.3357 2.71429 16C2.71429 8.66429 8.66429 2.71429 16 2.71429C23.3357 2.71429 29.2857 8.66429 29.2857 16C29.2857 23.3357 23.3357 29.2857 16 29.2857Z" fill="white"/>
<path id="Vector_2" d="M16.0001 2.71429C8.66436 2.71429 2.71436 8.6643 2.71436 16C2.71436 23.3357 8.66436 29.2857 16.0001 29.2857C23.3358 29.2857 29.2858 23.3357 29.2858 16C29.2858 8.6643 23.3358 2.71429 16.0001 2.71429ZM16.1965 21.75C18.0858 21.75 19.3679 20.6179 19.5179 18.9714C19.5322 18.825 19.6536 18.7107 19.8036 18.7107H21.8322C21.9251 18.7107 22.0001 18.7857 22.0001 18.8786C22.0001 21.8286 19.5465 23.9286 16.1894 23.9286C12.2644 23.9286 10.0001 21.3143 10.0001 16.9679V15.1C10.0001 10.7214 12.2644 8.07144 16.1894 8.07144C19.5572 8.07144 22.0001 10.2393 22.0001 13.3357C22.0001 13.4286 21.9251 13.5036 21.8322 13.5036H19.8072C19.6572 13.5036 19.5322 13.3893 19.5215 13.2393C19.3786 11.4679 18.0929 10.2607 16.2001 10.2607C13.8715 10.2607 12.5536 11.9929 12.5501 15.1V16.9786C12.5501 20.0393 13.8644 21.75 16.1965 21.75Z" fill="black"/>
<path id="Vector_3" d="M16.2 10.2607C18.0929 10.2607 19.3786 11.4679 19.5214 13.2393C19.5321 13.3893 19.6571 13.5036 19.8071 13.5036H21.8321C21.925 13.5036 22 13.4286 22 13.3357C22 10.2393 19.5571 8.07144 16.1893 8.07144C12.2643 8.07144 10 10.7214 10 15.1V16.9679C10 21.3143 12.2643 23.9286 16.1893 23.9286C19.5464 23.9286 22 21.8286 22 18.8786C22 18.7857 21.925 18.7107 21.8321 18.7107H19.8036C19.6536 18.7107 19.5321 18.825 19.5179 18.9714C19.3679 20.6179 18.0857 21.75 16.1964 21.75C13.8643 21.75 12.55 20.0393 12.55 16.9786V15.1C12.5536 11.9929 13.8714 10.2607 16.2 10.2607Z" fill="white"/>
</g>
<defs>
<clipPath id="clip0_1125_763">
<rect width="32" height="32" fill="white"/>
</clipPath>
</defs>
</svg>
