<svg width="105" height="105" viewBox="0 0 105 105" fill="none" xmlns="http://www.w3.org/2000/svg">
<g id="css icon">
<path id="Vector" d="M19.366 89.2533L11.9963 6.5625H93.0038L85.6243 89.2402L52.4509 98.4375L19.366 89.2533Z" fill="#1572B6"/>
<path id="Vector_2" d="M52.5 91.4091L79.3078 83.9771L85.6144 13.3252H52.5V91.4091Z" fill="#33A9DC"/>
<path id="Vector_3" d="M52.5 43.2829H65.9203L66.8456 32.8977H52.5V22.7554H77.9297L77.6869 25.4755L75.1964 53.4252H52.5V43.2829Z" fill="white"/>
<path id="Vector_4" d="M52.5624 69.6216L52.5165 69.6347L41.2224 66.5832L40.5006 58.4949H30.3188L31.7396 74.4188L52.5132 80.1872L52.5624 80.1741V69.6216Z" fill="#EBEBEB"/>
<path id="Vector_5" d="M65.0575 52.9954L63.8368 66.5765L52.5264 69.628V80.1805L73.3164 74.4186L73.4706 72.7058L75.2326 52.9954H65.0575Z" fill="white"/>
<path id="Vector_6" d="M52.5361 22.7554V32.8977H28.0383L27.8349 30.6172L27.3722 25.4755L27.1294 22.7554H52.5361ZM52.5 43.2829V53.4252H41.3471L41.1436 51.1447L40.6842 46.003L40.4414 43.2829H52.5Z" fill="#EBEBEB"/>
</g>
</svg>
