<svg width="30" height="30" viewBox="0 0 30 30" fill="none" xmlns="http://www.w3.org/2000/svg">
<g id="data visualization icon" clip-path="url(#clip0_438_1169)">
<path id="Vector" fill-rule="evenodd" clip-rule="evenodd" d="M19.4728 8.55935L22.2645 5.84498C22.1348 5.54233 22.057 5.19239 22.057 4.833C22.057 3.50891 23.0337 2.44019 24.2437 2.44019C25.4538 2.44019 26.4304 3.50891 26.4304 4.833C26.4304 6.15708 25.4538 7.22581 24.2437 7.22581C23.8375 7.22581 23.4572 7.10286 23.1374 6.89479L20.1902 9.76049C20.242 9.96856 20.2679 10.1766 20.2679 10.4036C20.2679 11.7277 19.2913 12.7964 18.0812 12.7964C16.8712 12.7964 15.8946 11.7277 15.8946 10.4036C15.8946 10.2996 15.8946 10.1955 15.9118 10.101L13.5177 8.862C13.1201 9.32543 12.5497 9.61862 11.9188 9.61862C11.2187 9.61862 10.5964 9.25923 10.1988 8.69176L7.88246 10.1293C7.77874 9.647 7.54538 9.23085 7.22559 8.90929L9.74071 7.34876C9.74071 7.34876 9.74071 7.26364 9.74071 7.22581C9.74071 5.90172 10.7174 4.833 11.9274 4.833C13.1374 4.833 14.1141 5.90172 14.1141 7.22581C14.1141 7.34876 14.1141 7.46225 14.0882 7.57575L16.465 8.80526C16.8626 8.31345 17.4417 8.0108 18.0899 8.0108C18.6171 8.0108 19.1011 8.21887 19.4814 8.55935H19.4728ZM12.809 7.22581C12.809 7.7649 12.4114 8.19996 11.9188 8.19996C11.4261 8.19996 11.0285 7.7649 11.0285 7.22581C11.0285 6.68672 11.4261 6.25166 11.9188 6.25166C12.4114 6.25166 12.809 6.68672 12.809 7.22581ZM18.0812 11.3683C18.5739 11.3683 18.9715 10.9333 18.9715 10.3942C18.9715 9.85507 18.5739 9.42001 18.0812 9.42001C17.5886 9.42001 17.191 9.85507 17.191 10.3942C17.191 10.9333 17.5886 11.3683 18.0812 11.3683ZM25.134 4.833C25.134 5.37209 24.7364 5.80715 24.2437 5.80715C23.7511 5.80715 23.3535 5.37209 23.3535 4.833C23.3535 4.29391 23.7511 3.85885 24.2437 3.85885C24.7364 3.85885 25.134 4.29391 25.134 4.833Z" fill="#F07527"/>
<path id="Vector_2" fill-rule="evenodd" clip-rule="evenodd" d="M5.75627 13.0613C6.9663 13.0613 7.94296 11.9925 7.94296 10.6684C7.94296 9.34436 6.9663 8.27563 5.75627 8.27563C4.54624 8.27563 3.56958 9.34436 3.56958 10.6684C3.56958 11.9925 4.54624 13.0613 5.75627 13.0613ZM5.75627 11.6426C6.24892 11.6426 6.6465 11.2075 6.6465 10.6684C6.6465 10.1294 6.24892 9.6943 5.75627 9.6943C5.26362 9.6943 4.86604 10.1294 4.86604 10.6684C4.86604 11.2075 5.26362 11.6426 5.75627 11.6426Z" fill="#F07527"/>
<path id="Vector_3" d="M5.74762 15.2175C6.10199 15.2175 6.39585 15.5391 6.39585 15.9269V18.8493C6.39585 19.2371 6.10199 19.5586 5.74762 19.5586C5.39326 19.5586 5.0994 19.2371 5.0994 18.8493V15.9269C5.0994 15.5391 5.39326 15.2175 5.74762 15.2175Z" fill="#3C7BBF"/>
<path id="Vector_4" d="M18.7295 15.9269C18.7295 15.5391 18.4356 15.2175 18.0812 15.2175C17.7269 15.2175 17.433 15.5391 17.433 15.9269V18.8493C17.433 19.2371 17.7269 19.5586 18.0812 19.5586C18.4356 19.5586 18.7295 19.2371 18.7295 18.8493V15.9269Z" fill="#3C7BBF"/>
<path id="Vector_5" d="M24.2524 9.3916C24.6067 9.3916 24.9006 9.71317 24.9006 10.1009V18.8494C24.9006 19.2371 24.6067 19.5587 24.2524 19.5587C23.898 19.5587 23.6042 19.2371 23.6042 18.8494V10.1009C23.6042 9.71317 23.898 9.3916 24.2524 9.3916Z" fill="#3C7BBF"/>
<path id="Vector_6" d="M12.5583 13.0611C12.5583 12.6734 12.2645 12.3518 11.9101 12.3518C11.5558 12.3518 11.2619 12.6734 11.2619 13.0611V18.8493C11.2619 19.2371 11.5558 19.5586 11.9101 19.5586C12.2645 19.5586 12.5583 19.2371 12.5583 18.8493V13.0611Z" fill="#3C7BBF"/>
<path id="Vector_7" fill-rule="evenodd" clip-rule="evenodd" d="M0 1.89155C0 0.851198 0.777874 0 1.72861 0H28.2714C29.2221 0 30 0.851198 30 1.89155V21.6866C30 22.727 29.2221 23.5782 28.2714 23.5782H15.6526V28.5813H20.9248C21.2792 28.5813 21.573 28.9029 21.573 29.2907C21.573 29.6784 21.2792 30 20.9248 30H9.08384C8.72947 30 8.43561 29.6784 8.43561 29.2907C8.43561 28.9029 8.72947 28.5813 9.08384 28.5813H14.3561V23.5782H1.72861C0.777874 23.5782 0 22.727 0 21.6866V1.89155ZM1.72861 1.41866H28.2714C28.5134 1.41866 28.7035 1.62673 28.7035 1.89155V21.6866C28.7035 21.9515 28.5134 22.1595 28.2714 22.1595H1.72861C1.4866 22.1595 1.29646 21.9515 1.29646 21.6866V1.89155C1.29646 1.62673 1.4866 1.41866 1.72861 1.41866Z" fill="#3C7ABE"/>
</g>
<defs>
<clipPath id="clip0_438_1169">
<rect width="30" height="30" fill="white"/>
</clipPath>
</defs>
</svg>
