<svg width="30" height="30" viewBox="0 0 30 30" fill="none" xmlns="http://www.w3.org/2000/svg">
<g id="data scrapping icon" clip-path="url(#clip0_438_1162)">
<path id="Vector" fill-rule="evenodd" clip-rule="evenodd" d="M1.21016 18.7973V6.38258H23.3907V10.7386C23.3907 11.108 23.6615 11.411 23.9915 11.411C24.3216 11.411 24.5924 11.108 24.5924 10.7386V2.68939C24.5924 1.20265 23.5176 0 22.189 0H2.40339C1.07475 0 0 1.20265 0 2.68939V18.7973C0 20.2841 1.07475 21.4867 2.40339 21.4867H12.2962C12.6262 21.4867 12.897 21.1837 12.897 20.8144C12.897 20.4451 12.6262 20.142 12.2962 20.142H2.40339C1.7433 20.142 1.21016 19.5455 1.21016 18.8068V18.7973ZM2.40339 1.35417C1.7433 1.35417 1.21016 1.95076 1.21016 2.68939V5.02841H23.3907V2.68939C23.3907 1.95076 22.8575 1.35417 22.1975 1.35417H2.40339Z" fill="#3C7ABE"/>
<path id="Vector_2" d="M15.1481 14.9147V9.40331C15.1481 9.03399 14.8773 8.73096 14.5472 8.73096C14.2172 8.73096 13.9464 9.03399 13.9464 9.40331V14.9147C13.9464 15.284 14.2172 15.587 14.5472 15.587C14.8773 15.587 15.1481 15.284 15.1481 14.9147Z" fill="#F07527"/>
<path id="Vector_3" d="M10.6544 11.4204V17.1117C10.6544 17.481 10.3836 17.784 10.0536 17.784C9.72355 17.784 9.45274 17.481 9.45274 17.1117V11.4204C9.45274 11.0511 9.72355 10.748 10.0536 10.748C10.3836 10.748 10.6544 11.0511 10.6544 11.4204Z" fill="#F07527"/>
<path id="Vector_4" d="M6.15233 13.428V17.1117C6.15233 17.481 5.88153 17.784 5.55148 17.784C5.22144 17.784 4.95064 17.481 4.95064 17.1117V13.428C4.95064 13.0586 5.22144 12.7556 5.55148 12.7556C5.88153 12.7556 6.15233 13.0586 6.15233 13.428Z" fill="#F07527"/>
<path id="Vector_5" d="M19.6502 10.824V11.9982C19.6502 12.3675 19.3794 12.6706 19.0494 12.6706C18.7193 12.6706 18.4485 12.3675 18.4485 11.9982V10.824C18.4485 10.4546 18.7193 10.1516 19.0494 10.1516C19.3794 10.1516 19.6502 10.4546 19.6502 10.824Z" fill="#F07527"/>
<path id="Vector_6" fill-rule="evenodd" clip-rule="evenodd" d="M20.1834 14.0908C17.4838 14.0908 15.292 16.5435 15.292 19.5643C15.292 22.5851 17.4838 25.0378 20.1834 25.0378C21.4104 25.0378 22.536 24.5264 23.3992 23.6931L24.7024 25.1514L24.4401 25.445C24.2031 25.7101 24.2031 26.1363 24.4401 26.4014L27.4781 29.801C27.7151 30.0662 28.0959 30.0662 28.3329 29.801L29.8223 28.1344C30.0592 27.8692 30.0592 27.4431 29.8223 27.1779L26.7842 23.7783C26.5473 23.5132 26.1664 23.5132 25.9295 23.7783L25.5487 24.2045L24.2031 22.6988C24.7532 21.8086 25.0748 20.7385 25.0748 19.5738C25.0748 16.5529 22.8829 14.1003 20.1834 14.1003V14.0908ZM16.5021 19.5738C16.5021 17.2916 18.1523 15.445 20.1918 15.445C22.2313 15.445 23.8815 17.2916 23.8815 19.5738C23.8815 21.856 22.2313 23.7026 20.1918 23.7026C18.1523 23.7026 16.5021 21.856 16.5021 19.5738ZM27.9013 28.3711L25.7179 25.9279L26.3526 25.2177L28.536 27.6609L27.9013 28.3711Z" fill="#3C7ABE"/>
</g>
<defs>
<clipPath id="clip0_438_1162">
<rect width="30" height="30" fill="white"/>
</clipPath>
</defs>
</svg>
