<svg width="65" height="40" viewBox="0 0 65 40" fill="none" xmlns="http://www.w3.org/2000/svg">
<g id="Desktop App icon" clip-path="url(#clip0_438_1295)">
<path id="Vector" d="M29.6982 31.7297C29.6704 31.8143 29.678 31.9016 29.678 31.9888C29.6755 32.9621 29.7008 33.9381 29.6578 34.9114C29.635 35.4244 29.4 35.8688 28.9905 36.202C28.7681 36.3819 28.5356 36.4348 28.2702 36.4348C26.3973 36.4348 24.5244 36.4162 22.6515 36.4453C22.1081 36.4533 21.6127 35.9931 21.4156 35.5673C21.2538 35.2181 21.2007 34.8585 21.2108 34.4776C21.221 34.0809 21.2108 33.6842 21.2184 33.2874C21.2235 33.0494 21.4055 32.8881 21.6304 32.9039C21.8225 32.9172 21.9312 33.023 21.9539 33.2266C22.002 33.6656 21.959 34.1073 21.9792 34.5464C22.002 35.0171 22.1536 35.2658 22.5226 35.4297C22.6035 35.4641 22.6844 35.4615 22.7678 35.4615C24.5472 35.4615 26.324 35.4482 28.1034 35.4694C28.5988 35.4747 28.8894 35.0489 28.9248 34.6416C28.9299 34.586 28.9248 34.5305 28.9248 34.475C28.9248 30.8463 28.9248 27.215 28.9248 23.5863C28.9248 23.5546 28.9248 23.5255 28.9248 23.4937C28.9198 23.2557 28.9046 23.2372 28.6796 23.2372C27.7495 23.2372 26.8194 23.2372 25.8867 23.2372C24.666 23.2372 23.4452 23.2372 22.2244 23.2372C21.9716 23.2372 21.964 23.2425 21.964 23.507C21.964 25.8159 21.964 28.1221 21.964 30.4311C21.964 30.5501 21.964 30.6664 21.9565 30.7855C21.9413 31.0076 21.7644 31.1769 21.5596 31.1663C21.4232 31.161 21.2311 30.9521 21.2159 30.7881C21.2108 30.7273 21.2134 30.6638 21.2134 30.603C21.2134 25.8265 21.2159 21.0473 21.2108 16.2708C21.2108 15.6413 21.4232 15.1176 21.8453 14.6918C22.0222 14.5146 22.2522 14.3877 22.5176 14.385C23.2354 14.385 23.9532 14.3797 24.6685 14.385C24.8378 14.385 24.901 14.3348 24.896 14.1549C24.8884 13.7714 24.8555 13.3853 24.9313 13.0097C24.9718 12.8087 25.0122 12.5998 25.083 12.3988C25.1613 12.174 25.2498 11.9598 25.3711 11.7561C25.1538 12.0523 25.035 12.3988 24.9667 12.7532C24.8757 13.2293 24.8252 13.7159 24.853 14.2052C24.8606 14.348 24.9465 14.3797 25.0552 14.3797C25.2726 14.3797 25.4925 14.3983 25.7073 14.3454C25.7604 14.4036 25.8311 14.3771 25.8918 14.3771C26.6981 14.3771 27.5043 14.3771 28.3081 14.3771C28.6822 14.3771 28.9779 14.5596 29.2028 14.8452C29.5238 15.2552 29.6831 15.7286 29.6831 16.2761C29.673 19.4022 29.678 22.5257 29.678 25.6519C29.678 25.726 29.6679 25.8027 29.7083 25.8688C29.6603 25.8926 29.6426 25.9402 29.6401 25.9904C29.6224 26.3025 29.5592 26.6173 29.7008 26.9188C29.6553 27.0325 29.6805 27.1515 29.6805 27.2679C29.6805 28.3549 29.6805 29.4419 29.6805 30.5289C29.6805 30.6347 29.6654 30.7537 29.8297 30.7193C29.6906 30.722 29.6275 30.8066 29.6249 30.9441C29.6224 31.0975 29.6249 31.2509 29.6249 31.4043C29.6249 31.5181 29.6173 31.6371 29.7008 31.7297H29.6982ZM25.452 18.8971C24.3677 18.8971 23.2834 18.8971 22.1991 18.8971C21.9792 18.8971 21.9539 18.9235 21.9539 19.1563C21.9539 20.1005 21.9539 21.042 21.9539 21.9862C21.9539 22.2401 21.9691 22.256 22.2042 22.2956C22.2446 22.3036 22.2876 22.2956 22.328 22.2956C24.3854 22.2956 26.4428 22.2956 28.4977 22.2956C28.5608 22.2956 28.6291 22.2798 28.6898 22.2824C28.9299 22.2877 28.9374 22.1396 28.9349 21.9465C28.9299 21.0103 28.9273 20.074 28.9349 19.1351C28.9349 18.9447 28.8793 18.8918 28.7024 18.8944C27.6181 18.9024 26.5338 18.8971 25.4495 18.8971H25.452ZM25.4571 17.937C26.549 17.937 27.6383 17.937 28.7302 17.9397C28.8869 17.9397 28.94 17.8841 28.9374 17.7228C28.9324 17.2943 28.9273 16.8659 28.9374 16.4374C28.945 16.2073 28.8995 15.9957 28.8237 15.7868C28.7479 15.5752 28.4421 15.3372 28.2474 15.3372C26.4049 15.3372 24.5598 15.3372 22.7172 15.3345C22.4569 15.3345 22.2825 15.4641 22.146 15.6704C22.0146 15.8741 21.9489 16.1015 21.9489 16.3501C21.9489 16.7918 21.9489 17.2308 21.9489 17.6725C21.9489 17.9291 21.9565 17.937 22.1966 17.937C23.2809 17.937 24.3652 17.937 25.452 17.937H25.4571Z" fill="#F1792E"/>
<path id="Vector_2" d="M29.6982 31.7297C29.6148 31.6371 29.6224 31.5181 29.6224 31.4044C29.6224 31.251 29.6199 31.0976 29.6224 30.9442C29.6249 30.8066 29.6881 30.7247 29.8271 30.7194C29.9409 30.7141 30.0521 30.7035 30.1633 30.7035C34.9934 30.7035 39.826 30.7035 44.656 30.7035C44.9037 30.7035 45.154 30.7114 45.4017 30.6956C45.6721 30.6771 45.9173 30.5501 46.1043 30.3623C46.5997 29.8625 46.7589 29.2224 46.7488 28.5215C46.7412 28.0746 46.7488 27.6276 46.7488 27.1806C46.7488 26.9294 46.7412 26.9214 46.4986 26.9214C45.6392 26.9214 44.7799 26.9214 43.9205 26.9214C43.7942 26.9214 43.688 26.9109 43.5818 26.8156C43.4378 26.6887 43.3417 26.448 43.3973 26.2629C43.4984 25.9243 43.5717 25.8582 43.8548 25.8582C44.7268 25.8582 45.5963 25.8582 46.4683 25.8582C46.7134 25.8582 46.7488 25.8212 46.7488 25.5726C46.7488 21.5895 46.7513 17.6064 46.7438 13.6234C46.7438 13.3245 46.7134 13.0177 46.582 12.7374H46.5795C46.5719 12.6686 46.5466 12.6078 46.5062 12.5549C46.4278 12.4411 46.4506 12.3274 46.5264 12.2296C46.6047 12.1317 46.6275 12.0259 46.625 11.9042C46.6224 11.7191 46.6477 11.534 46.539 11.3673C46.5036 11.3118 46.5239 11.2483 46.5365 11.1875C46.9712 11.5366 47.2012 12.0338 47.3579 12.5575C47.4414 12.8379 47.5096 13.1341 47.5071 13.4435C47.502 18.6009 47.5071 23.7556 47.497 28.913C47.497 29.6403 47.2594 30.3068 46.8019 30.8728C46.3697 31.407 45.844 31.6927 45.1514 31.6874C43.1067 31.6689 41.0619 31.6794 39.0146 31.6821C38.7644 31.6821 38.7568 31.69 38.7568 31.9545C38.7568 33.0336 38.7568 34.1127 38.7568 35.1944C38.7568 35.4509 38.7745 35.4694 39.0197 35.4694C39.8613 35.4694 40.703 35.4827 41.5447 35.4641C41.848 35.4589 41.9794 35.644 41.987 35.9878C41.992 36.2364 41.7873 36.4348 41.527 36.4348C38.4207 36.4348 35.3144 36.4348 32.208 36.4348C31.7581 36.4348 31.3057 36.4348 30.8558 36.4348C30.55 36.4348 30.3276 36.1015 30.4236 35.7974C30.5197 35.4906 30.5424 35.4721 30.8508 35.4721C31.7051 35.4721 32.5594 35.4668 33.4111 35.4747C33.5855 35.4747 33.6411 35.4139 33.6411 35.2393C33.6361 34.1338 33.6411 33.0309 33.6411 31.9254C33.6411 31.7561 33.5931 31.6768 33.4036 31.6768C32.2535 31.6874 31.1035 31.6821 29.9535 31.6768C29.86 31.6768 29.7842 31.7138 29.6982 31.735V31.7297ZM36.2192 35.4192C36.7475 35.4192 37.2732 35.4139 37.8014 35.4218C37.9607 35.4218 38.0062 35.3636 38.0062 35.205C38.0036 34.1312 38.0036 33.06 38.0062 31.9862C38.0062 31.8513 37.9632 31.7985 37.8318 31.8011C36.7475 31.8037 35.6632 31.8037 34.5788 31.8011C34.4398 31.8011 34.3943 31.8566 34.3969 31.9995C34.4019 33.06 34.3969 34.1206 34.3994 35.1812C34.3994 35.4033 34.4146 35.4165 34.637 35.4192C35.1652 35.4192 35.691 35.4192 36.2192 35.4192Z" fill="#3978BD"/>
<path id="Vector_3" d="M46.5366 11.1821C46.5239 11.243 46.5037 11.3064 46.5391 11.362C46.6478 11.5286 46.6225 11.7164 46.625 11.8989C46.625 12.0205 46.6048 12.1263 46.5265 12.2242C46.4506 12.3194 46.4279 12.4358 46.5062 12.5495C46.4936 12.4754 46.4683 12.4067 46.4203 12.3511C46.1397 12.65 45.9148 12.9806 45.6747 13.2953C45.4851 13.5466 45.3082 13.5942 45.0832 13.3826C44.8532 13.1657 44.5954 12.9859 44.3553 12.7822C44.1835 12.6368 44.0242 12.7002 43.9787 12.9303C43.8978 13.3456 43.8296 13.7635 43.7538 14.1813C43.7083 14.4247 43.5996 14.5622 43.3595 14.5569C43.0688 14.549 42.7782 14.5569 42.4875 14.5543C42.2979 14.5516 42.1084 14.5754 41.9213 14.5278C41.8379 14.5066 41.7975 14.4723 41.7697 14.3797C41.618 13.8983 41.5776 13.3905 41.4613 12.9013C41.4184 12.7188 41.2768 12.6368 41.1378 12.7479C40.8901 12.9489 40.6323 13.1393 40.3998 13.3641C40.2355 13.5228 39.9094 13.4752 39.7729 13.2927C39.5657 13.0176 39.3584 12.7426 39.1436 12.4754C38.9641 12.2506 38.7569 12.0443 38.7746 11.7164C38.7746 11.6846 38.7468 11.6635 38.7114 11.6767C38.767 11.6476 38.6912 11.5921 38.7291 11.563C38.949 11.4017 38.9566 11.1134 39.0981 10.9044C39.1992 10.759 39.1335 10.6399 38.9616 10.6294C38.9085 10.6267 38.8555 10.6294 38.8024 10.6294C34.9631 10.6294 31.1238 10.6294 27.2845 10.6294C27.0773 10.6294 26.8725 10.6188 26.6729 10.6955C27.0646 10.5077 27.4791 10.6135 27.881 10.6109C31.4195 10.6003 34.9606 10.6056 38.4991 10.6056C38.7114 10.6056 38.9262 10.6029 39.1385 10.6003C39.2877 10.6003 39.3812 10.4918 39.3862 10.3041C39.3913 10.1612 39.3812 10.0422 39.1916 9.99462C38.8782 9.91527 38.5724 9.80419 38.259 9.71956C38.0492 9.66401 37.9759 9.45772 37.9759 9.24085C37.9734 8.63783 37.9708 8.03746 37.9784 7.43445C37.9835 7.18055 38.1048 7.10649 38.3297 7.01657C38.6356 6.89491 38.9641 6.84994 39.2624 6.71506C39.3938 6.65687 39.4343 6.47703 39.3508 6.27867C39.2801 6.11204 39.1941 5.95071 39.1183 5.78409C38.997 5.5249 38.858 5.27629 38.7847 4.99594C38.7316 4.78964 38.8479 4.61773 38.954 4.47491C39.2346 4.09142 39.5354 3.72643 39.8387 3.3588C39.9903 3.17631 40.1546 3.17896 40.3315 3.32707C40.5944 3.54659 40.8623 3.75817 41.1327 3.96182C41.2945 4.08348 41.4032 4.02794 41.4563 3.82958C41.5574 3.45402 41.5953 3.06788 41.6711 2.68703C41.7115 2.48338 41.8 2.31146 41.9188 2.15277C41.9592 2.09723 42.03 2.12104 42.0856 2.12104C42.4824 2.12104 42.8793 2.12104 43.2761 2.12104C43.5086 2.12104 43.7057 2.30617 43.7487 2.5495C43.822 2.96737 43.913 3.37996 43.9686 3.80313C43.9964 4.00678 44.1582 4.08084 44.3174 3.96182C44.5196 3.81107 44.7142 3.64709 44.9088 3.48311C45.0049 3.40112 45.1136 3.34029 45.2147 3.26624C45.3234 3.18689 45.4699 3.17631 45.5685 3.30062C45.8946 3.71321 46.213 4.13373 46.5315 4.55161C46.6882 4.76055 46.7008 4.96685 46.5896 5.22075C46.4279 5.58837 46.2181 5.9322 46.074 6.31305C46.0311 6.42413 46.0285 6.5405 46.0791 6.63572C46.1574 6.78118 46.1625 6.93193 46.1625 7.08533C46.1675 7.36833 46.0867 7.47676 45.8592 7.52172C45.7 7.55346 45.523 7.44503 45.4624 7.2308C45.4194 7.07211 45.379 6.91342 45.3259 6.75738C45.197 6.38181 45.3208 6.06179 45.4902 5.73648C45.5963 5.53283 45.6873 5.3186 45.8011 5.12024C45.8238 5.07793 45.8187 5.0409 45.7985 4.99858C45.6924 4.78435 45.5281 4.61773 45.384 4.4326C45.2501 4.26068 45.1388 4.42466 45.0403 4.49872C44.8128 4.66534 44.6283 4.89279 44.3654 5.00652C44.1784 5.08586 44.0065 5.01974 43.8523 4.90337C43.7411 4.81874 43.587 4.81345 43.4934 4.68914C43.4429 4.62302 43.3645 4.56748 43.357 4.4802C43.3418 4.2501 43.2356 4.03852 43.2331 3.80842C43.2306 3.59155 43.1244 3.40377 43.1093 3.19218C43.1042 3.1049 43.0334 3.09168 42.9652 3.08904C42.8287 3.08904 42.6922 3.09697 42.5557 3.08375C42.3737 3.06523 42.3257 3.17631 42.2929 3.33236C42.217 3.68676 42.1842 4.0491 42.1033 4.40615C42.0629 4.59128 41.9567 4.72352 41.8202 4.78435C41.6382 4.86899 41.4891 5.00387 41.3122 5.08586C41.1327 5.17049 41.0114 4.99329 40.8825 4.90073C40.6677 4.74733 40.4756 4.55955 40.2506 4.41408C40.1268 4.33209 40.0611 4.41408 40.0029 4.49078C39.917 4.60715 39.8412 4.72881 39.7451 4.83725C39.6617 4.93246 39.644 5.04883 39.7098 5.17843C39.8715 5.50638 40.0282 5.83699 40.1773 6.17288C40.2178 6.26544 40.2405 6.37652 40.2102 6.48232C40.1344 6.75209 40.0661 7.02715 39.965 7.28898C39.8538 7.57991 39.5809 7.64339 39.3256 7.67777C39.1385 7.70422 38.997 7.84175 38.81 7.85232C38.7518 7.85497 38.7442 7.91844 38.7442 7.9687C38.7417 8.20937 38.7392 8.45269 38.7367 8.69337C38.7367 8.7542 38.7569 8.8071 38.8201 8.82032C39.0779 8.87322 39.3079 9.01604 39.5707 9.05835C39.7451 9.08745 39.9069 9.21175 39.9777 9.39425C40.0687 9.62434 40.1091 9.87824 40.2127 10.1004C40.3012 10.2882 40.2405 10.4575 40.1748 10.5976C40.0282 10.9097 39.9069 11.235 39.73 11.5286C39.6693 11.6291 39.6567 11.7561 39.7451 11.8354C39.8412 11.9227 39.8943 12.0364 39.9726 12.1343C40.1369 12.3406 40.2228 12.3432 40.4124 12.1607C40.65 11.9306 40.9154 11.7402 41.1909 11.5603C41.2187 11.5418 41.2465 11.5445 41.2743 11.5603C41.4891 11.6926 41.7191 11.7957 41.9289 11.9333C42.0856 12.0364 42.1614 12.248 42.1842 12.4543C42.217 12.7822 42.3005 13.097 42.3611 13.417C42.3813 13.5228 42.4319 13.5677 42.5305 13.5625C42.5431 13.5625 42.5532 13.5625 42.5658 13.5625C43.0865 13.5783 43.0815 13.5783 43.1699 13.0467C43.2179 12.7558 43.2811 12.4675 43.3443 12.1792C43.3696 12.0681 43.4479 11.9756 43.5313 11.9253C43.7462 11.7957 43.9686 11.6741 44.2011 11.5894C44.2719 11.563 44.3958 11.6476 44.4766 11.7084C44.7168 11.8856 44.9493 12.0708 45.1793 12.2586C45.2804 12.3406 45.3512 12.3115 45.4194 12.2215C45.5104 12.1025 45.609 11.9835 45.6924 11.8592C45.7707 11.7428 45.7707 11.6159 45.7025 11.4916C45.5281 11.1716 45.3587 10.8489 45.24 10.5024C45.1869 10.3464 45.1995 10.1692 45.2703 9.99991C45.3309 9.85709 45.4017 9.71427 45.4245 9.55293C45.4649 9.27787 45.6797 9.07951 45.9375 9.04778C46.1827 9.01868 46.4026 8.89173 46.6351 8.81239C46.7211 8.7833 46.7211 8.68808 46.7211 8.60609C46.7211 8.2464 46.7211 7.88671 46.7211 7.52701C46.7211 7.35775 46.764 7.20964 46.8778 7.07475C47.0117 6.91871 47.1659 6.97425 47.3024 7.01921C47.3984 7.05095 47.4768 7.1541 47.4894 7.28105C47.497 7.36833 47.5046 7.45296 47.5046 7.54024C47.5046 8.09829 47.5046 8.65634 47.5046 9.21704C47.5046 9.53971 47.3883 9.6455 47.1078 9.76981C46.8222 9.89411 46.5163 9.93907 46.2333 10.0528C46.0993 10.1057 46.0386 10.2326 46.1145 10.3596C46.2686 10.6241 46.3192 10.9494 46.534 11.1795L46.5366 11.1821Z" fill="#F1792E"/>
<path id="Vector_4" d="M26.6754 10.6928C26.875 10.6188 27.0823 10.6267 27.287 10.6267C31.1263 10.6267 34.9656 10.6267 38.8049 10.6267C38.858 10.6267 38.9111 10.6267 38.9641 10.6267C39.136 10.6399 39.1992 10.7563 39.1006 10.9018C38.9591 11.1107 38.949 11.399 38.7316 11.5603C38.6937 11.5894 38.7695 11.645 38.7139 11.6741C38.6608 11.6714 38.6077 11.6635 38.5547 11.6635C34.7482 11.6635 30.9418 11.6635 27.1354 11.6555C26.87 11.6555 26.6526 11.7402 26.453 11.8856C26.0309 12.1951 25.7958 12.65 25.72 13.1657C25.6618 13.5492 25.6922 13.9459 25.7099 14.3347C25.495 14.385 25.2751 14.3691 25.0578 14.3691C24.9491 14.3691 24.8631 14.3374 24.8556 14.1946C24.8278 13.7053 24.8808 13.2186 24.9693 12.7426C25.0375 12.3882 25.1563 12.0417 25.3737 11.7455C25.3964 11.7111 25.4217 11.6741 25.4445 11.637C25.4773 11.6555 25.4723 11.6185 25.4849 11.6079C25.5102 11.5683 25.5355 11.5259 25.5607 11.4863C25.5607 11.4916 25.5607 11.4942 25.5607 11.4995C25.5633 11.4942 25.5658 11.4889 25.5683 11.4836C25.72 11.2271 25.9247 11.0393 26.1749 10.8885C26.271 10.8304 26.4226 10.8674 26.4706 10.7166C26.5389 10.7061 26.6071 10.6981 26.6754 10.6875V10.6928Z" fill="#3978BD"/>
<path id="Vector_5" d="M44.5979 8.36287C44.6232 9.07432 44.4084 9.70379 43.9635 10.2354C43.7739 10.4628 43.5313 10.6295 43.2432 10.7326C43.0738 10.7908 42.9171 10.8463 42.7377 10.8437C42.2751 10.8358 41.8783 10.648 41.5674 10.3068C40.9709 9.65089 40.7561 8.8548 40.8698 7.96351C40.933 7.4557 41.1074 6.99286 41.4158 6.59085C41.9668 5.86882 42.9121 5.67575 43.6476 6.21C43.9863 6.45597 44.2365 6.80773 44.3982 7.22825C44.5398 7.59852 44.6004 7.97408 44.5979 8.36552V8.36287ZM43.8498 8.23063C43.8649 8.04021 43.7638 7.76515 43.6223 7.5086C43.4631 7.21767 43.228 6.98228 42.9146 6.91352C42.5001 6.8236 42.1614 7.03254 41.9213 7.37107C41.6003 7.82598 41.5396 8.347 41.6913 8.88919C41.7949 9.2621 42.0097 9.55568 42.3408 9.73288C42.677 9.91273 43.2229 9.76726 43.4681 9.45782C43.7234 9.13515 43.8422 8.76488 43.8498 8.23328V8.23063Z" fill="#F1792E"/>
<path id="Vector_6" d="M27.0545 30.1454C27.0545 31.1055 27.0545 32.0682 27.0545 33.0283C27.0545 33.2346 27.0115 33.4144 26.8093 33.5123C26.6425 33.5942 26.3948 33.5017 26.3417 33.3139C26.3063 33.1843 26.2709 33.0547 26.2709 32.9145C26.2709 31.0737 26.2709 29.233 26.2735 27.3895C26.2735 27.2335 26.2987 27.0748 26.4074 26.9426C26.5085 26.8183 26.6298 26.7654 26.7689 26.8183C26.918 26.8764 27.0317 26.9928 27.0469 27.1674C27.062 27.334 27.057 27.5006 27.057 27.6699C27.057 28.4951 27.057 29.3202 27.057 30.1428L27.0545 30.1454Z" fill="#F1792E"/>
<path id="Vector_7" d="M24.5801 30.1745C24.5801 31.1187 24.5801 32.0603 24.5801 33.0045C24.5801 33.1103 24.5876 33.2161 24.5346 33.3139C24.4436 33.4805 24.3046 33.5334 24.1276 33.4938C23.976 33.4567 23.8623 33.2928 23.8471 33.0706C23.837 32.9225 23.837 32.7744 23.837 32.6236C23.837 30.9548 23.837 29.2859 23.837 27.617C23.837 27.4874 23.8446 27.3578 23.8572 27.2282C23.8749 27.0299 24.0265 26.8685 24.2085 26.8421C24.3172 26.8262 24.5396 26.9981 24.5624 27.1277C24.5775 27.2124 24.5801 27.2996 24.5801 27.3869C24.5801 28.3179 24.5801 29.2489 24.5801 30.1798V30.1745Z" fill="#F1792E"/>
<path id="Vector_8" d="M26.4681 10.7219C26.4226 10.87 26.2709 10.8356 26.1724 10.8938C25.9196 11.0446 25.7149 11.2324 25.5657 11.4889C25.5632 11.4942 25.5607 11.4995 25.5582 11.5048C25.5582 11.4995 25.5582 11.4969 25.5582 11.4916C25.7604 11.1583 26.0536 10.9414 26.3771 10.7616C26.4074 10.7457 26.4403 10.7351 26.4706 10.7219H26.4681Z" fill="#F1792E"/>
<path id="Vector_9" d="M25.4798 11.6133C25.4672 11.6239 25.4722 11.6609 25.4394 11.6424C25.4571 11.6371 25.4444 11.5895 25.4798 11.6133Z" fill="#F1792E"/>
<path id="Vector_10" d="M25.7073 14.3428C25.6896 13.9514 25.6593 13.5547 25.7174 13.1738C25.7958 12.6554 26.0283 12.2032 26.4504 11.8937C26.6501 11.7483 26.8675 11.661 27.1328 11.6636C30.9393 11.6716 34.7457 11.6689 38.5521 11.6716C38.6052 11.6716 38.6583 11.6795 38.7114 11.6821C38.7468 11.6689 38.7771 11.6874 38.7746 11.7218C38.7594 12.0498 38.9641 12.2561 39.1436 12.4809C39.3584 12.748 39.5657 13.0231 39.7729 13.2981C39.9094 13.4806 40.2355 13.5256 40.3997 13.3695C40.6323 13.1474 40.8901 12.9569 41.1378 12.7533C41.2743 12.6422 41.4183 12.7242 41.4613 12.9067C41.5776 13.396 41.618 13.9038 41.7697 14.3851C41.7975 14.4777 41.8379 14.5121 41.9213 14.5332C42.1083 14.5835 42.2979 14.557 42.4875 14.5597C42.7781 14.565 43.0688 14.557 43.3595 14.5623C43.5996 14.5676 43.7083 14.4327 43.7538 14.1868C43.8296 13.7689 43.8978 13.351 43.9787 12.9358C44.0242 12.7057 44.1834 12.6396 44.3553 12.7877C44.5954 12.9913 44.8532 13.1712 45.0832 13.388C45.3082 13.5996 45.4851 13.552 45.6747 13.3008C45.9148 12.9834 46.1397 12.6528 46.4203 12.3566C46.4683 12.4095 46.4911 12.4782 46.5062 12.5549C46.5467 12.6078 46.5745 12.6687 46.5795 12.7374C46.577 12.7401 46.5745 12.7454 46.5719 12.748C46.5745 12.7454 46.5795 12.7427 46.582 12.7374C46.7135 13.0178 46.7438 13.3246 46.7438 13.6234C46.7514 17.6065 46.7489 21.5896 46.7489 25.5726C46.7489 25.8213 46.7135 25.8583 46.4683 25.8583C45.5963 25.8583 44.7268 25.8583 43.8549 25.8583C43.5718 25.8583 43.4985 25.9244 43.3974 26.2629C43.3418 26.4507 43.4403 26.6914 43.5819 26.8157C43.688 26.9083 43.7967 26.9215 43.9206 26.9215C44.7799 26.9215 45.6393 26.9215 46.4986 26.9215C46.7438 26.9215 46.7489 26.9294 46.7489 27.1807C46.7489 27.6277 46.7438 28.0746 46.7489 28.5216C46.759 29.2225 46.5997 29.8625 46.1043 30.3624C45.9173 30.5528 45.6721 30.6798 45.4017 30.6956C45.154 30.7115 44.9038 30.7036 44.6561 30.7036C39.826 30.7036 34.9934 30.7036 30.1633 30.7036C30.0521 30.7036 29.9384 30.7141 29.8272 30.7194C29.6629 30.7538 29.678 30.6348 29.678 30.529C29.678 29.442 29.678 28.355 29.678 27.268C29.678 27.1516 29.6528 27.0326 29.6983 26.9189C29.8196 26.8395 29.9561 26.8448 30.0926 26.8448C32.0665 26.8448 34.0405 26.8448 36.012 26.8448C37.8192 26.8448 39.6263 26.8448 41.4335 26.8448C41.6281 26.8448 41.8025 26.7866 41.8632 26.5909C41.9188 26.4084 41.9289 26.21 41.7924 26.0302C41.6686 25.8662 41.5119 25.8742 41.3501 25.8742C37.6523 25.8742 33.9546 25.8742 30.2568 25.8742C30.0723 25.8742 29.8904 25.8715 29.7059 25.8689C29.6654 25.8001 29.6755 25.726 29.6755 25.652C29.6755 22.5258 29.6705 19.4023 29.6806 16.2762C29.6806 15.7287 29.5239 15.2553 29.2004 14.8453C28.9754 14.5597 28.6797 14.3772 28.3056 14.3772C27.4993 14.3772 26.6931 14.3772 25.8893 14.3772C25.8261 14.3772 25.7579 14.401 25.7048 14.3455L25.7073 14.3428ZM38.5193 21.2458C38.5193 21.534 38.6254 21.7139 38.8201 21.7774C39.0273 21.8461 39.1512 21.6927 39.2548 21.5631C39.6946 21.0051 40.1192 20.4338 40.5514 19.8705C40.7561 19.606 40.741 19.2542 40.5337 18.9897C40.1445 18.4978 39.7679 17.9953 39.3812 17.4981C39.275 17.3605 39.1739 17.2098 39.0425 17.1013C38.9414 17.0141 38.7923 17.0167 38.6709 17.0934C38.5446 17.1754 38.4359 17.506 38.4687 17.6488C38.5344 17.9371 38.7493 18.1222 38.911 18.3444C39.1259 18.6406 39.3635 18.9157 39.5783 19.2093C39.7502 19.4446 39.735 19.487 39.5556 19.7144C39.2371 20.1164 38.9237 20.5237 38.6128 20.931C38.542 21.0236 38.5041 21.1373 38.5193 21.2405V21.2458ZM33.9243 21.2775C33.9571 21.1373 33.899 21.0157 33.8232 20.9178C33.5098 20.4999 33.1862 20.09 32.8602 19.6853C32.6782 19.4579 32.658 19.4023 32.7995 19.2145C33.1054 18.8125 33.4112 18.4105 33.7271 18.0164C33.9066 17.7916 33.9319 17.5457 33.8383 17.2891C33.7398 17.0167 33.4289 16.9718 33.2494 17.1992C32.7717 17.8075 32.2991 18.4185 31.8264 19.0294C31.6925 19.2013 31.6798 19.5557 31.7986 19.7118C32.2713 20.3359 32.7464 20.9601 33.2216 21.5816C33.3834 21.7932 33.5426 21.8567 33.6715 21.7562C33.8181 21.6398 33.9521 21.5023 33.9217 21.2775H33.9243ZM35.092 21.3145C35.097 21.3753 35.0996 21.4388 35.1122 21.4997C35.1425 21.6663 35.3245 21.8435 35.4762 21.8541C35.6506 21.8673 35.7567 21.7403 35.8174 21.6054C35.9716 21.251 36.1055 20.8861 36.2369 20.5237C36.4189 20.0186 36.6237 19.524 36.7879 19.0135C36.9219 18.5957 37.119 18.1989 37.2656 17.7837C37.3718 17.4848 37.3339 17.2177 37.0306 16.9956C36.9623 16.9453 36.8789 16.9321 36.836 16.9718C36.7298 17.0723 36.6085 17.1569 36.5554 17.3129C36.4543 17.6065 36.3431 17.8948 36.2268 18.1804C36.0524 18.6062 35.9033 19.0453 35.739 19.4737C35.5671 19.9207 35.4054 20.373 35.2386 20.8226C35.1804 20.9813 35.0768 21.1267 35.097 21.3119L35.092 21.3145Z" fill="#272C34"/>
<path id="Vector_11" d="M25.452 18.8972C26.5363 18.8972 27.6206 18.8998 28.7049 18.8945C28.8819 18.8945 28.94 18.9448 28.9375 19.1352C28.9274 20.0715 28.9299 21.0077 28.9375 21.9466C28.9375 22.1397 28.9324 22.2878 28.6923 22.2825C28.6316 22.2825 28.5634 22.2957 28.5002 22.2957C26.4428 22.2957 24.3854 22.2957 22.3306 22.2957C22.2901 22.2957 22.2471 22.301 22.2067 22.2957C21.9716 22.2561 21.9565 22.2402 21.9565 21.9863C21.9565 21.0421 21.9565 20.1006 21.9565 19.1564C21.9565 18.9236 21.9818 18.8972 22.2016 18.8972C23.286 18.8972 24.3703 18.8972 25.4546 18.8972H25.452ZM27.3755 21.0633C27.4462 21.0553 27.5347 21.0791 27.5954 20.9971C27.6863 20.8728 27.7394 20.7247 27.7495 20.5713C27.7672 20.2883 27.56 20.0662 27.3199 20.0847C27.148 20.0979 27.0873 20.2381 27.0241 20.3677C26.8877 20.6533 27.0924 21.0606 27.3755 21.0606V21.0633ZM25.8135 20.5687C25.8109 20.5131 25.8185 20.4603 25.8034 20.4153C25.7654 20.2857 25.7149 20.1535 25.5784 20.1085C25.4672 20.0715 25.3383 20.0556 25.2397 20.1429C25.083 20.2804 25.0224 20.6137 25.1083 20.8094C25.2043 21.0289 25.3206 21.1003 25.5405 21.0633C25.7275 21.0315 25.7654 20.8702 25.8008 20.7115C25.8109 20.6639 25.8109 20.6137 25.8135 20.5713V20.5687ZM23.1722 20.5819C23.1722 20.8887 23.2935 21.1029 23.5943 21.0659C23.8142 21.0395 23.8243 20.857 23.8774 20.7142C23.9583 20.4999 23.8294 20.172 23.66 20.1111C23.3744 20.008 23.1697 20.2064 23.1697 20.5819H23.1722Z" fill="#272C34"/>
<path id="Vector_12" d="M25.4571 17.937C24.3728 17.937 23.2885 17.937 22.2017 17.937C21.9616 17.937 21.954 17.929 21.954 17.6725C21.954 17.2308 21.954 16.7918 21.954 16.3501C21.954 16.1015 22.0197 15.874 22.1511 15.6704C22.2851 15.4641 22.4595 15.3345 22.7223 15.3345C24.5649 15.3398 26.41 15.3371 28.2525 15.3371C28.4472 15.3371 28.753 15.5751 28.8288 15.7867C28.9046 15.9957 28.9476 16.2099 28.9425 16.4374C28.9299 16.8658 28.935 17.2943 28.9425 17.7227C28.9425 17.8814 28.892 17.9396 28.7353 17.9396C27.6434 17.9343 26.554 17.937 25.4622 17.937H25.4571Z" fill="#272C34"/>
<path id="Vector_13" d="M29.7083 25.8689C29.8929 25.8689 30.0748 25.8742 30.2593 25.8742C33.9571 25.8742 37.6548 25.8742 41.3526 25.8742C41.5118 25.8742 41.6711 25.8663 41.7949 26.0302C41.9314 26.2127 41.9213 26.4084 41.8657 26.5909C41.805 26.7866 41.6306 26.8448 41.436 26.8448C39.6288 26.8448 37.8217 26.8448 36.0145 26.8448C34.0405 26.8448 32.0665 26.8448 30.0951 26.8448C29.9586 26.8448 29.8246 26.8395 29.7008 26.9189C29.5592 26.6174 29.6224 26.3026 29.6401 25.9906C29.6426 25.9403 29.6603 25.8927 29.7083 25.8689Z" fill="#3978BD"/>
<path id="Vector_14" d="M36.2192 35.4191C35.691 35.4191 35.1653 35.4191 34.637 35.4191C34.4146 35.4191 34.3994 35.4059 34.3994 35.1811C34.3994 34.1205 34.3994 33.06 34.3969 31.9994C34.3969 31.8566 34.4399 31.801 34.5789 31.801C35.6632 31.8037 36.7475 31.8037 37.8318 31.801C37.9632 31.801 38.0062 31.8513 38.0062 31.9862C38.0011 33.06 38.0011 34.1311 38.0062 35.2049C38.0062 35.3609 37.9582 35.4244 37.8015 35.4218C37.2732 35.4138 36.7475 35.4191 36.2192 35.4191Z" fill="#272C34"/>
<path id="Vector_15" d="M46.5822 12.7322C46.5822 12.7322 46.5764 12.7375 46.5745 12.7428C46.5764 12.7401 46.5784 12.7348 46.5803 12.7322H46.5822Z" fill="#F1792E"/>
<path id="Vector_16" d="M43.8498 8.23056C43.8422 8.76481 43.7234 9.13508 43.4681 9.4551C43.223 9.76454 42.6796 9.91001 42.3409 9.73016C42.0098 9.55296 41.7949 9.25939 41.6913 8.88647C41.5396 8.34428 41.6003 7.82326 41.9213 7.36835C42.1614 7.02982 42.5001 6.82088 42.9146 6.9108C43.228 6.97957 43.4631 7.21495 43.6223 7.50588C43.7639 7.76507 43.865 8.04013 43.8498 8.22791V8.23056Z" fill="#272C34"/>
<path id="Vector_17" d="M38.5192 21.2456C38.5066 21.1425 38.542 21.0287 38.6128 20.9362C38.9237 20.5289 39.2371 20.1216 39.5555 19.7196C39.735 19.4921 39.7527 19.4471 39.5783 19.2144C39.3609 18.9208 39.1259 18.6431 38.911 18.3495C38.7493 18.1274 38.5344 17.9422 38.4687 17.654C38.4358 17.5111 38.5445 17.1805 38.6709 17.0986C38.7922 17.0219 38.9388 17.0192 39.0424 17.1065C39.1713 17.2176 39.2724 17.3657 39.3811 17.5032C39.7653 18.0004 40.1444 18.5029 40.5337 18.9949C40.7435 19.2594 40.7561 19.6085 40.5514 19.8756C40.1192 20.4389 39.6945 21.0102 39.2548 21.5683C39.1511 21.7005 39.0273 21.8513 38.82 21.7825C38.6254 21.7164 38.5218 21.5392 38.5192 21.2509V21.2456Z" fill="#F1792E"/>
<path id="Vector_18" d="M33.9243 21.2774C33.9546 21.5022 33.8206 21.6397 33.674 21.7561C33.5451 21.8566 33.3884 21.7931 33.2241 21.5815C32.7464 20.96 32.2738 20.3358 31.8012 19.7117C31.6824 19.5556 31.695 19.2012 31.829 19.0293C32.3016 18.4184 32.7742 17.8074 33.2519 17.1991C33.4314 16.9717 33.7423 17.0166 33.8409 17.289C33.9318 17.5456 33.9091 17.7915 33.7296 18.0164C33.4137 18.4104 33.1053 18.8124 32.802 19.2145C32.6605 19.4022 32.6782 19.4578 32.8627 19.6852C33.1888 20.0925 33.5123 20.5025 33.8257 20.9177C33.899 21.0156 33.9596 21.1399 33.9268 21.2774H33.9243Z" fill="#F1792E"/>
<path id="Vector_19" d="M35.092 21.3144C35.0717 21.1293 35.1754 20.9812 35.2335 20.8252C35.4003 20.3755 35.5646 19.9233 35.734 19.4763C35.8982 19.0452 36.0474 18.6088 36.2218 18.183C36.338 17.8974 36.4492 17.6091 36.5503 17.3155C36.6059 17.1568 36.7247 17.0722 36.8309 16.9743C36.8739 16.932 36.9598 16.9479 37.0255 16.9981C37.3288 17.2203 37.3642 17.4848 37.2606 17.7863C37.114 18.2015 36.9168 18.5982 36.7829 19.0161C36.6186 19.5292 36.4139 20.0211 36.2319 20.5263C36.1004 20.8913 35.9665 21.2536 35.8123 21.608C35.7542 21.7429 35.6455 21.8699 35.4711 21.8566C35.3194 21.8461 35.1375 21.6689 35.1071 21.5022C35.097 21.4414 35.0945 21.3806 35.0869 21.3171L35.092 21.3144Z" fill="#F1792E"/>
<path id="Vector_20" d="M27.3755 21.0632C27.0924 21.0632 26.8902 20.6559 27.0241 20.3703C27.0848 20.2407 27.1455 20.1031 27.3199 20.0873C27.56 20.0688 27.7672 20.2883 27.7495 20.5739C27.7394 20.7273 27.6889 20.8728 27.5954 20.9997C27.5347 21.0817 27.4462 21.0579 27.3755 21.0659V21.0632Z" fill="#F1792E"/>
<path id="Vector_21" d="M25.8135 20.5687C25.8084 20.611 25.811 20.6613 25.8009 20.7089C25.7655 20.8649 25.7276 21.0289 25.5405 21.0606C25.3206 21.0977 25.2044 21.0262 25.1083 20.8067C25.0224 20.611 25.083 20.2778 25.2397 20.1402C25.3408 20.053 25.4672 20.0688 25.5784 20.1059C25.7124 20.1508 25.7655 20.2831 25.8034 20.4127C25.816 20.4576 25.811 20.5105 25.8135 20.5661V20.5687Z" fill="#F1792E"/>
<path id="Vector_22" d="M23.1722 20.5819C23.1722 20.2063 23.377 20.008 23.6626 20.1111C23.8294 20.1719 23.9583 20.4999 23.8799 20.7141C23.8269 20.8569 23.8168 21.0394 23.5969 21.0659C23.2961 21.1029 23.1748 20.8887 23.1748 20.5819H23.1722Z" fill="#F1792E"/>
</g>
<defs>
<clipPath id="clip0_438_1295">
<rect width="65" height="40" fill="white"/>
</clipPath>
</defs>
</svg>
