<svg width="40" height="25" viewBox="0 0 40 25" fill="none" xmlns="http://www.w3.org/2000/svg">
<g id="devlopment icon">
<path id="Vector" d="M30.2927 21.8827C30.2364 21.3573 30.3941 20.778 30.7094 20.3064C32.0944 18.2316 33.4907 16.1568 34.9094 14.1089C35.7089 12.9502 35.7877 12.7212 35.0108 11.5356C34.0424 10.0401 32.9952 8.6254 32.0381 7.12991C31.3174 5.99818 30.3603 5.05508 30.0675 3.58654C29.9211 2.859 30.4053 1.17489 30.9684 0.757229C31.5088 0.366515 32.1619 0.353041 32.6236 0.797646C33.1979 1.36351 33.6483 2.11799 34.1325 2.81858C35.844 5.35149 37.5331 7.91134 39.2672 10.4173C40.2018 11.7646 40.2581 13.543 39.346 14.9038C37.4205 17.7735 35.5288 20.6837 33.5695 23.5264C33.1078 24.2001 32.556 24.968 31.6327 24.6177C30.7657 24.2809 30.304 23.3782 30.2927 21.9097V21.8827Z" fill="#F1792E"/>
<path id="Vector_2" d="M9.82165 22.0443C9.95677 23.1895 9.35997 23.89 8.70687 24.4829C8.1326 24.9948 7.43447 24.6715 6.70255 23.5936C4.57436 20.4275 2.4687 17.2479 0.363028 14.0683C-0.166205 13.2734 -0.109903 11.468 0.486891 10.5923C2.59256 7.48005 4.69822 4.36781 6.82641 1.26904C7.62589 0.110373 9.01091 0.339417 9.45006 1.72713C9.85542 3.034 9.75408 4.28698 8.9546 5.43217C7.54707 7.43964 6.17332 9.48752 4.82209 11.5354C4.19151 12.492 4.27034 12.7749 5.09234 13.9336C6.54491 16.0084 7.98622 18.0967 9.3825 20.2119C9.70904 20.7104 9.97928 21.3437 9.8329 22.0443H9.82165Z" fill="#F1792E"/>
<path id="Vector_3" d="M15.0238 22.2332C14.9337 21.2901 15.3954 20.5356 15.6544 19.7407C16.3975 17.4503 17.1295 15.1465 17.8839 12.8695C18.6158 10.6735 19.2802 8.45044 20.0571 6.2813C20.5751 4.82622 21.0706 3.35768 21.521 1.86219C21.7687 1.05381 22.2979 0.622679 22.7709 0.124182C22.9623 -0.0913844 23.3451 -0.0105519 23.6379 0.245433C24.9891 1.37716 25.1468 2.72445 24.6851 4.26036C24.032 6.37561 23.1537 8.39655 22.5569 10.5253C21.825 13.139 20.9129 15.645 20.1022 18.2183C19.5166 20.0776 18.9198 21.9233 18.233 23.7287C17.974 24.4158 17.4898 25.0625 16.7128 24.9952C16.0372 24.9413 15.2265 24.0386 15.0913 23.1898C15.0463 22.8799 15.0351 22.57 15.0013 22.2467L15.0238 22.2332Z" fill="#F1792E"/>
</g>
</svg>
