<svg width="50" height="30" viewBox="0 0 50 30" fill="none" xmlns="http://www.w3.org/2000/svg">
<g id="ds&#38;ai icon" clip-path="url(#clip0_438_1089)">
<path id="Vector" d="M25.8474 16.9789C25.8474 13.9231 25.8474 10.8673 25.8474 7.81145C25.8474 7.7267 25.7988 7.5946 25.9319 7.57466C26.0566 7.55721 26.1031 7.65691 26.1264 7.78154C26.1475 7.88872 26.1623 7.9959 26.1623 8.10806C26.1602 8.57167 26.1623 9.03279 26.1602 9.4964C26.1602 9.61853 26.1919 9.67586 26.3018 9.68084C26.6526 9.70078 27.0013 9.70327 27.35 9.65342C27.8571 9.58363 28.2798 9.33687 28.5059 8.76858C28.5989 8.53428 28.6538 8.27506 28.6602 8.00836C28.6623 7.89121 28.5799 7.84635 28.5123 7.81145C28.0558 7.57466 27.8254 6.77207 28.1192 6.21125C28.3812 5.71275 28.7447 5.5283 29.2139 5.60557C29.4675 5.64794 29.6703 5.82989 29.814 6.07167C29.9472 6.2935 30.0486 6.54276 30.0169 6.83438C29.9725 7.24066 29.85 7.59211 29.5224 7.79151C29.366 7.88623 29.2667 7.9959 29.2773 8.2277C29.2899 8.49191 29.1927 8.73368 29.1166 8.98044C29.0004 9.36678 28.7933 9.6609 28.5334 9.91763C28.3115 10.137 28.0431 10.2367 27.7726 10.3314C27.314 10.4909 26.847 10.4286 26.3821 10.4361C26.1475 10.4411 26.1475 10.4361 26.1454 10.7103C26.1454 11.3259 26.1454 11.9441 26.1454 12.5597C26.1454 12.6145 26.1454 12.6694 26.1496 12.7242C26.1665 12.956 26.1686 12.9585 26.3673 12.9585C26.9463 12.9535 27.5275 12.976 28.1044 12.9286C28.4932 12.8987 28.8863 12.8862 29.273 12.8214C29.5562 12.7741 29.8436 12.7142 30.1162 12.6096C30.5114 12.46 30.9045 12.283 31.1813 11.8892C31.3419 11.6599 31.492 11.4231 31.5406 11.1116C31.5659 10.952 31.6209 10.8 31.6188 10.6305C31.6188 10.5433 31.5892 10.4784 31.5258 10.4436C31.1306 10.2242 30.97 9.85033 30.9594 9.34186C30.9489 8.81594 31.287 8.41713 31.6145 8.2601C32.0351 8.05821 32.5655 8.28004 32.8149 8.72621C33.1488 9.32192 32.9649 10.0123 32.5211 10.3987C32.5 10.4161 32.4683 10.4186 32.4429 10.4336C32.3415 10.4934 32.276 10.5632 32.2612 10.7252C32.1978 11.4879 31.9505 12.1459 31.4391 12.6494C31.1179 12.966 30.7502 13.1579 30.355 13.3075C30.0254 13.4321 29.6893 13.4794 29.3512 13.5443C28.3622 13.7362 27.3647 13.7287 26.3694 13.7262C26.1496 13.7262 26.1454 13.7262 26.1454 13.9804C26.1454 14.6808 26.1454 15.3787 26.1454 16.0791C26.1454 16.2786 26.194 16.3384 26.3588 16.3384C27.1429 16.3359 27.9269 16.3483 28.7109 16.3857C29.0533 16.4032 29.3914 16.4879 29.7295 16.5527C29.945 16.5951 30.1564 16.6624 30.3677 16.7197C30.5241 16.7621 30.672 16.8518 30.8178 16.9316C31.0693 17.0712 31.3123 17.2332 31.5194 17.455C31.7751 17.7242 31.9675 18.0482 32.09 18.4271C32.1851 18.7262 32.2675 19.0278 32.2718 19.3518C32.2718 19.454 32.3246 19.5138 32.407 19.5587C32.8297 19.8005 33.0896 20.3314 32.9776 20.8748C32.8487 21.5054 32.4598 21.9092 31.866 21.8518C31.4983 21.8169 31.213 21.5752 31.0545 21.1739C30.784 20.4834 31.0503 19.8404 31.5321 19.5662C31.6019 19.5263 31.6145 19.4665 31.6103 19.3917C31.5765 18.958 31.4645 18.5567 31.2236 18.2177C30.9341 17.8115 30.5452 17.6071 30.1247 17.4575C29.2899 17.1584 28.4256 17.141 27.5655 17.1061C27.1703 17.0886 26.773 17.0836 26.3757 17.0786C26.2003 17.0762 26.1729 17.1135 26.1729 17.3204C26.1729 18.0258 26.1729 18.7287 26.1729 19.4341C26.1729 19.6534 26.1792 19.6559 26.3631 19.6559C26.7646 19.6559 27.1682 19.6235 27.5634 19.7157C28.003 19.8204 28.4066 19.9949 28.7341 20.4037C29.0913 20.8498 29.2582 21.3658 29.3005 21.9515C29.3132 22.1285 29.385 22.2157 29.5034 22.293C30.0127 22.627 30.1796 23.3224 29.9091 23.9082C29.7147 24.3294 29.3977 24.5438 28.9687 24.5388C28.3516 24.5338 27.8888 23.8234 27.9818 23.1903C28.0368 22.809 28.1868 22.4849 28.4932 22.2955C28.6052 22.2257 28.6602 22.141 28.639 21.9814C28.544 21.2362 28.2333 20.6803 27.5317 20.5133C27.1238 20.4161 26.7139 20.451 26.306 20.4411C26.2215 20.4411 26.1877 20.4909 26.1813 20.5806C26.1771 20.6729 26.1729 20.7676 26.1729 20.8623C26.1729 22.3379 26.175 23.8134 26.1729 25.289C26.1729 25.4809 26.2067 25.633 26.3292 25.7726C26.4687 25.9321 26.5258 26.1639 26.6441 26.3483C26.94 26.802 27.3035 27.1385 27.7409 27.3852C28.2354 27.6644 28.7532 27.789 29.2963 27.7766C29.7654 27.7641 30.2134 27.6395 30.6424 27.4077C30.9848 27.2207 31.2954 26.9814 31.5532 26.6624C31.7857 26.3733 31.9675 26.0418 32.0985 25.6629C32.2549 25.2093 32.2866 24.7506 32.2337 24.2771C32.2084 24.0577 32.3415 23.8633 32.5338 23.8458C32.948 23.8085 33.3326 23.6614 33.7024 23.4421C33.8356 23.3623 33.9835 23.3498 34.104 23.4421C34.2202 23.5343 34.2646 23.6913 34.235 23.8658C34.2075 24.0203 34.1019 24.0901 34.0046 24.1599C33.7299 24.3568 33.4256 24.4715 33.1086 24.5263C32.9776 24.5487 32.9269 24.6185 32.9248 24.7756C32.9163 25.2342 32.8254 25.6679 32.6733 26.0966C32.4535 26.7172 32.0731 27.1684 31.6653 27.6071C31.3673 27.9286 31.0059 28.0856 30.6467 28.2601C30.4227 28.3698 30.1881 28.4246 29.9514 28.4919C29.4886 28.6215 29.0342 28.5717 28.5714 28.4894C28.2713 28.4371 27.9839 28.3399 27.7029 28.2227C27.5317 28.1504 27.369 28.0433 27.2084 27.9336C26.8533 27.6918 26.5258 27.4102 26.2574 27.0388C26.0989 26.8219 25.9573 26.5926 25.8601 26.3309C25.8305 26.2486 25.8453 26.1564 25.8453 26.0692C25.8453 23.0358 25.8453 20.0024 25.8453 16.969L25.8474 16.9789ZM29.0004 23.7586C29.2033 23.7586 29.3766 23.5742 29.3766 23.3573C29.3766 23.1255 29.2033 22.9236 28.992 22.9087C28.8419 22.8987 28.639 23.1454 28.6369 23.3399C28.6369 23.5667 28.8018 23.7586 29.0004 23.7586ZM29.0279 6.36579C28.8102 6.34585 28.6496 6.56519 28.6412 6.79699C28.6348 6.9964 28.8229 7.20327 29.0068 7.20577C29.1885 7.20826 29.3702 7.01634 29.3766 6.81693C29.3829 6.57516 29.2244 6.37077 29.0258 6.36329L29.0279 6.36579ZM31.9822 20.2342C31.773 20.2342 31.6209 20.4186 31.6209 20.6704C31.6209 20.8947 31.7963 21.0941 31.9886 21.0891C32.1703 21.0841 32.3246 20.8797 32.3225 20.6479C32.3225 20.4236 32.164 20.2342 31.9822 20.2342ZM31.9675 9.7955C32.2189 9.82042 32.3246 9.58862 32.3394 9.38672C32.35 9.23468 32.2062 8.96549 31.9949 8.97297C31.7836 8.97795 31.6293 9.13249 31.623 9.36429C31.6145 9.6285 31.7434 9.78802 31.9675 9.7955Z" fill="#F17528"/>
<path id="Vector_2" d="M25.7671 2.60468C25.8178 2.68195 25.8707 2.68943 25.915 2.60468C26.1623 2.13609 26.4941 1.77218 26.8893 1.48554C27.1281 1.31106 27.3859 1.19641 27.6479 1.07677C28.2333 0.805082 28.8335 0.844962 29.4357 0.909768C29.6703 0.934693 29.8964 1.05683 30.1205 1.15403C30.4987 1.31854 30.8263 1.57527 31.1327 1.87188C31.3609 2.09372 31.5427 2.37039 31.7075 2.6645C31.8914 2.99352 31.9822 3.36241 32.0731 3.7338C32.0964 3.8335 32.1281 3.88584 32.2232 3.88085C32.574 3.87088 32.9142 3.97806 33.2439 4.09023C33.4996 4.17746 33.7384 4.34696 33.9582 4.5314C34.273 4.79561 34.533 5.11715 34.738 5.50598C34.8521 5.72532 34.9134 5.9646 34.9873 6.20139C35.093 6.55035 35.0592 6.90428 35.0634 7.25822C35.0634 7.42024 34.981 7.54735 34.9704 7.70189C34.9598 7.83649 34.9873 7.88385 35.1099 7.91625C35.3825 7.98853 35.6467 8.11316 35.8855 8.28763C36.1982 8.51695 36.492 8.77617 36.7054 9.14506C36.9188 9.51395 37.0668 9.90279 37.1471 10.3465C37.2189 10.7478 37.1936 11.1316 37.1175 11.5105C37.0668 11.7647 36.9822 12.0164 36.8533 12.2408C36.6843 12.5349 36.6864 12.5798 36.8914 12.844C37.1365 13.163 37.2781 13.5469 37.4218 13.9382C37.6331 14.5115 37.5972 15.1047 37.574 15.6979C37.5655 15.9073 37.4915 16.1166 37.4324 16.321C37.3542 16.5977 37.2506 16.8544 37.1154 17.0937C36.8554 17.5548 36.5385 17.9536 36.1327 18.2478C35.9129 18.4073 35.7016 18.5842 35.4565 18.6889C35.3952 18.7139 35.3994 18.7637 35.4248 18.821C35.4987 18.9905 35.5748 19.1575 35.6424 19.3295C35.727 19.5464 35.7756 19.7757 35.8347 20.0025C35.9256 20.3689 35.9024 20.7303 35.8981 21.0942C35.8939 21.4806 35.7946 21.842 35.6614 22.1959C35.6002 22.3604 35.5347 22.5174 35.4586 22.672C35.3466 22.8988 35.1289 22.9786 34.9345 22.8514C34.7866 22.7542 34.7295 22.4377 34.833 22.2483C35.1585 21.655 35.243 21.002 35.1669 20.3165C35.1374 20.0548 35.0444 19.8081 34.9408 19.5688C34.8119 19.2697 34.6407 19.0105 34.4527 18.7612C34.2942 18.5469 34.3935 18.2203 34.6175 18.1181C34.8542 18.011 35.1035 17.9536 35.3318 17.8165C35.5537 17.682 35.765 17.5324 35.9594 17.3455C36.1834 17.1286 36.3842 16.8868 36.5279 16.5952C36.6209 16.4083 36.6948 16.2039 36.7625 15.9945C36.8935 15.5907 36.8576 15.1844 36.8597 14.7757C36.8597 14.5314 36.7519 14.327 36.6969 14.1052C36.6166 13.7737 36.4095 13.5394 36.2616 13.2602C36.2151 13.1705 36.1369 13.1381 36.0693 13.1979C35.9193 13.33 35.7439 13.4247 35.5748 13.4721C35.3677 13.5294 35.15 13.6839 34.9239 13.5194C34.8394 13.4596 34.7063 13.2203 34.7337 13.1256C34.7866 12.9437 34.869 12.7792 35.0127 12.7542C35.4649 12.6745 35.839 12.4377 36.1137 11.9915C36.3398 11.6226 36.4793 11.2238 36.4666 10.7677C36.4497 10.2019 36.2363 9.7333 35.8939 9.34945C35.7037 9.13509 35.4755 8.99053 35.2282 8.86839C34.9472 8.72881 34.6619 8.66151 34.366 8.65653C34.0744 8.65154 33.9117 8.24775 34.0828 7.94367C34.3618 7.44267 34.4125 6.90678 34.2603 6.3335C34.1209 5.80508 33.825 5.43868 33.4383 5.15453C33.1614 4.95015 32.8571 4.83798 32.5359 4.77318C32.4218 4.75074 32.3077 4.72831 32.1915 4.72582C32.1259 4.72582 32.0879 4.75324 32.0689 4.82801C32.0097 5.06231 31.9653 5.30159 31.8829 5.52343C31.7878 5.78016 31.6906 6.04686 31.4856 6.21635C31.2764 6.39082 30.9615 6.21635 30.9467 5.91724C30.9404 5.79013 30.9615 5.67049 31.0334 5.55084C31.3292 5.05982 31.418 4.51146 31.344 3.91575C31.2637 3.2652 30.9383 2.80658 30.5283 2.4003C30.2895 2.16351 30.019 1.98404 29.7295 1.87936C29.3449 1.73729 28.9476 1.66749 28.5355 1.72233C28.3136 1.75224 28.0917 1.77717 27.8804 1.86191C27.6458 1.95413 27.4218 2.08375 27.2105 2.23828C26.8449 2.50498 26.5849 2.88135 26.38 3.31754C26.3778 3.32253 26.3757 3.32751 26.3715 3.33001C26.1496 3.48454 26.194 3.73878 26.194 3.97806C26.194 4.64357 26.194 5.30907 26.194 5.97707C26.194 6.1989 26.0841 6.37088 25.915 6.46062C25.8411 6.5005 25.8453 6.41824 25.8115 6.39581C25.8369 6.36341 25.8326 6.32602 25.8326 6.28614C25.8326 5.13958 25.8326 3.99302 25.8326 2.84646C25.8326 2.75423 25.8136 2.67447 25.7608 2.60468H25.7671Z" fill="#F17528"/>
<path id="Vector_3" d="M15.1986 10.8674C15.2092 11.3883 15.4163 11.852 15.7291 12.2632C15.8981 12.4851 15.9024 12.6695 15.7164 12.8739C15.4755 13.1406 15.262 13.4347 15.0972 13.7737C14.9155 14.1426 14.8183 14.5439 14.7866 14.9701C14.7549 15.4113 14.8352 15.8225 14.9789 16.2263C15.1522 16.7149 15.4311 17.1037 15.7777 17.4252C16.0841 17.7094 16.4286 17.9188 16.8111 18.0284C16.9104 18.0558 17.0076 18.0957 17.1006 18.1431C17.2781 18.2353 17.3394 18.5892 17.2041 18.7662C17.0245 19.003 16.8491 19.2498 16.7265 19.5314C16.6082 19.8056 16.5152 20.1022 16.4941 20.4163C16.4835 20.5583 16.4793 20.7004 16.4645 20.8425C16.4391 21.0768 16.268 21.2413 16.0778 21.2238C15.9024 21.2089 15.7544 21.012 15.7544 20.7852C15.7544 20.1321 15.8876 19.5214 16.1919 18.9681C16.2785 18.8086 16.2405 18.684 16.0714 18.5967C15.7925 18.4546 15.5325 18.2802 15.3001 18.0534C14.9535 17.7169 14.6492 17.338 14.4358 16.8644C14.309 16.5828 14.2265 16.2862 14.142 15.9846C14.0131 15.5135 14.0469 15.0324 14.0913 14.5663C14.1251 14.2024 14.2392 13.841 14.3998 13.507C14.5393 13.2154 14.683 12.9312 14.8774 12.687C14.9704 12.5698 14.9577 12.4576 14.888 12.348C14.609 11.9168 14.497 11.4158 14.4801 10.8923C14.4653 10.4038 14.5647 9.93521 14.776 9.49652C14.9598 9.11268 15.1796 8.77369 15.4839 8.52195C15.7523 8.29762 16.0271 8.08576 16.3546 7.99353C16.4476 7.96861 16.5321 7.90629 16.6336 7.89632C16.6991 7.89134 16.7223 7.84647 16.7054 7.75674C16.6378 7.4053 16.568 7.05884 16.5955 6.68994C16.6314 6.20889 16.7751 5.77768 16.9949 5.37888C17.1746 5.05485 17.4134 4.79064 17.6712 4.55385C17.8085 4.42673 17.9713 4.41178 18.1171 4.50899C18.246 4.59373 18.2988 4.74827 18.2861 4.93022C18.2756 5.08974 18.1784 5.17449 18.0875 5.25176C17.9079 5.4038 17.7536 5.58326 17.6247 5.79014C17.3838 6.17898 17.3056 6.61766 17.3288 7.09622C17.3394 7.31307 17.4007 7.50749 17.462 7.69941C17.5042 7.8365 17.6479 7.84897 17.7599 7.87638C18.115 7.96612 18.4341 8.14308 18.6982 8.44219C18.8271 8.58675 18.8292 8.82604 18.7109 8.99054C18.6031 9.14009 18.3686 9.18496 18.2418 9.06781C17.9797 8.82604 17.6944 8.66402 17.35 8.65904C17.0689 8.65405 16.7963 8.68895 16.5321 8.80859C16.213 8.95315 15.9193 9.14508 15.6805 9.44667C15.3719 9.83551 15.1965 10.2842 15.1965 10.8624L15.1986 10.8674Z" fill="#3C7BBF"/>
<path id="Vector_4" d="M25.8432 16.9617C25.8432 19.9851 25.839 23.0061 25.8495 26.0295C25.8495 26.3386 25.7227 26.5455 25.5938 26.7623C25.2832 27.2857 24.8795 27.697 24.4019 27.9936C24.1378 28.1581 23.8652 28.2977 23.5693 28.38C23.1403 28.5021 22.7113 28.6267 22.2675 28.5769C21.9569 28.542 21.6483 28.4772 21.3419 28.3825C21.0059 28.2778 20.6974 28.1158 20.3994 27.9163C19.9493 27.6123 19.5795 27.196 19.2815 26.7C19.1209 26.4358 18.9983 26.1467 18.9138 25.8301C18.8208 25.4836 18.7447 25.1397 18.7553 24.7758C18.7595 24.6237 18.6898 24.5514 18.563 24.529C18.284 24.4767 18.0325 24.3371 17.7747 24.2075C17.4767 24.0579 17.2189 23.8411 16.9611 23.6242C16.7075 23.4099 16.5068 23.1282 16.3377 22.8191C16.2489 22.6571 16.3039 22.4303 16.4328 22.3206C16.5765 22.1985 16.7181 22.211 16.8576 22.3805C16.9886 22.54 17.0858 22.7369 17.2337 22.8815C17.4514 23.0933 17.6712 23.2902 17.9248 23.4448C18.1044 23.5544 18.2988 23.6143 18.4763 23.7264C18.5756 23.7887 18.6961 23.7688 18.806 23.7837C18.8736 23.7912 18.9011 23.7115 18.9201 23.6392C19.0215 23.2578 19.2033 22.9313 19.4336 22.6447C19.5478 22.5001 19.7971 22.4926 19.9028 22.6172C20.0465 22.7867 20.0338 23.0185 19.888 23.198C19.6661 23.4672 19.5478 23.7962 19.4653 24.1576C19.4083 24.4069 19.3893 24.6536 19.3998 24.9029C19.4104 25.1721 19.4886 25.4213 19.5625 25.6731C19.683 26.0868 19.888 26.4333 20.1521 26.7299C20.4269 27.039 20.7333 27.3057 21.0883 27.4702C21.3483 27.5923 21.6188 27.6771 21.8956 27.7369C22.202 27.8017 22.5021 27.8466 22.8085 27.7867C23.1826 27.7145 23.5482 27.6222 23.8969 27.4278C24.254 27.2284 24.5731 26.9767 24.8415 26.6377C25.0169 26.4159 25.1564 26.1666 25.2811 25.9024C25.2916 25.8775 25.3001 25.8476 25.317 25.8326C25.5199 25.6531 25.5177 25.4039 25.5177 25.1372C25.5135 19.4443 25.5156 13.7513 25.5135 8.05842C25.5135 7.93629 25.5368 7.82163 25.5642 7.70448C25.5959 7.5649 25.6974 7.56241 25.7798 7.52752C25.8263 7.50758 25.8411 7.5649 25.8453 7.60977C25.8495 7.67457 25.8495 7.74187 25.8495 7.80668C25.8495 10.8575 25.8495 13.9059 25.8495 16.9567L25.8432 16.9617Z" fill="#3C7BBF"/>
<path id="Vector_5" d="M25.7671 2.60476C25.8199 2.67205 25.839 2.75431 25.839 2.84653C25.839 3.99309 25.839 5.13965 25.839 6.28621C25.839 6.3236 25.8432 6.36348 25.8178 6.39588C25.6086 6.40336 25.4987 6.15411 25.4945 5.87245C25.4903 5.44872 25.4945 5.025 25.4945 4.60127C25.4945 4.28721 25.4945 3.97315 25.4945 3.66159C25.4945 3.58183 25.4945 3.49957 25.4396 3.44723C25.2557 3.26278 25.1691 2.99608 25.0211 2.77923C24.8563 2.53746 24.6513 2.37046 24.4463 2.19349C24.2096 1.98661 23.9349 1.86198 23.656 1.78472C23.3178 1.69249 22.9713 1.58531 22.6204 1.65511C22.0816 1.76478 21.5744 1.95421 21.1264 2.36797C20.7671 2.69947 20.5114 3.09828 20.355 3.57933C20.2768 3.82111 20.2177 4.08781 20.2325 4.36448C20.243 4.58133 20.131 4.71094 19.9472 4.71592C19.7929 4.72091 19.6365 4.73088 19.4865 4.70346C19.292 4.66607 19.1758 4.54892 19.1843 4.31213C19.1906 4.09279 19.2899 3.96069 19.4844 3.94823C19.645 3.93826 19.6386 3.77126 19.6555 3.67405C19.7908 2.96866 20.0993 2.38292 20.5473 1.90934C20.8432 1.59778 21.1898 1.36847 21.5617 1.18651C21.8618 1.04194 22.1745 0.979632 22.4831 0.887409C22.6733 0.832573 22.8825 0.864976 23.0833 0.864976C23.2185 0.864976 23.3538 0.852513 23.4869 0.892394C23.4742 0.887409 23.4742 0.889901 23.4869 0.899871C23.4911 0.902364 23.4953 0.902364 23.4996 0.904856C23.527 0.912334 23.5524 0.919811 23.5799 0.927289C23.6919 0.959692 23.8018 0.992094 23.9117 1.0245C23.9307 1.02948 23.9497 1.03447 23.9687 1.04194C24.0321 1.08432 24.1019 1.09927 24.1716 1.11174C24.18 1.12171 24.1906 1.13168 24.1991 1.14165C24.2561 1.19399 24.3259 1.20147 24.3893 1.2239L24.3787 1.22888C24.4484 1.26627 24.5161 1.30615 24.5858 1.34354C24.5858 1.34354 24.5858 1.34354 24.5921 1.35102C24.6407 1.38342 24.6893 1.41582 24.7379 1.44823C24.7443 1.4582 24.7527 1.46567 24.7591 1.47564C24.8943 1.55042 25 1.67754 25.1247 1.77225C25.1331 1.78222 25.1416 1.79469 25.1521 1.80466C25.3022 1.97913 25.4522 2.15112 25.6023 2.32559C25.6128 2.34055 25.6234 2.3555 25.634 2.36797C25.6699 2.4577 25.7164 2.53497 25.7777 2.60226L25.7671 2.60476Z" fill="#3C7BBF"/>
<path id="Vector_6" d="M18.3052 15.1844C18.0685 15.1994 17.9396 14.9975 17.9543 14.7109C17.9755 14.3146 18.0727 13.9307 18.2016 13.5718C18.3749 13.0932 18.6264 12.6645 18.9539 12.3056C19.2287 12.004 19.5456 11.7921 19.8922 11.6251C20.0296 11.5603 20.1733 11.5204 20.3106 11.4581C20.4903 11.3784 20.7312 11.5479 20.7798 11.7498C20.8284 11.9591 20.672 12.2507 20.4776 12.3031C20.0042 12.4277 19.6069 12.7069 19.2815 13.1231C19.0913 13.3674 18.9518 13.6565 18.844 13.9681C18.7468 14.2448 18.7024 14.5314 18.6581 14.8205C18.6179 15.0847 18.5249 15.1844 18.3052 15.1844Z" fill="#3C7BBF"/>
<path id="Vector_7" d="M23.5101 23.1007C23.5587 23.4397 23.191 23.5967 22.9818 23.4646C22.5254 23.178 22.1323 22.8091 21.8681 22.2857C21.716 21.9841 21.5976 21.6576 21.5173 21.3086C21.4307 20.9322 21.418 20.5534 21.4074 20.1745C21.399 19.9003 21.5723 19.676 21.7646 19.6785C21.9336 19.6785 22.0837 19.8355 22.1133 20.0324C22.1344 20.1695 22.1196 20.3066 22.1259 20.4437C22.1555 21.0668 22.3225 21.6326 22.6585 22.1162C22.8191 22.348 23.0156 22.5374 23.2544 22.662C23.4066 22.7418 23.5313 22.8714 23.5122 23.0982L23.5101 23.1007Z" fill="#3C7BBF"/>
<path id="Vector_8" d="M23.6116 5.87746C23.5905 6.17656 23.5059 6.51056 23.3538 6.83708C23.1298 7.32063 22.8022 7.66958 22.4303 7.97616C22.2485 8.12571 22.0499 8.24535 21.8364 8.32262C21.7287 8.36001 21.5702 8.27776 21.4751 8.1307C21.4011 8.01853 21.399 7.78174 21.4772 7.6646C21.5427 7.56489 21.623 7.48763 21.735 7.45273C21.9484 7.38294 22.1196 7.21594 22.2887 7.05891C22.519 6.84206 22.6944 6.56041 22.8085 6.24137C22.8614 6.09181 22.891 5.92731 22.91 5.76529C22.9438 5.48115 23.0685 5.35153 23.3157 5.36898C23.5101 5.38145 23.6158 5.54346 23.6095 5.87995L23.6116 5.87746Z" fill="#3C7BBF"/>
<path id="Vector_9" d="M23.5249 14.7209C23.5123 15.4188 23.3009 15.9971 22.8487 16.4258C22.7092 16.5579 22.5634 16.7124 22.3605 16.7074C22.2274 16.7049 22.0478 16.5629 22.014 16.4333C21.9653 16.2413 22.0414 16.022 22.1809 15.9223C22.3267 15.8176 22.481 15.7279 22.5824 15.5509C22.7177 15.3141 22.7853 15.0524 22.8001 14.7732C22.8064 14.6686 22.8064 14.5664 22.8276 14.4642C22.8741 14.2448 23.0072 14.1277 23.1932 14.1426C23.3707 14.1576 23.4911 14.3046 23.5101 14.529C23.5165 14.5988 23.5207 14.671 23.5249 14.7259V14.7209Z" fill="#3C7BBF"/>
<path id="Vector_10" d="M29.3639 26.2339C29.3639 26.4283 29.1843 26.6775 29.0363 26.685C28.8546 26.695 28.6538 26.4831 28.6517 26.2762C28.6475 26.0295 28.7975 25.8525 28.9899 25.8301C29.1991 25.8052 29.3702 26.0569 29.3639 26.2339Z" fill="#F17528"/>
<path id="Vector_11" d="M32.7409 15.0498C32.7113 14.8255 32.9438 14.6236 33.1065 14.636C33.246 14.646 33.4531 14.8778 33.4467 15.0224C33.432 15.2966 33.2756 15.4935 33.0685 15.491C32.891 15.491 32.7388 15.2841 32.7409 15.0498Z" fill="#F17528"/>
<path id="Vector_12" d="M30.4015 15.0498C30.4015 14.8254 30.5621 14.6335 30.7481 14.636C30.9214 14.6385 31.1052 14.8678 31.0926 15.0896C31.0799 15.3239 30.9256 15.4934 30.7249 15.4885C30.5473 15.4835 30.3994 15.2841 30.3994 15.0498H30.4015Z" fill="#F17528"/>
<path id="Vector_13" d="M29.3681 3.88342C29.3681 4.10027 29.2012 4.2922 29.011 4.2922C28.8145 4.2922 28.6517 4.10027 28.6517 3.87096C28.6517 3.66658 28.8187 3.48213 29.0068 3.47714C29.1927 3.47216 29.3681 3.66907 29.3702 3.88342H29.3681Z" fill="#F17528"/>
<path id="Vector_14" d="M23.5693 0.929609C23.5418 0.922131 23.5165 0.914654 23.489 0.907176C23.4848 0.907176 23.4784 0.907176 23.4763 0.902191C23.4658 0.892221 23.4658 0.887236 23.4763 0.894714C23.5122 0.894714 23.5482 0.899699 23.582 0.902191C23.5904 0.902191 23.6052 0.909669 23.6052 0.914654C23.601 0.949549 23.5778 0.917146 23.5672 0.929609H23.5693Z" fill="#F17528"/>
<path id="Vector_15" d="M23.9603 1.04198C23.9412 1.03699 23.9222 1.03201 23.9032 1.02453C23.9011 1.02204 23.8969 1.01456 23.8948 1.01456C23.8779 1.02204 23.8673 0.997113 23.8842 1.00459C23.9095 1.01955 23.9328 1.03949 23.9582 1.05444C23.9624 1.05444 23.9666 1.05444 23.9708 1.05444C23.9687 1.04946 23.9645 1.04447 23.9624 1.03949L23.9603 1.04198Z" fill="#F17528"/>
<path id="Vector_16" d="M24.1906 1.14148C24.1906 1.14148 24.1716 1.12154 24.1631 1.11157C24.1758 1.11905 24.1885 1.12403 24.197 1.1365C24.2118 1.15644 24.2075 1.15893 24.1906 1.14148Z" fill="#F17528"/>
<path id="Vector_17" d="M24.7506 1.47562C24.7506 1.47562 24.7358 1.45817 24.7295 1.4482C24.7549 1.43325 24.757 1.46565 24.7675 1.47811C24.7802 1.49307 24.7633 1.50553 24.7612 1.48559C24.7612 1.4831 24.7549 1.4806 24.7527 1.47811L24.7506 1.47562Z" fill="#F17528"/>
<path id="Vector_18" d="M25.1416 1.80457C25.1416 1.80457 25.1226 1.78214 25.1141 1.77217C25.1458 1.75971 25.1479 1.7946 25.1585 1.80956C25.1691 1.82451 25.1479 1.83448 25.15 1.81454C25.15 1.81205 25.1437 1.80956 25.1416 1.80457Z" fill="#F17528"/>
<path id="Vector_19" d="M25.6234 2.36781C25.6129 2.35286 25.6023 2.3379 25.5917 2.32544C25.6065 2.34039 25.6255 2.35286 25.6382 2.3703C25.6509 2.38775 25.634 2.40022 25.6319 2.37778C25.6319 2.37529 25.6276 2.3703 25.6234 2.36781Z" fill="#F17528"/>
<path id="Vector_20" d="M24.5837 1.35094L24.5773 1.34347C24.5816 1.34097 24.5879 1.33599 24.5921 1.3335C24.5921 1.3335 24.5964 1.34097 24.5985 1.34347C24.5921 1.34347 24.5879 1.34845 24.5816 1.34845L24.5837 1.35094Z" fill="#F17528"/>
<path id="Vector_21" d="M24.3702 1.22886L24.3808 1.22388L24.3829 1.22637L24.3702 1.22886Z" fill="#F17528"/>
<path id="Vector_22" d="M29.0004 23.7587C28.8018 23.7587 28.6348 23.5668 28.6369 23.3399C28.6369 23.1455 28.8419 22.8988 28.992 22.9087C29.2033 22.9237 29.3766 23.1256 29.3766 23.3574C29.3766 23.5742 29.2033 23.7587 29.0004 23.7587Z" fill="#FEFEFE"/>
<path id="Vector_23" d="M29.0279 6.36597C29.2265 6.37095 29.385 6.57783 29.3787 6.81961C29.3724 7.01901 29.1906 7.21093 29.0089 7.20844C28.825 7.20595 28.6369 6.99907 28.6433 6.79967C28.6517 6.56786 28.8123 6.34852 29.03 6.36846L29.0279 6.36597Z" fill="#FEFEFE"/>
<path id="Vector_24" d="M31.9822 20.2344C32.164 20.2344 32.3204 20.4238 32.3225 20.6481C32.3246 20.8799 32.1703 21.0843 31.9886 21.0893C31.7963 21.0943 31.6209 20.8949 31.6209 20.6706C31.6209 20.4188 31.773 20.2369 31.9822 20.2344Z" fill="#FEFEFE"/>
<path id="Vector_25" d="M31.9675 9.7955C31.7435 9.78802 31.6145 9.6285 31.623 9.3643C31.6293 9.13249 31.7836 8.97795 31.9949 8.97297C32.2063 8.96798 32.35 9.23468 32.3394 9.38673C32.3246 9.58613 32.2189 9.82043 31.9675 9.7955Z" fill="#FEFEFE"/>
</g>
<defs>
<clipPath id="clip0_438_1089">
<rect width="50" height="30" fill="white"/>
</clipPath>
</defs>
</svg>
