<svg width="45" height="45" viewBox="0 0 45 45" fill="none" xmlns="http://www.w3.org/2000/svg">
<rect width="45" height="45" rx="22.5" fill="#4573DF"/>
<mask id="path-2-inside-1_1316_777" fill="white">
<path d="M39 33.9202H31.1294C31.1294 33.9202 31.0994 33.8137 31.0894 33.7738C31.2094 33.6939 31.3194 33.5742 31.4394 33.5476C33.0096 33.2016 33.7096 32.2701 33.8496 30.1409C33.9396 28.8235 33.9596 27.5061 33.9696 26.1887C33.9796 22.1567 33.9696 18.1113 33.9696 14.0793C33.9696 13.8397 33.9696 13.6002 33.7796 13.3075C31.5794 19.8412 29.3793 26.375 27.0991 33.1483C24.9189 26.5879 22.7888 20.2005 20.6586 13.7998C20.5886 13.7998 20.5186 13.8131 20.4486 13.8264V18.3642C20.3586 18.3908 20.2686 18.4174 20.1786 18.444C20.0986 18.2311 19.9886 18.0315 19.9386 17.8053C18.9885 13.1078 15.2982 10.34 11.838 11.857C9.5978 12.8417 8.2477 15.1039 7.54765 17.9916C6.53757 22.17 6.65758 26.2686 8.48772 30.0478C9.95783 33.0818 12.9581 34.3061 15.5082 33.0419C16.6583 32.4697 17.4184 31.445 17.4584 29.7151C17.4884 28.584 17.5384 27.4396 17.4884 26.3085C17.3984 24.6185 16.9584 23.9931 15.7283 23.5672C15.5082 23.4874 15.2982 23.3942 15.0882 23.3011C15.0982 23.2079 15.1082 23.1281 15.1182 23.0349H21.9087C21.9087 23.0349 21.9387 23.1547 21.9587 23.2212C21.8187 23.3277 21.6887 23.5007 21.5387 23.5406C20.5986 23.7402 20.2586 24.552 20.2786 25.723C20.2986 27.1202 20.2386 28.5175 20.3486 29.9014C20.5086 32.0306 21.2987 33.1084 22.8588 33.5742C22.9788 33.6141 23.0888 33.6806 23.2688 33.7605C23.1488 33.8935 23.0988 34 23.0388 34C19.3385 33.9601 15.6383 34 11.948 33.8403C9.73781 33.7339 7.68766 32.7491 6.18755 30.4736C3.79737 26.8674 3.47734 22.6623 4.68743 18.3109C5.87752 14.066 8.3177 11.5775 11.708 11.1384C13.7581 10.8723 15.8383 11.0719 17.9084 11.0719C19.2085 11.0719 20.5086 11.165 21.7987 11.1251C22.4488 11.0985 22.7688 11.3912 23.0288 12.203C24.6289 17.1532 26.269 22.0901 27.9092 27.0271C27.9992 27.2932 28.1092 27.5327 28.2892 28.0118C29.0093 25.9226 29.6793 24.0197 30.3194 22.1034C31.4494 18.7101 32.5495 15.3168 33.6796 11.9235C33.7796 11.6308 34.0296 11.2448 34.2196 11.2315C35.7198 11.1783 37.2199 11.2049 38.74 11.4445C38.55 11.511 38.36 11.5775 38.1699 11.6441C37.3299 11.9767 36.7498 12.6554 36.6898 13.8663C36.5998 15.5164 36.5298 17.1665 36.5098 18.8166C36.4798 22.1168 36.5098 25.4302 36.5098 28.7304C36.5098 28.8768 36.5098 29.0231 36.5098 29.1695C36.5598 32.0838 36.9798 32.8556 38.99 33.9867L39 33.9202Z"/>
</mask>
<path d="M39 33.9202H31.1294C31.1294 33.9202 31.0994 33.8137 31.0894 33.7738C31.2094 33.6939 31.3194 33.5742 31.4394 33.5476C33.0096 33.2016 33.7096 32.2701 33.8496 30.1409C33.9396 28.8235 33.9596 27.5061 33.9696 26.1887C33.9796 22.1567 33.9696 18.1113 33.9696 14.0793C33.9696 13.8397 33.9696 13.6002 33.7796 13.3075C31.5794 19.8412 29.3793 26.375 27.0991 33.1483C24.9189 26.5879 22.7888 20.2005 20.6586 13.7998C20.5886 13.7998 20.5186 13.8131 20.4486 13.8264V18.3642C20.3586 18.3908 20.2686 18.4174 20.1786 18.444C20.0986 18.2311 19.9886 18.0315 19.9386 17.8053C18.9885 13.1078 15.2982 10.34 11.838 11.857C9.5978 12.8417 8.2477 15.1039 7.54765 17.9916C6.53757 22.17 6.65758 26.2686 8.48772 30.0478C9.95783 33.0818 12.9581 34.3061 15.5082 33.0419C16.6583 32.4697 17.4184 31.445 17.4584 29.7151C17.4884 28.584 17.5384 27.4396 17.4884 26.3085C17.3984 24.6185 16.9584 23.9931 15.7283 23.5672C15.5082 23.4874 15.2982 23.3942 15.0882 23.3011C15.0982 23.2079 15.1082 23.1281 15.1182 23.0349H21.9087C21.9087 23.0349 21.9387 23.1547 21.9587 23.2212C21.8187 23.3277 21.6887 23.5007 21.5387 23.5406C20.5986 23.7402 20.2586 24.552 20.2786 25.723C20.2986 27.1202 20.2386 28.5175 20.3486 29.9014C20.5086 32.0306 21.2987 33.1084 22.8588 33.5742C22.9788 33.6141 23.0888 33.6806 23.2688 33.7605C23.1488 33.8935 23.0988 34 23.0388 34C19.3385 33.9601 15.6383 34 11.948 33.8403C9.73781 33.7339 7.68766 32.7491 6.18755 30.4736C3.79737 26.8674 3.47734 22.6623 4.68743 18.3109C5.87752 14.066 8.3177 11.5775 11.708 11.1384C13.7581 10.8723 15.8383 11.0719 17.9084 11.0719C19.2085 11.0719 20.5086 11.165 21.7987 11.1251C22.4488 11.0985 22.7688 11.3912 23.0288 12.203C24.6289 17.1532 26.269 22.0901 27.9092 27.0271C27.9992 27.2932 28.1092 27.5327 28.2892 28.0118C29.0093 25.9226 29.6793 24.0197 30.3194 22.1034C31.4494 18.7101 32.5495 15.3168 33.6796 11.9235C33.7796 11.6308 34.0296 11.2448 34.2196 11.2315C35.7198 11.1783 37.2199 11.2049 38.74 11.4445C38.55 11.511 38.36 11.5775 38.1699 11.6441C37.3299 11.9767 36.7498 12.6554 36.6898 13.8663C36.5998 15.5164 36.5298 17.1665 36.5098 18.8166C36.4798 22.1168 36.5098 25.4302 36.5098 28.7304C36.5098 28.8768 36.5098 29.0231 36.5098 29.1695C36.5598 32.0838 36.9798 32.8556 38.99 33.9867L39 33.9202Z" fill="white" stroke="white" stroke-width="2" mask="url(#path-2-inside-1_1316_777)"/>
</svg>
