<svg width="46" height="46" viewBox="0 0 46 46" fill="none" xmlns="http://www.w3.org/2000/svg">
<rect width="46" height="46" rx="23" fill="#1D2127"/>
<path d="M28.6429 5.5H32.0714L33.7857 6.0198L35.0714 6.71287L35.9286 7.40594L37.3571 8.96535L38.3571 11.0446L38.7857 12.604V16.0693L38.0714 18.3218L37.2143 19.8812L35.9286 21.4406L37.5 22.4802L38.9286 24.0396L40.0714 26.2921L40.5 27.8515V32.0099L39.7857 34.4356L38.7857 36.3416L37.3571 38.0743L35.5 39.4604L33.9286 40.1535L32.3571 40.5H28.6429V37.3812L32.3571 37.2079L34.6429 36.3416L36.0714 35.1287L37.3571 33.0495L37.9286 31.1436V28.8911L37.3571 26.9851L36.3571 25.4257L35.2143 24.3861L33.3571 23.5198L32.2143 23.3465L28.6429 23.1733V20.2277L32.0714 20.0545L34.0714 19.1881L34.6429 18.8416L34.9286 18.1485L35.7857 16.5891L36.0714 15.5495V12.9505L35.2143 10.8713L34.0714 9.65842L32.7857 8.96535L32.2143 8.79208L28.6429 8.61881V5.5Z" fill="white"/>
<path d="M14.3571 5.5H16.3571L18.7857 6.0198L21.0714 7.40594V11.0446L20.5 10.698L19.3571 9.83168L17.5 8.96535L16.7857 8.79208H14.0714L12.3571 9.48515L10.9286 10.5248L9.78571 11.7376L8.78571 13.6436L8.35714 14.6832L8.07143 16.0693V19.0148L8.78571 21.4406L9.78571 23.1733L10.3571 24.0396L11.9286 25.2525L13.6429 26.1188L14.3571 26.2921H17.0714L19.0714 25.599H21.0714V28.3713L19.7857 28.8911L18.2143 29.4109L17.3571 29.5842H14.7857L12.5 29.0644L10.5 28.0248L8.92857 26.6386L8.07143 25.7723L7.07143 24.2129L6.35714 22.8267L5.64286 20.401L5.5 19.7079V15.203L5.78571 13.6436L6.78571 11.2178L7.78571 9.65842L8.92857 8.27228L10.9286 6.71287L12.2143 6.0198L14.3571 5.5Z" fill="white"/>
<path d="M25.7857 5.5H26.0714V38.0743L24.5 39.4604L23.5 40.1535V11.0446L22.9286 10.698L21.6429 9.31188V8.96535L23.9286 7.05941L25.0714 6.0198L25.7857 5.5Z" fill="#4573DF"/>
<path d="M7.64285 30.104L8.07143 30.797L9.21428 33.5693L10.0714 34.7822L11.2143 35.8218L12.9286 36.8614L14.5 37.3812H16.7857L19.0714 36.5148L20.6429 35.4752H21.0714V38.9406L19.5 39.8069L18.0714 40.3267L16.9286 40.5H14.3571L12.2143 39.9802L10.3571 38.9406L8.92857 37.7277L7.92857 36.6881L6.78571 34.9554L5.64285 32.1832V31.6634L7.21428 30.4505L7.64285 30.104Z" fill="#4573DF"/>
<path d="M16.3571 20.0545H21.0714V23.1733H16.3571V20.0545Z" fill="white"/>
</svg>
