<svg width="46" height="46" viewBox="0 0 46 46" fill="none" xmlns="http://www.w3.org/2000/svg">
<rect width="46" height="46" fill="#F5F5F5"/>
<rect width="46" height="46" rx="23" fill="#4573DF"/>
<g filter="url(#filter0_d_20_3038)">
<mask id="path-2-outside-1_20_3038" maskUnits="userSpaceOnUse" x="4.50122" y="13.358" width="37" height="19" fill="black">
<rect fill="white" x="4.50122" y="13.358" width="37" height="19"/>
<path d="M40.4986 31.582H32.6286C32.6286 31.582 32.5986 31.502 32.5886 31.472C32.7086 31.412 32.8186 31.322 32.9386 31.302C34.5086 31.042 35.2086 30.342 35.3486 28.742C35.4386 27.752 35.4586 26.762 35.4686 25.772C35.4786 22.742 35.4686 19.702 35.4686 16.672C35.4686 16.492 35.4686 16.312 35.2786 16.092C33.0786 21.002 30.8786 25.912 28.5986 31.002C26.4186 26.072 24.2886 21.272 22.1586 16.462C22.0886 16.462 22.0186 16.472 21.9486 16.482V19.892C21.8586 19.912 21.7686 19.932 21.6786 19.952C21.5986 19.792 21.4886 19.642 21.4386 19.472C20.4886 15.942 16.7986 13.862 13.3386 15.002C11.0986 15.742 9.7486 17.442 9.0486 19.612C8.0386 22.752 8.1586 25.832 9.9886 28.672C11.4586 30.952 14.4586 31.872 17.0086 30.922C18.1586 30.492 18.9186 29.722 18.9586 28.422C18.9886 27.572 19.0386 26.712 18.9886 25.862C18.8986 24.592 18.4586 24.122 17.2286 23.802C17.0086 23.742 16.7986 23.672 16.5886 23.602C16.5986 23.532 16.6086 23.472 16.6186 23.402H23.4086C23.4086 23.402 23.4386 23.492 23.4586 23.542C23.3186 23.622 23.1886 23.752 23.0386 23.782C22.0986 23.932 21.7586 24.542 21.7786 25.422C21.7986 26.472 21.7386 27.522 21.8486 28.562C22.0086 30.162 22.7986 30.972 24.3586 31.322C24.4786 31.352 24.5886 31.402 24.7686 31.462C24.6486 31.562 24.5986 31.642 24.5386 31.642C20.8386 31.612 17.1386 31.642 13.4486 31.522C11.2386 31.442 9.1886 30.702 7.6886 28.992C5.2986 26.282 4.9786 23.122 6.1886 19.852C7.3786 16.662 9.8186 14.792 13.2086 14.462C15.2586 14.262 17.3386 14.412 19.4086 14.412C20.7086 14.412 22.0086 14.482 23.2986 14.452C23.9486 14.432 24.2686 14.652 24.5286 15.262C26.1286 18.982 27.7686 22.692 29.4086 26.402C29.4986 26.602 29.6086 26.782 29.7886 27.142C30.5086 25.572 31.1786 24.142 31.8186 22.702C32.9486 20.152 34.0486 17.602 35.1786 15.052C35.2786 14.832 35.5286 14.542 35.7186 14.532C37.2186 14.492 38.7186 14.512 40.2386 14.692C40.0486 14.742 39.8586 14.792 39.6686 14.842C38.8286 15.092 38.2486 15.602 38.1886 16.512C38.0986 17.752 38.0286 18.992 38.0086 20.232C37.9786 22.712 38.0086 25.202 38.0086 27.682C38.0086 27.792 38.0086 27.902 38.0086 28.012C38.0586 30.202 38.4786 30.782 40.4886 31.632L40.4986 31.582Z"/>
</mask>
<path d="M40.4986 31.582H32.6286C32.6286 31.582 32.5986 31.502 32.5886 31.472C32.7086 31.412 32.8186 31.322 32.9386 31.302C34.5086 31.042 35.2086 30.342 35.3486 28.742C35.4386 27.752 35.4586 26.762 35.4686 25.772C35.4786 22.742 35.4686 19.702 35.4686 16.672C35.4686 16.492 35.4686 16.312 35.2786 16.092C33.0786 21.002 30.8786 25.912 28.5986 31.002C26.4186 26.072 24.2886 21.272 22.1586 16.462C22.0886 16.462 22.0186 16.472 21.9486 16.482V19.892C21.8586 19.912 21.7686 19.932 21.6786 19.952C21.5986 19.792 21.4886 19.642 21.4386 19.472C20.4886 15.942 16.7986 13.862 13.3386 15.002C11.0986 15.742 9.7486 17.442 9.0486 19.612C8.0386 22.752 8.1586 25.832 9.9886 28.672C11.4586 30.952 14.4586 31.872 17.0086 30.922C18.1586 30.492 18.9186 29.722 18.9586 28.422C18.9886 27.572 19.0386 26.712 18.9886 25.862C18.8986 24.592 18.4586 24.122 17.2286 23.802C17.0086 23.742 16.7986 23.672 16.5886 23.602C16.5986 23.532 16.6086 23.472 16.6186 23.402H23.4086C23.4086 23.402 23.4386 23.492 23.4586 23.542C23.3186 23.622 23.1886 23.752 23.0386 23.782C22.0986 23.932 21.7586 24.542 21.7786 25.422C21.7986 26.472 21.7386 27.522 21.8486 28.562C22.0086 30.162 22.7986 30.972 24.3586 31.322C24.4786 31.352 24.5886 31.402 24.7686 31.462C24.6486 31.562 24.5986 31.642 24.5386 31.642C20.8386 31.612 17.1386 31.642 13.4486 31.522C11.2386 31.442 9.1886 30.702 7.6886 28.992C5.2986 26.282 4.9786 23.122 6.1886 19.852C7.3786 16.662 9.8186 14.792 13.2086 14.462C15.2586 14.262 17.3386 14.412 19.4086 14.412C20.7086 14.412 22.0086 14.482 23.2986 14.452C23.9486 14.432 24.2686 14.652 24.5286 15.262C26.1286 18.982 27.7686 22.692 29.4086 26.402C29.4986 26.602 29.6086 26.782 29.7886 27.142C30.5086 25.572 31.1786 24.142 31.8186 22.702C32.9486 20.152 34.0486 17.602 35.1786 15.052C35.2786 14.832 35.5286 14.542 35.7186 14.532C37.2186 14.492 38.7186 14.512 40.2386 14.692C40.0486 14.742 39.8586 14.792 39.6686 14.842C38.8286 15.092 38.2486 15.602 38.1886 16.512C38.0986 17.752 38.0286 18.992 38.0086 20.232C37.9786 22.712 38.0086 25.202 38.0086 27.682C38.0086 27.792 38.0086 27.902 38.0086 28.012C38.0586 30.202 38.4786 30.782 40.4886 31.632L40.4986 31.582Z" fill="white"/>
<path d="M40.4986 31.582H32.6286C32.6286 31.582 32.5986 31.502 32.5886 31.472C32.7086 31.412 32.8186 31.322 32.9386 31.302C34.5086 31.042 35.2086 30.342 35.3486 28.742C35.4386 27.752 35.4586 26.762 35.4686 25.772C35.4786 22.742 35.4686 19.702 35.4686 16.672C35.4686 16.492 35.4686 16.312 35.2786 16.092C33.0786 21.002 30.8786 25.912 28.5986 31.002C26.4186 26.072 24.2886 21.272 22.1586 16.462C22.0886 16.462 22.0186 16.472 21.9486 16.482V19.892C21.8586 19.912 21.7686 19.932 21.6786 19.952C21.5986 19.792 21.4886 19.642 21.4386 19.472C20.4886 15.942 16.7986 13.862 13.3386 15.002C11.0986 15.742 9.7486 17.442 9.0486 19.612C8.0386 22.752 8.1586 25.832 9.9886 28.672C11.4586 30.952 14.4586 31.872 17.0086 30.922C18.1586 30.492 18.9186 29.722 18.9586 28.422C18.9886 27.572 19.0386 26.712 18.9886 25.862C18.8986 24.592 18.4586 24.122 17.2286 23.802C17.0086 23.742 16.7986 23.672 16.5886 23.602C16.5986 23.532 16.6086 23.472 16.6186 23.402H23.4086C23.4086 23.402 23.4386 23.492 23.4586 23.542C23.3186 23.622 23.1886 23.752 23.0386 23.782C22.0986 23.932 21.7586 24.542 21.7786 25.422C21.7986 26.472 21.7386 27.522 21.8486 28.562C22.0086 30.162 22.7986 30.972 24.3586 31.322C24.4786 31.352 24.5886 31.402 24.7686 31.462C24.6486 31.562 24.5986 31.642 24.5386 31.642C20.8386 31.612 17.1386 31.642 13.4486 31.522C11.2386 31.442 9.1886 30.702 7.6886 28.992C5.2986 26.282 4.9786 23.122 6.1886 19.852C7.3786 16.662 9.8186 14.792 13.2086 14.462C15.2586 14.262 17.3386 14.412 19.4086 14.412C20.7086 14.412 22.0086 14.482 23.2986 14.452C23.9486 14.432 24.2686 14.652 24.5286 15.262C26.1286 18.982 27.7686 22.692 29.4086 26.402C29.4986 26.602 29.6086 26.782 29.7886 27.142C30.5086 25.572 31.1786 24.142 31.8186 22.702C32.9486 20.152 34.0486 17.602 35.1786 15.052C35.2786 14.832 35.5286 14.542 35.7186 14.532C37.2186 14.492 38.7186 14.512 40.2386 14.692C40.0486 14.742 39.8586 14.792 39.6686 14.842C38.8286 15.092 38.2486 15.602 38.1886 16.512C38.0986 17.752 38.0286 18.992 38.0086 20.232C37.9786 22.712 38.0086 25.202 38.0086 27.682C38.0086 27.792 38.0086 27.902 38.0086 28.012C38.0586 30.202 38.4786 30.782 40.4886 31.632L40.4986 31.582Z" stroke="white" stroke-width="0.5" mask="url(#path-2-outside-1_20_3038)"/>
</g>
<defs>
<filter id="filter0_d_20_3038" x="1.25146" y="14.1081" width="43.552" height="25.8735" filterUnits="userSpaceOnUse" color-interpolation-filters="sRGB">
<feFlood flood-opacity="0" result="BackgroundImageFix"/>
<feColorMatrix in="SourceAlpha" type="matrix" values="0 0 0 0 0 0 0 0 0 0 0 0 0 0 0 0 0 0 127 0" result="hardAlpha"/>
<feOffset dy="4"/>
<feGaussianBlur stdDeviation="2"/>
<feComposite in2="hardAlpha" operator="out"/>
<feColorMatrix type="matrix" values="0 0 0 0 0 0 0 0 0 0 0 0 0 0 0 0 0 0 0.25 0"/>
<feBlend mode="normal" in2="BackgroundImageFix" result="effect1_dropShadow_20_3038"/>
<feBlend mode="normal" in="SourceGraphic" in2="effect1_dropShadow_20_3038" result="shape"/>
</filter>
</defs>
</svg>
