<svg width="195" height="22" viewBox="0 0 195 22" fill="none" xmlns="http://www.w3.org/2000/svg">
<path d="M7.08496 8.25H12.9502V16.1348C12.1266 16.4069 11.2744 16.6182 10.3936 16.7686C9.5127 16.9189 8.52441 16.9941 7.42871 16.9941C5.83171 16.9941 4.47819 16.679 3.36816 16.0488C2.2653 15.4115 1.42741 14.4912 0.854492 13.2881C0.281576 12.0778 -0.00488281 10.6204 -0.00488281 8.91602C-0.00488281 7.27604 0.313802 5.85449 0.951172 4.65137C1.58854 3.44108 2.51595 2.50651 3.7334 1.84766C4.95085 1.18164 6.42611 0.848633 8.15918 0.848633C9.01139 0.848633 9.83496 0.93457 10.6299 1.10645C11.432 1.27116 12.166 1.50033 12.832 1.79395L11.9297 3.9209C11.3997 3.67025 10.8053 3.45898 10.1465 3.28711C9.48763 3.11523 8.80371 3.0293 8.09473 3.0293C6.97038 3.0293 6 3.27279 5.18359 3.75977C4.37435 4.24674 3.7513 4.93424 3.31445 5.82227C2.8776 6.70312 2.65918 7.74512 2.65918 8.94824C2.65918 10.1156 2.83464 11.1396 3.18555 12.0205C3.53646 12.9014 4.08431 13.5889 4.8291 14.083C5.58105 14.57 6.55143 14.8135 7.74023 14.8135C8.33464 14.8135 8.83952 14.7812 9.25488 14.7168C9.67025 14.6523 10.0534 14.5807 10.4043 14.502V10.4521H7.08496V8.25Z" fill="white"/>
<path d="M28.7657 16.7793H26.1983V9.68945H18.9581V16.7793H16.38V1.07422H18.9581V7.49805H26.1983V1.07422H28.7657V16.7793Z" fill="white"/>
<path d="M44.925 1.07422V11.2363C44.925 12.332 44.6922 13.3132 44.2267 14.1797C43.7684 15.0462 43.0737 15.7337 42.1427 16.2422C41.2117 16.7435 40.0408 16.9941 38.63 16.9941C36.6177 16.9941 35.0851 16.4678 34.0324 15.415C32.9868 14.3551 32.464 12.9479 32.464 11.1934V1.07422H35.0421V10.9678C35.0421 12.2783 35.3501 13.2451 35.966 13.8682C36.5819 14.4912 37.5021 14.8027 38.7267 14.8027C39.5718 14.8027 40.2593 14.6559 40.7892 14.3623C41.3263 14.0615 41.7202 13.6247 41.9709 13.0518C42.2287 12.4717 42.3576 11.7734 42.3576 10.957V1.07422H44.925Z" fill="white"/>
<path d="M48.6125 16.7793V1.07422H51.1907V14.5879H57.8616V16.7793H48.6125Z" fill="white"/>
<path d="M69.9818 16.7793L68.4456 12.418H62.4407L60.9046 16.7793H58.1868L64.0306 1.00977H66.888L72.721 16.7793H69.9818ZM67.7796 10.2051L66.2864 5.9082C66.2292 5.72201 66.1468 5.46061 66.0394 5.12402C65.932 4.78027 65.8245 4.43294 65.7171 4.08203C65.6097 3.72396 65.5202 3.42318 65.4486 3.17969C65.3769 3.47331 65.2874 3.80273 65.18 4.16797C65.0797 4.52604 64.9795 4.86263 64.8792 5.17773C64.7861 5.49284 64.7145 5.73633 64.6644 5.9082L63.1605 10.2051H67.7796Z" fill="white"/>
<path d="M81.2426 16.7793L76.7201 3.66309H76.6234C76.6449 3.95671 76.67 4.35775 76.6986 4.86621C76.7273 5.37467 76.7523 5.91895 76.7738 6.49902C76.7953 7.0791 76.8061 7.63411 76.8061 8.16406V16.7793H74.4643V1.07422H78.0844L82.435 13.6104H82.4994L87.0004 1.07422H90.6098V16.7793H88.1498V8.03516C88.1498 7.55534 88.157 7.03613 88.1713 6.47754C88.1928 5.91895 88.2143 5.389 88.2357 4.8877C88.2644 4.38639 88.2859 3.98535 88.3002 3.68457H88.2143L83.5199 16.7793H81.2426Z" fill="white"/>
<path d="M106.579 16.7793L102.056 3.66309H101.96C101.981 3.95671 102.006 4.35775 102.035 4.86621C102.063 5.37467 102.088 5.91895 102.11 6.49902C102.131 7.0791 102.142 7.63411 102.142 8.16406V16.7793H99.8004V1.07422H103.42L107.771 13.6104H107.836L112.336 1.07422H115.946V16.7793H113.486V8.03516C113.486 7.55534 113.493 7.03613 113.507 6.47754C113.529 5.91895 113.55 5.389 113.572 4.8877C113.6 4.38639 113.622 3.98535 113.636 3.68457H113.55L108.856 16.7793H106.579Z" fill="white"/>
<path d="M132.084 1.07422V11.2363C132.084 12.332 131.851 13.3132 131.385 14.1797C130.927 15.0462 130.232 15.7337 129.301 16.2422C128.37 16.7435 127.2 16.9941 125.789 16.9941C123.776 16.9941 122.244 16.4678 121.191 15.415C120.145 14.3551 119.623 12.9479 119.623 11.1934V1.07422H122.201V10.9678C122.201 12.2783 122.509 13.2451 123.125 13.8682C123.741 14.4912 124.661 14.8027 125.885 14.8027C126.73 14.8027 127.418 14.6559 127.948 14.3623C128.485 14.0615 128.879 13.6247 129.13 13.0518C129.387 12.4717 129.516 11.7734 129.516 10.957V1.07422H132.084Z" fill="white"/>
<path d="M133.816 21.1514C133.422 21.1514 133.079 21.1263 132.785 21.0762C132.484 21.0332 132.226 20.9723 132.011 20.8936V18.7344C132.241 18.7917 132.488 18.8418 132.753 18.8848C133.018 18.9277 133.301 18.9492 133.601 18.9492C133.995 18.9492 134.353 18.874 134.676 18.7236C134.998 18.5732 135.252 18.3011 135.438 17.9072C135.632 17.5133 135.728 16.9583 135.728 16.2422V1.07422H138.306V16.1562C138.306 17.3236 138.12 18.2725 137.748 19.0029C137.375 19.7406 136.853 20.2812 136.179 20.625C135.506 20.9759 134.718 21.1514 133.816 21.1514Z" fill="white"/>
<path d="M147.483 16.7793H144.894V3.26562H140.297V1.07422H152.07V3.26562H147.483V16.7793Z" fill="white"/>
<path d="M163.879 16.7793L162.343 12.418H156.338L154.802 16.7793H152.084L157.928 1.00977H160.785L166.618 16.7793H163.879ZM161.677 10.2051L160.183 5.9082C160.126 5.72201 160.044 5.46061 159.936 5.12402C159.829 4.78027 159.722 4.43294 159.614 4.08203C159.507 3.72396 159.417 3.42318 159.346 3.17969C159.274 3.47331 159.184 3.80273 159.077 4.16797C158.977 4.52604 158.877 4.86263 158.776 5.17773C158.683 5.49284 158.612 5.73633 158.561 5.9082L157.057 10.2051H161.677Z" fill="white"/>
<path d="M168.361 1.07422H173.034C175.061 1.07422 176.59 1.36784 177.621 1.95508C178.652 2.54232 179.168 3.55566 179.168 4.99512C179.168 5.59668 179.061 6.14095 178.846 6.62793C178.638 7.10775 178.334 7.50521 177.933 7.82031C177.532 8.12826 177.037 8.33594 176.45 8.44336V8.55078C177.059 8.6582 177.6 8.84798 178.072 9.12012C178.552 9.39225 178.928 9.78255 179.2 10.291C179.479 10.7995 179.619 11.4583 179.619 12.2676C179.619 13.2272 179.39 14.0436 178.932 14.7168C178.48 15.39 177.832 15.902 176.987 16.2529C176.149 16.6038 175.154 16.7793 174.001 16.7793H168.361V1.07422ZM170.939 7.55176H173.41C174.577 7.55176 175.387 7.36198 175.838 6.98242C176.289 6.60286 176.515 6.04785 176.515 5.31738C176.515 4.57259 176.246 4.03548 175.709 3.70605C175.179 3.37663 174.334 3.21191 173.174 3.21191H170.939V7.55176ZM170.939 9.63574V14.6201H173.657C174.86 14.6201 175.705 14.3874 176.192 13.9219C176.679 13.4564 176.923 12.8262 176.923 12.0312C176.923 11.5443 176.812 11.1217 176.59 10.7637C176.375 10.4056 176.02 10.1299 175.526 9.93652C175.032 9.736 174.366 9.63574 173.528 9.63574H170.939Z" fill="white"/>
<path d="M192.266 16.7793L190.73 12.418H184.725L183.189 16.7793H180.471L186.314 1.00977H189.172L195.005 16.7793H192.266ZM190.064 10.2051L188.57 5.9082C188.513 5.72201 188.431 5.46061 188.323 5.12402C188.216 4.78027 188.108 4.43294 188.001 4.08203C187.894 3.72396 187.804 3.42318 187.732 3.17969C187.661 3.47331 187.571 3.80273 187.464 4.16797C187.364 4.52604 187.263 4.86263 187.163 5.17773C187.07 5.49284 186.998 5.73633 186.948 5.9082L185.444 10.2051H190.064Z" fill="white"/>
</svg>
