<svg width="45" height="45" viewBox="0 0 45 45" fill="none" xmlns="http://www.w3.org/2000/svg">
<rect width="45" height="45" rx="22.5" fill="#E8EBEE"/>
<mask id="path-2-inside-1_608_2004" fill="white">
<path d="M39.9986 31.0819H32.1286C32.1286 31.0819 32.0986 31.0019 32.0886 30.9719C32.2086 30.9119 32.3186 30.8219 32.4386 30.8019C34.0086 30.5419 34.7086 29.8419 34.8486 28.2419C34.9386 27.2519 34.9586 26.2619 34.9686 25.2719C34.9786 22.2419 34.9686 19.2019 34.9686 16.1719C34.9686 15.9919 34.9686 15.8119 34.7786 15.5919C32.5786 20.5019 30.3786 25.4119 28.0986 30.5019C25.9186 25.5719 23.7886 20.7719 21.6586 15.9619C21.5886 15.9619 21.5186 15.9719 21.4486 15.9819V19.3919C21.3586 19.4119 21.2686 19.4319 21.1786 19.4519C21.0986 19.2919 20.9886 19.1419 20.9386 18.9719C19.9886 15.4419 16.2986 13.3619 12.8386 14.5019C10.5986 15.2419 9.2486 16.9419 8.5486 19.1119C7.5386 22.2519 7.6586 25.3319 9.4886 28.1719C10.9586 30.4519 13.9586 31.3719 16.5086 30.4219C17.6586 29.9919 18.4186 29.2219 18.4586 27.9219C18.4886 27.0719 18.5386 26.2119 18.4886 25.3619C18.3986 24.0919 17.9586 23.6219 16.7286 23.3019C16.5086 23.2419 16.2986 23.1719 16.0886 23.1019C16.0986 23.0319 16.1086 22.9719 16.1186 22.9019H22.9086C22.9086 22.9019 22.9386 22.9919 22.9586 23.0419C22.8186 23.1219 22.6886 23.2519 22.5386 23.2819C21.5986 23.4319 21.2586 24.0419 21.2786 24.9219C21.2986 25.9719 21.2386 27.0219 21.3486 28.0619C21.5086 29.6619 22.2986 30.4719 23.8586 30.8219C23.9786 30.8519 24.0886 30.9019 24.2686 30.9619C24.1486 31.0619 24.0986 31.1419 24.0386 31.1419C20.3386 31.1119 16.6386 31.1419 12.9486 31.0219C10.7386 30.9419 8.6886 30.2019 7.1886 28.4919C4.7986 25.7819 4.4786 22.6219 5.6886 19.3519C6.8786 16.1619 9.3186 14.2919 12.7086 13.9619C14.7586 13.7619 16.8386 13.9119 18.9086 13.9119C20.2086 13.9119 21.5086 13.9819 22.7986 13.9519C23.4486 13.9319 23.7686 14.1519 24.0286 14.7619C25.6286 18.4819 27.2686 22.1919 28.9086 25.9019C28.9986 26.1019 29.1086 26.2819 29.2886 26.6419C30.0086 25.0719 30.6786 23.6419 31.3186 22.2019C32.4486 19.6519 33.5486 17.1019 34.6786 14.5519C34.7786 14.3319 35.0286 14.0419 35.2186 14.0319C36.7186 13.9919 38.2186 14.0119 39.7386 14.1919C39.5486 14.2419 39.3586 14.2919 39.1686 14.3419C38.3286 14.5919 37.7486 15.1019 37.6886 16.0119C37.5986 17.2519 37.5286 18.4919 37.5086 19.7319C37.4786 22.2119 37.5086 24.7019 37.5086 27.1819C37.5086 27.2919 37.5086 27.4019 37.5086 27.5119C37.5586 29.7019 37.9786 30.2819 39.9886 31.1319L39.9986 31.0819Z"/>
</mask>
<path d="M39.9986 31.0819H32.1286C32.1286 31.0819 32.0986 31.0019 32.0886 30.9719C32.2086 30.9119 32.3186 30.8219 32.4386 30.8019C34.0086 30.5419 34.7086 29.8419 34.8486 28.2419C34.9386 27.2519 34.9586 26.2619 34.9686 25.2719C34.9786 22.2419 34.9686 19.2019 34.9686 16.1719C34.9686 15.9919 34.9686 15.8119 34.7786 15.5919C32.5786 20.5019 30.3786 25.4119 28.0986 30.5019C25.9186 25.5719 23.7886 20.7719 21.6586 15.9619C21.5886 15.9619 21.5186 15.9719 21.4486 15.9819V19.3919C21.3586 19.4119 21.2686 19.4319 21.1786 19.4519C21.0986 19.2919 20.9886 19.1419 20.9386 18.9719C19.9886 15.4419 16.2986 13.3619 12.8386 14.5019C10.5986 15.2419 9.2486 16.9419 8.5486 19.1119C7.5386 22.2519 7.6586 25.3319 9.4886 28.1719C10.9586 30.4519 13.9586 31.3719 16.5086 30.4219C17.6586 29.9919 18.4186 29.2219 18.4586 27.9219C18.4886 27.0719 18.5386 26.2119 18.4886 25.3619C18.3986 24.0919 17.9586 23.6219 16.7286 23.3019C16.5086 23.2419 16.2986 23.1719 16.0886 23.1019C16.0986 23.0319 16.1086 22.9719 16.1186 22.9019H22.9086C22.9086 22.9019 22.9386 22.9919 22.9586 23.0419C22.8186 23.1219 22.6886 23.2519 22.5386 23.2819C21.5986 23.4319 21.2586 24.0419 21.2786 24.9219C21.2986 25.9719 21.2386 27.0219 21.3486 28.0619C21.5086 29.6619 22.2986 30.4719 23.8586 30.8219C23.9786 30.8519 24.0886 30.9019 24.2686 30.9619C24.1486 31.0619 24.0986 31.1419 24.0386 31.1419C20.3386 31.1119 16.6386 31.1419 12.9486 31.0219C10.7386 30.9419 8.6886 30.2019 7.1886 28.4919C4.7986 25.7819 4.4786 22.6219 5.6886 19.3519C6.8786 16.1619 9.3186 14.2919 12.7086 13.9619C14.7586 13.7619 16.8386 13.9119 18.9086 13.9119C20.2086 13.9119 21.5086 13.9819 22.7986 13.9519C23.4486 13.9319 23.7686 14.1519 24.0286 14.7619C25.6286 18.4819 27.2686 22.1919 28.9086 25.9019C28.9986 26.1019 29.1086 26.2819 29.2886 26.6419C30.0086 25.0719 30.6786 23.6419 31.3186 22.2019C32.4486 19.6519 33.5486 17.1019 34.6786 14.5519C34.7786 14.3319 35.0286 14.0419 35.2186 14.0319C36.7186 13.9919 38.2186 14.0119 39.7386 14.1919C39.5486 14.2419 39.3586 14.2919 39.1686 14.3419C38.3286 14.5919 37.7486 15.1019 37.6886 16.0119C37.5986 17.2519 37.5286 18.4919 37.5086 19.7319C37.4786 22.2119 37.5086 24.7019 37.5086 27.1819C37.5086 27.2919 37.5086 27.4019 37.5086 27.5119C37.5586 29.7019 37.9786 30.2819 39.9886 31.1319L39.9986 31.0819Z" fill="#1D2127" stroke="#1D2127" stroke-width="2" mask="url(#path-2-inside-1_608_2004)"/>
</svg>
