<svg width="159" height="42" viewBox="0 0 159 42" fill="none" xmlns="http://www.w3.org/2000/svg">
<path d="M3.0293 15H1.86719V5.00586H7.43164V6.03125H3.0293V9.69531H7.16504V10.7139H3.0293V15ZM15.1787 11.2402C15.1787 11.8555 15.0989 12.4046 14.9394 12.8877C14.7799 13.3708 14.5498 13.7786 14.249 14.1113C13.9482 14.444 13.5836 14.6992 13.1552 14.877C12.7314 15.0501 12.2506 15.1367 11.7129 15.1367C11.2115 15.1367 10.7513 15.0501 10.332 14.877C9.91728 14.6992 9.55725 14.444 9.25191 14.1113C8.95113 13.7786 8.71643 13.3708 8.54781 12.8877C8.38375 12.4046 8.30172 11.8555 8.30172 11.2402C8.30172 10.4199 8.44072 9.72266 8.71871 9.14844C8.99671 8.56966 9.39319 8.12988 9.90816 7.8291C10.4277 7.52376 11.0452 7.37109 11.7607 7.37109C12.4443 7.37109 13.0413 7.52376 13.5517 7.8291C14.0667 8.13444 14.4655 8.5765 14.748 9.15527C15.0351 9.72949 15.1787 10.4245 15.1787 11.2402ZM9.4775 11.2402C9.4775 11.8418 9.55725 12.3636 9.71676 12.8057C9.87626 13.2477 10.1224 13.5895 10.455 13.8311C10.7877 14.0726 11.2161 14.1934 11.7402 14.1934C12.2597 14.1934 12.6858 14.0726 13.0185 13.8311C13.3558 13.5895 13.6041 13.2477 13.7636 12.8057C13.9231 12.3636 14.0029 11.8418 14.0029 11.2402C14.0029 10.6432 13.9231 10.1283 13.7636 9.69531C13.6041 9.25781 13.358 8.92057 13.0254 8.68359C12.6927 8.44661 12.262 8.32812 11.7334 8.32812C10.9541 8.32812 10.3821 8.58561 10.0175 9.10059C9.65751 9.61556 9.4775 10.3288 9.4775 11.2402ZM23.1171 7.50781V15H22.1874L22.0234 13.9473H21.9618C21.8069 14.207 21.6064 14.4258 21.3603 14.6035C21.1142 14.7812 20.8362 14.9134 20.5263 15C20.221 15.0911 19.8951 15.1367 19.5487 15.1367C18.9563 15.1367 18.4596 15.041 18.0585 14.8496C17.6575 14.6582 17.3544 14.362 17.1493 13.9609C16.9488 13.5599 16.8486 13.0449 16.8486 12.416V7.50781H17.997V12.334C17.997 12.9583 18.1383 13.4255 18.4208 13.7354C18.7034 14.0407 19.134 14.1934 19.7128 14.1934C20.2688 14.1934 20.7109 14.0885 21.039 13.8789C21.3717 13.6693 21.6109 13.3617 21.7568 12.9561C21.9026 12.5459 21.9755 12.0446 21.9755 11.4521V7.50781H23.1171ZM28.8544 7.37109C29.743 7.37109 30.4152 7.58984 30.871 8.02734C31.3267 8.46029 31.5546 9.15755 31.5546 10.1191V15H30.4335V10.1943C30.4335 9.56999 30.2899 9.10286 30.0028 8.79297C29.7203 8.48307 29.285 8.32812 28.6971 8.32812C27.8677 8.32812 27.2844 8.56283 26.9471 9.03223C26.6099 9.50163 26.4413 10.1829 26.4413 11.0762V15H25.3065V7.50781H26.2225L26.3934 8.58789H26.455C26.6145 8.32357 26.8173 8.10254 27.0634 7.9248C27.3095 7.74251 27.5852 7.60579 27.8905 7.51465C28.1958 7.41895 28.5171 7.37109 28.8544 7.37109ZM36.3485 15.1367C35.4006 15.1367 34.6486 14.8132 34.0926 14.166C33.5412 13.5189 33.2655 12.5573 33.2655 11.2812C33.2655 9.99154 33.548 9.01855 34.1131 8.3623C34.6782 7.7015 35.4302 7.37109 36.369 7.37109C36.7655 7.37109 37.1118 7.4235 37.408 7.52832C37.7043 7.63314 37.9595 7.77441 38.1737 7.95215C38.3879 8.12533 38.5679 8.32357 38.7137 8.54688H38.7957C38.7775 8.4056 38.7593 8.21191 38.7411 7.96582C38.7228 7.71973 38.7137 7.51921 38.7137 7.36426V4.36328H39.8485V15H38.9325L38.7616 13.9336H38.7137C38.5724 14.1569 38.3924 14.3597 38.1737 14.542C37.9595 14.7243 37.702 14.8701 37.4012 14.9795C37.105 15.0843 36.7541 15.1367 36.3485 15.1367ZM36.5262 14.1934C37.3283 14.1934 37.8957 13.9655 38.2284 13.5098C38.561 13.054 38.7274 12.3773 38.7274 11.4795V11.2744C38.7274 10.3219 38.5679 9.59049 38.2489 9.08008C37.9344 8.56966 37.3602 8.31445 36.5262 8.31445C35.8289 8.31445 35.3071 8.58333 34.9608 9.12109C34.6144 9.6543 34.4412 10.3835 34.4412 11.3086C34.4412 12.2292 34.6121 12.9401 34.9539 13.4414C35.3003 13.9427 35.8244 14.1934 36.5262 14.1934ZM44.9295 7.37109C45.5675 7.37109 46.1144 7.51237 46.5701 7.79492C47.0258 8.07747 47.3745 8.47396 47.616 8.98438C47.8576 9.49023 47.9783 10.0827 47.9783 10.7617V11.4658H42.8035C42.8172 12.3454 43.0359 13.0153 43.4598 13.4756C43.8836 13.9359 44.4806 14.166 45.2508 14.166C45.7247 14.166 46.144 14.1227 46.5086 14.0361C46.8732 13.9495 47.2514 13.8219 47.6434 13.6533V14.6514C47.2651 14.82 46.8891 14.943 46.5154 15.0205C46.1463 15.098 45.7088 15.1367 45.2029 15.1367C44.4829 15.1367 43.854 14.9909 43.3162 14.6992C42.783 14.403 42.3683 13.9701 42.0721 13.4004C41.7758 12.8307 41.6277 12.1335 41.6277 11.3086C41.6277 10.502 41.7622 9.80469 42.0311 9.2168C42.3045 8.62435 42.6873 8.16862 43.1795 7.84961C43.6762 7.5306 44.2596 7.37109 44.9295 7.37109ZM44.9158 8.30078C44.3097 8.30078 43.8266 8.49902 43.4666 8.89551C43.1066 9.29199 42.8924 9.8457 42.824 10.5566H46.7889C46.7843 10.11 46.7137 9.7181 46.577 9.38086C46.4448 9.03906 46.242 8.77474 45.9686 8.58789C45.6951 8.39648 45.3442 8.30078 44.9158 8.30078ZM52.3621 15.1367C51.4142 15.1367 50.6622 14.8132 50.1062 14.166C49.5548 13.5189 49.2791 12.5573 49.2791 11.2812C49.2791 9.99154 49.5616 9.01855 50.1267 8.3623C50.6918 7.7015 51.4438 7.37109 52.3826 7.37109C52.7791 7.37109 53.1254 7.4235 53.4216 7.52832C53.7179 7.63314 53.9731 7.77441 54.1873 7.95215C54.4015 8.12533 54.5815 8.32357 54.7273 8.54688H54.8093C54.7911 8.4056 54.7729 8.21191 54.7547 7.96582C54.7364 7.71973 54.7273 7.51921 54.7273 7.36426V4.36328H55.8621V15H54.9461L54.7752 13.9336H54.7273C54.586 14.1569 54.406 14.3597 54.1873 14.542C53.9731 14.7243 53.7156 14.8701 53.4148 14.9795C53.1186 15.0843 52.7677 15.1367 52.3621 15.1367ZM52.5398 14.1934C53.3419 14.1934 53.9093 13.9655 54.242 13.5098C54.5746 13.054 54.741 12.3773 54.741 11.4795V11.2744C54.741 10.3219 54.5815 9.59049 54.2625 9.08008C53.948 8.56966 53.3738 8.31445 52.5398 8.31445C51.8425 8.31445 51.3207 8.58333 50.9744 9.12109C50.628 9.6543 50.4548 10.3835 50.4548 11.3086C50.4548 12.2292 50.6257 12.9401 50.9675 13.4414C51.3139 13.9427 51.838 14.1934 52.5398 14.1934ZM66.0465 4.36328V7.02246C66.0465 7.3278 66.0374 7.62402 66.0192 7.91113C66.0055 8.19824 65.9941 8.42155 65.985 8.58105H66.0465C66.2516 8.24382 66.5478 7.95898 66.9352 7.72656C67.3226 7.49414 67.817 7.37793 68.4186 7.37793C69.3574 7.37793 70.1048 7.70378 70.6608 8.35547C71.2213 9.0026 71.5016 9.96647 71.5016 11.2471C71.5016 12.0902 71.374 12.8011 71.1188 13.3799C70.8636 13.9587 70.5036 14.3962 70.0387 14.6924C69.5739 14.9886 69.0247 15.1367 68.3913 15.1367C67.7988 15.1367 67.3112 15.0273 66.9284 14.8086C66.5501 14.5853 66.2584 14.3141 66.0534 13.9951H65.9645L65.7321 15H64.9118V4.36328H66.0465ZM68.234 8.32812C67.6917 8.32812 67.261 8.43522 66.942 8.64941C66.623 8.85905 66.3929 9.17806 66.2516 9.60645C66.1149 10.0303 66.0465 10.568 66.0465 11.2197V11.2812C66.0465 12.2246 66.2038 12.9469 66.5182 13.4482C66.8327 13.945 67.4046 14.1934 68.234 14.1934C68.9313 14.1934 69.4531 13.9382 69.7995 13.4277C70.1504 12.9173 70.3258 12.1882 70.3258 11.2402C70.3258 10.2741 70.1526 9.5472 69.8063 9.05957C69.4645 8.57194 68.9404 8.32812 68.234 8.32812ZM72.0914 7.50781H73.3082L74.9625 11.8555C75.0582 12.1107 75.1471 12.3568 75.2291 12.5938C75.3111 12.8262 75.3841 13.0495 75.4479 13.2637C75.5117 13.4779 75.5618 13.6852 75.5982 13.8857H75.6461C75.7099 13.6579 75.801 13.3594 75.9195 12.9902C76.038 12.6165 76.1656 12.236 76.3023 11.8486L77.8678 7.50781H79.0914L75.8307 16.1006C75.6575 16.5609 75.4547 16.9619 75.2223 17.3037C74.9944 17.6455 74.7164 17.9076 74.3883 18.0898C74.0602 18.2767 73.6637 18.3701 73.1988 18.3701C72.9846 18.3701 72.7955 18.3564 72.6314 18.3291C72.4674 18.3063 72.3261 18.279 72.2076 18.2471V17.3379C72.3079 17.3607 72.4286 17.3812 72.5699 17.3994C72.7158 17.4176 72.8661 17.4268 73.0211 17.4268C73.3036 17.4268 73.5475 17.3721 73.7525 17.2627C73.9622 17.1579 74.1422 17.0029 74.2926 16.7979C74.443 16.5928 74.5729 16.349 74.6822 16.0664L75.0924 15.0137L72.0914 7.50781Z" fill="#98A2B3"/>
<path d="M8.13672 28.2461H13.4688V35.4141C12.7201 35.6615 11.9453 35.8535 11.1445 35.9902C10.3438 36.127 9.44531 36.1953 8.44922 36.1953C6.9974 36.1953 5.76693 35.9089 4.75781 35.3359C3.75521 34.7565 2.99349 33.9199 2.47266 32.8262C1.95182 31.7259 1.69141 30.401 1.69141 28.8516C1.69141 27.3607 1.98112 26.0684 2.56055 24.9746C3.13997 23.8743 3.98307 23.0247 5.08984 22.4258C6.19661 21.8203 7.53776 21.5176 9.11328 21.5176C9.88802 21.5176 10.6367 21.5957 11.3594 21.752C12.0885 21.9017 12.7559 22.11 13.3613 22.377L12.541 24.3105C12.0592 24.0827 11.5189 23.8906 10.9199 23.7344C10.321 23.5781 9.69922 23.5 9.05469 23.5C8.03255 23.5 7.15039 23.7214 6.4082 24.1641C5.67253 24.6068 5.10612 25.2318 4.70898 26.0391C4.31185 26.8398 4.11328 27.7871 4.11328 28.8809C4.11328 29.9421 4.27279 30.873 4.5918 31.6738C4.91081 32.4746 5.40885 33.0996 6.08594 33.5488C6.76953 33.9915 7.65169 34.2129 8.73242 34.2129C9.27279 34.2129 9.73177 34.1836 10.1094 34.125C10.487 34.0664 10.8353 34.0013 11.1543 33.9297V30.248H8.13672V28.2461ZM18.6473 20.8047V24.623C18.6473 25.0202 18.6342 25.4076 18.6082 25.7852C18.5887 26.1628 18.5659 26.4557 18.5398 26.6641H18.6668C18.8947 26.2865 19.1746 25.9772 19.5066 25.7363C19.8387 25.4889 20.2098 25.3034 20.6199 25.1797C21.0366 25.056 21.4793 24.9941 21.948 24.9941C22.7749 24.9941 23.478 25.1341 24.0574 25.4141C24.6368 25.6875 25.0796 26.1139 25.3855 26.6934C25.698 27.2728 25.8543 28.0247 25.8543 28.9492V36H23.5594V29.3789C23.5594 28.5391 23.3868 27.9108 23.0418 27.4941C22.6967 27.071 22.1629 26.8594 21.4402 26.8594C20.7436 26.8594 20.1902 27.0059 19.7801 27.2988C19.3764 27.5853 19.0867 28.0117 18.9109 28.5781C18.7352 29.138 18.6473 29.8216 18.6473 30.6289V36H16.3523V20.8047H18.6473ZM38.191 25.1895V36H36.3844L36.0719 34.5449H35.9449C35.7171 34.916 35.4273 35.2253 35.0758 35.4727C34.7242 35.7135 34.3336 35.8926 33.9039 36.0098C33.4742 36.1335 33.0217 36.1953 32.5465 36.1953C31.7327 36.1953 31.0361 36.0586 30.4566 35.7852C29.8837 35.5052 29.4443 35.0755 29.1383 34.4961C28.8323 33.9167 28.6793 33.168 28.6793 32.25V25.1895H30.984V31.8203C30.984 32.6602 31.1533 33.2884 31.4918 33.7051C31.8368 34.1217 32.3707 34.3301 33.0934 34.3301C33.79 34.3301 34.3434 34.1868 34.7535 33.9004C35.1637 33.6139 35.4534 33.1908 35.6227 32.6309C35.7984 32.071 35.8863 31.3841 35.8863 30.5703V25.1895H38.191ZM43.4867 36H41.182V20.8047H43.4867V36ZM50.7062 24.9844C52.0734 24.9844 53.1053 25.2871 53.802 25.8926C54.5051 26.498 54.8566 27.4421 54.8566 28.7246V36H53.2258L52.7863 34.4668H52.7082C52.4022 34.8574 52.0865 35.1797 51.7609 35.4336C51.4354 35.6875 51.0578 35.8763 50.6281 36C50.2049 36.1302 49.6874 36.1953 49.0754 36.1953C48.4309 36.1953 47.8547 36.0781 47.3469 35.8438C46.8391 35.6029 46.4387 35.2383 46.1457 34.75C45.8527 34.2617 45.7062 33.6432 45.7062 32.8945C45.7062 31.7812 46.1197 30.9447 46.9465 30.3848C47.7798 29.8249 49.0363 29.5156 50.716 29.457L52.591 29.3887V28.8223C52.591 28.0736 52.4152 27.5397 52.0637 27.2207C51.7186 26.9017 51.2303 26.7422 50.5988 26.7422C50.0585 26.7422 49.5344 26.8203 49.0266 26.9766C48.5187 27.1328 48.024 27.3249 47.5422 27.5527L46.8 25.9316C47.3273 25.6517 47.9263 25.4238 48.5969 25.248C49.274 25.0723 49.9771 24.9844 50.7062 24.9844ZM52.5812 30.834L51.1848 30.8828C50.0389 30.9219 49.2349 31.1172 48.7727 31.4688C48.3104 31.8203 48.0793 32.3021 48.0793 32.9141C48.0793 33.4479 48.2388 33.8385 48.5578 34.0859C48.8768 34.3268 49.2967 34.4473 49.8176 34.4473C50.6118 34.4473 51.2694 34.2227 51.7902 33.7734C52.3176 33.3177 52.5812 32.6504 52.5812 31.7715V30.834ZM69.9863 24.9844C71.1973 24.9844 72.1087 25.2969 72.7207 25.9219C73.3392 26.5469 73.6484 27.5495 73.6484 28.9297V36H71.3535V29.3398C71.3535 28.5195 71.194 27.901 70.875 27.4844C70.556 27.0677 70.071 26.8594 69.4199 26.8594C68.5085 26.8594 67.8509 27.1523 67.4473 27.7383C67.0501 28.3177 66.8516 29.1608 66.8516 30.2676V36H64.5566V29.3398C64.5566 28.793 64.485 28.3372 64.3418 27.9727C64.2051 27.6016 63.9935 27.3249 63.707 27.1426C63.4206 26.9538 63.0592 26.8594 62.623 26.8594C61.9915 26.8594 61.487 27.0026 61.1094 27.2891C60.7383 27.5755 60.4714 27.9987 60.3086 28.5586C60.1458 29.112 60.0645 29.7923 60.0645 30.5996V36H57.7695V25.1895H59.5566L59.8789 26.6445H60.0059C60.2272 26.2669 60.5007 25.9577 60.8262 25.7168C61.1582 25.4694 61.526 25.2871 61.9297 25.1699C62.3333 25.0462 62.7533 24.9844 63.1895 24.9844C63.9967 24.9844 64.6771 25.1276 65.2305 25.4141C65.7839 25.694 66.1973 26.1237 66.4707 26.7031H66.6465C66.985 26.1172 67.457 25.6842 68.0625 25.4043C68.668 25.1243 69.3092 24.9844 69.9863 24.9844ZM87.8434 36L83.732 24.0762H83.6441C83.6637 24.3431 83.6865 24.7077 83.7125 25.1699C83.7385 25.6322 83.7613 26.127 83.7809 26.6543C83.8004 27.1816 83.8102 27.6862 83.8102 28.168V36H81.6813V21.7227H84.9723L88.9273 33.1191H88.9859L93.0777 21.7227H96.359V36H94.1227V28.0508C94.1227 27.6146 94.1292 27.1426 94.1422 26.6348C94.1617 26.127 94.1813 25.6452 94.2008 25.1895C94.2268 24.7337 94.2464 24.3691 94.2594 24.0957H94.1813L89.9137 36H87.8434ZM109.008 25.1895V36H107.202L106.889 34.5449H106.762C106.534 34.916 106.245 35.2253 105.893 35.4727C105.541 35.7135 105.151 35.8926 104.721 36.0098C104.291 36.1335 103.839 36.1953 103.364 36.1953C102.55 36.1953 101.853 36.0586 101.274 35.7852C100.701 35.5052 100.261 35.0755 99.9555 34.4961C99.6495 33.9167 99.4965 33.168 99.4965 32.25V25.1895H101.801V31.8203C101.801 32.6602 101.97 33.2884 102.309 33.7051C102.654 34.1217 103.188 34.3301 103.911 34.3301C104.607 34.3301 105.161 34.1868 105.571 33.9004C105.981 33.6139 106.271 33.1908 106.44 32.6309C106.616 32.071 106.704 31.3841 106.704 30.5703V25.1895H109.008ZM110.915 40.8047C110.577 40.8047 110.254 40.7786 109.948 40.7266C109.642 40.681 109.385 40.6257 109.177 40.5605V38.7246C109.398 38.7897 109.613 38.8385 109.821 38.8711C110.03 38.9036 110.267 38.9199 110.534 38.9199C110.958 38.9199 111.306 38.8027 111.579 38.5684C111.859 38.334 111.999 37.888 111.999 37.2305V25.1895H114.294V37.4355C114.294 38.0931 114.177 38.6758 113.943 39.1836C113.715 39.6914 113.35 40.0885 112.849 40.375C112.354 40.6615 111.71 40.8047 110.915 40.8047ZM111.863 22.3086C111.863 21.8464 111.986 21.5208 112.234 21.332C112.488 21.1432 112.797 21.0488 113.161 21.0488C113.513 21.0488 113.816 21.1432 114.07 21.332C114.33 21.5208 114.46 21.8464 114.46 22.3086C114.46 22.7643 114.33 23.0898 114.07 23.2852C113.816 23.474 113.513 23.5684 113.161 23.5684C112.797 23.5684 112.488 23.474 112.234 23.2852C111.986 23.0898 111.863 22.7643 111.863 22.3086ZM121.309 34.3398C121.608 34.3398 121.904 34.3138 122.197 34.2617C122.49 34.2031 122.757 34.1348 122.998 34.0566V35.7949C122.744 35.9056 122.415 36 122.012 36.0781C121.608 36.1562 121.188 36.1953 120.752 36.1953C120.14 36.1953 119.59 36.0944 119.102 35.8926C118.613 35.6842 118.226 35.3294 117.939 34.8281C117.653 34.3268 117.51 33.6335 117.51 32.748V26.9375H116.035V25.9121L117.617 25.1016L118.369 22.7871H119.814V25.1895H122.91V26.9375H119.814V32.7188C119.814 33.2656 119.951 33.6725 120.225 33.9395C120.498 34.2064 120.859 34.3398 121.309 34.3398ZM129.134 24.9844C130.501 24.9844 131.533 25.2871 132.229 25.8926C132.932 26.498 133.284 27.4421 133.284 28.7246V36H131.653L131.214 34.4668H131.136C130.83 34.8574 130.514 35.1797 130.188 35.4336C129.863 35.6875 129.485 35.8763 129.055 36C128.632 36.1302 128.115 36.1953 127.503 36.1953C126.858 36.1953 126.282 36.0781 125.774 35.8438C125.266 35.6029 124.866 35.2383 124.573 34.75C124.28 34.2617 124.134 33.6432 124.134 32.8945C124.134 31.7812 124.547 30.9447 125.374 30.3848C126.207 29.8249 127.464 29.5156 129.143 29.457L131.018 29.3887V28.8223C131.018 28.0736 130.843 27.5397 130.491 27.2207C130.146 26.9017 129.658 26.7422 129.026 26.7422C128.486 26.7422 127.962 26.8203 127.454 26.9766C126.946 27.1328 126.451 27.3249 125.97 27.5527L125.227 25.9316C125.755 25.6517 126.354 25.4238 127.024 25.248C127.701 25.0723 128.404 24.9844 129.134 24.9844ZM131.009 30.834L129.612 30.8828C128.466 30.9219 127.662 31.1172 127.2 31.4688C126.738 31.8203 126.507 32.3021 126.507 32.9141C126.507 33.4479 126.666 33.8385 126.985 34.0859C127.304 34.3268 127.724 34.4473 128.245 34.4473C129.039 34.4473 129.697 34.2227 130.218 33.7734C130.745 33.3177 131.009 32.6504 131.009 31.7715V30.834ZM138.492 20.8047V24.4668C138.492 24.89 138.479 25.3066 138.453 25.7168C138.433 26.1204 138.414 26.4362 138.394 26.6641H138.492C138.785 26.1953 139.192 25.8014 139.712 25.4824C140.24 25.1569 140.914 24.9941 141.734 24.9941C143.017 24.9941 144.048 25.4661 144.83 26.4102C145.611 27.3477 146.002 28.7376 146.002 30.5801C146.002 31.804 145.823 32.8327 145.464 33.666C145.106 34.4993 144.602 35.1309 143.951 35.5605C143.306 35.9837 142.548 36.1953 141.675 36.1953C140.855 36.1953 140.191 36.0456 139.683 35.7461C139.182 35.4401 138.788 35.0853 138.502 34.6816H138.336L137.916 36H136.197V20.8047H138.492ZM141.129 26.8594C140.477 26.8594 139.96 26.9896 139.576 27.25C139.198 27.5104 138.925 27.901 138.755 28.4219C138.586 28.9362 138.498 29.5905 138.492 30.3848V30.5898C138.492 31.7943 138.681 32.7155 139.058 33.3535C139.442 33.9915 140.139 34.3105 141.148 34.3105C141.949 34.3105 142.564 33.9883 142.994 33.3438C143.423 32.6927 143.638 31.7617 143.638 30.5508C143.638 29.3268 143.423 28.4056 142.994 27.7871C142.571 27.1686 141.949 26.8594 141.129 26.8594ZM152.596 24.9844C153.963 24.9844 154.995 25.2871 155.692 25.8926C156.395 26.498 156.746 27.4421 156.746 28.7246V36H155.116L154.676 34.4668H154.598C154.292 34.8574 153.976 35.1797 153.651 35.4336C153.325 35.6875 152.948 35.8763 152.518 36C152.095 36.1302 151.577 36.1953 150.965 36.1953C150.321 36.1953 149.745 36.0781 149.237 35.8438C148.729 35.6029 148.329 35.2383 148.036 34.75C147.743 34.2617 147.596 33.6432 147.596 32.8945C147.596 31.7812 148.01 30.9447 148.836 30.3848C149.67 29.8249 150.926 29.5156 152.606 29.457L154.481 29.3887V28.8223C154.481 28.0736 154.305 27.5397 153.954 27.2207C153.608 26.9017 153.12 26.7422 152.489 26.7422C151.948 26.7422 151.424 26.8203 150.916 26.9766C150.409 27.1328 149.914 27.3249 149.432 27.5527L148.69 25.9316C149.217 25.6517 149.816 25.4238 150.487 25.248C151.164 25.0723 151.867 24.9844 152.596 24.9844ZM154.471 30.834L153.075 30.8828C151.929 30.9219 151.125 31.1172 150.663 31.4688C150.2 31.8203 149.969 32.3021 149.969 32.9141C149.969 33.4479 150.129 33.8385 150.448 34.0859C150.767 34.3268 151.187 34.4473 151.707 34.4473C152.502 34.4473 153.159 34.2227 153.68 33.7734C154.207 33.3177 154.471 32.6504 154.471 31.7715V30.834Z" fill="white"/>
</svg>
