<svg width="35" height="19" viewBox="0 0 35 19" fill="none" xmlns="http://www.w3.org/2000/svg">
  <mask id="path-1-inside-1_608_2005" fill="white">
    <path d="M34.9986 18.0819H27.1286C27.1286 18.0819 27.0986 18.0019 27.0886 17.9719C27.2086 17.9119 27.3186 17.8219 27.4386 17.8019C29.0086 17.5419 29.7086 16.8419 29.8486 15.2419C29.9386 14.2519 29.9586 13.2619 29.9686 12.2719C29.9786 9.24191 29.9686 6.20191 29.9686 3.17191C29.9686 2.99191 29.9686 2.81191 29.7786 2.59191C27.5786 7.50191 25.3786 12.4119 23.0986 17.5019C20.9186 12.5719 18.7886 7.77191 16.6586 2.96191C16.5886 2.96191 16.5186 2.97191 16.4486 2.98191V6.39191C16.3586 6.41191 16.2686 6.43191 16.1786 6.45191C16.0986 6.29191 15.9886 6.14191 15.9386 5.97191C14.9886 2.44191 11.2986 0.361909 7.8386 1.50191C5.5986 2.24191 4.2486 3.94191 3.5486 6.11191C2.5386 9.25191 2.6586 12.3319 4.4886 15.1719C5.9586 17.4519 8.9586 18.3719 11.5086 17.4219C12.6586 16.9919 13.4186 16.2219 13.4586 14.9219C13.4886 14.0719 13.5386 13.2119 13.4886 12.3619C13.3986 11.0919 12.9586 10.6219 11.7286 10.3019C11.5086 10.2419 11.2986 10.1719 11.0886 10.1019C11.0986 10.0319 11.1086 9.97191 11.1186 9.90191H17.9086C17.9086 9.90191 17.9386 9.99191 17.9586 10.0419C17.8186 10.1219 17.6886 10.2519 17.5386 10.2819C16.5986 10.4319 16.2586 11.0419 16.2786 11.9219C16.2986 12.9719 16.2386 14.0219 16.3486 15.0619C16.5086 16.6619 17.2986 17.4719 18.8586 17.8219C18.9786 17.8519 19.0886 17.9019 19.2686 17.9619C19.1486 18.0619 19.0986 18.1419 19.0386 18.1419C15.3386 18.1119 11.6386 18.1419 7.9486 18.0219C5.7386 17.9419 3.6886 17.2019 2.1886 15.4919C-0.201396 12.7819 -0.521396 9.62191 0.688604 6.35191C1.8786 3.16191 4.3186 1.29191 7.7086 0.96191C9.7586 0.76191 11.8386 0.911911 13.9086 0.911911C15.2086 0.911911 16.5086 0.98191 17.7986 0.95191C18.4486 0.93191 18.7686 1.15191 19.0286 1.76191C20.6286 5.48191 22.2686 9.19191 23.9086 12.9019C23.9986 13.1019 24.1086 13.2819 24.2886 13.6419C25.0086 12.0719 25.6786 10.6419 26.3186 9.20191C27.4486 6.65191 28.5486 4.10191 29.6786 1.55191C29.7786 1.33191 30.0286 1.04191 30.2186 1.03191C31.7186 0.99191 33.2186 1.01191 34.7386 1.19191C34.5486 1.24191 34.3586 1.29191 34.1686 1.34191C33.3286 1.59191 32.7486 2.10191 32.6886 3.01191C32.5986 4.25191 32.5286 5.49191 32.5086 6.73191C32.4786 9.21191 32.5086 11.7019 32.5086 14.1819C32.5086 14.2919 32.5086 14.4019 32.5086 14.5119C32.5586 16.7019 32.9786 17.2819 34.9886 18.1319L34.9986 18.0819Z"/>
  </mask>
  <path d="M34.9986 18.0819H27.1286C27.1286 18.0819 27.0986 18.0019 27.0886 17.9719C27.2086 17.9119 27.3186 17.8219 27.4386 17.8019C29.0086 17.5419 29.7086 16.8419 29.8486 15.2419C29.9386 14.2519 29.9586 13.2619 29.9686 12.2719C29.9786 9.24191 29.9686 6.20191 29.9686 3.17191C29.9686 2.99191 29.9686 2.81191 29.7786 2.59191C27.5786 7.50191 25.3786 12.4119 23.0986 17.5019C20.9186 12.5719 18.7886 7.77191 16.6586 2.96191C16.5886 2.96191 16.5186 2.97191 16.4486 2.98191V6.39191C16.3586 6.41191 16.2686 6.43191 16.1786 6.45191C16.0986 6.29191 15.9886 6.14191 15.9386 5.97191C14.9886 2.44191 11.2986 0.361909 7.8386 1.50191C5.5986 2.24191 4.2486 3.94191 3.5486 6.11191C2.5386 9.25191 2.6586 12.3319 4.4886 15.1719C5.9586 17.4519 8.9586 18.3719 11.5086 17.4219C12.6586 16.9919 13.4186 16.2219 13.4586 14.9219C13.4886 14.0719 13.5386 13.2119 13.4886 12.3619C13.3986 11.0919 12.9586 10.6219 11.7286 10.3019C11.5086 10.2419 11.2986 10.1719 11.0886 10.1019C11.0986 10.0319 11.1086 9.97191 11.1186 9.90191H17.9086C17.9086 9.90191 17.9386 9.99191 17.9586 10.0419C17.8186 10.1219 17.6886 10.2519 17.5386 10.2819C16.5986 10.4319 16.2586 11.0419 16.2786 11.9219C16.2986 12.9719 16.2386 14.0219 16.3486 15.0619C16.5086 16.6619 17.2986 17.4719 18.8586 17.8219C18.9786 17.8519 19.0886 17.9019 19.2686 17.9619C19.1486 18.0619 19.0986 18.1419 19.0386 18.1419C15.3386 18.1119 11.6386 18.1419 7.9486 18.0219C5.7386 17.9419 3.6886 17.2019 2.1886 15.4919C-0.201396 12.7819 -0.521396 9.62191 0.688604 6.35191C1.8786 3.16191 4.3186 1.29191 7.7086 0.96191C9.7586 0.76191 11.8386 0.911911 13.9086 0.911911C15.2086 0.911911 16.5086 0.98191 17.7986 0.95191C18.4486 0.93191 18.7686 1.15191 19.0286 1.76191C20.6286 5.48191 22.2686 9.19191 23.9086 12.9019C23.9986 13.1019 24.1086 13.2819 24.2886 13.6419C25.0086 12.0719 25.6786 10.6419 26.3186 9.20191C27.4486 6.65191 28.5486 4.10191 29.6786 1.55191C29.7786 1.33191 30.0286 1.04191 30.2186 1.03191C31.7186 0.99191 33.2186 1.01191 34.7386 1.19191C34.5486 1.24191 34.3586 1.29191 34.1686 1.34191C33.3286 1.59191 32.7486 2.10191 32.6886 3.01191C32.5986 4.25191 32.5286 5.49191 32.5086 6.73191C32.4786 9.21191 32.5086 11.7019 32.5086 14.1819C32.5086 14.2919 32.5086 14.4019 32.5086 14.5119C32.5586 16.7019 32.9786 17.2819 34.9886 18.1319L34.9986 18.0819Z" fill="white" stroke="white" stroke-width="2" mask="url(#path-1-inside-1_608_2005)"/>
</svg>
