<svg width="105" height="105" viewBox="0 0 105 105" fill="none" xmlns="http://www.w3.org/2000/svg">
<g id="html icon">
<path id="Vector" d="M19.3661 89.2533L11.9932 6.5625H93.0072L85.6244 89.2402L52.451 98.4375L19.3661 89.2533Z" fill="#E44F26"/>
<path id="Vector_2" d="M52.5 91.4091L79.3078 83.9771L85.6144 13.3252H52.5V91.4091Z" fill="#F1662A"/>
<path id="Vector_3" d="M52.5 43.9916H39.0797L38.1544 33.6065H52.5V23.4641H27.0703L27.3131 26.1875L29.8036 54.134H52.5V43.9916ZM52.5 70.3302L52.4541 70.3433L41.16 67.2951L40.4381 59.2068H30.2564L31.6772 75.1274L52.4541 80.8958L52.5 80.8827V70.3302Z" fill="#EBEBEB"/>
<path id="Vector_4" d="M52.4639 43.9916V54.134H64.9523L63.7776 67.2885L52.4639 70.3401V80.8925L73.2571 75.1274L73.4081 73.4146L75.7903 46.7151L76.0396 43.9916H73.3064H52.4639ZM52.4639 23.4641V33.6065H76.9617L77.1651 31.3293L77.6278 26.1875L77.8706 23.4641H52.4639Z" fill="white"/>
</g>
</svg>
