<svg width="44" height="26" viewBox="0 0 44 26" fill="none" xmlns="http://www.w3.org/2000/svg">
<g filter="url(#filter0_d_517_2148)">
<mask id="path-1-outside-1_517_2148" maskUnits="userSpaceOnUse" x="3.50122" y="-0.642029" width="37" height="19" fill="black">
<rect fill="white" x="3.50122" y="-0.642029" width="37" height="19"/>
<path d="M39.4986 17.582H31.6286C31.6286 17.582 31.5986 17.502 31.5886 17.472C31.7086 17.412 31.8186 17.322 31.9386 17.302C33.5086 17.042 34.2086 16.342 34.3486 14.742C34.4386 13.752 34.4586 12.762 34.4686 11.772C34.4786 8.74197 34.4686 5.70197 34.4686 2.67197C34.4686 2.49197 34.4686 2.31197 34.2786 2.09197C32.0786 7.00197 29.8786 11.912 27.5986 17.002C25.4186 12.072 23.2886 7.27197 21.1586 2.46197C21.0886 2.46197 21.0186 2.47197 20.9486 2.48197V5.89197C20.8586 5.91197 20.7686 5.93197 20.6786 5.95197C20.5986 5.79197 20.4886 5.64197 20.4386 5.47197C19.4886 1.94197 15.7986 -0.13803 12.3386 1.00197C10.0986 1.74197 8.7486 3.44197 8.0486 5.61197C7.0386 8.75197 7.1586 11.832 8.9886 14.672C10.4586 16.952 13.4586 17.872 16.0086 16.922C17.1586 16.492 17.9186 15.722 17.9586 14.422C17.9886 13.572 18.0386 12.712 17.9886 11.862C17.8986 10.592 17.4586 10.122 16.2286 9.80197C16.0086 9.74197 15.7986 9.67197 15.5886 9.60197C15.5986 9.53197 15.6086 9.47197 15.6186 9.40197H22.4086C22.4086 9.40197 22.4386 9.49197 22.4586 9.54197C22.3186 9.62197 22.1886 9.75197 22.0386 9.78197C21.0986 9.93197 20.7586 10.542 20.7786 11.422C20.7986 12.472 20.7386 13.522 20.8486 14.562C21.0086 16.162 21.7986 16.972 23.3586 17.322C23.4786 17.352 23.5886 17.402 23.7686 17.462C23.6486 17.562 23.5986 17.642 23.5386 17.642C19.8386 17.612 16.1386 17.642 12.4486 17.522C10.2386 17.442 8.1886 16.702 6.6886 14.992C4.2986 12.282 3.9786 9.12197 5.1886 5.85197C6.3786 2.66197 8.8186 0.791971 12.2086 0.461971C14.2586 0.261971 16.3386 0.411972 18.4086 0.411972C19.7086 0.411972 21.0086 0.481971 22.2986 0.451971C22.9486 0.431971 23.2686 0.65197 23.5286 1.26197C25.1286 4.98197 26.7686 8.69197 28.4086 12.402C28.4986 12.602 28.6086 12.782 28.7886 13.142C29.5086 11.572 30.1786 10.142 30.8186 8.70197C31.9486 6.15197 33.0486 3.60197 34.1786 1.05197C34.2786 0.831971 34.5286 0.541971 34.7186 0.531971C36.2186 0.491971 37.7186 0.51197 39.2386 0.69197C39.0486 0.74197 38.8586 0.79197 38.6686 0.84197C37.8286 1.09197 37.2486 1.60197 37.1886 2.51197C37.0986 3.75197 37.0286 4.99197 37.0086 6.23197C36.9786 8.71197 37.0086 11.202 37.0086 13.682C37.0086 13.792 37.0086 13.902 37.0086 14.012C37.0586 16.202 37.4786 16.782 39.4886 17.632L39.4986 17.582Z"/>
</mask>
<path d="M39.4986 17.582H31.6286C31.6286 17.582 31.5986 17.502 31.5886 17.472C31.7086 17.412 31.8186 17.322 31.9386 17.302C33.5086 17.042 34.2086 16.342 34.3486 14.742C34.4386 13.752 34.4586 12.762 34.4686 11.772C34.4786 8.74197 34.4686 5.70197 34.4686 2.67197C34.4686 2.49197 34.4686 2.31197 34.2786 2.09197C32.0786 7.00197 29.8786 11.912 27.5986 17.002C25.4186 12.072 23.2886 7.27197 21.1586 2.46197C21.0886 2.46197 21.0186 2.47197 20.9486 2.48197V5.89197C20.8586 5.91197 20.7686 5.93197 20.6786 5.95197C20.5986 5.79197 20.4886 5.64197 20.4386 5.47197C19.4886 1.94197 15.7986 -0.13803 12.3386 1.00197C10.0986 1.74197 8.7486 3.44197 8.0486 5.61197C7.0386 8.75197 7.1586 11.832 8.9886 14.672C10.4586 16.952 13.4586 17.872 16.0086 16.922C17.1586 16.492 17.9186 15.722 17.9586 14.422C17.9886 13.572 18.0386 12.712 17.9886 11.862C17.8986 10.592 17.4586 10.122 16.2286 9.80197C16.0086 9.74197 15.7986 9.67197 15.5886 9.60197C15.5986 9.53197 15.6086 9.47197 15.6186 9.40197H22.4086C22.4086 9.40197 22.4386 9.49197 22.4586 9.54197C22.3186 9.62197 22.1886 9.75197 22.0386 9.78197C21.0986 9.93197 20.7586 10.542 20.7786 11.422C20.7986 12.472 20.7386 13.522 20.8486 14.562C21.0086 16.162 21.7986 16.972 23.3586 17.322C23.4786 17.352 23.5886 17.402 23.7686 17.462C23.6486 17.562 23.5986 17.642 23.5386 17.642C19.8386 17.612 16.1386 17.642 12.4486 17.522C10.2386 17.442 8.1886 16.702 6.6886 14.992C4.2986 12.282 3.9786 9.12197 5.1886 5.85197C6.3786 2.66197 8.8186 0.791971 12.2086 0.461971C14.2586 0.261971 16.3386 0.411972 18.4086 0.411972C19.7086 0.411972 21.0086 0.481971 22.2986 0.451971C22.9486 0.431971 23.2686 0.65197 23.5286 1.26197C25.1286 4.98197 26.7686 8.69197 28.4086 12.402C28.4986 12.602 28.6086 12.782 28.7886 13.142C29.5086 11.572 30.1786 10.142 30.8186 8.70197C31.9486 6.15197 33.0486 3.60197 34.1786 1.05197C34.2786 0.831971 34.5286 0.541971 34.7186 0.531971C36.2186 0.491971 37.7186 0.51197 39.2386 0.69197C39.0486 0.74197 38.8586 0.79197 38.6686 0.84197C37.8286 1.09197 37.2486 1.60197 37.1886 2.51197C37.0986 3.75197 37.0286 4.99197 37.0086 6.23197C36.9786 8.71197 37.0086 11.202 37.0086 13.682C37.0086 13.792 37.0086 13.902 37.0086 14.012C37.0586 16.202 37.4786 16.782 39.4886 17.632L39.4986 17.582Z" fill="white"/>
<path d="M39.4986 17.582H31.6286C31.6286 17.582 31.5986 17.502 31.5886 17.472C31.7086 17.412 31.8186 17.322 31.9386 17.302C33.5086 17.042 34.2086 16.342 34.3486 14.742C34.4386 13.752 34.4586 12.762 34.4686 11.772C34.4786 8.74197 34.4686 5.70197 34.4686 2.67197C34.4686 2.49197 34.4686 2.31197 34.2786 2.09197C32.0786 7.00197 29.8786 11.912 27.5986 17.002C25.4186 12.072 23.2886 7.27197 21.1586 2.46197C21.0886 2.46197 21.0186 2.47197 20.9486 2.48197V5.89197C20.8586 5.91197 20.7686 5.93197 20.6786 5.95197C20.5986 5.79197 20.4886 5.64197 20.4386 5.47197C19.4886 1.94197 15.7986 -0.13803 12.3386 1.00197C10.0986 1.74197 8.7486 3.44197 8.0486 5.61197C7.0386 8.75197 7.1586 11.832 8.9886 14.672C10.4586 16.952 13.4586 17.872 16.0086 16.922C17.1586 16.492 17.9186 15.722 17.9586 14.422C17.9886 13.572 18.0386 12.712 17.9886 11.862C17.8986 10.592 17.4586 10.122 16.2286 9.80197C16.0086 9.74197 15.7986 9.67197 15.5886 9.60197C15.5986 9.53197 15.6086 9.47197 15.6186 9.40197H22.4086C22.4086 9.40197 22.4386 9.49197 22.4586 9.54197C22.3186 9.62197 22.1886 9.75197 22.0386 9.78197C21.0986 9.93197 20.7586 10.542 20.7786 11.422C20.7986 12.472 20.7386 13.522 20.8486 14.562C21.0086 16.162 21.7986 16.972 23.3586 17.322C23.4786 17.352 23.5886 17.402 23.7686 17.462C23.6486 17.562 23.5986 17.642 23.5386 17.642C19.8386 17.612 16.1386 17.642 12.4486 17.522C10.2386 17.442 8.1886 16.702 6.6886 14.992C4.2986 12.282 3.9786 9.12197 5.1886 5.85197C6.3786 2.66197 8.8186 0.791971 12.2086 0.461971C14.2586 0.261971 16.3386 0.411972 18.4086 0.411972C19.7086 0.411972 21.0086 0.481971 22.2986 0.451971C22.9486 0.431971 23.2686 0.65197 23.5286 1.26197C25.1286 4.98197 26.7686 8.69197 28.4086 12.402C28.4986 12.602 28.6086 12.782 28.7886 13.142C29.5086 11.572 30.1786 10.142 30.8186 8.70197C31.9486 6.15197 33.0486 3.60197 34.1786 1.05197C34.2786 0.831971 34.5286 0.541971 34.7186 0.531971C36.2186 0.491971 37.7186 0.51197 39.2386 0.69197C39.0486 0.74197 38.8586 0.79197 38.6686 0.84197C37.8286 1.09197 37.2486 1.60197 37.1886 2.51197C37.0986 3.75197 37.0286 4.99197 37.0086 6.23197C36.9786 8.71197 37.0086 11.202 37.0086 13.682C37.0086 13.792 37.0086 13.902 37.0086 14.012C37.0586 16.202 37.4786 16.782 39.4886 17.632L39.4986 17.582Z" stroke="white" stroke-width="0.5" mask="url(#path-1-outside-1_517_2148)"/>
</g>
<defs>
<filter id="filter0_d_517_2148" x="0.251465" y="0.108093" width="43.552" height="25.8735" filterUnits="userSpaceOnUse" color-interpolation-filters="sRGB">
<feFlood flood-opacity="0" result="BackgroundImageFix"/>
<feColorMatrix in="SourceAlpha" type="matrix" values="0 0 0 0 0 0 0 0 0 0 0 0 0 0 0 0 0 0 127 0" result="hardAlpha"/>
<feOffset dy="4"/>
<feGaussianBlur stdDeviation="2"/>
<feComposite in2="hardAlpha" operator="out"/>
<feColorMatrix type="matrix" values="0 0 0 0 0 0 0 0 0 0 0 0 0 0 0 0 0 0 0.25 0"/>
<feBlend mode="normal" in2="BackgroundImageFix" result="effect1_dropShadow_517_2148"/>
<feBlend mode="normal" in="SourceGraphic" in2="effect1_dropShadow_517_2148" result="shape"/>
</filter>
</defs>
</svg>
