<svg width="56" height="56" viewBox="0 0 56 56" fill="none" xmlns="http://www.w3.org/2000/svg">
  <g>
    <!-- Main shield -->
    <path d="M28 9L46 18V30C46 40 34 46 28 48C22 46 10 40 10 30V18L28 9Z" fill="#3C7ABE"/>
    <!-- Shield highlight for depth -->
    <path d="M28 13L42 20.5V30C42 37 32 42 28 43.5C24 42 14 37 14 30V20.5L28 13Z" fill="#fff" fill-opacity="0.13"/>
    <!-- Subtle inner highlight -->
    <path d="M28 17L38 22.5V30C38 34 30.5 38 28 39C25.5 38 18 34 18 30V22.5L28 17Z" fill="#fff" fill-opacity="0.07"/>
    <!-- Advanced, dynamic checkmark -->
    <path d="M21.5 31.5L27.5 38L38 22" stroke="#F0782D" stroke-width="2.7" stroke-linecap="round" stroke-linejoin="round"/>
    <!-- Subtle white glow behind checkmark for contrast -->
    <path d="M21.5 31.5L27.5 38L38 22" stroke="#fff" stroke-width="5" stroke-linecap="round" stroke-linejoin="round" opacity="0.13"/>
  </g>
</svg>