<svg width="56" height="56" viewBox="0 0 56 56" fill="none" xmlns="http://www.w3.org/2000/svg">
  <g>
    <!-- Modern shield background -->
    <!-- Modern shield background -->
    <path d="M28 10L46 19V32C46 42 34 48 28 50C22 48 10 42 10 32V19L28 10Z" fill="#3C7ABE"/>
    <path d="M28 14L42 21.5V32C42 39 32 44 28 45.5C24 44 14 39 14 32V21.5L28 14Z" fill="#fff" style="opacity:0.13;"/>
    <!-- Advanced, clean consulting robot -->
    <g>
      <!-- Robot head: rounded, minimal -->
      <rect x="18" y="22" width="20" height="13" rx="7" fill="#fff" stroke="#3C7ABE" style="stroke-width:2;"/>
      <!-- Faceplate: smooth, modern -->
      <rect x="22.5" y="27" width="11" height="4" rx="2" fill="#3C7ABE"/>
      <!-- Eyes: simple, friendly -->
      <circle cx="25.5" cy="29" r="0.9" fill="#fff"/>
      <circle cx="30.5" cy="29" r="0.9" fill="#fff"/>
      <!-- Subtle smile -->
      <path d="M27 31.2 Q28 32 29 31.2" stroke="#fff" style="stroke-width:0.7;" fill="none"/>
      <!-- Orange accent: antenna -->
      <rect x="27" y="18.5" width="2" height="4" rx="1" fill="#F0782D"/>
      <circle cx="28" cy="17.5" r="1.5" fill="#F0782D"/>
      <!-- Headset mic: clean, modern -->
      <path d="M36.5 29.5C38.5 29.5 38.5 33 35.5 33" stroke="#3C7ABE" style="stroke-width:1.2;" stroke-linecap="round"/>
      <circle cx="35.5" cy="33" r="1" fill="#F0782D"/>
      <!-- Minimal code/gear detail: single bracket -->
      <path d="M20.5 31 Q19.8 32 20.5 33" stroke="#3C7ABE" style="stroke-width:1;" stroke-linecap="round" fill="none"/>
    </g>
    <!-- Subtle shadow for depth -->
    <ellipse cx="28" cy="39" rx="9" ry="2.5" fill="#fff" style="opacity:0.09;"/>
  </g>
</svg>