<svg width="105" height="105" viewBox="0 0 105 105" fill="none" xmlns="http://www.w3.org/2000/svg">
<g id="javscript icon">
<path id="Vector" d="M6.5625 6.5625H98.4375V98.4375H6.5625V6.5625Z" fill="#F5DE19"/>
<path id="Vector_2" d="M68.2796 78.3399C69.0624 79.93 70.2786 81.2665 71.788 82.1953C73.2974 83.1242 75.0386 83.6076 76.8109 83.5899C80.3874 83.5899 82.6744 81.8016 82.6744 79.3242C82.6744 76.3711 80.3251 75.3146 76.3876 73.5919L74.2285 72.6666C67.9941 70.0121 63.8598 66.6882 63.8598 59.6597C63.8598 53.1858 68.7816 48.2541 76.5024 48.2541C79.0018 48.0736 81.4989 48.633 83.6824 49.8624C85.866 51.0919 87.6391 52.937 88.7809 55.1677L82.0313 59.4825C81.5917 58.3765 80.8262 57.4302 79.8365 56.7692C78.8467 56.1082 77.6794 55.7636 76.4893 55.7813C75.9701 55.7293 75.4457 55.7861 74.9496 55.9479C74.4536 56.1098 73.9966 56.3732 73.608 56.7214C73.2194 57.0696 72.9075 57.495 72.6923 57.9704C72.4771 58.4457 72.3634 58.9607 72.3582 59.4825C72.3582 62.0714 73.9627 63.1214 77.6673 64.7325L79.8263 65.6578C87.1632 68.8046 91.3107 72.0103 91.3107 79.2192C91.3107 86.9925 85.2043 91.2516 77.0045 91.2516C73.8095 91.4552 70.6239 90.7298 67.8321 89.163C65.0403 87.5962 62.7615 85.2549 61.2709 82.4217L68.2796 78.3399ZM37.7804 79.088C39.1355 81.4932 40.3693 83.5275 43.3355 83.5275C46.1705 83.5275 47.9621 82.4185 47.9621 78.1036V48.7463H56.5951V78.2185C56.5951 87.1566 51.3451 91.2253 43.703 91.2253C41.0018 91.373 38.319 90.6998 36.0075 89.2943C33.6959 87.8887 31.8638 85.8166 30.752 83.3503L37.7804 79.088Z" fill="black"/>
</g>
</svg>
