<svg width="241" height="60" viewBox="0 0 241 60" fill="none" xmlns="http://www.w3.org/2000/svg">
<g clip-path="url(#clip0_54_174)">
<path opacity="0.3" d="M30 58.5938C45.7919 58.5938 58.5938 45.7919 58.5938 30C58.5938 14.2081 45.7919 1.40625 30 1.40625C14.2081 1.40625 1.40625 14.2081 1.40625 30C1.40625 45.7919 14.2081 58.5938 30 58.5938Z" stroke="#4573DF"/>
<path d="M18.75 41.25V20.625" stroke="url(#paint0_linear_54_174)" stroke-width="2.8" stroke-linecap="round" stroke-linejoin="round"/>
<path d="M41.25 41.25V20.625" stroke="url(#paint1_linear_54_174)" stroke-width="2.8" stroke-linecap="round" stroke-linejoin="round"/>
<path d="M18.75 20.625L30 31.875" stroke="url(#paint2_linear_54_174)" stroke-width="2.8" stroke-linecap="round" stroke-linejoin="round"/>
<path d="M41.25 20.625L30 31.875" stroke="url(#paint3_linear_54_174)" stroke-width="2.8" stroke-linecap="round" stroke-linejoin="round"/>
<path d="M14.0625 35.625L9.375 30L14.0625 24.375" stroke="#4573DF" stroke-width="2" stroke-linecap="round" stroke-linejoin="round"/>
<path d="M45.9375 24.375L50.625 30L45.9375 35.625" stroke="#4573DF" stroke-width="2" stroke-linecap="round" stroke-linejoin="round"/>
<path opacity="0.6" d="M18.75 23.625C20.4069 23.625 21.75 22.2819 21.75 20.625C21.75 18.9681 20.4069 17.625 18.75 17.625C17.0931 17.625 15.75 18.9681 15.75 20.625C15.75 22.2819 17.0931 23.625 18.75 23.625Z" fill="url(#paint4_linear_54_174)"/>
<path opacity="0.6" d="M41.25 23.625C42.9069 23.625 44.25 22.2819 44.25 20.625C44.25 18.9681 42.9069 17.625 41.25 17.625C39.5931 17.625 38.25 18.9681 38.25 20.625C38.25 22.2819 39.5931 23.625 41.25 23.625Z" fill="url(#paint5_linear_54_174)"/>
<path opacity="0.6" d="M30 34.875C31.6569 34.875 33 33.5319 33 31.875C33 30.2181 31.6569 28.875 30 28.875C28.3431 28.875 27 30.2181 27 31.875C27 33.5319 28.3431 34.875 30 34.875Z" fill="url(#paint6_linear_54_174)"/>
<path d="M18.75 22.9688C20.0444 22.9688 21.0938 21.9194 21.0938 20.625C21.0938 19.3306 20.0444 18.2812 18.75 18.2812C17.4556 18.2812 16.4062 19.3306 16.4062 20.625C16.4062 21.9194 17.4556 22.9688 18.75 22.9688Z" fill="url(#paint7_linear_54_174)"/>
<path d="M41.25 22.9688C42.5444 22.9688 43.5938 21.9194 43.5938 20.625C43.5938 19.3306 42.5444 18.2812 41.25 18.2812C39.9556 18.2812 38.9062 19.3306 38.9062 20.625C38.9062 21.9194 39.9556 22.9688 41.25 22.9688Z" fill="url(#paint8_linear_54_174)"/>
<path d="M30 34.2188C31.2944 34.2188 32.3438 33.1694 32.3438 31.875C32.3438 30.5806 31.2944 29.5312 30 29.5312C28.7056 29.5312 27.6562 30.5806 27.6562 31.875C27.6562 33.1694 28.7056 34.2188 30 34.2188Z" fill="url(#paint9_linear_54_174)"/>
<path opacity="0.9" d="M18.75 21.5625C19.2678 21.5625 19.6875 21.1428 19.6875 20.625C19.6875 20.1072 19.2678 19.6875 18.75 19.6875C18.2322 19.6875 17.8125 20.1072 17.8125 20.625C17.8125 21.1428 18.2322 21.5625 18.75 21.5625Z" fill="url(#paint10_linear_54_174)"/>
<path opacity="0.9" d="M41.25 21.5625C41.7678 21.5625 42.1875 21.1428 42.1875 20.625C42.1875 20.1072 41.7678 19.6875 41.25 19.6875C40.7322 19.6875 40.3125 20.1072 40.3125 20.625C40.3125 21.1428 40.7322 21.5625 41.25 21.5625Z" fill="url(#paint11_linear_54_174)"/>
<path opacity="0.9" d="M30 32.8125C30.5178 32.8125 30.9375 32.3928 30.9375 31.875C30.9375 31.3572 30.5178 30.9375 30 30.9375C29.4822 30.9375 29.0625 31.3572 29.0625 31.875C29.0625 32.3928 29.4822 32.8125 30 32.8125Z" fill="url(#paint12_linear_54_174)"/>
</g>
<path d="M67.96 29V8.83999H70.998L77.97 23.12L84.942 8.83999H87.98V29H84.83V16.078L78.642 29H77.298L71.124 16.078V29H67.96ZM98.787 29.42C97.256 29.42 95.9125 29.0887 94.7551 28.426C93.5978 27.7633 92.6925 26.844 92.0391 25.668C91.3951 24.492 91.0731 23.1387 91.0731 21.608C91.0731 19.956 91.3905 18.5233 92.0251 17.31C92.6598 16.0873 93.5418 15.14 94.6711 14.468C95.8005 13.796 97.107 13.46 98.591 13.46C100.159 13.46 101.489 13.8287 102.581 14.566C103.682 15.294 104.499 16.3253 105.031 17.66C105.563 18.9947 105.764 20.5673 105.633 22.378H102.287V21.146C102.278 19.5033 101.988 18.304 101.419 17.548C100.85 16.792 99.954 16.414 98.731 16.414C97.35 16.414 96.323 16.8433 95.6511 17.702C94.9791 18.5513 94.6431 19.7973 94.6431 21.44C94.6431 22.9707 94.9791 24.156 95.6511 24.996C96.323 25.836 97.303 26.256 98.591 26.256C99.422 26.256 100.136 26.074 100.733 25.71C101.34 25.3367 101.806 24.8 102.133 24.1L105.465 25.108C104.886 26.4707 103.99 27.53 102.777 28.286C101.573 29.042 100.243 29.42 98.787 29.42ZM93.5791 22.378V19.83H103.981V22.378H93.5791ZM115.113 36.14C114.273 36.14 113.466 36.0093 112.691 35.748C111.926 35.4867 111.235 35.1087 110.619 34.614C110.003 34.1287 109.499 33.5407 109.107 32.85L112.215 31.31C112.504 31.8607 112.91 32.2667 113.433 32.528C113.965 32.7987 114.53 32.934 115.127 32.934C115.827 32.934 116.452 32.808 117.003 32.556C117.554 32.3133 117.978 31.9493 118.277 31.464C118.585 30.988 118.73 30.3907 118.711 29.672V25.374H119.131V13.88H122.085V29.728C122.085 30.1107 122.066 30.4747 122.029 30.82C122.001 31.1747 121.95 31.52 121.875 31.856C121.651 32.836 121.222 33.6387 120.587 34.264C119.952 34.8987 119.164 35.37 118.221 35.678C117.288 35.986 116.252 36.14 115.113 36.14ZM114.819 29.42C113.428 29.42 112.215 29.07 111.179 28.37C110.143 27.67 109.34 26.718 108.771 25.514C108.202 24.31 107.917 22.952 107.917 21.44C107.917 19.9093 108.202 18.5467 108.771 17.352C109.35 16.148 110.166 15.2007 111.221 14.51C112.276 13.81 113.517 13.46 114.945 13.46C116.382 13.46 117.586 13.81 118.557 14.51C119.537 15.2007 120.279 16.148 120.783 17.352C121.287 18.556 121.539 19.9187 121.539 21.44C121.539 22.9427 121.287 24.3007 120.783 25.514C120.279 26.718 119.528 27.67 118.529 28.37C117.53 29.07 116.294 29.42 114.819 29.42ZM115.337 26.396C116.242 26.396 116.97 26.1907 117.521 25.78C118.081 25.36 118.487 24.7767 118.739 24.03C119 23.2833 119.131 22.42 119.131 21.44C119.131 20.4507 119 19.5873 118.739 18.85C118.487 18.1033 118.09 17.5247 117.549 17.114C117.008 16.694 116.308 16.484 115.449 16.484C114.544 16.484 113.797 16.708 113.209 17.156C112.621 17.5947 112.187 18.192 111.907 18.948C111.627 19.6947 111.487 20.5253 111.487 21.44C111.487 22.364 111.622 23.204 111.893 23.96C112.173 24.7067 112.598 25.2993 113.167 25.738C113.736 26.1767 114.46 26.396 115.337 26.396ZM126.291 11.584V8.48999H129.665V11.584H126.291ZM126.291 29V13.88H129.665V29H126.291Z" fill="#EAF6FF"/>
<path d="M139.526 29.42C137.967 29.42 136.637 29.0747 135.536 28.384C134.435 27.684 133.59 26.732 133.002 25.528C132.423 24.324 132.129 22.9613 132.12 21.44C132.129 19.8907 132.433 18.5187 133.03 17.324C133.637 16.12 134.495 15.1773 135.606 14.496C136.717 13.8053 138.037 13.46 139.568 13.46C141.285 13.46 142.737 13.894 143.922 14.762C145.117 15.6207 145.896 16.7967 146.26 18.29L142.9 19.2C142.639 18.388 142.205 17.758 141.598 17.31C140.991 16.8527 140.301 16.624 139.526 16.624C138.649 16.624 137.925 16.834 137.356 17.254C136.787 17.6647 136.367 18.234 136.096 18.962C135.825 19.69 135.69 20.516 135.69 21.44C135.69 22.8773 136.012 24.0393 136.656 24.926C137.3 25.8127 138.257 26.256 139.526 26.256C140.422 26.256 141.127 26.0507 141.64 25.64C142.163 25.2293 142.555 24.6367 142.816 23.862L146.26 24.632C145.793 26.172 144.977 27.3573 143.81 28.188C142.643 29.0093 141.215 29.42 139.526 29.42ZM155.333 29.42C153.821 29.42 152.501 29.0793 151.371 28.398C150.242 27.7167 149.365 26.7787 148.739 25.584C148.123 24.38 147.815 22.9987 147.815 21.44C147.815 19.8533 148.133 18.4627 148.767 17.268C149.402 16.0733 150.284 15.14 151.413 14.468C152.543 13.796 153.849 13.46 155.333 13.46C156.855 13.46 158.18 13.8007 159.309 14.482C160.439 15.1633 161.316 16.106 161.941 17.31C162.567 18.5047 162.879 19.8813 162.879 21.44C162.879 23.008 162.562 24.394 161.927 25.598C161.302 26.7927 160.425 27.7307 159.295 28.412C158.166 29.084 156.845 29.42 155.333 29.42ZM155.333 26.256C156.677 26.256 157.676 25.808 158.329 24.912C158.983 24.016 159.309 22.8587 159.309 21.44C159.309 19.9747 158.978 18.808 158.315 17.94C157.653 17.0627 156.659 16.624 155.333 16.624C154.428 16.624 153.681 16.8293 153.093 17.24C152.515 17.6413 152.085 18.206 151.805 18.934C151.525 19.6527 151.385 20.488 151.385 21.44C151.385 22.9053 151.717 24.0767 152.379 24.954C153.051 25.822 154.036 26.256 155.333 26.256ZM172.026 29.42C170.635 29.42 169.422 29.07 168.386 28.37C167.35 27.67 166.547 26.718 165.978 25.514C165.409 24.31 165.124 22.952 165.124 21.44C165.124 19.9093 165.409 18.5467 165.978 17.352C166.557 16.148 167.373 15.2007 168.428 14.51C169.483 13.81 170.724 13.46 172.152 13.46C173.589 13.46 174.793 13.81 175.764 14.51C176.744 15.2007 177.486 16.148 177.99 17.352C178.494 18.556 178.746 19.9187 178.746 21.44C178.746 22.9427 178.494 24.3007 177.99 25.514C177.486 26.718 176.735 27.67 175.736 28.37C174.737 29.07 173.501 29.42 172.026 29.42ZM172.544 26.396C173.449 26.396 174.177 26.1907 174.728 25.78C175.288 25.36 175.694 24.7767 175.946 24.03C176.207 23.2833 176.338 22.42 176.338 21.44C176.338 20.4507 176.207 19.5873 175.946 18.85C175.694 18.1033 175.297 17.5247 174.756 17.114C174.215 16.694 173.515 16.484 172.656 16.484C171.751 16.484 171.004 16.708 170.416 17.156C169.828 17.5947 169.394 18.192 169.114 18.948C168.834 19.6947 168.694 20.5253 168.694 21.44C168.694 22.364 168.829 23.204 169.1 23.96C169.38 24.7067 169.805 25.2993 170.374 25.738C170.943 26.1767 171.667 26.396 172.544 26.396ZM176.338 29V18.388H175.918V8.84H179.32V29H176.338ZM190.119 29.42C188.588 29.42 187.244 29.0887 186.087 28.426C184.93 27.7633 184.024 26.844 183.371 25.668C182.727 24.492 182.405 23.1387 182.405 21.608C182.405 19.956 182.722 18.5233 183.357 17.31C183.992 16.0873 184.874 15.14 186.003 14.468C187.132 13.796 188.439 13.46 189.923 13.46C191.491 13.46 192.821 13.8287 193.913 14.566C195.014 15.294 195.831 16.3253 196.363 17.66C196.895 18.9947 197.096 20.5673 196.965 22.378H193.619V21.146C193.61 19.5033 193.32 18.304 192.751 17.548C192.182 16.792 191.286 16.414 190.063 16.414C188.682 16.414 187.655 16.8433 186.983 17.702C186.311 18.5513 185.975 19.7973 185.975 21.44C185.975 22.9707 186.311 24.156 186.983 24.996C187.655 25.836 188.635 26.256 189.923 26.256C190.754 26.256 191.468 26.074 192.065 25.71C192.672 25.3367 193.138 24.8 193.465 24.1L196.797 25.108C196.218 26.4707 195.322 27.53 194.109 28.286C192.905 29.042 191.575 29.42 190.119 29.42ZM184.911 22.378V19.83H195.313V22.378H184.911Z" fill="#4573DF"/>
<path d="M69.832 49L67.752 41.7227H67.7051C67.7207 41.9844 67.7324 42.2207 67.7402 42.4316C67.752 42.6387 67.7598 42.8184 67.7637 42.9707C67.7676 43.123 67.7695 43.248 67.7695 43.3457V49H66.8848V40.4336H68.2031L70.248 47.5586H70.2832L72.334 40.4336H73.6699V49H72.7559V43.3691C72.7559 43.2637 72.7578 43.1328 72.7617 42.9766C72.7656 42.8203 72.7715 42.6387 72.7793 42.4316C72.791 42.2207 72.8008 41.9844 72.8086 41.7227H72.7676L70.6875 49H69.832ZM79.3066 45.7773C79.3066 46.2852 79.2637 46.7441 79.1777 47.1543C79.0918 47.5645 78.9609 47.916 78.7852 48.209C78.6094 48.502 78.3867 48.7266 78.1172 48.8828C77.8477 49.0391 77.5293 49.1172 77.1621 49.1172C76.8105 49.1172 76.502 49.0391 76.2363 48.8828C75.9707 48.7266 75.75 48.5039 75.5742 48.2148C75.3984 47.9219 75.2656 47.5703 75.1758 47.1602C75.0859 46.7461 75.041 46.2852 75.041 45.7773C75.041 45.0664 75.1172 44.4648 75.2695 43.9727C75.4219 43.4766 75.6562 43.0996 75.9727 42.8418C76.2891 42.5801 76.6914 42.4492 77.1797 42.4492C77.6367 42.4492 78.0234 42.5762 78.3398 42.8301C78.6562 43.0801 78.8965 43.4531 79.0605 43.9492C79.2246 44.4414 79.3066 45.0508 79.3066 45.7773ZM75.9609 45.7773C75.9609 46.3359 76.0039 46.8047 76.0898 47.1836C76.1758 47.5625 76.3086 47.8477 76.4883 48.0391C76.6719 48.2305 76.9043 48.3262 77.1855 48.3262C77.4629 48.3262 77.6895 48.2324 77.8652 48.0449C78.0449 47.8574 78.1777 47.5762 78.2637 47.2012C78.3496 46.8223 78.3926 46.3477 78.3926 45.7773C78.3926 45.2188 78.3496 44.752 78.2637 44.377C78.1777 43.998 78.0449 43.7148 77.8652 43.5273C77.6895 43.3359 77.4609 43.2402 77.1797 43.2402C76.75 43.2402 76.4395 43.4531 76.248 43.8789C76.0566 44.3008 75.9609 44.9336 75.9609 45.7773ZM82.2012 49.1172C81.5879 49.1172 81.1211 48.8359 80.8008 48.2734C80.4844 47.707 80.3262 46.8828 80.3262 45.8008C80.3262 44.7266 80.4863 43.9004 80.8066 43.3223C81.127 42.7402 81.582 42.4492 82.1719 42.4492C82.3789 42.4492 82.5742 42.4902 82.7578 42.5723C82.9414 42.6504 83.1055 42.7637 83.25 42.9121C83.3984 43.0566 83.5234 43.2324 83.625 43.4395H83.666C83.6582 43.2598 83.6504 43.0996 83.6426 42.959C83.6387 42.8145 83.6367 42.6797 83.6367 42.5547V39.8828H84.5332V49H83.8125L83.6895 48.1328H83.6367C83.5273 48.3359 83.4023 48.5117 83.2617 48.6602C83.125 48.8086 82.9688 48.9219 82.793 49C82.6211 49.0781 82.4238 49.1172 82.2012 49.1172ZM82.4004 48.3496C82.8066 48.3496 83.1133 48.1602 83.3203 47.7812C83.5312 47.4023 83.6367 46.8418 83.6367 46.0996V45.6602C83.6367 44.8438 83.5352 44.2383 83.332 43.8438C83.1328 43.4492 82.8184 43.252 82.3887 43.252C81.998 43.252 81.709 43.4707 81.5215 43.9082C81.3379 44.3418 81.2461 44.9727 81.2461 45.8008C81.2461 46.6367 81.3379 47.2715 81.5215 47.7051C81.709 48.1348 82.002 48.3496 82.4004 48.3496ZM87.8672 42.4609C88.3047 42.4609 88.6641 42.5879 88.9453 42.8418C89.2305 43.0957 89.4414 43.4375 89.5781 43.8672C89.7188 44.2969 89.7891 44.7754 89.7891 45.3027V45.9414H86.7246C86.7324 46.7422 86.8555 47.3438 87.0938 47.7461C87.3359 48.1484 87.6992 48.3496 88.1836 48.3496C88.4141 48.3496 88.6406 48.3145 88.8633 48.2441C89.0859 48.1738 89.3164 48.0605 89.5547 47.9043V48.7129C89.332 48.8496 89.0996 48.9512 88.8574 49.0176C88.6152 49.084 88.3574 49.1172 88.084 49.1172C87.5488 49.1172 87.1152 48.9746 86.7832 48.6895C86.4512 48.4004 86.209 48.0078 86.0566 47.5117C85.9082 47.0117 85.834 46.4473 85.834 45.8184C85.834 45.0996 85.9102 44.4902 86.0625 43.9902C86.2148 43.4902 86.4414 43.1113 86.7422 42.8535C87.0469 42.5918 87.4219 42.4609 87.8672 42.4609ZM87.8672 43.1992C87.5273 43.1992 87.2617 43.3652 87.0703 43.6973C86.8789 44.0254 86.7676 44.5332 86.7363 45.2207H88.9453C88.9453 44.8574 88.9062 44.5234 88.8281 44.2188C88.7539 43.9102 88.6367 43.6641 88.4766 43.4805C88.3203 43.293 88.1172 43.1992 87.8672 43.1992ZM93.2168 42.4551C93.3066 42.4551 93.3965 42.4629 93.4863 42.4785C93.5762 42.4902 93.6699 42.5117 93.7676 42.543L93.627 43.4688C93.5566 43.4375 93.4824 43.416 93.4043 43.4043C93.3262 43.3926 93.2422 43.3867 93.1523 43.3867C92.9766 43.3867 92.8145 43.4453 92.666 43.5625C92.5215 43.6758 92.3965 43.8359 92.291 44.043C92.1855 44.25 92.1035 44.4902 92.0449 44.7637C91.9902 45.0371 91.9648 45.332 91.9688 45.6484V49H91.0664V42.5664H91.7695L91.8926 43.709H91.9512C92.041 43.4629 92.1465 43.2461 92.2676 43.0586C92.3887 42.8711 92.5273 42.7246 92.6836 42.6191C92.8438 42.5098 93.0215 42.4551 93.2168 42.4551ZM96.979 42.4492C97.486 42.4492 97.871 42.627 98.133 42.9824C98.395 43.3379 98.525 43.8828 98.525 44.6172V49H97.623V44.7988C97.623 44.2793 97.555 43.8906 97.418 43.6328C97.285 43.375 97.074 43.2461 96.785 43.2461C96.363 43.2461 96.055 43.4336 95.8594 43.8086C95.6641 44.1836 95.5664 44.7852 95.5664 45.6133V49H94.6641V42.5664H95.3848L95.4844 43.498H95.543C95.6328 43.2832 95.748 43.0977 95.8887 42.9414C96.029 42.7852 96.191 42.6641 96.375 42.5781C96.559 42.4922 96.76 42.4492 96.979 42.4492ZM105.984 46.6621C105.984 47.1465 105.891 47.5742 105.703 47.9453C105.52 48.3125 105.26 48.5996 104.924 48.8066C104.592 49.0137 104.199 49.1172 103.746 49.1172C103.523 49.1172 103.309 49.1035 103.102 49.0762C102.895 49.0527 102.697 49.0137 102.51 48.959C102.326 48.9043 102.15 48.8359 101.982 48.7539V47.7871C102.248 47.9355 102.535 48.0488 102.844 48.127C103.156 48.2051 103.445 48.2441 103.711 48.2441C103.996 48.2441 104.236 48.1777 104.432 48.0449C104.627 47.9082 104.775 47.7266 104.877 47.5C104.982 47.2734 105.035 47.0234 105.035 46.75C105.035 46.4609 104.992 46.2188 104.906 46.0234C104.82 45.8242 104.68 45.6445 104.484 45.4844C104.289 45.3242 104.025 45.1582 103.693 44.9863C103.443 44.8496 103.217 44.709 103.014 44.5645C102.811 44.4199 102.637 44.2578 102.492 44.0781C102.348 43.8945 102.236 43.6797 102.158 43.4336C102.08 43.1875 102.041 42.8945 102.041 42.5547C102.033 42.1055 102.121 41.7129 102.305 41.377C102.492 41.0371 102.75 40.7734 103.078 40.5859C103.41 40.3984 103.789 40.3066 104.215 40.3105C104.539 40.3105 104.848 40.3516 105.141 40.4336C105.438 40.5117 105.693 40.6074 105.908 40.7207L105.604 41.5762C105.365 41.4473 105.129 41.3516 104.895 41.2891C104.664 41.2227 104.443 41.1895 104.232 41.1895C103.971 41.1895 103.746 41.2461 103.559 41.3594C103.375 41.4727 103.232 41.6289 103.131 41.8281C103.033 42.0234 102.984 42.252 102.984 42.5137C102.984 42.8145 103.027 43.0625 103.113 43.2578C103.203 43.4531 103.346 43.627 103.541 43.7793C103.74 43.9316 104.002 44.0957 104.326 44.2715C104.697 44.4668 105.006 44.6777 105.252 44.9043C105.498 45.127 105.682 45.3809 105.803 45.666C105.924 45.9512 105.984 46.2832 105.984 46.6621ZM111.229 45.7773C111.229 46.2852 111.186 46.7441 111.1 47.1543C111.014 47.5645 110.883 47.916 110.707 48.209C110.531 48.502 110.309 48.7266 110.039 48.8828C109.77 49.0391 109.451 49.1172 109.084 49.1172C108.732 49.1172 108.424 49.0391 108.158 48.8828C107.893 48.7266 107.672 48.5039 107.496 48.2148C107.32 47.9219 107.188 47.5703 107.098 47.1602C107.008 46.7461 106.963 46.2852 106.963 45.7773C106.963 45.0664 107.039 44.4648 107.191 43.9727C107.344 43.4766 107.578 43.0996 107.895 42.8418C108.211 42.5801 108.613 42.4492 109.102 42.4492C109.559 42.4492 109.945 42.5762 110.262 42.8301C110.578 43.0801 110.818 43.4531 110.982 43.9492C111.146 44.4414 111.229 45.0508 111.229 45.7773ZM107.883 45.7773C107.883 46.3359 107.926 46.8047 108.012 47.1836C108.098 47.5625 108.23 47.8477 108.41 48.0391C108.594 48.2305 108.826 48.3262 109.107 48.3262C109.385 48.3262 109.611 48.2324 109.787 48.0449C109.967 47.8574 110.1 47.5762 110.186 47.2012C110.271 46.8223 110.314 46.3477 110.314 45.7773C110.314 45.2188 110.271 44.752 110.186 44.377C110.1 43.998 109.967 43.7148 109.787 43.5273C109.611 43.3359 109.383 43.2402 109.102 43.2402C108.672 43.2402 108.361 43.4531 108.17 43.8789C107.979 44.3008 107.883 44.9336 107.883 45.7773ZM114.545 43.3281H113.531V49H112.635V43.3281H111.844V42.8418L112.635 42.5371V42.1035C112.635 41.6152 112.676 41.2012 112.758 40.8613C112.844 40.5215 112.99 40.2637 113.197 40.0879C113.408 39.9082 113.697 39.8184 114.064 39.8184C114.236 39.8184 114.395 39.834 114.539 39.8652C114.688 39.8965 114.84 39.9434 114.996 40.0059L114.762 40.7324C114.652 40.6934 114.549 40.6641 114.451 40.6445C114.357 40.6211 114.264 40.6094 114.17 40.6094C113.928 40.6094 113.762 40.7168 113.672 40.9316C113.586 41.1426 113.539 41.5254 113.531 42.0801V42.5664H114.545V43.3281ZM117.023 48.3203C117.121 48.3203 117.219 48.3105 117.316 48.291C117.414 48.2676 117.508 48.2363 117.598 48.1973V48.9355C117.477 48.9902 117.346 49.0332 117.205 49.0645C117.064 49.0996 116.908 49.1172 116.736 49.1172C116.459 49.1172 116.23 49.0547 116.051 48.9297C115.875 48.8047 115.744 48.6191 115.658 48.373C115.576 48.123 115.535 47.8105 115.535 47.4355V43.3223H114.938V42.8301L115.576 42.5898L115.816 41.1074H116.438V42.5664H117.527V43.3223H116.438V47.3301C116.438 47.6621 116.477 47.9102 116.555 48.0742C116.637 48.2383 116.793 48.3203 117.023 48.3203ZM122.35 49L121.576 45.0098C121.557 44.9004 121.537 44.7871 121.518 44.6699C121.498 44.5527 121.479 44.4355 121.459 44.3184C121.443 44.2012 121.428 44.0859 121.412 43.9727C121.396 43.8555 121.381 43.7422 121.365 43.6328H121.336C121.32 43.7461 121.303 43.8633 121.283 43.9844C121.268 44.1016 121.25 44.2188 121.23 44.3359C121.215 44.4531 121.197 44.5684 121.178 44.6816C121.158 44.7949 121.139 44.9043 121.119 45.0098L120.299 49H119.268L117.879 42.5664H118.781L119.467 45.918C119.506 46.1289 119.545 46.3457 119.584 46.5684C119.623 46.7871 119.66 47.0078 119.695 47.2305C119.73 47.4492 119.764 47.668 119.795 47.8867H119.83C119.85 47.75 119.869 47.6074 119.889 47.459C119.912 47.3066 119.936 47.1504 119.959 46.9902C119.986 46.8262 120.016 46.6582 120.047 46.4863C120.078 46.3105 120.113 46.1328 120.152 45.9531L120.85 42.5664H121.852L122.543 45.9707C122.578 46.1191 122.611 46.291 122.643 46.4863C122.678 46.6816 122.713 46.8965 122.748 47.1309C122.783 47.3652 122.82 47.6172 122.859 47.8867H122.895C122.906 47.7695 122.922 47.6426 122.941 47.5059C122.961 47.3691 122.984 47.2207 123.012 47.0605C123.039 46.8965 123.07 46.7227 123.105 46.5391L123.926 42.5664H124.805L123.387 49H122.35ZM127.418 42.4492C128.012 42.4492 128.436 42.6387 128.689 43.0176C128.943 43.3965 129.07 43.9453 129.07 44.6641V49H128.385L128.25 48.0859H128.227C128.125 48.3047 128.004 48.4922 127.863 48.6484C127.723 48.8008 127.562 48.918 127.383 49C127.203 49.0781 126.996 49.1172 126.762 49.1172C126.43 49.1172 126.158 49.0293 125.947 48.8535C125.736 48.6777 125.58 48.4473 125.479 48.1621C125.377 47.873 125.326 47.5625 125.326 47.2305C125.326 46.5938 125.51 46.0996 125.877 45.748C126.244 45.3965 126.766 45.2051 127.441 45.1738L128.174 45.127V44.6875C128.174 44.1719 128.104 43.7949 127.963 43.5566C127.822 43.3184 127.596 43.1992 127.283 43.1992C127.104 43.1992 126.914 43.2305 126.715 43.293C126.52 43.3555 126.307 43.4551 126.076 43.5918L125.789 42.9121C126.031 42.7559 126.289 42.6406 126.562 42.5664C126.84 42.4883 127.125 42.4492 127.418 42.4492ZM128.186 45.7891L127.588 45.8301C127.135 45.8574 126.797 45.9863 126.574 46.2168C126.355 46.4434 126.246 46.7734 126.246 47.207C126.246 47.6094 126.318 47.9062 126.463 48.0977C126.607 48.2891 126.807 48.3848 127.061 48.3848C127.416 48.3848 127.691 48.2129 127.887 47.8691C128.086 47.5254 128.186 47.0508 128.186 46.4453V45.7891ZM132.779 42.4551C132.869 42.4551 132.959 42.4629 133.049 42.4785C133.139 42.4902 133.232 42.5117 133.33 42.543L133.189 43.4688C133.119 43.4375 133.045 43.416 132.967 43.4043C132.889 43.3926 132.805 43.3867 132.715 43.3867C132.539 43.3867 132.377 43.4453 132.229 43.5625C132.084 43.6758 131.959 43.8359 131.854 44.043C131.748 44.25 131.666 44.4902 131.607 44.7637C131.553 45.0371 131.527 45.332 131.531 45.6484V49H130.629V42.5664H131.332L131.455 43.709H131.514C131.604 43.4629 131.709 43.2461 131.83 43.0586C131.951 42.8711 132.09 42.7246 132.246 42.6191C132.406 42.5098 132.584 42.4551 132.779 42.4551ZM135.996 42.4609C136.434 42.4609 136.793 42.5879 137.074 42.8418C137.359 43.0957 137.57 43.4375 137.707 43.8672C137.848 44.2969 137.918 44.7754 137.918 45.3027V45.9414H134.854C134.861 46.7422 134.984 47.3438 135.223 47.7461C135.465 48.1484 135.828 48.3496 136.312 48.3496C136.543 48.3496 136.77 48.3145 136.992 48.2441C137.215 48.1738 137.445 48.0605 137.684 47.9043V48.7129C137.461 48.8496 137.229 48.9512 136.986 49.0176C136.744 49.084 136.486 49.1172 136.213 49.1172C135.678 49.1172 135.244 48.9746 134.912 48.6895C134.58 48.4004 134.338 48.0078 134.186 47.5117C134.037 47.0117 133.963 46.4473 133.963 45.8184C133.963 45.0996 134.039 44.4902 134.191 43.9902C134.344 43.4902 134.57 43.1113 134.871 42.8535C135.176 42.5918 135.551 42.4609 135.996 42.4609ZM135.996 43.1992C135.656 43.1992 135.391 43.3652 135.199 43.6973C135.008 44.0254 134.896 44.5332 134.865 45.2207H137.074C137.074 44.8574 137.035 44.5234 136.957 44.2188C136.883 43.9102 136.766 43.6641 136.605 43.4805C136.449 43.293 136.246 43.1992 135.996 43.1992ZM145.102 46.6621C145.102 47.1465 145.008 47.5742 144.82 47.9453C144.637 48.3125 144.377 48.5996 144.041 48.8066C143.709 49.0137 143.316 49.1172 142.863 49.1172C142.641 49.1172 142.426 49.1035 142.219 49.0762C142.012 49.0527 141.814 49.0137 141.627 48.959C141.443 48.9043 141.268 48.8359 141.1 48.7539V47.7871C141.365 47.9355 141.652 48.0488 141.961 48.127C142.273 48.2051 142.562 48.2441 142.828 48.2441C143.113 48.2441 143.354 48.1777 143.549 48.0449C143.744 47.9082 143.893 47.7266 143.994 47.5C144.1 47.2734 144.152 47.0234 144.152 46.75C144.152 46.4609 144.109 46.2188 144.023 46.0234C143.938 45.8242 143.797 45.6445 143.602 45.4844C143.406 45.3242 143.143 45.1582 142.811 44.9863C142.561 44.8496 142.334 44.709 142.131 44.5645C141.928 44.4199 141.754 44.2578 141.609 44.0781C141.465 43.8945 141.354 43.6797 141.275 43.4336C141.197 43.1875 141.158 42.8945 141.158 42.5547C141.15 42.1055 141.238 41.7129 141.422 41.377C141.609 41.0371 141.867 40.7734 142.195 40.5859C142.527 40.3984 142.906 40.3066 143.332 40.3105C143.656 40.3105 143.965 40.3516 144.258 40.4336C144.555 40.5117 144.811 40.6074 145.025 40.7207L144.721 41.5762C144.482 41.4473 144.246 41.3516 144.012 41.2891C143.781 41.2227 143.561 41.1895 143.35 41.1895C143.088 41.1895 142.863 41.2461 142.676 41.3594C142.492 41.4727 142.35 41.6289 142.248 41.8281C142.15 42.0234 142.102 42.252 142.102 42.5137C142.102 42.8145 142.145 43.0625 142.23 43.2578C142.32 43.4531 142.463 43.627 142.658 43.7793C142.857 43.9316 143.119 44.0957 143.443 44.2715C143.814 44.4668 144.123 44.6777 144.369 44.9043C144.615 45.127 144.799 45.3809 144.92 45.666C145.041 45.9512 145.102 46.2832 145.102 46.6621ZM150.346 45.7773C150.346 46.2852 150.303 46.7441 150.217 47.1543C150.131 47.5645 150 47.916 149.824 48.209C149.648 48.502 149.426 48.7266 149.156 48.8828C148.887 49.0391 148.568 49.1172 148.201 49.1172C147.85 49.1172 147.541 49.0391 147.275 48.8828C147.01 48.7266 146.789 48.5039 146.613 48.2148C146.438 47.9219 146.305 47.5703 146.215 47.1602C146.125 46.7461 146.08 46.2852 146.08 45.7773C146.08 45.0664 146.156 44.4648 146.309 43.9727C146.461 43.4766 146.695 43.0996 147.012 42.8418C147.328 42.5801 147.73 42.4492 148.219 42.4492C148.676 42.4492 149.062 42.5762 149.379 42.8301C149.695 43.0801 149.936 43.4531 150.1 43.9492C150.264 44.4414 150.346 45.0508 150.346 45.7773ZM147 45.7773C147 46.3359 147.043 46.8047 147.129 47.1836C147.215 47.5625 147.348 47.8477 147.527 48.0391C147.711 48.2305 147.943 48.3262 148.225 48.3262C148.502 48.3262 148.729 48.2324 148.904 48.0449C149.084 47.8574 149.217 47.5762 149.303 47.2012C149.389 46.8223 149.432 46.3477 149.432 45.7773C149.432 45.2188 149.389 44.752 149.303 44.377C149.217 43.998 149.084 43.7148 148.904 43.5273C148.729 43.3359 148.5 43.2402 148.219 43.2402C147.789 43.2402 147.479 43.4531 147.287 43.8789C147.096 44.3008 147 44.9336 147 45.7773ZM152.543 49H151.641V39.8828H152.543V49ZM157.939 42.5664V49H157.219L157.119 48.0859H157.055C156.969 48.2969 156.855 48.4805 156.715 48.6367C156.578 48.7891 156.42 48.9082 156.24 48.9941C156.061 49.0762 155.859 49.1172 155.637 49.1172C155.262 49.1172 154.959 49.0234 154.729 48.8359C154.502 48.6484 154.336 48.3809 154.23 48.0332C154.129 47.6855 154.078 47.2715 154.078 46.791V42.5664H154.98V46.6211C154.98 47.1992 155.047 47.625 155.18 47.8984C155.316 48.1719 155.523 48.3086 155.801 48.3086C156.102 48.3086 156.342 48.2266 156.521 48.0625C156.701 47.8945 156.832 47.6426 156.914 47.3066C156.996 46.9668 157.037 46.5371 157.037 46.0176V42.5664H157.939ZM161.027 48.3203C161.125 48.3203 161.223 48.3105 161.32 48.291C161.418 48.2676 161.512 48.2363 161.602 48.1973V48.9355C161.48 48.9902 161.35 49.0332 161.209 49.0645C161.068 49.0996 160.912 49.1172 160.74 49.1172C160.463 49.1172 160.234 49.0547 160.055 48.9297C159.879 48.8047 159.748 48.6191 159.662 48.373C159.58 48.123 159.539 47.8105 159.539 47.4355V43.3223H158.941V42.8301L159.58 42.5898L159.82 41.1074H160.441V42.5664H161.531V43.3223H160.441V47.3301C160.441 47.6621 160.48 47.9102 160.559 48.0742C160.641 48.2383 160.797 48.3203 161.027 48.3203ZM163.471 42.5664V49H162.574V42.5664H163.471ZM163.037 40.1523C163.221 40.1523 163.354 40.2109 163.436 40.3281C163.521 40.4453 163.564 40.6074 163.564 40.8145C163.564 41.0176 163.52 41.1777 163.43 41.2949C163.34 41.4121 163.209 41.4707 163.037 41.4707C162.869 41.4707 162.736 41.4121 162.639 41.2949C162.541 41.1777 162.492 41.0176 162.492 40.8145C162.492 40.5996 162.539 40.4355 162.633 40.3223C162.727 40.209 162.861 40.1523 163.037 40.1523ZM169.037 45.7773C169.037 46.2852 168.994 46.7441 168.908 47.1543C168.822 47.5645 168.691 47.916 168.516 48.209C168.34 48.502 168.117 48.7266 167.848 48.8828C167.578 49.0391 167.26 49.1172 166.893 49.1172C166.541 49.1172 166.232 49.0391 165.967 48.8828C165.701 48.7266 165.48 48.5039 165.305 48.2148C165.129 47.9219 164.996 47.5703 164.906 47.1602C164.816 46.7461 164.771 46.2852 164.771 45.7773C164.771 45.0664 164.848 44.4648 165 43.9727C165.152 43.4766 165.387 43.0996 165.703 42.8418C166.02 42.5801 166.422 42.4492 166.91 42.4492C167.367 42.4492 167.754 42.5762 168.07 42.8301C168.387 43.0801 168.627 43.4531 168.791 43.9492C168.955 44.4414 169.037 45.0508 169.037 45.7773ZM165.691 45.7773C165.691 46.3359 165.734 46.8047 165.82 47.1836C165.906 47.5625 166.039 47.8477 166.219 48.0391C166.402 48.2305 166.635 48.3262 166.916 48.3262C167.193 48.3262 167.42 48.2324 167.596 48.0449C167.775 47.8574 167.908 47.5762 167.994 47.2012C168.08 46.8223 168.123 46.3477 168.123 45.7773C168.123 45.2188 168.08 44.752 167.994 44.377C167.908 43.998 167.775 43.7148 167.596 43.5273C167.42 43.3359 167.191 43.2402 166.91 43.2402C166.48 43.2402 166.17 43.4531 165.979 43.8789C165.787 44.3008 165.691 44.9336 165.691 45.7773ZM172.646 42.4492C173.154 42.4492 173.539 42.627 173.801 42.9824C174.062 43.3379 174.193 43.8828 174.193 44.6172V49H173.291V44.7988C173.291 44.2793 173.223 43.8906 173.086 43.6328C172.953 43.375 172.742 43.2461 172.453 43.2461C172.031 43.2461 171.723 43.4336 171.527 43.8086C171.332 44.1836 171.234 44.7852 171.234 45.6133V49H170.332V42.5664H171.053L171.152 43.498H171.211C171.301 43.2832 171.416 43.0977 171.557 42.9414C171.697 42.7852 171.859 42.6641 172.043 42.5781C172.227 42.4922 172.428 42.4492 172.646 42.4492ZM178.605 47.3008C178.605 47.6875 178.535 48.0176 178.395 48.291C178.254 48.5605 178.049 48.7656 177.779 48.9062C177.514 49.0469 177.189 49.1172 176.807 49.1172C176.51 49.1172 176.238 49.082 175.992 49.0117C175.746 48.9414 175.537 48.8574 175.365 48.7598V47.8223C175.537 47.9629 175.75 48.0801 176.004 48.1738C176.258 48.2637 176.516 48.3086 176.777 48.3086C177.078 48.3086 177.309 48.2227 177.469 48.0508C177.633 47.8789 177.715 47.6387 177.715 47.3301C177.715 47.1465 177.682 46.9883 177.615 46.8555C177.549 46.7188 177.441 46.5898 177.293 46.4688C177.148 46.3438 176.957 46.2129 176.719 46.0762C176.453 45.9121 176.217 45.7422 176.01 45.5664C175.807 45.3906 175.648 45.1895 175.535 44.9629C175.422 44.7324 175.365 44.4531 175.365 44.125C175.365 43.625 175.527 43.2207 175.852 42.9121C176.18 42.6035 176.611 42.4492 177.146 42.4492C177.416 42.4492 177.67 42.4844 177.908 42.5547C178.15 42.6211 178.379 42.7227 178.594 42.8594L178.254 43.5859C178.09 43.4727 177.914 43.3828 177.727 43.3164C177.543 43.25 177.354 43.2168 177.158 43.2168C176.873 43.2168 176.646 43.2969 176.479 43.457C176.314 43.6172 176.232 43.832 176.232 44.1016C176.232 44.2812 176.266 44.4355 176.332 44.5645C176.398 44.6934 176.508 44.8184 176.66 44.9395C176.812 45.0605 177.014 45.1973 177.264 45.3496C177.529 45.5176 177.762 45.6895 177.961 45.8652C178.164 46.0371 178.322 46.2363 178.436 46.4629C178.549 46.6895 178.605 46.9688 178.605 47.3008Z" fill="#EAF6FF"/>
<g opacity="0.6">
<path d="M209 7C210.657 7 212 5.65685 212 4C212 2.34315 210.657 1 209 1C207.343 1 206 2.34315 206 4C206 5.65685 207.343 7 209 7Z" fill="#4573DF"/>
<path d="M229 16C230.105 16 231 15.1046 231 14C231 12.8954 230.105 12 229 12C227.895 12 227 12.8954 227 14C227 15.1046 227.895 16 229 16Z" fill="#4573DF"/>
<path d="M219 27C220.657 27 222 25.6569 222 24C222 22.3431 220.657 21 219 21C217.343 21 216 22.3431 216 24C216 25.6569 217.343 27 219 27Z" fill="#2D4FA2"/>
<path d="M239 36C240.105 36 241 35.1046 241 34C241 32.8954 240.105 32 239 32C237.895 32 237 32.8954 237 34C237 35.1046 237.895 36 239 36Z" fill="#4573DF"/>
<path d="M209 47C210.657 47 212 45.6569 212 44C212 42.3431 210.657 41 209 41C207.343 41 206 42.3431 206 44C206 45.6569 207.343 47 209 47Z" fill="#2D4FA2"/>
<path d="M229 56C230.105 56 231 55.1046 231 54C231 52.8954 230.105 52 229 52C227.895 52 227 52.8954 227 54C227 55.1046 227.895 56 229 56Z" fill="#4573DF"/>
</g>
<defs>
<linearGradient id="paint0_linear_54_174" x1="-nan" y1="-nan" x2="-nan" y2="-nan" gradientUnits="userSpaceOnUse">
<stop stop-color="white"/>
<stop offset="0.5" stop-color="#EAF6FF"/>
<stop offset="1" stop-color="#CFE8EF"/>
</linearGradient>
<linearGradient id="paint1_linear_54_174" x1="-nan" y1="-nan" x2="-nan" y2="-nan" gradientUnits="userSpaceOnUse">
<stop stop-color="white"/>
<stop offset="0.5" stop-color="#EAF6FF"/>
<stop offset="1" stop-color="#CFE8EF"/>
</linearGradient>
<linearGradient id="paint2_linear_54_174" x1="18.75" y1="20.625" x2="1143.75" y2="1145.63" gradientUnits="userSpaceOnUse">
<stop stop-color="white"/>
<stop offset="0.5" stop-color="#EAF6FF"/>
<stop offset="1" stop-color="#CFE8EF"/>
</linearGradient>
<linearGradient id="paint3_linear_54_174" x1="30" y1="20.625" x2="1155" y2="1145.63" gradientUnits="userSpaceOnUse">
<stop stop-color="white"/>
<stop offset="0.5" stop-color="#EAF6FF"/>
<stop offset="1" stop-color="#CFE8EF"/>
</linearGradient>
<linearGradient id="paint4_linear_54_174" x1="15.75" y1="17.625" x2="615.75" y2="617.625" gradientUnits="userSpaceOnUse">
<stop stop-color="#4573DF"/>
<stop offset="1" stop-color="#2D4FA2"/>
</linearGradient>
<linearGradient id="paint5_linear_54_174" x1="38.25" y1="17.625" x2="638.25" y2="617.625" gradientUnits="userSpaceOnUse">
<stop stop-color="#4573DF"/>
<stop offset="1" stop-color="#2D4FA2"/>
</linearGradient>
<linearGradient id="paint6_linear_54_174" x1="27" y1="28.875" x2="627" y2="628.875" gradientUnits="userSpaceOnUse">
<stop stop-color="#4573DF"/>
<stop offset="1" stop-color="#2D4FA2"/>
</linearGradient>
<linearGradient id="paint7_linear_54_174" x1="16.4062" y1="18.2812" x2="485.156" y2="487.031" gradientUnits="userSpaceOnUse">
<stop stop-color="#4573DF"/>
<stop offset="1" stop-color="#2D4FA2"/>
</linearGradient>
<linearGradient id="paint8_linear_54_174" x1="38.9062" y1="18.2812" x2="507.656" y2="487.031" gradientUnits="userSpaceOnUse">
<stop stop-color="#4573DF"/>
<stop offset="1" stop-color="#2D4FA2"/>
</linearGradient>
<linearGradient id="paint9_linear_54_174" x1="27.6562" y1="29.5312" x2="496.406" y2="498.281" gradientUnits="userSpaceOnUse">
<stop stop-color="#4573DF"/>
<stop offset="1" stop-color="#2D4FA2"/>
</linearGradient>
<linearGradient id="paint10_linear_54_174" x1="17.8125" y1="19.6875" x2="205.313" y2="207.188" gradientUnits="userSpaceOnUse">
<stop stop-color="white"/>
<stop offset="0.5" stop-color="#EAF6FF"/>
<stop offset="1" stop-color="#CFE8EF"/>
</linearGradient>
<linearGradient id="paint11_linear_54_174" x1="40.3125" y1="19.6875" x2="227.813" y2="207.188" gradientUnits="userSpaceOnUse">
<stop stop-color="white"/>
<stop offset="0.5" stop-color="#EAF6FF"/>
<stop offset="1" stop-color="#CFE8EF"/>
</linearGradient>
<linearGradient id="paint12_linear_54_174" x1="29.0625" y1="30.9375" x2="216.563" y2="218.438" gradientUnits="userSpaceOnUse">
<stop stop-color="white"/>
<stop offset="0.5" stop-color="#EAF6FF"/>
<stop offset="1" stop-color="#CFE8EF"/>
</linearGradient>
<clipPath id="clip0_54_174">
<rect width="60" height="60" fill="white"/>
</clipPath>
</defs>
</svg>
