<svg width="270" height="64" viewBox="0 0 270 64" fill="none" xmlns="http://www.w3.org/2000/svg">
<g clip-path="url(#clip0_4_38)">
<path d="M32 62C48.5685 62 62 48.5685 62 32C62 15.4315 48.5685 2 32 2C15.4315 2 2 15.4315 2 32C2 48.5685 15.4315 62 32 62Z" stroke="url(#paint0_linear_4_38)" stroke-width="3.5"/>
<path d="M20 44V22L32 34L44 22V44" stroke="url(#paint1_linear_4_38)" stroke-width="3.5" stroke-linecap="round" stroke-linejoin="round"/>
<path d="M20 23.5C20.8284 23.5 21.5 22.8284 21.5 22C21.5 21.1716 20.8284 20.5 20 20.5C19.1716 20.5 18.5 21.1716 18.5 22C18.5 22.8284 19.1716 23.5 20 23.5Z" fill="#4573DF"/>
<path d="M44 23.5C44.8284 23.5 45.5 22.8284 45.5 22C45.5 21.1716 44.8284 20.5 44 20.5C43.1716 20.5 42.5 21.1716 42.5 22C42.5 22.8284 43.1716 23.5 44 23.5Z" fill="#4573DF"/>
<path d="M32 35.5C32.8284 35.5 33.5 34.8284 33.5 34C33.5 33.1716 32.8284 32.5 32 32.5C31.1716 32.5 30.5 33.1716 30.5 34C30.5 34.8284 31.1716 35.5 32 35.5Z" fill="#4573DF"/>
<path d="M16 38L10 31L16 24" stroke="url(#paint2_linear_4_38)" stroke-width="1.5" stroke-linecap="round" stroke-linejoin="round"/>
<path d="M48 38L54 31L48 24" stroke="url(#paint3_linear_4_38)" stroke-width="1.5" stroke-linecap="round" stroke-linejoin="round"/>
</g>
<path d="M71.96 30V9.84H74.998L81.97 24.12L88.942 9.84H91.98V30H88.83V17.078L82.642 30H81.298L75.124 17.078V30H71.96ZM102.787 30.42C101.256 30.42 99.9125 30.0887 98.7551 29.426C97.5978 28.7633 96.6925 27.844 96.0391 26.668C95.3951 25.492 95.0731 24.1387 95.0731 22.608C95.0731 20.956 95.3905 19.5233 96.0251 18.31C96.6598 17.0873 97.5418 16.14 98.6711 15.468C99.8005 14.796 101.107 14.46 102.591 14.46C104.159 14.46 105.489 14.8287 106.581 15.566C107.682 16.294 108.499 17.3253 109.031 18.66C109.563 19.9947 109.764 21.5673 109.633 23.378H106.287V22.146C106.278 20.5033 105.988 19.304 105.419 18.548C104.85 17.792 103.954 17.414 102.731 17.414C101.35 17.414 100.323 17.8433 99.6511 18.702C98.9791 19.5513 98.6431 20.7973 98.6431 22.44C98.6431 23.9707 98.9791 25.156 99.6511 25.996C100.323 26.836 101.303 27.256 102.591 27.256C103.422 27.256 104.136 27.074 104.733 26.71C105.34 26.3367 105.806 25.8 106.133 25.1L109.465 26.108C108.886 27.4707 107.99 28.53 106.777 29.286C105.573 30.042 104.243 30.42 102.787 30.42ZM97.5791 23.378V20.83H107.981V23.378H97.5791ZM119.113 37.14C118.273 37.14 117.466 37.0093 116.691 36.748C115.926 36.4867 115.235 36.1087 114.619 35.614C114.003 35.1287 113.499 34.5407 113.107 33.85L116.215 32.31C116.504 32.8607 116.91 33.2667 117.433 33.528C117.965 33.7987 118.53 33.934 119.127 33.934C119.827 33.934 120.452 33.808 121.003 33.556C121.554 33.3133 121.978 32.9493 122.277 32.464C122.585 31.988 122.73 31.3907 122.711 30.672V26.374H123.131V14.88H126.085V30.728C126.085 31.1107 126.066 31.4747 126.029 31.82C126.001 32.1747 125.95 32.52 125.875 32.856C125.651 33.836 125.222 34.6387 124.587 35.264C123.952 35.8987 123.164 36.37 122.221 36.678C121.288 36.986 120.252 37.14 119.113 37.14ZM118.819 30.42C117.428 30.42 116.215 30.07 115.179 29.37C114.143 28.67 113.34 27.718 112.771 26.514C112.202 25.31 111.917 23.952 111.917 22.44C111.917 20.9093 112.202 19.5467 112.771 18.352C113.35 17.148 114.166 16.2007 115.221 15.51C116.276 14.81 117.517 14.46 118.945 14.46C120.382 14.46 121.586 14.81 122.557 15.51C123.537 16.2007 124.279 17.148 124.783 18.352C125.287 19.556 125.539 20.9187 125.539 22.44C125.539 23.9427 125.287 25.3007 124.783 26.514C124.279 27.718 123.528 28.67 122.529 29.37C121.53 30.07 120.294 30.42 118.819 30.42ZM119.337 27.396C120.242 27.396 120.97 27.1907 121.521 26.78C122.081 26.36 122.487 25.7767 122.739 25.03C123 24.2833 123.131 23.42 123.131 22.44C123.131 21.4507 123 20.5873 122.739 19.85C122.487 19.1033 122.09 18.5247 121.549 18.114C121.008 17.694 120.308 17.484 119.449 17.484C118.544 17.484 117.797 17.708 117.209 18.156C116.621 18.5947 116.187 19.192 115.907 19.948C115.627 20.6947 115.487 21.5253 115.487 22.44C115.487 23.364 115.622 24.204 115.893 24.96C116.173 25.7067 116.598 26.2993 117.167 26.738C117.736 27.1767 118.46 27.396 119.337 27.396ZM130.291 12.584V9.49H133.665V12.584H130.291ZM130.291 30V14.88H133.665V30H130.291Z" fill="#eaf6ff"/>
<path d="M143.526 30.42C141.967 30.42 140.637 30.0747 139.536 29.384C138.435 28.684 137.59 27.732 137.002 26.528C136.423 25.324 136.129 23.9613 136.12 22.44C136.129 20.8907 136.433 19.5187 137.03 18.324C137.637 17.12 138.495 16.1773 139.606 15.496C140.717 14.8053 142.037 14.46 143.568 14.46C145.285 14.46 146.737 14.894 147.922 15.762C149.117 16.6207 149.896 17.7967 150.26 19.29L146.9 20.2C146.639 19.388 146.205 18.758 145.598 18.31C144.991 17.8527 144.301 17.624 143.526 17.624C142.649 17.624 141.925 17.834 141.356 18.254C140.787 18.6647 140.367 19.234 140.096 19.962C139.825 20.69 139.69 21.516 139.69 22.44C139.69 23.8773 140.012 25.0393 140.656 25.926C141.3 26.8127 142.257 27.256 143.526 27.256C144.422 27.256 145.127 27.0507 145.64 26.64C146.163 26.2293 146.555 25.6367 146.816 24.862L150.26 25.632C149.793 27.172 148.977 28.3573 147.81 29.188C146.643 30.0093 145.215 30.42 143.526 30.42ZM159.333 30.42C157.821 30.42 156.501 30.0793 155.371 29.398C154.242 28.7167 153.365 27.7787 152.739 26.584C152.123 25.38 151.815 23.9987 151.815 22.44C151.815 20.8533 152.133 19.4627 152.767 18.268C153.402 17.0733 154.284 16.14 155.413 15.468C156.543 14.796 157.849 14.46 159.333 14.46C160.855 14.46 162.18 14.8007 163.309 15.482C164.439 16.1633 165.316 17.106 165.941 18.31C166.567 19.5047 166.879 20.8813 166.879 22.44C166.879 24.008 166.562 25.394 165.927 26.598C165.302 27.7927 164.425 28.7307 163.295 29.412C162.166 30.084 160.845 30.42 159.333 30.42ZM159.333 27.256C160.677 27.256 161.676 26.808 162.329 25.912C162.983 25.016 163.309 23.8587 163.309 22.44C163.309 20.9747 162.978 19.808 162.315 18.94C161.653 18.0627 160.659 17.624 159.333 17.624C158.428 17.624 157.681 17.8293 157.093 18.24C156.515 18.6413 156.085 19.206 155.805 19.934C155.525 20.6527 155.385 21.488 155.385 22.44C155.385 23.9053 155.717 25.0767 156.379 25.954C157.051 26.822 158.036 27.256 159.333 27.256ZM176.026 30.42C174.635 30.42 173.422 30.07 172.386 29.37C171.35 28.67 170.547 27.718 169.978 26.514C169.409 25.31 169.124 23.952 169.124 22.44C169.124 20.9093 169.409 19.5467 169.978 18.352C170.557 17.148 171.373 16.2007 172.428 15.51C173.483 14.81 174.724 14.46 176.152 14.46C177.589 14.46 178.793 14.81 179.764 15.51C180.744 16.2007 181.486 17.148 181.99 18.352C182.494 19.556 182.746 20.9187 182.746 22.44C182.746 23.9427 182.494 25.3007 181.99 26.514C181.486 27.718 180.735 28.67 179.736 29.37C178.737 30.07 177.501 30.42 176.026 30.42ZM176.544 27.396C177.449 27.396 178.177 27.1907 178.728 26.78C179.288 26.36 179.694 25.7767 179.946 25.03C180.207 24.2833 180.338 23.42 180.338 22.44C180.338 21.4507 180.207 20.5873 179.946 19.85C179.694 19.1033 179.297 18.5247 178.756 18.114C178.215 17.694 177.515 17.484 176.656 17.484C175.751 17.484 175.004 17.708 174.416 18.156C173.828 18.5947 173.394 19.192 173.114 19.948C172.834 20.6947 172.694 21.5253 172.694 22.44C172.694 23.364 172.829 24.204 173.1 24.96C173.38 25.7067 173.805 26.2993 174.374 26.738C174.943 27.1767 175.667 27.396 176.544 27.396ZM180.338 30V19.388H179.918V9.84H183.32V30H180.338ZM194.119 30.42C192.588 30.42 191.244 30.0887 190.087 29.426C188.93 28.7633 188.024 27.844 187.371 26.668C186.727 25.492 186.405 24.1387 186.405 22.608C186.405 20.956 186.722 19.5233 187.357 18.31C187.992 17.0873 188.874 16.14 190.003 15.468C191.132 14.796 192.439 14.46 193.923 14.46C195.491 14.46 196.821 14.8287 197.913 15.566C199.014 16.294 199.831 17.3253 200.363 18.66C200.895 19.9947 201.096 21.5673 200.965 23.378H197.619V22.146C197.61 20.5033 197.32 19.304 196.751 18.548C196.182 17.792 195.286 17.414 194.063 17.414C192.682 17.414 191.655 17.8433 190.983 18.702C190.311 19.5513 189.975 20.7973 189.975 22.44C189.975 23.9707 190.311 25.156 190.983 25.996C191.655 26.836 192.635 27.256 193.923 27.256C194.754 27.256 195.468 27.074 196.065 26.71C196.672 26.3367 197.138 25.8 197.465 25.1L200.797 26.108C200.218 27.4707 199.322 28.53 198.109 29.286C196.905 30.042 195.575 30.42 194.119 30.42ZM188.911 23.378V20.83H199.313V23.378H188.911Z" fill="#4573DF"/>
<path d="M73.832 50L71.752 42.7227H71.7051C71.7207 42.9844 71.7324 43.2207 71.7402 43.4316C71.752 43.6387 71.7598 43.8184 71.7637 43.9707C71.7676 44.123 71.7695 44.248 71.7695 44.3457V50H70.8848V41.4336H72.2031L74.248 48.5586H74.2832L76.334 41.4336H77.6699V50H76.7559V44.3691C76.7559 44.2637 76.7578 44.1328 76.7617 43.9766C76.7656 43.8203 76.7715 43.6387 76.7793 43.4316C76.791 43.2207 76.8008 42.9844 76.8086 42.7227H76.7676L74.6875 50H73.832ZM83.3066 46.7773C83.3066 47.2852 83.2637 47.7441 83.1777 48.1543C83.0918 48.5645 82.9609 48.916 82.7852 49.209C82.6094 49.502 82.3867 49.7266 82.1172 49.8828C81.8477 50.0391 81.5293 50.1172 81.1621 50.1172C80.8105 50.1172 80.502 50.0391 80.2363 49.8828C79.9707 49.7266 79.75 49.5039 79.5742 49.2148C79.3984 48.9219 79.2656 48.5703 79.1758 48.1602C79.0859 47.7461 79.041 47.2852 79.041 46.7773C79.041 46.0664 79.1172 45.4648 79.2695 44.9727C79.4219 44.4766 79.6562 44.0996 79.9727 43.8418C80.2891 43.5801 80.6914 43.4492 81.1797 43.4492C81.6367 43.4492 82.0234 43.5762 82.3398 43.8301C82.6562 44.0801 82.8965 44.4531 83.0605 44.9492C83.2246 45.4414 83.3066 46.0508 83.3066 46.7773ZM79.9609 46.7773C79.9609 47.3359 80.0039 47.8047 80.0898 48.1836C80.1758 48.5625 80.3086 48.8477 80.4883 49.0391C80.6719 49.2305 80.9043 49.3262 81.1855 49.3262C81.4629 49.3262 81.6895 49.2324 81.8652 49.0449C82.0449 48.8574 82.1777 48.5762 82.2637 48.2012C82.3496 47.8223 82.3926 47.3477 82.3926 46.7773C82.3926 46.2188 82.3496 45.752 82.2637 45.377C82.1777 44.998 82.0449 44.7148 81.8652 44.5273C81.6895 44.3359 81.4609 44.2402 81.1797 44.2402C80.75 44.2402 80.4395 44.4531 80.248 44.8789C80.0566 45.3008 79.9609 45.9336 79.9609 46.7773ZM86.2012 50.1172C85.5879 50.1172 85.1211 49.8359 84.8008 49.2734C84.4844 48.707 84.3262 47.8828 84.3262 46.8008C84.3262 45.7266 84.4863 44.9004 84.8066 44.3223C85.127 43.7402 85.582 43.4492 86.1719 43.4492C86.3789 43.4492 86.5742 43.4902 86.7578 43.5723C86.9414 43.6504 87.1055 43.7637 87.25 43.9121C87.3984 44.0566 87.5234 44.2324 87.625 44.4395H87.666C87.6582 44.2598 87.6504 44.0996 87.6426 43.959C87.6387 43.8145 87.6367 43.6797 87.6367 43.5547V40.8828H88.5332V50H87.8125L87.6895 49.1328H87.6367C87.5273 49.3359 87.4023 49.5117 87.2617 49.6602C87.125 49.8086 86.9688 49.9219 86.793 50C86.6211 50.0781 86.4238 50.1172 86.2012 50.1172ZM86.4004 49.3496C86.8066 49.3496 87.1133 49.1602 87.3203 48.7812C87.5312 48.4023 87.6367 47.8418 87.6367 47.0996V46.6602C87.6367 45.8438 87.5352 45.2383 87.332 44.8438C87.1328 44.4492 86.8184 44.252 86.3887 44.252C85.998 44.252 85.709 44.4707 85.5215 44.9082C85.3379 45.3418 85.2461 45.9727 85.2461 46.8008C85.2461 47.6367 85.3379 48.2715 85.5215 48.7051C85.709 49.1348 86.002 49.3496 86.4004 49.3496ZM91.8672 43.4609C92.3047 43.4609 92.6641 43.5879 92.9453 43.8418C93.2305 44.0957 93.4414 44.4375 93.5781 44.8672C93.7188 45.2969 93.7891 45.7754 93.7891 46.3027V46.9414H90.7246C90.7324 47.7422 90.8555 48.3438 91.0938 48.7461C91.3359 49.1484 91.6992 49.3496 92.1836 49.3496C92.4141 49.3496 92.6406 49.3145 92.8633 49.2441C93.0859 49.1738 93.3164 49.0605 93.5547 48.9043V49.7129C93.332 49.8496 93.0996 49.9512 92.8574 50.0176C92.6152 50.084 92.3574 50.1172 92.084 50.1172C91.5488 50.1172 91.1152 49.9746 90.7832 49.6895C90.4512 49.4004 90.209 49.0078 90.0566 48.5117C89.9082 48.0117 89.834 47.4473 89.834 46.8184C89.834 46.0996 89.9102 45.4902 90.0625 44.9902C90.2148 44.4902 90.4414 44.1113 90.7422 43.8535C91.0469 43.5918 91.4219 43.4609 91.8672 43.4609ZM91.8672 44.1992C91.5273 44.1992 91.2617 44.3652 91.0703 44.6973C90.8789 45.0254 90.7676 45.5332 90.7363 46.2207H92.9453C92.9453 45.8574 92.9062 45.5234 92.8281 45.2188C92.7539 44.9102 92.6367 44.6641 92.4766 44.4805C92.3203 44.293 92.1172 44.1992 91.8672 44.1992ZM97.2168 43.4551C97.3066 43.4551 97.3965 43.4629 97.4863 43.4785C97.5762 43.4902 97.6699 43.5117 97.7676 43.543L97.627 44.4688C97.5566 44.4375 97.4824 44.416 97.4043 44.4043C97.3262 44.3926 97.2422 44.3867 97.1523 44.3867C96.9766 44.3867 96.8145 44.4453 96.666 44.5625C96.5215 44.6758 96.3965 44.8359 96.291 45.043C96.1855 45.25 96.1035 45.4902 96.0449 45.7637C95.9902 46.0371 95.9648 46.332 95.9688 46.6484V50H95.0664V43.5664H95.7695L95.8926 44.709H95.9512C96.041 44.4629 96.1465 44.2461 96.2676 44.0586C96.3887 43.8711 96.5273 43.7246 96.6836 43.6191C96.8438 43.5098 97.0215 43.4551 97.2168 43.4551ZM100.979 43.4492C101.486 43.4492 101.871 43.627 102.133 43.9824C102.395 44.3379 102.525 44.8828 102.525 45.6172V50H101.623V45.7988C101.623 45.2793 101.555 44.8906 101.418 44.6328C101.285 44.375 101.074 44.2461 100.785 44.2461C100.363 44.2461 100.055 44.4336 99.8594 44.8086C99.6641 45.1836 99.5664 45.7852 99.5664 46.6133V50H98.6641V43.5664H99.3848L99.4844 44.498H99.543C99.6328 44.2832 99.748 44.0977 99.8887 43.9414C100.029 43.7852 100.191 43.6641 100.375 43.5781C100.559 43.4922 100.76 43.4492 100.979 43.4492ZM109.984 47.6621C109.984 48.1465 109.891 48.5742 109.703 48.9453C109.52 49.3125 109.26 49.5996 108.924 49.8066C108.592 50.0137 108.199 50.1172 107.746 50.1172C107.523 50.1172 107.309 50.1035 107.102 50.0762C106.895 50.0527 106.697 50.0137 106.51 49.959C106.326 49.9043 106.15 49.8359 105.982 49.7539V48.7871C106.248 48.9355 106.535 49.0488 106.844 49.127C107.156 49.2051 107.445 49.2441 107.711 49.2441C107.996 49.2441 108.236 49.1777 108.432 49.0449C108.627 48.9082 108.775 48.7266 108.877 48.5C108.982 48.2734 109.035 48.0234 109.035 47.75C109.035 47.4609 108.992 47.2188 108.906 47.0234C108.82 46.8242 108.68 46.6445 108.484 46.4844C108.289 46.3242 108.025 46.1582 107.693 45.9863C107.443 45.8496 107.217 45.709 107.014 45.5645C106.811 45.4199 106.637 45.2578 106.492 45.0781C106.348 44.8945 106.236 44.6797 106.158 44.4336C106.08 44.1875 106.041 43.8945 106.041 43.5547C106.033 43.1055 106.121 42.7129 106.305 42.377C106.492 42.0371 106.75 41.7734 107.078 41.5859C107.41 41.3984 107.789 41.3066 108.215 41.3105C108.539 41.3105 108.848 41.3516 109.141 41.4336C109.438 41.5117 109.693 41.6074 109.908 41.7207L109.604 42.5762C109.365 42.4473 109.129 42.3516 108.895 42.2891C108.664 42.2227 108.443 42.1895 108.232 42.1895C107.971 42.1895 107.746 42.2461 107.559 42.3594C107.375 42.4727 107.232 42.6289 107.131 42.8281C107.033 43.0234 106.984 43.252 106.984 43.5137C106.984 43.8145 107.027 44.0625 107.113 44.2578C107.203 44.4531 107.346 44.627 107.541 44.7793C107.74 44.9316 108.002 45.0957 108.326 45.2715C108.697 45.4668 109.006 45.6777 109.252 45.9043C109.498 46.127 109.682 46.3809 109.803 46.666C109.924 46.9512 109.984 47.2832 109.984 47.6621ZM115.229 46.7773C115.229 47.2852 115.186 47.7441 115.1 48.1543C115.014 48.5645 114.883 48.916 114.707 49.209C114.531 49.502 114.309 49.7266 114.039 49.8828C113.77 50.0391 113.451 50.1172 113.084 50.1172C112.732 50.1172 112.424 50.0391 112.158 49.8828C111.893 49.7266 111.672 49.5039 111.496 49.2148C111.32 48.9219 111.188 48.5703 111.098 48.1602C111.008 47.7461 110.963 47.2852 110.963 46.7773C110.963 46.0664 111.039 45.4648 111.191 44.9727C111.344 44.4766 111.578 44.0996 111.895 43.8418C112.211 43.5801 112.613 43.4492 113.102 43.4492C113.559 43.4492 113.945 43.5762 114.262 43.8301C114.578 44.0801 114.818 44.4531 114.982 44.9492C115.146 45.4414 115.229 46.0508 115.229 46.7773ZM111.883 46.7773C111.883 47.3359 111.926 47.8047 112.012 48.1836C112.098 48.5625 112.23 48.8477 112.41 49.0391C112.594 49.2305 112.826 49.3262 113.107 49.3262C113.385 49.3262 113.611 49.2324 113.787 49.0449C113.967 48.8574 114.1 48.5762 114.186 48.2012C114.271 47.8223 114.314 47.3477 114.314 46.7773C114.314 46.2188 114.271 45.752 114.186 45.377C114.1 44.998 113.967 44.7148 113.787 44.5273C113.611 44.3359 113.383 44.2402 113.102 44.2402C112.672 44.2402 112.361 44.4531 112.17 44.8789C111.979 45.3008 111.883 45.9336 111.883 46.7773ZM118.545 44.3281H117.531V50H116.635V44.3281H115.844V43.8418L116.635 43.5371V43.1035C116.635 42.6152 116.676 42.2012 116.758 41.8613C116.844 41.5215 116.99 41.2637 117.197 41.0879C117.408 40.9082 117.697 40.8184 118.064 40.8184C118.236 40.8184 118.395 40.834 118.539 40.8652C118.688 40.8965 118.84 40.9434 118.996 41.0059L118.762 41.7324C118.652 41.6934 118.549 41.6641 118.451 41.6445C118.357 41.6211 118.264 41.6094 118.17 41.6094C117.928 41.6094 117.762 41.7168 117.672 41.9316C117.586 42.1426 117.539 42.5254 117.531 43.0801V43.5664H118.545V44.3281ZM121.023 49.3203C121.121 49.3203 121.219 49.3105 121.316 49.291C121.414 49.2676 121.508 49.2363 121.598 49.1973V49.9355C121.477 49.9902 121.346 50.0332 121.205 50.0645C121.064 50.0996 120.908 50.1172 120.736 50.1172C120.459 50.1172 120.23 50.0547 120.051 49.9297C119.875 49.8047 119.744 49.6191 119.658 49.373C119.576 49.123 119.535 48.8105 119.535 48.4355V44.3223H118.938V43.8301L119.576 43.5898L119.816 42.1074H120.438V43.5664H121.527V44.3223H120.438V48.3301C120.438 48.6621 120.477 48.9102 120.555 49.0742C120.637 49.2383 120.793 49.3203 121.023 49.3203ZM126.35 50L125.576 46.0098C125.557 45.9004 125.537 45.7871 125.518 45.6699C125.498 45.5527 125.479 45.4355 125.459 45.3184C125.443 45.2012 125.428 45.0859 125.412 44.9727C125.396 44.8555 125.381 44.7422 125.365 44.6328H125.336C125.32 44.7461 125.303 44.8633 125.283 44.9844C125.268 45.1016 125.25 45.2188 125.23 45.3359C125.215 45.4531 125.197 45.5684 125.178 45.6816C125.158 45.7949 125.139 45.9043 125.119 46.0098L124.299 50H123.268L121.879 43.5664H122.781L123.467 46.918C123.506 47.1289 123.545 47.3457 123.584 47.5684C123.623 47.7871 123.66 48.0078 123.695 48.2305C123.73 48.4492 123.764 48.668 123.795 48.8867H123.83C123.85 48.75 123.869 48.6074 123.889 48.459C123.912 48.3066 123.936 48.1504 123.959 47.9902C123.986 47.8262 124.016 47.6582 124.047 47.4863C124.078 47.3105 124.113 47.1328 124.152 46.9531L124.85 43.5664H125.852L126.543 46.9707C126.578 47.1191 126.611 47.291 126.643 47.4863C126.678 47.6816 126.713 47.8965 126.748 48.1309C126.783 48.3652 126.82 48.6172 126.859 48.8867H126.895C126.906 48.7695 126.922 48.6426 126.941 48.5059C126.961 48.3691 126.984 48.2207 127.012 48.0605C127.039 47.8965 127.07 47.7227 127.105 47.5391L127.926 43.5664H128.805L127.387 50H126.35ZM131.418 43.4492C132.012 43.4492 132.436 43.6387 132.689 44.0176C132.943 44.3965 133.07 44.9453 133.07 45.6641V50H132.385L132.25 49.0859H132.227C132.125 49.3047 132.004 49.4922 131.863 49.6484C131.723 49.8008 131.562 49.918 131.383 50C131.203 50.0781 130.996 50.1172 130.762 50.1172C130.43 50.1172 130.158 50.0293 129.947 49.8535C129.736 49.6777 129.58 49.4473 129.479 49.1621C129.377 48.873 129.326 48.5625 129.326 48.2305C129.326 47.5938 129.51 47.0996 129.877 46.748C130.244 46.3965 130.766 46.2051 131.441 46.1738L132.174 46.127V45.6875C132.174 45.1719 132.104 44.7949 131.963 44.5566C131.822 44.3184 131.596 44.1992 131.283 44.1992C131.104 44.1992 130.914 44.2305 130.715 44.293C130.52 44.3555 130.307 44.4551 130.076 44.5918L129.789 43.9121C130.031 43.7559 130.289 43.6406 130.562 43.5664C130.84 43.4883 131.125 43.4492 131.418 43.4492ZM132.186 46.7891L131.588 46.8301C131.135 46.8574 130.797 46.9863 130.574 47.2168C130.355 47.4434 130.246 47.7734 130.246 48.207C130.246 48.6094 130.318 48.9062 130.463 49.0977C130.607 49.2891 130.807 49.3848 131.061 49.3848C131.416 49.3848 131.691 49.2129 131.887 48.8691C132.086 48.5254 132.186 48.0508 132.186 47.4453V46.7891ZM136.779 43.4551C136.869 43.4551 136.959 43.4629 137.049 43.4785C137.139 43.4902 137.232 43.5117 137.33 43.543L137.189 44.4688C137.119 44.4375 137.045 44.416 136.967 44.4043C136.889 44.3926 136.805 44.3867 136.715 44.3867C136.539 44.3867 136.377 44.4453 136.229 44.5625C136.084 44.6758 135.959 44.8359 135.854 45.043C135.748 45.25 135.666 45.4902 135.607 45.7637C135.553 46.0371 135.527 46.332 135.531 46.6484V50H134.629V43.5664H135.332L135.455 44.709H135.514C135.604 44.4629 135.709 44.2461 135.83 44.0586C135.951 43.8711 136.09 43.7246 136.246 43.6191C136.406 43.5098 136.584 43.4551 136.779 43.4551ZM139.996 43.4609C140.434 43.4609 140.793 43.5879 141.074 43.8418C141.359 44.0957 141.57 44.4375 141.707 44.8672C141.848 45.2969 141.918 45.7754 141.918 46.3027V46.9414H138.854C138.861 47.7422 138.984 48.3438 139.223 48.7461C139.465 49.1484 139.828 49.3496 140.312 49.3496C140.543 49.3496 140.77 49.3145 140.992 49.2441C141.215 49.1738 141.445 49.0605 141.684 48.9043V49.7129C141.461 49.8496 141.229 49.9512 140.986 50.0176C140.744 50.084 140.486 50.1172 140.213 50.1172C139.678 50.1172 139.244 49.9746 138.912 49.6895C138.58 49.4004 138.338 49.0078 138.186 48.5117C138.037 48.0117 137.963 47.4473 137.963 46.8184C137.963 46.0996 138.039 45.4902 138.191 44.9902C138.344 44.4902 138.57 44.1113 138.871 43.8535C139.176 43.5918 139.551 43.4609 139.996 43.4609ZM139.996 44.1992C139.656 44.1992 139.391 44.3652 139.199 44.6973C139.008 45.0254 138.896 45.5332 138.865 46.2207H141.074C141.074 45.8574 141.035 45.5234 140.957 45.2188C140.883 44.9102 140.766 44.6641 140.605 44.4805C140.449 44.293 140.246 44.1992 139.996 44.1992ZM149.102 47.6621C149.102 48.1465 149.008 48.5742 148.82 48.9453C148.637 49.3125 148.377 49.5996 148.041 49.8066C147.709 50.0137 147.316 50.1172 146.863 50.1172C146.641 50.1172 146.426 50.1035 146.219 50.0762C146.012 50.0527 145.814 50.0137 145.627 49.959C145.443 49.9043 145.268 49.8359 145.1 49.7539V48.7871C145.365 48.9355 145.652 49.0488 145.961 49.127C146.273 49.2051 146.562 49.2441 146.828 49.2441C147.113 49.2441 147.354 49.1777 147.549 49.0449C147.744 48.9082 147.893 48.7266 147.994 48.5C148.1 48.2734 148.152 48.0234 148.152 47.75C148.152 47.4609 148.109 47.2188 148.023 47.0234C147.938 46.8242 147.797 46.6445 147.602 46.4844C147.406 46.3242 147.143 46.1582 146.811 45.9863C146.561 45.8496 146.334 45.709 146.131 45.5645C145.928 45.4199 145.754 45.2578 145.609 45.0781C145.465 44.8945 145.354 44.6797 145.275 44.4336C145.197 44.1875 145.158 43.8945 145.158 43.5547C145.15 43.1055 145.238 42.7129 145.422 42.377C145.609 42.0371 145.867 41.7734 146.195 41.5859C146.527 41.3984 146.906 41.3066 147.332 41.3105C147.656 41.3105 147.965 41.3516 148.258 41.4336C148.555 41.5117 148.811 41.6074 149.025 41.7207L148.721 42.5762C148.482 42.4473 148.246 42.3516 148.012 42.2891C147.781 42.2227 147.561 42.1895 147.35 42.1895C147.088 42.1895 146.863 42.2461 146.676 42.3594C146.492 42.4727 146.35 42.6289 146.248 42.8281C146.15 43.0234 146.102 43.252 146.102 43.5137C146.102 43.8145 146.145 44.0625 146.23 44.2578C146.32 44.4531 146.463 44.627 146.658 44.7793C146.857 44.9316 147.119 45.0957 147.443 45.2715C147.814 45.4668 148.123 45.6777 148.369 45.9043C148.615 46.127 148.799 46.3809 148.92 46.666C149.041 46.9512 149.102 47.2832 149.102 47.6621ZM154.346 46.7773C154.346 47.2852 154.303 47.7441 154.217 48.1543C154.131 48.5645 154 48.916 153.824 49.209C153.648 49.502 153.426 49.7266 153.156 49.8828C152.887 50.0391 152.568 50.1172 152.201 50.1172C151.85 50.1172 151.541 50.0391 151.275 49.8828C151.01 49.7266 150.789 49.5039 150.613 49.2148C150.438 48.9219 150.305 48.5703 150.215 48.1602C150.125 47.7461 150.08 47.2852 150.08 46.7773C150.08 46.0664 150.156 45.4648 150.309 44.9727C150.461 44.4766 150.695 44.0996 151.012 43.8418C151.328 43.5801 151.73 43.4492 152.219 43.4492C152.676 43.4492 153.062 43.5762 153.379 43.8301C153.695 44.0801 153.936 44.4531 154.1 44.9492C154.264 45.4414 154.346 46.0508 154.346 46.7773ZM151 46.7773C151 47.3359 151.043 47.8047 151.129 48.1836C151.215 48.5625 151.348 48.8477 151.527 49.0391C151.711 49.2305 151.943 49.3262 152.225 49.3262C152.502 49.3262 152.729 49.2324 152.904 49.0449C153.084 48.8574 153.217 48.5762 153.303 48.2012C153.389 47.8223 153.432 47.3477 153.432 46.7773C153.432 46.2188 153.389 45.752 153.303 45.377C153.217 44.998 153.084 44.7148 152.904 44.5273C152.729 44.3359 152.5 44.2402 152.219 44.2402C151.789 44.2402 151.479 44.4531 151.287 44.8789C151.096 45.3008 151 45.9336 151 46.7773ZM156.543 50H155.641V40.8828H156.543V50ZM161.939 43.5664V50H161.219L161.119 49.0859H161.055C160.969 49.2969 160.855 49.4805 160.715 49.6367C160.578 49.7891 160.42 49.9082 160.24 49.9941C160.061 50.0762 159.859 50.1172 159.637 50.1172C159.262 50.1172 158.959 50.0234 158.729 49.8359C158.502 49.6484 158.336 49.3809 158.23 49.0332C158.129 48.6855 158.078 48.2715 158.078 47.791V43.5664H158.98V47.6211C158.98 48.1992 159.047 48.625 159.18 48.8984C159.316 49.1719 159.523 49.3086 159.801 49.3086C160.102 49.3086 160.342 49.2266 160.521 49.0625C160.701 48.8945 160.832 48.6426 160.914 48.3066C160.996 47.9668 161.037 47.5371 161.037 47.0176V43.5664H161.939ZM165.027 49.3203C165.125 49.3203 165.223 49.3105 165.32 49.291C165.418 49.2676 165.512 49.2363 165.602 49.1973V49.9355C165.48 49.9902 165.35 50.0332 165.209 50.0645C165.068 50.0996 164.912 50.1172 164.74 50.1172C164.463 50.1172 164.234 50.0547 164.055 49.9297C163.879 49.8047 163.748 49.6191 163.662 49.373C163.58 49.123 163.539 48.8105 163.539 48.4355V44.3223H162.941V43.8301L163.58 43.5898L163.82 42.1074H164.441V43.5664H165.531V44.3223H164.441V48.3301C164.441 48.6621 164.48 48.9102 164.559 49.0742C164.641 49.2383 164.797 49.3203 165.027 49.3203ZM167.471 43.5664V50H166.574V43.5664H167.471ZM167.037 41.1523C167.221 41.1523 167.354 41.2109 167.436 41.3281C167.521 41.4453 167.564 41.6074 167.564 41.8145C167.564 42.0176 167.52 42.1777 167.43 42.2949C167.34 42.4121 167.209 42.4707 167.037 42.4707C166.869 42.4707 166.736 42.4121 166.639 42.2949C166.541 42.1777 166.492 42.0176 166.492 41.8145C166.492 41.5996 166.539 41.4355 166.633 41.3223C166.727 41.209 166.861 41.1523 167.037 41.1523ZM173.037 46.7773C173.037 47.2852 172.994 47.7441 172.908 48.1543C172.822 48.5645 172.691 48.916 172.516 49.209C172.34 49.502 172.117 49.7266 171.848 49.8828C171.578 50.0391 171.26 50.1172 170.893 50.1172C170.541 50.1172 170.232 50.0391 169.967 49.8828C169.701 49.7266 169.48 49.5039 169.305 49.2148C169.129 48.9219 168.996 48.5703 168.906 48.1602C168.816 47.7461 168.771 47.2852 168.771 46.7773C168.771 46.0664 168.848 45.4648 169 44.9727C169.152 44.4766 169.387 44.0996 169.703 43.8418C170.02 43.5801 170.422 43.4492 170.91 43.4492C171.367 43.4492 171.754 43.5762 172.07 43.8301C172.387 44.0801 172.627 44.4531 172.791 44.9492C172.955 45.4414 173.037 46.0508 173.037 46.7773ZM169.691 46.7773C169.691 47.3359 169.734 47.8047 169.82 48.1836C169.906 48.5625 170.039 48.8477 170.219 49.0391C170.402 49.2305 170.635 49.3262 170.916 49.3262C171.193 49.3262 171.42 49.2324 171.596 49.0449C171.775 48.8574 171.908 48.5762 171.994 48.2012C172.08 47.8223 172.123 47.3477 172.123 46.7773C172.123 46.2188 172.08 45.752 171.994 45.377C171.908 44.998 171.775 44.7148 171.596 44.5273C171.42 44.3359 171.191 44.2402 170.91 44.2402C170.48 44.2402 170.17 44.4531 169.979 44.8789C169.787 45.3008 169.691 45.9336 169.691 46.7773ZM176.646 43.4492C177.154 43.4492 177.539 43.627 177.801 43.9824C178.062 44.3379 178.193 44.8828 178.193 45.6172V50H177.291V45.7988C177.291 45.2793 177.223 44.8906 177.086 44.6328C176.953 44.375 176.742 44.2461 176.453 44.2461C176.031 44.2461 175.723 44.4336 175.527 44.8086C175.332 45.1836 175.234 45.7852 175.234 46.6133V50H174.332V43.5664H175.053L175.152 44.498H175.211C175.301 44.2832 175.416 44.0977 175.557 43.9414C175.697 43.7852 175.859 43.6641 176.043 43.5781C176.227 43.4922 176.428 43.4492 176.646 43.4492ZM182.605 48.3008C182.605 48.6875 182.535 49.0176 182.395 49.291C182.254 49.5605 182.049 49.7656 181.779 49.9062C181.514 50.0469 181.189 50.1172 180.807 50.1172C180.51 50.1172 180.238 50.082 179.992 50.0117C179.746 49.9414 179.537 49.8574 179.365 49.7598V48.8223C179.537 48.9629 179.75 49.0801 180.004 49.1738C180.258 49.2637 180.516 49.3086 180.777 49.3086C181.078 49.3086 181.309 49.2227 181.469 49.0508C181.633 48.8789 181.715 48.6387 181.715 48.3301C181.715 48.1465 181.682 47.9883 181.615 47.8555C181.549 47.7188 181.441 47.5898 181.293 47.4688C181.148 47.3438 180.957 47.2129 180.719 47.0762C180.453 46.9121 180.217 46.7422 180.01 46.5664C179.807 46.3906 179.648 46.1895 179.535 45.9629C179.422 45.7324 179.365 45.4531 179.365 45.125C179.365 44.625 179.527 44.2207 179.852 43.9121C180.18 43.6035 180.611 43.4492 181.146 43.4492C181.416 43.4492 181.67 43.4844 181.908 43.5547C182.15 43.6211 182.379 43.7227 182.594 43.8594L182.254 44.5859C182.09 44.4727 181.914 44.3828 181.727 44.3164C181.543 44.25 181.354 44.2168 181.158 44.2168C180.873 44.2168 180.646 44.2969 180.479 44.457C180.314 44.6172 180.232 44.832 180.232 45.1016C180.232 45.2812 180.266 45.4355 180.332 45.5645C180.398 45.6934 180.508 45.8184 180.66 45.9395C180.812 46.0605 181.014 46.1973 181.264 46.3496C181.529 46.5176 181.762 46.6895 181.961 46.8652C182.164 47.0371 182.322 47.2363 182.436 47.4629C182.549 47.6895 182.605 47.9688 182.605 48.3008Z" fill="#eaf6ff"/>
<g opacity="0.6">
<path d="M213 8C214.657 8 216 6.65685 216 5C216 3.34315 214.657 2 213 2C211.343 2 210 3.34315 210 5C210 6.65685 211.343 8 213 8Z" fill="#4573DF"/>
<path d="M233 17C234.105 17 235 16.1046 235 15C235 13.8954 234.105 13 233 13C231.895 13 231 13.8954 231 15C231 16.1046 231.895 17 233 17Z" fill="#4573DF"/>
<path d="M223 28C224.657 28 226 26.6569 226 25C226 23.3431 224.657 22 223 22C221.343 22 220 23.3431 220 25C220 26.6569 221.343 28 223 28Z" fill="#2D4FA2"/>
<path d="M243 37C244.105 37 245 36.1046 245 35C245 33.8954 244.105 33 243 33C241.895 33 241 33.8954 241 35C241 36.1046 241.895 37 243 37Z" fill="#4573DF"/>
<path d="M213 48C214.657 48 216 46.6569 216 45C216 43.3431 214.657 42 213 42C211.343 42 210 43.3431 210 45C210 46.6569 211.343 48 213 48Z" fill="#2D4FA2"/>
<path d="M233 57C234.105 57 235 56.1046 235 55C235 53.8954 234.105 53 233 53C231.895 53 231 53.8954 231 55C231 56.1046 231.895 57 233 57Z" fill="#4573DF"/>
</g>
<defs>
<linearGradient id="paint0_linear_4_38" x1="0" y1="0" x2="64" y2="64" gradientUnits="userSpaceOnUse">
<stop stop-color="#4573DF"/>
<stop offset="1" stop-color="#CFE8EF"/>
</linearGradient>
<linearGradient id="paint1_linear_4_38" x1="0" y1="0" x2="64" y2="64" gradientUnits="userSpaceOnUse">
<stop stop-color="#4573DF"/>
<stop offset="1" stop-color="#CFE8EF"/>
</linearGradient>
<linearGradient id="paint2_linear_4_38" x1="-13.1429" y1="-18" x2="98.8333" y2="91.691" gradientUnits="userSpaceOnUse">
<stop stop-color="#4573DF"/>
<stop offset="1" stop-color="#CFE8EF"/>
</linearGradient>
<linearGradient id="paint3_linear_4_38" x1="-32.5714" y1="-18" x2="79.4048" y2="91.691" gradientUnits="userSpaceOnUse">
<stop stop-color="#4573DF"/>
<stop offset="1" stop-color="#CFE8EF"/>
</linearGradient>
<clipPath id="clip0_4_38">
<rect width="64" height="64" fill="white"/>
</clipPath>
</defs>
</svg>
