<svg width="600" height="400" viewBox="0 0 600 400" fill="none" xmlns="http://www.w3.org/2000/svg">
<g opacity="0.5">
  <circle cx="100" cy="100" r="2" fill="#6ec1e4"/>
  <circle cx="200" cy="80" r="2" fill="#6ec1e4"/>
  <circle cx="300" cy="120" r="2" fill="#6ec1e4"/>
  <circle cx="400" cy="60" r="2" fill="#6ec1e4"/>
  <circle cx="500" cy="100" r="2" fill="#6ec1e4"/>
  <circle cx="150" cy="200" r="2" fill="#6ec1e4"/>
  <circle cx="250" cy="220" r="2" fill="#6ec1e4"/>
  <circle cx="350" cy="180" r="2" fill="#6ec1e4"/>
  <circle cx="450" cy="240" r="2" fill="#6ec1e4"/>
  <circle cx="550" cy="200" r="2" fill="#6ec1e4"/>
  <line x1="100" y1="100" x2="200" y2="80" stroke="#6ec1e4" stroke-width="1"/>
  <line x1="200" y1="80" x2="300" y2="120" stroke="#6ec1e4" stroke-width="1"/>
  <line x1="300" y1="120" x2="400" y2="60" stroke="#6ec1e4" stroke-width="1"/>
  <line x1="400" y1="60" x2="500" y2="100" stroke="#6ec1e4" stroke-width="1"/>
  <line x1="150" y1="200" x2="250" y2="220" stroke="#6ec1e4" stroke-width="1"/>
  <line x1="250" y1="220" x2="350" y2="180" stroke="#6ec1e4" stroke-width="1"/>
  <line x1="350" y1="180" x2="450" y2="240" stroke="#6ec1e4" stroke-width="1"/>
  <line x1="450" y1="240" x2="550" y2="200" stroke="#6ec1e4" stroke-width="1"/>
  <line x1="200" y1="80" x2="150" y2="200" stroke="#6ec1e4" stroke-width="1"/>
  <line x1="300" y1="120" x2="250" y2="220" stroke="#6ec1e4" stroke-width="1"/>
  <line x1="400" y1="60" x2="350" y2="180" stroke="#6ec1e4" stroke-width="1"/>
  <line x1="500" y1="100" x2="450" y2="240" stroke="#6ec1e4" stroke-width="1"/>
</g>
</svg>
