<svg width="30" height="30" viewBox="0 0 30 30" fill="none" xmlns="http://www.w3.org/2000/svg">
<g id="logos:microsoft-power-bi" clip-path="url(#clip0_942_465)">
<g id="Mask group">
<mask id="mask0_942_465" style="mask-type:luminance" maskUnits="userSpaceOnUse" x="0" y="0" width="30" height="30">
<g id="Group">
<path id="Vector" d="M16.6666 1.24754C16.6666 0.558596 17.4129 0 18.3333 0H28.3334C29.2537 0 30 0.558596 30 1.24754V28.694C30 29.383 29.2537 29.9415 28.3334 29.9415H1.66664C0.74625 29.9415 0 29.383 0 28.6939V16.2184C0 15.5294 0.74625 14.9709 1.66664 14.9709H8.33344V8.73298C8.33344 8.04395 9.07957 7.48535 10.0001 7.48535H16.6666V1.24754Z" fill="white"/>
</g>
</mask>
<g mask="url(#mask0_942_465)">
<path id="Vector_2" d="M29.9999 0V29.9415H16.6665V0H29.9999Z" fill="url(#paint0_linear_942_465)"/>
</g>
</g>
<g id="Mask group_2">
<mask id="mask1_942_465" style="mask-type:luminance" maskUnits="userSpaceOnUse" x="0" y="0" width="30" height="30">
<g id="Group_2">
<path id="Vector_3" d="M16.6666 1.24754C16.6666 0.558596 17.4129 0 18.3333 0H28.3334C29.2537 0 30 0.558596 30 1.24754V28.694C30 29.383 29.2537 29.9415 28.3334 29.9415H1.66664C0.74625 29.9415 0 29.383 0 28.6939V16.2184C0 15.5294 0.74625 14.9709 1.66664 14.9709H8.33344V8.73298C8.33344 8.04395 9.07957 7.48535 10.0001 7.48535H16.6666V1.24754Z" fill="white"/>
</g>
</mask>
<g mask="url(#mask1_942_465)">
<path id="Vector_4" d="M21.6665 8.85765V30.0662H8.33301V7.61011H19.9997C20.9201 7.61011 21.6664 8.16862 21.6664 8.85765" fill="black" fill-opacity="0.2"/>
</g>
</g>
<g id="Mask group_3">
<mask id="mask2_942_465" style="mask-type:luminance" maskUnits="userSpaceOnUse" x="0" y="0" width="30" height="30">
<g id="Group_3">
<path id="Vector_5" d="M16.6666 1.24754C16.6666 0.558596 17.4129 0 18.3333 0H28.3334C29.2537 0 30 0.558596 30 1.24754V28.694C30 29.383 29.2537 29.9415 28.3334 29.9415H1.66664C0.74625 29.9415 0 29.383 0 28.6939V16.2184C0 15.5294 0.74625 14.9709 1.66664 14.9709H8.33344V8.73298C8.33344 8.04395 9.07957 7.48535 10.0001 7.48535H16.6666V1.24754Z" fill="white"/>
</g>
</mask>
<g mask="url(#mask2_942_465)">
<path id="Vector_6" d="M21.6665 9.35676V30.5653H8.33301V8.10913H19.9997C20.9201 8.10913 21.6664 8.66773 21.6664 9.35676" fill="black" fill-opacity="0.18"/>
</g>
</g>
<g id="Mask group_4">
<mask id="mask3_942_465" style="mask-type:luminance" maskUnits="userSpaceOnUse" x="0" y="0" width="30" height="30">
<g id="Group_4">
<path id="Vector_7" d="M16.6666 1.24754C16.6666 0.558596 17.4129 0 18.3333 0H28.3334C29.2537 0 30 0.558596 30 1.24754V28.694C30 29.383 29.2537 29.9415 28.3334 29.9415H1.66664C0.74625 29.9415 0 29.383 0 28.6939V16.2184C0 15.5294 0.74625 14.9709 1.66664 14.9709H8.33344V8.73298C8.33344 8.04395 9.07957 7.48535 10.0001 7.48535H16.6666V1.24754Z" fill="white"/>
</g>
</mask>
<g mask="url(#mask3_942_465)">
<path id="Vector_8" d="M21.6665 8.73298V29.9415H8.33301V7.48535H19.9997C20.9201 7.48535 21.6664 8.04395 21.6664 8.73298" fill="url(#paint1_linear_942_465)"/>
</g>
</g>
<g id="Mask group_5">
<mask id="mask4_942_465" style="mask-type:luminance" maskUnits="userSpaceOnUse" x="0" y="0" width="30" height="30">
<g id="Group_5">
<path id="Vector_9" d="M16.6666 1.24754C16.6666 0.558596 17.4129 0 18.3333 0H28.3334C29.2537 0 30 0.558596 30 1.24754V28.694C30 29.383 29.2537 29.9415 28.3334 29.9415H1.66664C0.74625 29.9415 0 29.383 0 28.6939V16.2184C0 15.5294 0.74625 14.9709 1.66664 14.9709H8.33344V8.73298C8.33344 8.04395 9.07957 7.48535 10.0001 7.48535H16.6666V1.24754Z" fill="white"/>
</g>
</mask>
<g mask="url(#mask4_942_465)">
<path id="Vector_10" d="M0 14.9707V29.9414H13.3334V16.2183C13.3334 15.5293 12.5871 14.9708 11.6667 14.9708L0 14.9707Z" fill="url(#paint2_linear_942_465)"/>
</g>
</g>
</g>
<defs>
<linearGradient id="paint0_linear_942_465" x1="584.574" y1="-7.27128e-06" x2="1482.16" y2="2541.79" gradientUnits="userSpaceOnUse">
<stop stop-color="#E6AD10"/>
<stop offset="1" stop-color="#C87E0E"/>
</linearGradient>
<linearGradient id="paint1_linear_942_465" x1="543.299" y1="7.48533" x2="1302.25" y2="1973.92" gradientUnits="userSpaceOnUse">
<stop stop-color="#F6D751"/>
<stop offset="1" stop-color="#E6AD10"/>
</linearGradient>
<linearGradient id="paint2_linear_942_465" x1="370.321" y1="14.9707" x2="819.58" y2="1437.36" gradientUnits="userSpaceOnUse">
<stop stop-color="#F9E589"/>
<stop offset="1" stop-color="#F6D751"/>
</linearGradient>
<clipPath id="clip0_942_465">
<rect width="30" height="30" fill="white"/>
</clipPath>
</defs>
</svg>
