<svg width="50" height="40" viewBox="0 0 50 40" fill="none" xmlns="http://www.w3.org/2000/svg">
<g id="mobile app icon" clip-path="url(#clip0_438_1336)">
<path id="Vector" d="M30.8804 4.28162C30.9258 6.19206 30.883 8.10521 30.9044 10.0157C30.6823 9.99397 30.4576 9.97501 30.2355 9.94791C30.1579 9.93978 30.0615 9.95062 30.0374 9.8368C30.0374 8.15941 30.0428 6.48202 30.0374 4.80462C30.0374 4.24911 29.8474 3.76404 29.422 3.39551C29.1678 3.1733 28.86 3.08658 28.5255 3.08658C24.6882 3.08658 20.8536 3.08658 17.0163 3.08658C16.1734 3.08658 15.5927 3.72069 15.4937 4.60139C15.4616 4.89676 15.4589 5.19213 15.4589 5.49022C15.4589 14.7443 15.4589 23.9984 15.4589 33.2526C15.4589 33.6997 15.5311 34.1333 15.7586 34.5235C15.9647 34.873 16.2537 35.1142 16.6604 35.1955C16.8718 35.2362 17.0859 35.2551 17.2999 35.2524C20.966 35.2524 24.632 35.2524 28.3007 35.2524C28.5443 35.2524 28.7985 35.2524 29.0125 35.163C29.2721 35.0573 29.5263 34.9056 29.6922 34.6481C29.9812 34.1983 30.0695 33.7051 30.0428 33.1794C30.0321 32.9897 30.0374 32.7973 30.0428 32.6049C30.0481 32.3881 30.214 32.1198 30.3585 32.0792C30.6208 32.0033 30.9044 32.2174 30.9098 32.5426C30.9232 33.1604 30.982 33.7891 30.7894 34.388C30.6235 34.9001 30.3612 35.3581 29.9518 35.7266C29.5424 36.0952 29.0768 36.2551 28.5309 36.2524C24.6936 36.2442 20.859 36.2469 17.0216 36.2496C16.7273 36.2496 16.4303 36.2551 16.1627 36.125C15.879 35.9868 15.6195 35.8025 15.4054 35.5668C15.0709 35.2009 14.8515 34.7755 14.7177 34.285C14.6374 33.9815 14.624 33.6888 14.624 33.3881C14.624 23.8819 14.624 14.3785 14.6187 4.87237C14.6187 4.41441 14.6909 3.97812 14.8755 3.56894C15.0441 3.19227 15.2662 2.85625 15.5927 2.58255C16.0048 2.23569 16.4517 2.06226 16.9949 2.06497C20.8509 2.07581 24.707 2.0731 28.563 2.06768C28.8386 2.06768 29.1116 2.0731 29.3604 2.19775C29.7538 2.39828 30.099 2.65843 30.3532 3.0351C30.5218 3.28711 30.6502 3.55268 30.7626 3.83179C30.8161 3.96728 30.7813 4.12445 30.8777 4.2464C30.8857 4.25453 30.8884 4.26808 30.8884 4.27891L30.8804 4.28162Z" fill="#3B79BE"/>
<path id="Vector_2" d="M30.0374 9.83678C30.0589 9.9506 30.1579 9.93976 30.2355 9.94789C30.4576 9.97499 30.6823 9.99395 30.9045 10.0156C30.9446 10.1322 31.0222 10.1836 31.1453 10.2107C31.5172 10.2947 31.8384 10.5034 32.1755 10.6714C32.4699 10.8177 32.7348 11.0101 32.9917 11.2025C33.262 11.4058 33.5403 11.6063 33.7784 11.8637C33.939 12.0372 34.1022 12.2133 34.2761 12.3732C34.4956 12.5737 34.6668 12.8068 34.8327 13.0507C35.0361 13.3515 35.2448 13.6468 35.4295 13.9585C35.6302 14.2918 35.7854 14.6468 35.9486 14.999C36.1814 15.4976 36.3634 16.0179 36.4918 16.5491C36.6122 17.0477 36.7193 17.5544 36.7835 18.072C36.8638 18.744 36.8772 19.4134 36.8638 20.0827C36.8504 20.6599 36.7862 21.229 36.6658 21.798C36.5855 22.1828 36.5079 22.5676 36.3955 22.9416C36.2644 23.3752 36.1065 23.8006 35.9031 24.2098C35.7773 24.4618 35.6569 24.7192 35.5338 24.974C35.392 25.2666 35.2234 25.5485 35.0308 25.8032C34.806 26.104 34.632 26.4454 34.3511 26.7029C34.0861 26.944 33.8346 27.2042 33.5777 27.4535C33.2807 27.7407 32.9489 27.9765 32.6224 28.2122C32.3816 28.3857 32.0952 28.5239 31.8143 28.6539C31.5681 28.765 31.3165 28.8545 31.0704 28.9601C31.0008 28.99 30.9446 29.0279 30.8964 29.0848C30.6021 29.1011 30.3024 29.1038 30.0428 29.2799C29.7725 29.3043 29.4996 29.3233 29.2293 29.3504C29.1651 29.3558 29.1704 29.429 29.1517 29.475C29.1865 29.372 29.1089 29.3341 29.042 29.3341C28.8038 29.3287 28.563 29.2826 28.3302 29.372C28.0064 29.3151 27.6746 29.3097 27.3562 29.2149C27.1153 29.1444 26.8424 29.1255 26.631 29.0225C26.3661 28.8924 26.0851 28.8057 25.8228 28.6729C25.3492 28.4371 24.9023 28.1743 24.4795 27.86C24.0407 27.5348 23.6312 27.1717 23.2753 26.7598C22.7375 26.1419 22.2772 25.4672 21.8972 24.7301C21.5387 24.0309 21.2657 23.2993 21.0543 22.5459C20.8857 21.9417 20.7653 21.3184 20.7278 20.6897C20.669 19.7087 20.6636 18.7251 20.8135 17.7468C20.8643 17.4081 20.9446 17.0802 21.0249 16.7469C21.1078 16.3973 21.2175 16.0586 21.3326 15.7171C21.4343 15.4136 21.5788 15.1264 21.6992 14.831C21.8758 14.4029 22.1086 14.0045 22.3575 13.6143C22.6518 13.1536 22.9756 12.7146 23.3583 12.3163C23.6286 12.0318 23.8962 11.7472 24.1959 11.4979C24.6508 11.1212 25.1512 10.8096 25.6676 10.5197C25.9941 10.3354 26.3446 10.1864 26.6898 10.0969C27.2116 9.96415 27.7335 9.79343 28.2847 9.78259C28.3008 9.78259 28.3195 9.76633 28.3355 9.7582C28.4934 9.98582 28.7262 9.87201 28.9296 9.89098C29.0928 9.90724 29.1678 9.82324 29.1571 9.66064C29.1892 9.76362 29.2641 9.78801 29.3658 9.79614C29.5531 9.80969 29.7538 9.74736 29.9224 9.8964C29.9625 9.93163 30.0214 9.90453 30.0267 9.83407C30.0267 9.83136 30.0267 9.82594 30.0241 9.82323C30.0294 9.82865 30.0348 9.83136 30.0401 9.83678H30.0374ZM35.8496 19.538C35.8817 19.1261 35.8148 18.7169 35.7693 18.305C35.7051 17.7251 35.582 17.1534 35.4054 16.5978C35.3171 16.3187 35.2234 16.0396 35.1137 15.7659C34.9986 15.4814 34.8595 15.2077 34.7203 14.9394C34.533 14.5844 34.3243 14.2349 34.0781 13.9178C33.8373 13.6062 33.5831 13.3 33.3021 13.0181C33.0077 12.7228 32.6866 12.4653 32.3602 12.216C32.0658 11.9911 31.742 11.815 31.4049 11.6551C30.8937 11.4112 30.3719 11.2215 29.81 11.1483C29.6414 11.1267 29.4755 11.1077 29.3069 11.0752C29.1223 11.04 28.9269 10.983 28.7503 11.0129C28.1991 11.1104 27.6318 11.1131 27.0912 11.2893C26.6979 11.4193 26.3018 11.5521 25.9406 11.7445C25.6221 11.9152 25.3198 12.1266 25.0254 12.3488C24.5865 12.6794 24.2039 13.0642 23.8426 13.4707C23.4734 13.888 23.1737 14.3595 22.9007 14.8527C22.5421 15.5004 22.2612 16.1805 22.0658 16.8905C21.8838 17.549 21.7848 18.2265 21.7313 18.9093C21.6644 19.7765 21.7447 20.6301 21.8999 21.4837C21.9722 21.8875 22.0738 22.2804 22.1943 22.6652C22.3548 23.1746 22.5716 23.6678 22.8204 24.1448C23.1442 24.7707 23.5563 25.3263 24.0139 25.852C24.2975 26.1771 24.6294 26.4535 24.9585 26.7327C25.3626 27.0768 25.8309 27.3071 26.2831 27.5646C26.4972 27.6865 26.7514 27.7543 26.9869 27.8247C27.4364 27.9575 27.9074 28.028 28.3757 28.0903C28.8413 28.1526 29.3016 28.0903 29.7618 27.9954C30.0562 27.9358 30.3719 27.9304 30.6342 27.803C30.9098 27.6703 31.2095 27.6079 31.4798 27.4481C31.7126 27.3099 31.9748 27.196 32.1969 27.0416C32.5582 26.7923 32.9087 26.5213 33.2165 26.1988C33.5857 25.814 33.9363 25.4184 34.2414 24.9794C34.6829 24.3426 35.0093 23.6434 35.2876 22.9226C35.5044 22.3617 35.6435 21.7682 35.7292 21.1721C35.8041 20.6328 35.8897 20.0881 35.8523 19.5299L35.8496 19.538Z" fill="#F1762A"/>
<path id="Vector_3" d="M29.1544 9.66326C29.1651 9.82856 29.0875 9.90985 28.927 9.89359C28.7236 9.87463 28.4908 9.98844 28.3329 9.76081C28.3329 9.62803 28.3195 9.49525 28.3275 9.36518C28.3409 9.19175 28.2767 9.14297 28.1028 9.14297C24.5464 9.14839 20.9928 9.14839 17.4365 9.14297C17.2491 9.14297 17.1903 9.19716 17.1929 9.38685C17.1983 16.2102 17.1956 23.0309 17.1956 29.8543C17.1956 30.1253 17.1956 30.128 17.4659 30.128C19.6896 30.128 21.916 30.128 24.1397 30.128C25.4643 30.128 26.7889 30.128 28.1135 30.1307C28.274 30.1307 28.3409 30.0846 28.3356 29.922C28.3302 29.7378 28.3329 29.5535 28.3329 29.3665C28.5657 29.2771 28.8065 29.3232 29.0447 29.3286C29.1116 29.3286 29.1865 29.3692 29.1544 29.4695C29.1223 29.8624 29.1892 30.2608 29.1116 30.6537C29.0634 30.8976 28.8574 31.0846 28.6139 31.09C28.2499 31.0954 27.8833 31.0954 27.5167 31.0954C24.0407 31.0954 20.562 31.0954 17.0859 31.0954C16.5828 31.0954 16.3795 30.8868 16.3795 30.3773C16.3795 22.3589 16.3795 14.3404 16.3795 6.32473C16.3795 6.0971 16.4116 5.89387 16.5802 5.7096C16.6925 5.58765 16.8023 5.56868 16.9387 5.56868C18.4266 5.56868 19.9144 5.56868 21.3995 5.56868C21.5173 5.56868 21.635 5.57952 21.7527 5.56868C21.9534 5.54701 22.0712 5.63914 22.1434 5.81799C22.2103 5.98329 22.1675 6.23531 22.0632 6.35725C21.9534 6.48732 21.825 6.53339 21.6537 6.53068C20.95 6.52526 20.2462 6.53881 19.5424 6.5361C19.3952 6.5361 19.3364 6.58217 19.3417 6.74205C19.3524 7.12413 19.3417 7.50893 19.3471 7.89102C19.3471 8.12949 19.3819 8.162 19.62 8.162C22.4458 8.162 25.2689 8.162 28.0947 8.16742C28.2821 8.16742 28.3356 8.08884 28.3356 7.92625C28.3356 7.53603 28.3275 7.14581 28.3382 6.75831C28.3436 6.56862 28.2713 6.52255 28.0974 6.52526C26.6872 6.53068 25.2796 6.52526 23.8694 6.53068C23.7222 6.53068 23.5911 6.51171 23.4787 6.39519C23.361 6.27324 23.2887 6.03207 23.3449 5.86948C23.4332 5.61746 23.5215 5.54972 23.7731 5.54972C25.3251 5.54972 26.8772 5.56055 28.4319 5.54159C28.927 5.53617 29.1491 5.79902 29.1464 6.27866C29.141 7.25692 29.1464 8.23246 29.1464 9.21071C29.1464 9.36247 29.1517 9.51422 29.1544 9.66597V9.66326ZM17.1983 7.3084C17.1983 7.51164 17.201 7.71759 17.1983 7.92083C17.1956 8.08884 17.2465 8.17284 17.4365 8.16471C17.7228 8.15117 18.0118 8.14846 18.2954 8.16471C18.4908 8.17555 18.5496 8.08613 18.5496 7.9127C18.5496 7.51706 18.5443 7.12142 18.5523 6.72579C18.555 6.57404 18.4854 6.52526 18.3543 6.52526C18.0278 6.52526 17.7014 6.52526 17.3776 6.52526C17.2411 6.52526 17.1929 6.57946 17.1983 6.71495C17.2063 6.91277 17.1983 7.11059 17.1983 7.3084Z" fill="#3B79BE"/>
<path id="Vector_4" d="M21.4691 33.1685C21.4691 32.4423 21.7607 31.9572 22.3013 31.6564C22.6304 31.4749 22.989 31.4992 23.3262 31.7269C23.9095 32.1198 24.129 32.6889 24.046 33.3555C23.9871 33.846 23.757 34.2606 23.2914 34.5288C22.981 34.705 22.6759 34.6996 22.3762 34.6183C22.1488 34.5559 21.9561 34.369 21.8062 34.1684C21.5681 33.8487 21.4343 33.4937 21.4664 33.1685H21.4691ZM23.2084 33.1116C23.2084 32.8515 23.0131 32.5534 22.7214 32.5588C22.51 32.5642 22.3066 32.8108 22.3173 33.136C22.328 33.4232 22.5287 33.6834 22.7508 33.678C22.9863 33.6725 23.2111 33.3934 23.2084 33.1116Z" fill="#3B79BE"/>
<path id="Vector_5" d="M22.783 3.82642C23.2325 3.82642 23.6821 3.83455 24.1317 3.821C24.3323 3.81558 24.4367 3.92126 24.5009 4.07844C24.5732 4.25457 24.5678 4.44155 24.4608 4.60685C24.3752 4.73964 24.2494 4.78299 24.0862 4.78299C23.2058 4.77486 22.3254 4.78028 21.445 4.78028C21.1212 4.78028 20.8938 4.43342 20.9954 4.12179C21.065 3.90771 21.1935 3.821 21.4156 3.82642C21.8732 3.83455 22.3281 3.82913 22.7857 3.82642H22.783Z" fill="#3B79BE"/>
<path id="Vector_6" d="M30.0455 29.2745C30.3051 29.0983 30.6021 29.0956 30.8991 29.0793C30.8884 29.5346 30.9393 29.9899 30.8697 30.4451V30.4424C30.8242 30.5156 30.7787 30.586 30.7305 30.6565C30.7305 30.6592 30.7252 30.6619 30.7225 30.6646C30.4228 30.8326 30.2301 30.7622 30.1044 30.4288C30.0856 30.3828 30.0642 30.3476 30.0187 30.3313H30.0348C30.0348 29.979 30.0401 29.6267 30.0428 29.2745H30.0455Z" fill="#3B79BE"/>
<path id="Vector_7" d="M30.8804 4.28154C30.8804 4.28154 30.8777 4.25715 30.8697 4.24902C30.875 4.26257 30.8831 4.27612 30.8857 4.28696C30.8857 4.28967 30.8804 4.29509 30.8777 4.2978C30.8777 4.29238 30.8777 4.28696 30.8777 4.27883L30.8804 4.28154Z" fill="#F1762A"/>
<path id="Vector_8" d="M30.8724 30.4451C30.8804 30.4505 30.8911 30.4559 30.8991 30.4586C30.8911 30.4532 30.8831 30.4478 30.875 30.4451H30.8724Z" fill="#F1762A"/>
<path id="Vector_9" d="M30.7252 30.6646C30.7252 30.6646 30.7305 30.6619 30.7332 30.6565C30.7359 30.6592 30.7439 30.6646 30.7439 30.6673C30.7385 30.6863 30.7332 30.6836 30.7278 30.6619L30.7252 30.6646Z" fill="#F1762A"/>
<path id="Vector_10" d="M30.0375 30.3314H30.0241L30.0295 30.3206L30.0375 30.3314Z" fill="#F1762A"/>
<path id="Vector_11" d="M28.3329 29.3665C28.3329 29.5508 28.3329 29.735 28.3356 29.922C28.3409 30.0846 28.2713 30.1334 28.1135 30.1307C26.7889 30.1252 25.4643 30.1279 24.1397 30.1279C21.916 30.1279 19.6896 30.1279 17.4659 30.1279C17.1983 30.1279 17.1956 30.1279 17.1956 29.8543C17.1956 23.0309 17.1956 16.2102 17.1929 9.3868C17.1929 9.1944 17.2491 9.14021 17.4364 9.14292C20.9928 9.14834 24.5464 9.14834 28.1028 9.14292C28.274 9.14292 28.3382 9.1917 28.3275 9.36513C28.3168 9.4952 28.3275 9.62798 28.3329 9.76076C28.3168 9.76889 28.2981 9.78515 28.282 9.78515C27.7335 9.79599 27.209 9.96671 26.6872 10.0995C26.3393 10.1889 25.9914 10.338 25.665 10.5222C25.1485 10.8122 24.6481 11.1211 24.1932 11.5005C23.8935 11.7498 23.6259 12.0343 23.3556 12.3189C22.9756 12.7172 22.6492 13.1562 22.3548 13.6169C22.1086 14.0044 21.8732 14.4027 21.6965 14.8336C21.5761 15.129 21.4316 15.4162 21.3299 15.7197C21.2176 16.0584 21.1052 16.3999 21.0222 16.7494C20.9446 17.08 20.8643 17.4107 20.8108 17.7494C20.661 18.7276 20.6663 19.7086 20.7252 20.6923C20.7626 21.321 20.8831 21.9442 21.0516 22.5485C21.263 23.3019 21.536 24.0335 21.8946 24.7326C22.2719 25.467 22.7348 26.1418 23.2727 26.7623C23.6286 27.1742 24.038 27.5373 24.4768 27.8625C24.8996 28.1769 25.3465 28.4397 25.8202 28.6755C26.0851 28.8083 26.3661 28.895 26.6283 29.025C26.8397 29.128 27.1127 29.147 27.3535 29.2174C27.6719 29.3096 28.0037 29.3177 28.3275 29.3746L28.3329 29.3665Z" fill="#272C34"/>
<path id="Vector_12" d="M35.8496 19.5381C35.8871 20.0963 35.8014 20.6383 35.7265 21.1802C35.6435 21.7764 35.5017 22.3672 35.285 22.9308C35.0067 23.6516 34.6802 24.3508 34.2387 24.9876C33.9336 25.4266 33.5831 25.8222 33.2138 26.207C32.9061 26.5295 32.5555 26.8005 32.1943 27.0498C31.9722 27.2042 31.7099 27.3208 31.4771 27.4562C31.2068 27.6161 30.9071 27.6785 30.6315 27.8112C30.3693 27.9386 30.0508 27.944 29.7592 28.0036C29.2989 28.0958 28.8359 28.1581 28.373 28.0985C27.9074 28.0362 27.4364 27.9657 26.9842 27.8329C26.7487 27.7625 26.4972 27.6947 26.2804 27.5728C25.8282 27.3153 25.3626 27.085 24.9558 26.7408C24.6267 26.4617 24.2922 26.1853 24.0112 25.8601C23.5536 25.3344 23.1415 24.7762 22.8178 24.1529C22.5689 23.6733 22.3521 23.1828 22.1916 22.6734C22.0712 22.2886 21.9695 21.8929 21.8972 21.4919C21.7447 20.6383 21.6617 19.7847 21.7286 18.9175C21.7822 18.2346 21.8812 17.5572 22.0631 16.8987C22.2585 16.1887 22.5395 15.5085 22.898 14.8609C23.171 14.3677 23.4707 13.8989 23.84 13.4789C24.2012 13.0724 24.5812 12.6849 25.0227 12.357C25.3171 12.1375 25.6195 11.9261 25.9379 11.7527C26.2992 11.5576 26.6952 11.4248 27.0886 11.2974C27.6318 11.1213 28.1964 11.1186 28.7476 11.021C28.9243 10.9912 29.1196 11.0481 29.3042 11.0834C29.4701 11.1159 29.6387 11.1349 29.8073 11.1565C30.3693 11.227 30.8911 11.4194 31.4022 11.6633C31.7393 11.8232 32.0658 12.002 32.3575 12.2242C32.684 12.4735 33.0051 12.731 33.2994 13.0263C33.5831 13.3082 33.8346 13.6144 34.0754 13.926C34.3216 14.243 34.5304 14.5926 34.7177 14.9476C34.8595 15.2159 34.9987 15.4896 35.111 15.7741C35.2208 16.0478 35.3144 16.3242 35.4027 16.606C35.5793 17.1616 35.7051 17.7333 35.7666 18.3132C35.8121 18.7251 35.8817 19.137 35.8469 19.5462L35.8496 19.5381ZM28.7182 25.8412C28.9724 25.8412 29.2266 25.8439 29.4809 25.8412C29.5692 25.8412 29.6468 25.8141 29.7297 25.7545C30.0134 25.5485 30.0722 25.2586 30.0749 24.9388C30.0749 24.6814 30.0749 24.4239 30.107 24.1692C30.1231 24.0337 30.2194 23.9849 30.3211 23.9416C30.4174 23.8982 30.4924 23.9741 30.5432 24.031C30.6824 24.1855 30.8322 24.3372 30.9259 24.5188C31.0811 24.8196 31.7367 24.8873 31.9936 24.5757C32.3013 24.2071 32.601 23.8359 32.898 23.4619C33.1148 23.191 33.1255 22.7249 32.9489 22.4241C32.8044 22.1775 32.5876 21.9905 32.4244 21.7574C32.3254 21.6192 32.3548 21.4973 32.4057 21.3699C32.4538 21.2507 32.5635 21.2344 32.6813 21.2317C32.89 21.229 33.0987 21.2399 33.3075 21.2128C33.6339 21.1694 33.9283 20.8957 33.9363 20.5624C33.9497 19.9473 33.9657 19.3321 33.9283 18.7197C33.9069 18.3891 33.6981 18.0179 33.2486 18.0341C33.0586 18.0423 32.8713 18.0341 32.6813 18.0341C32.5635 18.0341 32.4592 18.0124 32.4137 17.8851C32.3682 17.755 32.312 17.6358 32.4431 17.5057C32.5742 17.3756 32.6786 17.2157 32.7963 17.0694C33.1335 16.6575 33.2084 16.1237 32.8204 15.6684C32.6518 15.4679 32.4752 15.2782 32.3093 15.075C32.1381 14.8636 31.9802 14.6441 31.7527 14.4842C31.6377 14.4056 31.3406 14.384 31.2363 14.4598C30.958 14.6631 30.7492 14.9313 30.5405 15.2023C30.4817 15.2782 30.4281 15.3134 30.3131 15.2836C30.1632 15.2457 30.1124 15.1617 30.0963 15.0262C30.0615 14.7552 30.0883 14.4842 30.0803 14.216C30.0642 13.6686 29.7645 13.3623 29.224 13.3732C28.8707 13.3786 28.5202 13.3705 28.167 13.3732C27.7495 13.3786 27.4552 13.6848 27.4311 14.0967C27.415 14.3921 27.4231 14.6902 27.4231 14.9883C27.4231 15.14 27.3374 15.224 27.2117 15.289C27.118 15.3378 27.0404 15.2836 27.0083 15.2321C26.8852 15.0425 26.7166 14.8961 26.5694 14.7335C26.4356 14.5872 26.3045 14.4138 26.061 14.4056C25.7854 14.3948 25.6007 14.5709 25.4536 14.739C25.1967 15.0289 24.9371 15.3216 24.707 15.6332C24.3805 16.0749 24.2895 16.4082 24.6026 16.9014C24.7471 17.129 24.9371 17.3187 25.1003 17.5301C25.2181 17.6846 25.095 17.8065 25.0736 17.9393C25.0548 18.0477 24.9478 18.0341 24.8622 18.0341C24.6722 18.0341 24.4849 18.0341 24.2949 18.0341C23.8881 18.0395 23.6607 18.2455 23.5884 18.6465C23.5001 19.1316 23.567 19.6194 23.5429 20.1072C23.5322 20.3077 23.567 20.5028 23.6152 20.6952C23.6928 21.0068 23.8935 21.1911 24.2039 21.2209C24.418 21.2399 24.6347 21.2263 24.8488 21.2344C24.9264 21.2372 25.0495 21.1938 25.0655 21.3076C25.0843 21.4512 25.2502 21.584 25.1003 21.7466C24.9505 21.9092 24.814 22.0853 24.6749 22.2588C24.517 22.4566 24.4019 22.6707 24.4126 22.9389C24.4206 23.191 24.5411 23.3806 24.6989 23.5649C24.9906 23.9064 25.2636 24.264 25.5526 24.6082C25.7693 24.8656 26.3152 24.8141 26.4811 24.6272C26.6336 24.4564 26.7808 24.2803 26.9173 24.0988C26.9869 24.0066 27.0431 23.8874 27.1742 23.9443C27.3107 24.0012 27.4391 24.0798 27.4284 24.2749C27.415 24.5188 27.4311 24.7627 27.4257 25.0065C27.4177 25.2802 27.5274 25.4916 27.7067 25.6921C27.8084 25.8032 27.9101 25.8412 28.0439 25.8412C28.2713 25.8412 28.5015 25.8412 28.7289 25.8412H28.7182Z" fill="#272C34"/>
<path id="Vector_13" d="M17.1983 7.30838C17.1983 7.11056 17.2036 6.91275 17.1983 6.71493C17.1929 6.57944 17.2411 6.52253 17.3776 6.52524C17.704 6.53066 18.0305 6.52524 18.3543 6.52524C18.4854 6.52524 18.555 6.57402 18.5523 6.72577C18.5443 7.1214 18.5496 7.51704 18.5496 7.91268C18.5496 8.08611 18.4934 8.17553 18.2954 8.16469C18.0091 8.14843 17.7228 8.14843 17.4364 8.16469C17.2491 8.17553 17.1956 8.08882 17.1983 7.92081C17.2009 7.71757 17.1983 7.51162 17.1983 7.30838Z" fill="#272C34"/>
<path id="Vector_14" d="M23.2084 33.1115C23.2138 33.396 22.9863 33.6751 22.7509 33.6778C22.5288 33.6805 22.3281 33.4231 22.3174 33.1359C22.3067 32.8107 22.51 32.5641 22.7214 32.5587C23.0104 32.5532 23.2084 32.8513 23.2084 33.1115Z" fill="#272C34"/>
<path id="Vector_15" d="M28.7182 25.841C28.4907 25.841 28.2606 25.841 28.0332 25.841C27.8994 25.841 27.7977 25.8031 27.696 25.692C27.5167 25.4914 27.407 25.2801 27.415 25.0064C27.423 24.7625 27.407 24.5159 27.4177 24.2747C27.4284 24.0796 27.2999 24.001 27.1635 23.9441C27.0324 23.8899 26.9762 24.0064 26.9066 24.0986C26.7701 24.2801 26.6229 24.4563 26.4704 24.627C26.3045 24.814 25.7586 24.8654 25.5418 24.608C25.2528 24.2639 24.9772 23.9089 24.6882 23.5647C24.533 23.3805 24.4126 23.1908 24.4019 22.9388C24.3912 22.6705 24.5063 22.4564 24.6641 22.2586C24.8033 22.0851 24.9398 21.9117 25.0896 21.7464C25.2395 21.5811 25.0736 21.451 25.0548 21.3074C25.0388 21.1909 24.9184 21.237 24.8381 21.2343C24.624 21.2261 24.4073 21.2397 24.1932 21.2207C23.8828 21.1936 23.6821 21.0066 23.6045 20.695C23.5563 20.5026 23.5215 20.3075 23.5322 20.107C23.5563 19.6219 23.4894 19.1314 23.5777 18.6464C23.65 18.2453 23.8774 18.0421 24.2842 18.0339C24.4741 18.0312 24.6615 18.0339 24.8515 18.0339C24.9371 18.0339 25.0441 18.0475 25.0629 17.9391C25.0843 17.8063 25.2074 17.6844 25.0896 17.5299C24.9264 17.3185 24.7364 17.1288 24.5919 16.9012C24.2788 16.408 24.3698 16.0747 24.6963 15.633C24.9264 15.3214 25.186 15.0287 25.4428 14.7388C25.59 14.5735 25.7773 14.3973 26.0503 14.4055C26.2938 14.4136 26.4249 14.587 26.5587 14.7333C26.7059 14.8959 26.8745 15.0423 26.9976 15.232C27.0324 15.2834 27.1073 15.3376 27.2009 15.2889C27.3267 15.2238 27.4123 15.1425 27.4123 14.9881C27.4123 14.69 27.4043 14.3919 27.4204 14.0965C27.4444 13.6819 27.7361 13.3784 28.1562 13.373C28.5095 13.3676 28.86 13.3757 29.2132 13.373C29.7538 13.3649 30.0535 13.6684 30.0695 14.2158C30.0776 14.4867 30.0508 14.7577 30.0856 15.026C30.1043 15.1615 30.1525 15.2455 30.3024 15.2834C30.4174 15.3133 30.4709 15.2753 30.5298 15.2021C30.7385 14.9312 30.9473 14.6629 31.2256 14.4596C31.3299 14.3838 31.6269 14.4055 31.742 14.484C31.9695 14.6412 32.1273 14.8634 32.2986 15.0748C32.4645 15.278 32.6411 15.4677 32.8097 15.6682C33.195 16.1235 33.1228 16.6573 32.7856 17.0692C32.6679 17.2129 32.5635 17.3727 32.4324 17.5055C32.3013 17.6356 32.3575 17.7548 32.403 17.8849C32.4485 18.0123 32.5528 18.0339 32.6706 18.0339C32.8606 18.0339 33.0479 18.0421 33.2379 18.0339C33.6901 18.0177 33.8988 18.3889 33.9176 18.7195C33.955 19.3319 33.939 19.9471 33.9256 20.5622C33.9176 20.8955 33.6232 21.1692 33.2967 21.2126C33.088 21.2397 32.8793 21.2261 32.6706 21.2315C32.5528 21.2315 32.4431 21.2505 32.3949 21.3698C32.3441 21.4971 32.3173 21.6191 32.4137 21.7573C32.5769 21.9876 32.7937 22.1746 32.9382 22.4239C33.1148 22.7247 33.1041 23.1908 32.8873 23.4618C32.5876 23.8357 32.2879 24.2097 31.9828 24.5755C31.7233 24.8844 31.0677 24.8167 30.9151 24.5186C30.8215 24.337 30.6716 24.1826 30.5325 24.0308C30.4816 23.9739 30.4067 23.9007 30.3104 23.9414C30.2087 23.9847 30.1124 24.0362 30.0963 24.169C30.0642 24.4265 30.0642 24.6812 30.0642 24.9386C30.0642 25.2584 30.0026 25.5483 29.719 25.7543C29.636 25.8139 29.5584 25.8383 29.4701 25.841C29.2159 25.8464 28.9617 25.841 28.7075 25.841H28.7182ZM28.2098 24.2205C28.2098 24.4102 28.2098 24.5755 28.2098 24.7408C28.2098 24.8709 28.2633 24.9359 28.3971 24.9332C28.6245 24.9305 28.8547 24.9332 29.0821 24.9332C29.2373 24.9332 29.3042 24.8492 29.3016 24.6947C29.3016 24.4779 29.3016 24.2584 29.3016 24.0417C29.2962 23.6325 29.3845 23.2829 29.8314 23.1501C29.9491 23.1149 30.0508 23.058 30.1552 22.9957C30.3693 22.8683 30.6021 22.8114 30.8482 23.0878C31.0088 23.2666 31.1667 23.4482 31.3219 23.6352C31.4263 23.7625 31.5306 23.7896 31.6403 23.6487C31.8089 23.4319 31.9721 23.2152 32.1381 22.9957C32.1969 22.9171 32.1862 22.8385 32.122 22.7626C31.9828 22.5973 31.8517 22.4266 31.7099 22.2667C31.4557 21.9795 31.4022 21.6272 31.5574 21.283C31.6189 21.1475 31.6537 21.0012 31.7045 20.8603C31.8383 20.4945 31.9213 20.2533 32.4271 20.2777C32.6037 20.2858 32.7803 20.2777 32.9542 20.2777C33.0987 20.2777 33.1629 20.2154 33.1576 20.0582C33.1469 19.7737 33.1496 19.4891 33.1576 19.2073C33.1629 19.0474 33.0907 18.9932 32.9489 18.9959C32.7803 18.9959 32.609 18.9824 32.4404 18.9986C32.0551 19.0366 31.7795 18.7331 31.7126 18.3889C31.6938 18.2968 31.6617 18.2128 31.6269 18.1288C31.4851 17.8009 31.3674 17.4676 31.6029 17.137C31.75 16.931 31.9159 16.7386 32.0899 16.5571C32.2237 16.4189 32.2183 16.2969 32.1086 16.1641C31.9347 15.9555 31.75 15.7522 31.5761 15.5409C31.5092 15.4569 31.4717 15.4596 31.3941 15.5327C31.1908 15.7197 31.0302 15.9392 30.8643 16.156C30.7144 16.3538 30.3184 16.427 30.1391 16.2617C30.0669 16.1939 29.9946 16.156 29.909 16.1316C29.5317 16.0259 29.3203 15.7983 29.3069 15.3783C29.2989 15.1344 29.3042 14.8905 29.2935 14.6466C29.2828 14.3784 29.2694 14.3621 29.0125 14.3621C28.8306 14.3621 28.6486 14.3621 28.464 14.3621C28.2231 14.3621 28.2178 14.3675 28.2178 14.6222C28.2178 14.9068 28.2178 15.1913 28.2124 15.4731C28.2071 15.7577 27.993 15.9961 27.795 16.0503C27.6398 16.0937 27.5167 16.1614 27.3936 16.259C27.2143 16.4026 26.8986 16.3565 26.7193 16.2183C26.4704 16.0286 26.3232 15.7522 26.1065 15.5355C26.0342 15.4623 26.0075 15.4623 25.9432 15.5355C25.7532 15.7577 25.5552 15.9717 25.3706 16.1994C25.2903 16.2996 25.2903 16.4189 25.392 16.5191C25.5472 16.6682 25.6542 16.8633 25.8014 17.015C26.1011 17.3321 26.0342 17.6735 25.9138 18.0258C25.8683 18.1613 25.8094 18.2941 25.7693 18.4269C25.6382 18.8469 25.4776 18.9905 25.0522 18.9905C24.8755 18.9905 24.6989 18.9905 24.525 18.9905C24.4073 18.9905 24.3457 19.0447 24.3484 19.1748C24.3537 19.4783 24.3537 19.7818 24.3484 20.0853C24.3457 20.2235 24.4073 20.2777 24.533 20.2804C24.7685 20.2858 25.0013 20.2912 25.2368 20.2967C25.4723 20.3021 25.6837 20.4728 25.7452 20.7031C25.7987 20.8982 25.8683 21.0879 25.9379 21.2776C26.0503 21.5892 26.077 21.9144 25.8549 22.199C25.7158 22.3778 25.5633 22.5458 25.4161 22.7193C25.3412 22.8087 25.2636 22.8846 25.3866 23.0173C25.574 23.2179 25.7399 23.4428 25.9058 23.665C26.0208 23.8194 26.1145 23.7246 26.1814 23.6352C26.3339 23.4347 26.4865 23.2341 26.6738 23.0634C26.8183 22.9306 26.9708 22.8656 27.1661 22.9171C27.399 22.9794 27.5729 23.1637 27.8057 23.2179C27.9689 23.2558 28.0358 23.3886 28.1188 23.5132C28.2686 23.7436 28.191 24.001 28.2151 24.2205H28.2098Z" fill="#F1762A"/>
<path id="Vector_16" d="M28.2098 24.2205C28.1884 24.001 28.266 23.7435 28.1134 23.5132C28.0332 23.3885 27.9636 23.2585 27.8004 23.2178C27.5676 23.1636 27.3909 22.9767 27.1608 22.917C26.9655 22.8655 26.8129 22.9306 26.6684 23.0634C26.4811 23.2341 26.3286 23.4346 26.1761 23.6351C26.1092 23.7246 26.0155 23.8194 25.9004 23.665C25.7345 23.4427 25.5686 23.2205 25.3813 23.0173C25.2582 22.8845 25.3358 22.8086 25.4107 22.7192C25.5552 22.5458 25.7104 22.3778 25.8496 22.1989C26.069 21.9117 26.0449 21.5865 25.9326 21.2776C25.863 21.0879 25.7934 20.8982 25.7399 20.7031C25.6783 20.4728 25.4669 20.302 25.2315 20.2966C24.996 20.2912 24.7632 20.2858 24.5277 20.2804C24.4019 20.2776 24.3404 20.2207 24.343 20.0853C24.3484 19.7817 24.3484 19.4782 24.343 19.1747C24.343 19.0474 24.4019 18.9932 24.5197 18.9905C24.6963 18.9905 24.8729 18.9905 25.0468 18.9905C25.4696 18.9905 25.6328 18.8469 25.764 18.4268C25.8041 18.294 25.863 18.1586 25.9085 18.0258C26.0289 17.6762 26.0958 17.332 25.7961 17.015C25.6516 16.8605 25.5419 16.6681 25.3867 16.5191C25.2823 16.4188 25.2823 16.2996 25.3653 16.1993C25.5499 15.9717 25.7506 15.7576 25.9379 15.5354C25.9994 15.4623 26.0262 15.465 26.1011 15.5354C26.3179 15.7522 26.4651 16.0259 26.7139 16.2183C26.8932 16.3565 27.209 16.4026 27.3883 16.259C27.5087 16.1614 27.6344 16.0937 27.7897 16.0503C27.9877 15.9961 28.2018 15.7549 28.2071 15.4731C28.2125 15.1886 28.2098 14.904 28.2125 14.6222C28.2125 14.3675 28.2178 14.3621 28.4586 14.3621C28.6406 14.3621 28.8252 14.3621 29.0072 14.3621C29.2641 14.3621 29.2775 14.381 29.2882 14.6466C29.2989 14.8905 29.2935 15.1344 29.3016 15.3783C29.3149 15.7983 29.529 16.0259 29.9036 16.1316C29.992 16.156 30.0615 16.1939 30.1338 16.2617C30.3131 16.427 30.7118 16.3538 30.859 16.156C31.0222 15.9392 31.1854 15.7197 31.3888 15.5327C31.4664 15.4595 31.5039 15.4568 31.5708 15.5408C31.742 15.7522 31.9293 15.9527 32.1033 16.1641C32.213 16.2969 32.2183 16.4188 32.0845 16.557C31.9106 16.7386 31.7447 16.931 31.5975 17.1369C31.362 17.4675 31.4798 17.8036 31.6216 18.1287C31.6591 18.2127 31.6912 18.2968 31.7072 18.3889C31.7741 18.733 32.0498 19.0365 32.4351 18.9986C32.6037 18.9823 32.7749 18.9986 32.9435 18.9959C33.088 18.9959 33.1576 19.0474 33.1522 19.2073C33.1442 19.4918 33.1415 19.7763 33.1522 20.0582C33.1576 20.2153 33.0934 20.2749 32.9489 20.2776C32.7723 20.2776 32.5956 20.2858 32.4217 20.2776C31.9186 20.2533 31.833 20.4917 31.6992 20.8603C31.6484 21.0012 31.6136 21.1475 31.552 21.283C31.3968 21.6272 31.4503 21.9821 31.7046 22.2667C31.8464 22.4266 31.9775 22.5973 32.1167 22.7626C32.1809 22.8385 32.1916 22.917 32.1327 22.9956C31.9695 23.2151 31.8036 23.4319 31.635 23.6487C31.5253 23.7896 31.4209 23.7625 31.3165 23.6351C31.164 23.4482 31.0035 23.2693 30.8429 23.0878C30.5967 22.8141 30.3639 22.871 30.1498 22.9956C30.0428 23.0579 29.9411 23.1149 29.826 23.1501C29.3792 23.2802 29.2909 23.6324 29.2962 24.0416C29.2962 24.2584 29.2962 24.4779 29.2962 24.6947C29.2962 24.8464 29.232 24.9332 29.0768 24.9332C28.8493 24.9332 28.6192 24.9305 28.3917 24.9332C28.2579 24.9332 28.2018 24.8708 28.2044 24.7408C28.2071 24.5755 28.2044 24.4102 28.2044 24.2205H28.2098ZM30.9259 19.6273C30.9205 19.3726 30.9473 19.1097 30.8723 18.8604C30.7359 18.4051 30.5271 17.9905 30.198 17.6383C29.8983 17.3158 29.5424 17.0882 29.1142 17.0204C28.6272 16.9445 28.1536 16.9933 27.7201 17.2779C27.3642 17.5109 27.0993 17.8252 26.8879 18.1856C26.7086 18.4919 26.6497 18.8414 26.5801 19.1883C26.4865 19.6571 26.5507 20.1205 26.6898 20.5541C26.8424 21.0364 27.0912 21.4754 27.5114 21.806C27.7843 22.0228 28.084 22.1908 28.4078 22.2423C29.2373 22.3724 29.9063 22.0418 30.4067 21.3724C30.7894 20.8603 30.9821 20.2776 30.9285 19.6246L30.9259 19.6273Z" fill="#272C34"/>
<path id="Vector_17" d="M30.9259 19.6274C30.9794 20.2805 30.7867 20.8631 30.404 21.3753C29.9063 22.0446 29.2347 22.3752 28.4051 22.2451C28.0813 22.1937 27.7843 22.0256 27.5087 21.8089C27.0912 21.4783 26.8424 21.0366 26.6872 20.5569C26.5507 20.1233 26.4838 19.6627 26.5774 19.1911C26.647 18.8443 26.7059 18.4947 26.8852 18.1885C27.0966 17.8281 27.3615 17.5138 27.7174 17.2807C28.1509 16.9962 28.6245 16.9501 29.1116 17.0233C29.5397 17.0883 29.8956 17.3186 30.1953 17.6411C30.5218 17.9934 30.7332 18.408 30.8697 18.8633C30.9446 19.1126 30.9178 19.3727 30.9232 19.6301L30.9259 19.6274ZM30.1472 19.6247C30.1364 19.0665 29.9384 18.6004 29.513 18.2292C29.0099 17.7902 28.1884 17.8904 27.7843 18.4053C27.4016 18.8931 27.2223 19.4486 27.4097 20.0881C27.5782 20.6599 27.8699 21.0989 28.4747 21.2588C28.9269 21.3753 29.3176 21.2398 29.6307 20.9254C29.9812 20.5759 30.1418 20.1288 30.1445 19.6247H30.1472Z" fill="#F1762A"/>
<path id="Vector_18" d="M30.1472 19.6246C30.1472 20.1286 29.9839 20.5758 29.6334 20.9253C29.3176 21.2397 28.9269 21.3752 28.4774 21.2586C27.8726 21.1015 27.5809 20.6625 27.4124 20.088C27.225 19.4512 27.4043 18.8929 27.787 18.4052C28.191 17.8876 29.0126 17.7873 29.5156 18.229C29.9411 18.6003 30.1391 19.0664 30.1498 19.6246H30.1472Z" fill="#272C34"/>
</g>
<defs>
<clipPath id="clip0_438_1336">
<rect width="50" height="40" fill="white"/>
</clipPath>
</defs>
</svg>
