<svg width="30" height="30" viewBox="0 0 30 30" fill="none" xmlns="http://www.w3.org/2000/svg">
<g id="devicon:opencv">
<path id="Vector" d="M26.4542 15.6099C28.5645 16.8467 29.9827 19.1318 29.9871 21.7484C29.9946 25.6871 26.7956 28.8858 22.8434 28.8921C18.8911 28.8996 15.6811 25.7117 15.6738 21.773C15.6692 19.1564 17.0792 16.8668 19.1857 15.6216L21.2421 19.0852C21.2934 19.1719 21.2642 19.2837 21.1807 19.3406C20.4026 19.868 19.8926 20.7577 19.8945 21.7657C19.8973 23.3817 21.2147 24.69 22.8359 24.6863C24.4575 24.6835 25.7693 23.3714 25.7665 21.7556C25.7649 20.7478 25.252 19.8596 24.472 19.335C24.3888 19.2783 24.3586 19.1665 24.4097 19.0796L26.4542 15.6099Z" fill="#128DFF"/>
<path id="Vector_2" d="M10.6588 15.5677C9.59086 14.9717 8.38791 14.6597 7.16494 14.6614C3.21174 14.6614 0.00830078 17.8547 0.00830078 21.7934C0.00830078 25.7319 3.21174 28.9254 7.16494 28.9254C11.1367 28.9254 14.4188 25.5652 14.319 21.6101H10.2906C10.1844 21.6101 10.1012 21.6999 10.1003 21.8051C10.0902 23.3808 8.77088 24.7194 7.16494 24.7194C5.5426 24.7194 4.22893 23.4092 4.22893 21.7932C4.22893 20.1772 5.5426 18.8672 7.16494 18.8672C7.58893 18.8672 7.99275 18.957 8.35697 19.119C8.44674 19.1583 8.55291 19.1283 8.60236 19.0449L10.6588 15.5677Z" fill="#8BDA67"/>
<path id="Vector_3" d="M11.2373 14.4487C9.12979 13.2082 7.71533 10.9205 7.71533 8.30391C7.71533 4.36523 10.9197 1.17188 14.872 1.17188C18.8242 1.17188 22.0286 4.36523 22.0286 8.30391C22.0286 10.9205 20.6142 13.2082 18.5067 14.4487L16.4556 10.9828C16.4043 10.8961 16.4336 10.7843 16.518 10.7273C17.2961 10.2009 17.8078 9.31195 17.8078 8.30391C17.8078 6.68813 16.4931 5.37797 14.8717 5.37797C13.2503 5.37797 11.9357 6.68813 11.9357 8.30414C11.9357 9.31195 12.4474 10.2009 13.2257 10.7276C13.3101 10.7843 13.3392 10.8959 13.2878 10.983L11.2373 14.4487Z" fill="#FF2A44"/>
</g>
</svg>
