<svg width="17" height="17" viewBox="0 0 17 17" fill="none" xmlns="http://www.w3.org/2000/svg">
<g id="preview_icon1">
<path id="Vector" d="M9.66984 7.21354C9.02183 6.53124 8.14311 6.14795 7.22689 6.14795C6.31066 6.14795 5.43194 6.53124 4.78394 7.21354L2.34019 9.78687C1.69218 10.4695 1.32813 11.3953 1.32812 12.3606C1.32813 13.3259 1.69218 14.2518 2.34019 14.9343C2.98821 15.6169 3.86711 16.0004 4.78354 16.0004C5.69997 16.0004 6.57887 15.6169 7.22689 14.9343L8.44836 13.6477" stroke="black" stroke-width="1.66667" stroke-linecap="round" stroke-linejoin="round"/>
<path id="Vector_2" d="M7.22705 9.78694C7.87506 10.4692 8.75378 10.8525 9.67 10.8525C10.5862 10.8525 11.4649 10.4692 12.113 9.78694L14.5567 7.2136C15.2047 6.531 15.5688 5.60519 15.5688 4.63984C15.5688 3.6745 15.2047 2.74869 14.5567 2.06608C13.9087 1.38348 13.0298 1 12.1133 1C11.1969 1 10.318 1.38348 9.67 2.06608L8.44853 3.35276" stroke="black" stroke-width="1.66667" stroke-linecap="round" stroke-linejoin="round"/>
</g>
</svg>
