<svg width="105" height="105" viewBox="0 0 105 105" fill="none" xmlns="http://www.w3.org/2000/svg">
<g id="python icon">
<path id="Vector" d="M52.0006 10.0473C48.5372 10.0637 45.2314 10.3582 42.3209 10.8733C33.7486 12.3876 32.1933 15.5573 32.1933 21.4037V29.1236H52.4493V31.697H24.5907C18.7041 31.697 13.5493 35.235 11.9365 41.9681C10.0761 49.6831 9.99403 54.4984 11.9365 62.5547C13.3762 68.552 16.8149 72.8242 22.7023 72.8242H29.6676V63.5694C29.6676 56.883 35.4516 50.9858 42.3217 50.9858H62.5547C68.187 50.9858 72.6823 46.3478 72.6823 40.6925V21.4045C72.6823 15.9142 68.0508 11.7904 62.5547 10.8742C59.0733 10.295 55.4631 10.0317 52.0006 10.0473ZM41.0461 16.2562C43.1379 16.2562 44.8475 17.9928 44.8475 20.1289C44.8475 22.256 43.1388 23.9762 41.0461 23.9762C38.9461 23.9762 37.2456 22.256 37.2456 20.1289C37.2448 17.9928 38.9461 16.2562 41.0461 16.2562Z" fill="url(#paint0_linear_241_387)"/>
<path id="Vector_2" d="M75.2081 31.6969V40.6924C75.2081 47.6651 69.2953 53.5344 62.5539 53.5344H42.3209C36.7789 53.5344 32.1934 58.2783 32.1934 63.8285V83.1182C32.1934 88.6069 36.9659 91.8364 42.3209 93.4106C48.7325 95.2949 54.8816 95.6361 62.5539 93.4106C67.653 91.9332 72.6815 88.9621 72.6815 83.1182V75.3974H52.4493V72.8232H82.8107C88.6973 72.8232 90.8925 68.7176 92.94 62.5537C95.0547 56.2086 94.9637 50.1063 92.94 41.9672C91.4847 36.106 88.7063 31.696 82.8107 31.696L75.2081 31.6969ZM63.8279 80.544C65.9287 80.544 67.6292 82.2642 67.6292 84.3929C67.6292 86.5274 65.9279 88.264 63.8279 88.264C61.7361 88.264 60.0274 86.5274 60.0274 84.3929C60.0274 82.2642 61.7361 80.544 63.8279 80.544Z" fill="url(#paint1_linear_241_387)"/>
<path id="Vector_3" opacity="0.444" d="M79.8239 98.107C79.8239 101.013 67.6702 103.37 52.679 103.37C37.687 103.37 25.5332 101.013 25.5332 98.107C25.5332 95.2006 37.6861 92.843 52.679 92.843C67.6702 92.843 79.8239 95.199 79.8239 98.107Z" fill="url(#paint2_radial_241_387)"/>
</g>
<defs>
<linearGradient id="paint0_linear_241_387" x1="8.47963" y1="12.4612" x2="55.1995" y2="52.3036" gradientUnits="userSpaceOnUse">
<stop stop-color="#5A9FD4"/>
<stop offset="1" stop-color="#306998"/>
</linearGradient>
<linearGradient id="paint1_linear_241_387" x1="72.7774" y1="77.0703" x2="56.0229" y2="53.5748" gradientUnits="userSpaceOnUse">
<stop stop-color="#FFD43B"/>
<stop offset="1" stop-color="#FFE873"/>
</linearGradient>
<radialGradient id="paint2_radial_241_387" cx="0" cy="0" r="1" gradientUnits="userSpaceOnUse" gradientTransform="translate(52.5693 97.9563) rotate(-90) scale(5.26503 23.1442)">
<stop stop-color="#B8B8B8" stop-opacity="0.498"/>
<stop offset="1" stop-color="#7F7F7F" stop-opacity="0"/>
</radialGradient>
</defs>
</svg>
