<svg width="105" height="105" viewBox="0 0 105 105" fill="none" xmlns="http://www.w3.org/2000/svg">
<g id="r icon">
<path id="Vector" fill-rule="evenodd" clip-rule="evenodd" d="M52.5 82.3429C23.5052 82.3429 0 66.6011 0 47.1818C0 27.7625 23.5052 12.0208 52.5 12.0208C81.4948 12.0208 105 27.7625 105 47.1818C105 66.6011 81.4948 82.3429 52.5 82.3429ZM60.5358 25.7684C38.4973 25.7684 20.6309 36.53 20.6309 49.806C20.6309 63.0811 38.4973 73.8436 60.5358 73.8436C82.5743 73.8436 98.8386 66.4854 98.8386 49.806C98.8386 33.1315 82.5743 25.7684 60.5358 25.7684Z" fill="url(#paint0_linear_241_391)"/>
<path id="Vector_2" fill-rule="evenodd" clip-rule="evenodd" d="M79.955 66.4725C79.955 66.4725 83.1329 67.4314 84.9786 68.3658C85.6184 68.6898 86.7275 69.3362 87.5264 70.186C87.9956 70.683 88.3881 71.247 88.6913 71.8595L101.214 92.9743L80.9738 92.9825L71.5098 75.2096C71.5098 75.2096 69.5714 71.8792 68.3787 70.9137C67.3837 70.1081 66.9596 69.8218 65.976 69.8218H61.1673L61.1706 92.9702L43.2607 92.9776V33.8462H79.2265C79.2265 33.8462 95.6082 34.1415 95.6082 49.7266C95.6082 65.3117 79.955 66.4725 79.955 66.4725ZM72.1645 46.6726L61.3216 46.6652L61.3166 56.7206L72.1645 56.7165C72.1645 56.7165 77.188 56.7009 77.188 51.6019C77.188 46.4011 72.1645 46.6726 72.1645 46.6726Z" fill="url(#paint1_linear_241_391)"/>
</g>
<defs>
<linearGradient id="paint0_linear_241_391" x1="0.000592254" y1="12.013" x2="65.0285" y2="109.106" gradientUnits="userSpaceOnUse">
<stop stop-color="#CBCED0"/>
<stop offset="1" stop-color="#84838B"/>
</linearGradient>
<linearGradient id="paint1_linear_241_391" x1="43.2607" y1="33.8458" x2="102.385" y2="91.7861" gradientUnits="userSpaceOnUse">
<stop stop-color="#276DC3"/>
<stop offset="1" stop-color="#165CAA"/>
</linearGradient>
</defs>
</svg>
