<svg width="27" height="26" viewBox="0 0 27 26" fill="none" xmlns="http://www.w3.org/2000/svg">
<g id="Vector">
<path d="M17.5327 0H20.0797L21.3532 0.386139L22.3083 0.90099L22.945 1.41584L24.0062 2.57426L24.7491 4.11881L25.0674 5.27723V7.85149L24.5368 9.52475L23.9001 10.6832L22.945 11.8416L24.1123 12.6139L25.1736 13.7723L26.0225 15.4455L26.3409 16.604V19.6931L25.8103 21.495L25.0674 22.9109L24.0062 24.198L22.6266 25.2277L21.4593 25.7426L20.2919 26H17.5327V23.6832L20.2919 23.5545L21.9899 22.9109L23.0511 22.0099L24.0062 20.4653L24.4307 19.0495V17.3762L24.0062 15.9604L23.2634 14.802L22.4144 14.0297L21.0348 13.3861L20.1858 13.2574L17.5327 13.1287V10.9406L20.0797 10.8119L21.5654 10.1683L21.9899 9.91089L22.2021 9.39604L22.8389 8.23762L23.0511 7.46535V5.53465L22.4144 3.9901L21.5654 3.08911L20.6103 2.57426L20.1858 2.44554L17.5327 2.31683V0Z" fill="#CFE8EF"/>
<path d="M6.9205 0H8.40622L10.2103 0.386139L11.9083 1.41584V4.11881L11.4838 3.86139L10.6348 3.21782L9.2552 2.57426L8.72458 2.44554H6.70826L5.43479 2.9604L4.37356 3.73267L3.52459 4.63366L2.78173 6.0495L2.46336 6.82178L2.25112 7.85148V10.0396L2.78173 11.8416L3.52459 13.1287L3.94907 13.7723L5.11642 14.6733L6.38989 15.3168L6.9205 15.4455H8.93683L10.4225 14.9307H11.9083V16.9901L10.9532 17.3762L9.78581 17.7624L9.14907 17.8911H7.23887L5.54091 17.5049L4.0552 16.7327L2.88785 15.703L2.25112 15.0594L1.50826 13.901L0.977646 12.8713L0.447034 11.0693L0.340912 10.5545V7.20792L0.553157 6.0495L1.29601 4.24752L2.03887 3.08911L2.88785 2.05941L4.37356 0.90099L5.32867 0.386139L6.9205 0Z" fill="#CFE8EF"/>
<path d="M15.4103 0H15.6225V24.198L14.4552 25.2277L13.7123 25.7426V4.11881L13.2879 3.86139L12.3328 2.83168V2.57426L14.0307 1.15842L14.8797 0.386139L15.4103 0Z" fill="#4573DF"/>
<path d="M1.93275 18.2772L2.25111 18.7921L3.10009 20.8515L3.73683 21.7525L4.58581 22.5247L5.85928 23.297L7.02662 23.6832H8.72458L10.4225 23.0396L11.5899 22.2673H11.9083V24.8416L10.7409 25.4851L9.67969 25.8713L8.8307 26H6.9205L5.32866 25.6139L3.94907 24.8416L2.88785 23.9406L2.14499 23.1683L1.29601 21.8812L0.447033 19.8218V19.4356L1.61438 18.5347L1.93275 18.2772Z" fill="#4573DF"/>
<path d="M8.40622 10.8119H11.9083V13.1287H8.40622V10.8119Z" fill="#CFE8EF"/>
</g>
</svg>
