<svg width="119" height="16" viewBox="0 0 119 16" fill="none" xmlns="http://www.w3.org/2000/svg">
<g clip-path="url(#clip0_1166_29)">
<path d="M8.70029 4.90701C8.64347 4.33409 8.39962 3.88901 7.96875 3.57178C7.53788 3.25454 6.95313 3.09593 6.21449 3.09593C5.7126 3.09593 5.28883 3.16695 4.94318 3.30899C4.59754 3.4463 4.33239 3.63807 4.14773 3.88428C3.96781 4.13049 3.87784 4.40985 3.87784 4.72235C3.86837 4.98276 3.92283 5.21004 4.0412 5.40416C4.1643 5.59829 4.33239 5.76638 4.54546 5.90843C4.75853 6.04574 5.00474 6.16647 5.28409 6.27064C5.56345 6.37007 5.86175 6.4553 6.17898 6.52632L7.4858 6.83882C8.12027 6.98087 8.70265 7.17026 9.23296 7.40701C9.76326 7.64375 10.2225 7.93494 10.6108 8.28058C10.9991 8.62623 11.2997 9.03343 11.5128 9.50218C11.7306 9.97093 11.8419 10.5083 11.8466 11.1144C11.8419 12.0045 11.6146 12.7763 11.1648 13.4297C10.7197 14.0784 10.0758 14.5827 9.23296 14.9425C8.39489 15.2976 7.384 15.4752 6.20029 15.4752C5.02604 15.4752 4.00332 15.2953 3.13211 14.9354C2.26563 14.5756 1.58854 14.0429 1.10086 13.3374C0.617901 12.6272 0.364586 11.7489 0.340912 10.7025H3.31676C3.34991 11.1901 3.48959 11.5973 3.7358 11.9241C3.98675 12.246 4.32055 12.4899 4.73722 12.6556C5.15862 12.8166 5.63447 12.8971 6.16478 12.8971C6.68561 12.8971 7.13779 12.8213 7.52131 12.6698C7.90957 12.5183 8.21023 12.3076 8.4233 12.0377C8.63637 11.7678 8.7429 11.4577 8.7429 11.1073C8.7429 10.7806 8.64584 10.506 8.45171 10.2834C8.26231 10.0609 7.98296 9.87149 7.61364 9.71524C7.24906 9.55899 6.80161 9.41695 6.27131 9.28911L4.6875 8.89138C3.46118 8.59309 2.4929 8.1267 1.78267 7.49223C1.07245 6.85776 0.7197 6.00312 0.724435 4.92831C0.7197 4.04763 0.954075 3.27822 1.42756 2.62007C1.90578 1.96193 2.56156 1.4482 3.39489 1.07888C4.22822 0.709562 5.17519 0.524902 6.2358 0.524902C7.31534 0.524902 8.25758 0.709562 9.0625 1.07888C9.87216 1.4482 10.5019 1.96193 10.9517 2.62007C11.4015 3.27822 11.6335 4.04053 11.6477 4.90701H8.70029Z" fill="white"/>
<path d="M28.4687 8.00016C28.4687 9.58633 28.1681 10.9358 27.5668 12.0485C26.9702 13.1611 26.1558 14.011 25.1236 14.5982C24.0961 15.1806 22.9408 15.4717 21.6577 15.4717C20.3651 15.4717 19.205 15.1782 18.1776 14.5911C17.1501 14.0039 16.3381 13.154 15.7415 12.0413C15.1449 10.9287 14.8466 9.58159 14.8466 8.00016C14.8466 6.41398 15.1449 5.06455 15.7415 3.95186C16.3381 2.83917 17.1501 1.99163 18.1776 1.40925C19.205 0.822126 20.3651 0.528564 21.6577 0.528564C22.9408 0.528564 24.0961 0.822126 25.1236 1.40925C26.1558 1.99163 26.9702 2.83917 27.5668 3.95186C28.1681 5.06455 28.4687 6.41398 28.4687 8.00016ZM25.3508 8.00016C25.3508 6.97269 25.197 6.10622 24.8892 5.40072C24.5862 4.69523 24.1577 4.16019 23.6037 3.79561C23.0497 3.43103 22.401 3.24874 21.6577 3.24874C20.9143 3.24874 20.2656 3.43103 19.7116 3.79561C19.1577 4.16019 18.7268 4.69523 18.419 5.40072C18.116 6.10622 17.9645 6.97269 17.9645 8.00016C17.9645 9.02762 18.116 9.89409 18.419 10.5996C18.7268 11.3051 19.1577 11.8401 19.7116 12.2047C20.2656 12.5693 20.9143 12.7516 21.6577 12.7516C22.401 12.7516 23.0497 12.5693 23.6037 12.2047C24.1577 11.8401 24.5862 11.3051 24.8892 10.5996C25.197 9.89409 25.3508 9.02762 25.3508 8.00016Z" fill="white"/>
<path d="M31.4688 15.2727V0.727295H41.0994V3.26281H34.544V6.72872H40.4602V9.26423H34.544V15.2727H31.4688Z" fill="white"/>
<path d="M44.0994 3.26281V0.727295H56.0455V3.26281H51.5923V15.2727H48.5526V3.26281H44.0994Z" fill="white"/>
<path d="M59.0455 15.2727V0.727295H64.8693C65.9394 0.727295 66.8319 0.885912 67.5469 1.20315C68.2618 1.52038 68.7992 1.96072 69.1591 2.52417C69.5189 3.08288 69.6989 3.72682 69.6989 4.45599C69.6989 5.02417 69.5852 5.5237 69.358 5.95457C69.1307 6.3807 68.8182 6.73108 68.4205 7.0057C68.0275 7.27559 67.5777 7.46735 67.071 7.58099V7.72303C67.625 7.74671 68.1435 7.90296 68.6264 8.19178C69.1141 8.48061 69.5095 8.88544 69.8125 9.40627C70.1155 9.92237 70.267 10.5379 70.267 11.2529C70.267 12.0246 70.0753 12.7136 69.6918 13.3196C69.313 13.921 68.7519 14.3968 68.0085 14.7472C67.2652 15.0976 66.349 15.2727 65.2599 15.2727H59.0455ZM62.1207 12.7585H64.6278C65.4848 12.7585 66.1098 12.5952 66.5028 12.2685C66.8958 11.937 67.0923 11.4967 67.0923 10.9475C67.0923 10.545 66.9953 10.1899 66.8011 9.88212C66.607 9.57436 66.33 9.33288 65.9702 9.15769C65.6151 8.9825 65.1913 8.89491 64.6989 8.89491H62.1207V12.7585ZM62.1207 6.81394H64.4006C64.822 6.81394 65.196 6.74055 65.5227 6.59377C65.8542 6.44226 66.1146 6.22919 66.304 5.95457C66.4981 5.67995 66.5952 5.35088 66.5952 4.96735C66.5952 4.44178 66.4081 4.01801 66.0341 3.69604C65.6648 3.37407 65.1392 3.21309 64.4574 3.21309H62.1207V6.81394Z" fill="white"/>
<path d="M82.2514 0.624268H85.3267V10.0703C85.3267 11.1309 85.0734 12.0589 84.5668 12.8544C84.0649 13.6498 83.3617 14.2701 82.4574 14.7152C81.553 15.1555 80.4995 15.3757 79.2969 15.3757C78.0895 15.3757 77.0336 15.1555 76.1293 14.7152C75.2249 14.2701 74.5218 13.6498 74.0199 12.8544C73.518 12.0589 73.2671 11.1309 73.2671 10.0703V0.624268H76.3423V9.80751C76.3423 10.3615 76.4631 10.8539 76.7046 11.2848C76.9508 11.7157 77.2964 12.0542 77.7415 12.3004C78.1866 12.5466 78.705 12.6697 79.2969 12.6697C79.8935 12.6697 80.4119 12.5466 80.8523 12.3004C81.2974 12.0542 81.6406 11.7157 81.8821 11.2848C82.1283 10.8539 82.2514 10.3615 82.2514 9.80751V0.624268Z" fill="white"/>
<path d="M91.402 0.727295V15.2727H88.3267V0.727295H91.402Z" fill="white"/>
<path d="M94.402 15.2727V0.727295H97.4773V12.7372H103.713V15.2727H94.402Z" fill="white"/>
<path d="M106.713 3.26281V0.727295H118.659V3.26281H114.206V15.2727H111.166V3.26281H106.713Z" fill="white"/>
</g>
<defs>
<clipPath id="clip0_1166_29">
<rect width="118.318" height="14.9503" fill="white" transform="translate(0.340912 0.524902)"/>
</clipPath>
</defs>
</svg>
