<svg width="26" height="26" viewBox="0 0 26 26" fill="none" xmlns="http://www.w3.org/2000/svg">
<path d="M17.1918 0H19.7388L21.0122 0.386139L21.9673 0.90099L22.6041 1.41584L23.6653 2.57426L24.4082 4.11881L24.7265 5.27723V7.85149L24.1959 9.52475L23.5592 10.6832L22.6041 11.8416L23.7714 12.6139L24.8327 13.7723L25.6816 15.4455L26 16.604V19.6931L25.4694 21.495L24.7265 22.9109L23.6653 24.198L22.2857 25.2277L21.1184 25.7426L19.951 26H17.1918V23.6832L19.951 23.5545L21.649 22.9109L22.7102 22.0099L23.6653 20.4653L24.0898 19.0495V17.3762L23.6653 15.9604L22.9224 14.802L22.0735 14.0297L20.6939 13.3861L19.8449 13.2574L17.1918 13.1287V10.9406L19.7388 10.8119L21.2245 10.1683L21.649 9.91089L21.8612 9.39604L22.498 8.23762L22.7102 7.46535V5.53465L22.0735 3.9901L21.2245 3.08911L20.2694 2.57426L19.8449 2.44554L17.1918 2.31683V0Z" fill="white"/>
<path d="M6.57959 0H8.06531L9.86939 0.386139L11.5673 1.41584V4.11881L11.1429 3.86139L10.2939 3.21782L8.91429 2.57426L8.38367 2.44554H6.36735L5.09388 2.9604L4.03265 3.73267L3.18367 4.63366L2.44082 6.0495L2.12245 6.82178L1.9102 7.85148V10.0396L2.44082 11.8416L3.18367 13.1287L3.60816 13.7723L4.77551 14.6733L6.04898 15.3168L6.57959 15.4455H8.59592L10.0816 14.9307H11.5673V16.9901L10.6122 17.3762L9.4449 17.7624L8.80816 17.8911H6.89796L5.2 17.5049L3.71429 16.7327L2.54694 15.703L1.9102 15.0594L1.16735 13.901L0.636735 12.8713L0.106122 11.0693L0 10.5545V7.20792L0.212245 6.0495L0.955102 4.24752L1.69796 3.08911L2.54694 2.05941L4.03265 0.90099L4.98775 0.386139L6.57959 0Z" fill="white"/>
<path d="M15.0694 0H15.2816V24.198L14.1143 25.2277L13.3714 25.7426V4.11881L12.9469 3.86139L11.9918 2.83168V2.57426L13.6898 1.15842L14.5388 0.386139L15.0694 0Z" fill="#4573DF"/>
<path d="M1.59184 18.2772L1.9102 18.7921L2.75918 20.8515L3.39592 21.7525L4.2449 22.5247L5.51836 23.297L6.68571 23.6832H8.38367L10.0816 23.0396L11.249 22.2673H11.5673V24.8416L10.4 25.4851L9.33877 25.8713L8.48979 26H6.57959L4.98775 25.6139L3.60816 24.8416L2.54694 23.9406L1.80408 23.1683L0.9551 21.8812L0.106121 19.8218V19.4356L1.27347 18.5347L1.59184 18.2772Z" fill="#4573DF"/>
<path d="M8.0653 10.8119H11.5673V13.1287H8.0653V10.8119Z" fill="white"/>
</svg>
