<svg width="30" height="30" viewBox="0 0 30 30" fill="none" xmlns="http://www.w3.org/2000/svg">
<g id="devicon:spring" clip-path="url(#clip0_942_175)">
<path id="Vector" d="M27.2934 1.55694C26.8735 2.56502 26.3356 3.51979 25.691 4.40132C22.8677 1.57968 19.0396 -0.00559297 15.048 -0.00610352C6.79313 -0.00610352 2.0208e-09 6.79265 2.0208e-09 15.0567C-3.34103e-05 17.0974 0.414267 19.1169 1.2178 20.9927C2.02132 22.8686 3.19735 24.5618 4.67461 25.9697L5.22961 26.4619C7.94202 28.7488 11.3751 30.004 14.9229 30.0061C22.7714 30.0061 29.3691 23.8561 29.9278 16.0179C30.3382 12.1809 29.2127 7.32796 27.2934 1.55694ZM6.81258 26.0555C6.69175 26.2043 6.53924 26.3244 6.36615 26.4068C6.19307 26.4893 6.00376 26.5321 5.81203 26.5322C5.10469 26.5322 4.52602 25.95 4.52602 25.2426C4.52602 24.5353 5.10844 23.9533 5.81203 23.9533C6.105 23.9533 6.39445 24.0548 6.62109 24.2426C7.17211 24.6879 7.25812 25.5044 6.81258 26.0555ZM27.2311 21.5466C23.5179 26.497 15.5873 24.8285 10.5023 25.0669C10.5023 25.0669 9.59953 25.1217 8.69273 25.2701C8.69273 25.2701 9.03258 25.1255 9.47437 24.9574C13.043 23.715 14.7314 23.4726 16.9005 22.3591C20.985 20.2805 25.0226 15.7324 25.863 11.0006C24.3075 15.5526 19.5935 19.4639 15.2981 21.0541C12.3551 22.1405 7.03922 23.1954 7.03922 23.1954L6.8243 23.0819C3.20508 21.3199 3.09539 13.478 9.67359 10.946C12.5543 9.83624 15.3098 10.4459 18.4212 9.70335C21.7434 8.91421 25.5855 6.42116 27.1488 3.17038C28.8998 8.37116 31.0069 16.5138 27.2311 21.5466Z" fill="#77BC1F"/>
</g>
<defs>
<clipPath id="clip0_942_175">
<rect width="30" height="30" fill="white"/>
</clipPath>
</defs>
</svg>
