<svg width="30" height="30" viewBox="0 0 30 30" fill="none" xmlns="http://www.w3.org/2000/svg">
<g id="Ui&#38;Ux icon ">
<g id="Group">
<path id="Vector" d="M4.11999 25.7527L12.075 17.7977M22.0925 14.2602L19.7112 21.4039C19.6732 21.5184 19.6082 21.6221 19.5216 21.7061C19.435 21.7901 19.3294 21.8519 19.2137 21.8864L4.61624 26.2252C4.48473 26.2642 4.34502 26.2665 4.21232 26.2316C4.07963 26.1968 3.95903 26.1263 3.86364 26.0276C3.76826 25.929 3.70175 25.8062 3.67135 25.6724C3.64096 25.5386 3.64783 25.3991 3.69124 25.2689L8.43124 11.0514C8.46521 10.9493 8.52074 10.8558 8.59408 10.777C8.66741 10.6983 8.75682 10.6363 8.85624 10.5952L15.59 7.82266C15.7269 7.76612 15.8775 7.75139 16.0227 7.7803C16.168 7.80922 16.3014 7.88051 16.4062 7.98516L21.9112 13.4927C22.0097 13.5911 22.0789 13.7151 22.1109 13.8507C22.1429 13.9862 22.1365 14.128 22.0925 14.2602Z" stroke="#F1762A" stroke-width="1.5" stroke-linecap="round" stroke-linejoin="round"/>
<path id="Vector_2" d="M22.24 13.8201L25.775 10.2839C26.2437 9.81504 26.507 9.17927 26.507 8.51636C26.507 7.85345 26.2437 7.21768 25.775 6.74886L23.125 4.09636C22.8928 3.86411 22.6172 3.67987 22.3138 3.55417C22.0104 3.42847 21.6853 3.36377 21.3569 3.36377C21.0285 3.36377 20.7033 3.42847 20.3999 3.55417C20.0965 3.67987 19.8209 3.86411 19.5887 4.09636L16.0537 7.63261M14.7262 15.1451C14.5521 14.971 14.3453 14.833 14.1178 14.7388C13.8903 14.6446 13.6464 14.5961 13.4002 14.5962C13.1539 14.5963 12.9101 14.6448 12.6826 14.7391C12.4551 14.8334 12.2484 14.9716 12.0744 15.1457C11.9003 15.3199 11.7622 15.5266 11.668 15.7542C11.5738 15.9817 11.5254 16.2256 11.5255 16.4718C11.5255 16.7181 11.5741 16.9619 11.6684 17.1894C11.7626 17.4168 11.9008 17.6235 12.075 17.7976C12.4267 18.1492 12.9037 18.3466 13.4011 18.3465C13.8984 18.3464 14.3753 18.1487 14.7269 17.797C15.0784 17.4452 15.2759 16.9682 15.2758 16.4709C15.2757 15.9736 15.078 15.4967 14.7262 15.1451Z" stroke="#F1762A" stroke-width="1.5" stroke-linecap="round" stroke-linejoin="round"/>
</g>
</g>
</svg>
