<svg width="43" height="43" viewBox="0 0 43 43" fill="none" xmlns="http://www.w3.org/2000/svg">
<g id="Group">
<path id="Vector" d="M33.1161 11.6485L27.9681 9.15537C27.6774 9.01471 27.3504 8.96837 27.0323 9.02277C26.7142 9.07716 26.4208 9.22961 26.1926 9.45902L9.3401 24.9135C9.23301 25.0117 9.14749 25.1314 9.08901 25.2647C9.03053 25.3981 9.00038 25.5423 9.00049 25.688C9.0006 25.8338 9.03096 25.9779 9.08964 26.1112C9.14832 26.2445 9.23402 26.364 9.34125 26.462L10.7177 27.7208C10.8976 27.8853 11.129 27.9813 11.3719 27.9921C11.6148 28.003 11.8538 27.928 12.0474 27.7801L32.3416 12.2954C33.0224 11.7758 34.0003 12.2642 34.0003 13.1237V13.0637C34.0003 12.768 33.9173 12.4783 33.7609 12.228C33.6045 11.9776 33.381 11.7768 33.1161 11.6485Z" fill="#0065A9"/>
<g id="Group_2" filter="url(#filter0_d_942_248)">
<path id="Vector_2" d="M33.1156 31.3517L27.9676 33.8446C27.6769 33.9853 27.3499 34.0317 27.0318 33.9774C26.7138 33.923 26.4203 33.7706 26.1921 33.5412L9.33961 18.0867C9.23252 17.9885 9.147 17.8689 9.08852 17.7355C9.03004 17.6022 8.99989 17.458 9 17.3122C9.00011 17.1665 9.03048 17.0223 9.08915 16.8891C9.14783 16.7558 9.23353 16.6363 9.34077 16.5382L10.7172 15.2794C10.8971 15.1149 11.1286 15.0189 11.3714 15.0081C11.6143 14.9973 11.8533 15.0723 12.047 15.2201L32.3411 30.7049C33.0219 31.2244 33.9998 30.7361 33.9998 29.8765V29.9366C33.9998 30.2322 33.9168 30.5219 33.7604 30.7723C33.604 31.0226 33.3805 31.2235 33.1156 31.3517Z" fill="#007ACC"/>
</g>
<g id="Group_3" filter="url(#filter1_d_942_248)">
<path id="Vector_3" d="M27.9681 33.8452C27.6773 33.9858 27.3503 34.0322 27.0321 33.9777C26.714 33.9233 26.4206 33.7708 26.1924 33.5413C26.7684 34.1209 27.7539 33.7104 27.7539 32.8907V10.1096C27.7539 9.28988 26.7684 8.87944 26.1924 9.45904C26.4205 9.2295 26.714 9.07694 27.0321 9.02246C27.3502 8.96798 27.6773 9.01427 27.9681 9.15493L33.1152 11.6446C33.3802 11.7728 33.6039 11.9736 33.7604 12.224C33.917 12.4744 34 12.7642 34 13.06V29.9403C34 30.2361 33.917 30.5259 33.7604 30.7763C33.6039 31.0267 33.3802 31.2276 33.1152 31.3557L27.9681 33.8452Z" fill="#1F9CF0"/>
</g>
<path id="Vector_4" opacity="0.25" fill-rule="evenodd" clip-rule="evenodd" d="M26.7175 33.893C26.9162 33.971 27.1288 34.0071 27.3421 33.9989C27.5553 33.9907 27.7645 33.9384 27.9568 33.8453L33.1006 31.3557C33.3655 31.2274 33.589 31.0265 33.7454 30.7761C33.9018 30.5257 33.9848 30.236 33.9847 29.9403V13.0599C33.9848 12.7642 33.9018 12.4745 33.7454 12.2241C33.589 11.9737 33.3655 11.7728 33.1006 11.6445L27.9568 9.15487C27.6661 9.01408 27.3391 8.96772 27.0211 9.02221C26.7031 9.0767 26.4098 9.22934 26.1819 9.45898L16.3346 18.4951L12.0453 15.2201C11.8518 15.0723 11.613 14.9974 11.3702 15.0082C11.1275 15.0191 10.8962 15.1152 10.7165 15.2797L9.34077 16.5385C9.23357 16.6365 9.1479 16.756 9.08925 16.8892C9.03059 17.0225 9.00024 17.1666 9.00013 17.3123C9.00002 17.4581 9.03016 17.6022 9.08861 17.7355C9.14707 17.8689 9.23256 17.9885 9.33961 18.0867L13.0595 21.5001L9.33961 24.9135C9.23252 25.0117 9.147 25.1313 9.08852 25.2647C9.03004 25.3981 8.99989 25.5422 9 25.688C9.00011 25.8337 9.03048 25.9779 9.08915 26.1112C9.14783 26.2444 9.23353 26.3639 9.34077 26.462L10.7165 27.7208C10.8962 27.8852 11.1275 27.9811 11.3702 27.992C11.6128 28.0028 11.8516 27.9278 12.0451 27.7801L16.3346 24.5051L26.1819 33.5412C26.3341 33.6946 26.5167 33.8145 26.7175 33.893ZM27.7423 15.7953L20.2708 21.5001L27.7428 27.2047V15.7955L27.7423 15.7953Z" fill="url(#paint0_linear_942_248)"/>
</g>
<defs>
<filter id="filter0_d_942_248" x="0.118123" y="6.1252" width="42.7638" height="36.7562" filterUnits="userSpaceOnUse" color-interpolation-filters="sRGB">
<feFlood flood-opacity="0" result="BackgroundImageFix"/>
<feColorMatrix in="SourceAlpha" type="matrix" values="0 0 0 0 0 0 0 0 0 0 0 0 0 0 0 0 0 0 127 0" result="hardAlpha"/>
<feOffset/>
<feGaussianBlur stdDeviation="4.44094"/>
<feColorMatrix type="matrix" values="0 0 0 0 0 0 0 0 0 0 0 0 0 0 0 0 0 0 0.25 0"/>
<feBlend mode="overlay" in2="BackgroundImageFix" result="effect1_dropShadow_942_248"/>
<feBlend mode="normal" in="SourceGraphic" in2="effect1_dropShadow_942_248" result="shape"/>
</filter>
<filter id="filter1_d_942_248" x="17.3105" y="0.118367" width="25.5714" height="42.7634" filterUnits="userSpaceOnUse" color-interpolation-filters="sRGB">
<feFlood flood-opacity="0" result="BackgroundImageFix"/>
<feColorMatrix in="SourceAlpha" type="matrix" values="0 0 0 0 0 0 0 0 0 0 0 0 0 0 0 0 0 0 127 0" result="hardAlpha"/>
<feOffset/>
<feGaussianBlur stdDeviation="4.44094"/>
<feColorMatrix type="matrix" values="0 0 0 0 0 0 0 0 0 0 0 0 0 0 0 0 0 0 0.25 0"/>
<feBlend mode="overlay" in2="BackgroundImageFix" result="effect1_dropShadow_942_248"/>
<feBlend mode="normal" in="SourceGraphic" in2="effect1_dropShadow_942_248" result="shape"/>
</filter>
<linearGradient id="paint0_linear_942_248" x1="21.4925" y1="9.00014" x2="21.4925" y2="34.0001" gradientUnits="userSpaceOnUse">
<stop stop-color="white"/>
<stop offset="1" stop-color="white" stop-opacity="0"/>
</linearGradient>
</defs>
</svg>
