<svg width="55" height="40" viewBox="0 0 55 40" fill="none" xmlns="http://www.w3.org/2000/svg">
<g id="web app icon" clip-path="url(#clip0_438_948)">
<path id="Vector" d="M16.1015 20.2319C16.1015 15.5735 16.1015 10.9173 16.1015 6.25899C16.1015 5.708 16.2286 5.21581 16.5862 4.84341C16.7405 4.68443 16.9293 4.5886 17.1309 4.57553C17.4086 4.55811 17.6882 4.57118 17.9678 4.56682C18.1257 4.56465 18.2492 4.65176 18.3164 4.80638C18.3908 4.97843 18.3944 5.17226 18.3218 5.35737C18.2565 5.52289 18.1475 5.59258 17.9932 5.58604C17.7808 5.57733 17.5666 5.58604 17.3524 5.58604C16.982 5.58604 16.7841 5.82342 16.7841 6.26552C16.7841 7.19763 16.7841 8.12756 16.7841 9.05966C16.7841 9.29051 16.8132 9.32754 17.0001 9.32754C17.5847 9.32754 18.1711 9.32536 18.7557 9.32971C18.9137 9.32971 18.979 9.23389 19.0389 9.07491C19.1969 8.66112 19.2532 8.19725 19.4728 7.81613C19.6036 7.58964 19.7669 7.42412 20.012 7.42412C21.2974 7.42412 22.5846 7.41977 23.8699 7.42412C24.2203 7.42412 24.4327 7.69199 24.5725 8.06004C24.7178 8.44334 24.7813 8.86366 24.9538 9.23389C24.9846 9.3014 25.0137 9.32754 25.0772 9.32754C25.2134 9.32754 25.3495 9.3406 25.4875 9.3406C29.9409 9.3406 34.3961 9.3406 38.8495 9.3406C38.9094 9.3406 38.9693 9.3406 39.0292 9.33842C39.1254 9.33407 39.1799 9.27744 39.1781 9.15331C39.1781 8.1428 39.1835 7.13229 39.1744 6.12179C39.1708 5.80382 38.9348 5.56862 38.6607 5.56862C32.2647 5.56862 25.867 5.56862 19.471 5.56862C19.2005 5.56862 19.0117 5.32688 19.0353 5.0111C19.0498 4.80856 19.1969 4.63651 19.3675 4.6278C19.4656 4.62345 19.5636 4.62345 19.6635 4.62345C25.9777 4.62345 32.2919 4.62345 38.6062 4.62345C38.795 4.62345 38.9765 4.62127 39.1635 4.72145C39.3814 4.83905 39.5285 5.0307 39.6319 5.25501C39.8044 5.62742 39.8443 6.04338 39.8443 6.47459C39.8389 13.9532 39.8407 21.4319 39.8407 28.9105C39.8407 29.2284 39.7427 29.4005 39.5466 29.4266C39.3433 29.4549 39.1871 29.2938 39.1781 29.0455C39.1763 28.9736 39.1781 28.9018 39.1781 28.8299C39.1781 22.8017 39.1781 16.7713 39.1781 10.7431C39.1781 10.6647 39.1781 10.5863 39.1781 10.5079C39.1781 10.3576 39.1272 10.2749 38.9893 10.2858C38.8858 10.2945 38.7823 10.2858 38.677 10.2858C34.1619 10.2858 29.6486 10.2814 25.1335 10.2945C24.7032 10.2945 24.4454 9.98088 24.3075 9.59758C24.1985 9.29487 24.1495 8.9682 24.0152 8.67419C23.9317 8.49125 23.8463 8.38672 23.6575 8.38672C22.4974 8.39543 21.3373 8.39543 20.1772 8.38672C20.032 8.38672 19.9884 8.45205 19.9394 8.60232C19.7942 9.04877 19.6943 9.51918 19.4874 9.93297C19.3548 10.1965 19.146 10.3097 18.8828 10.3054C18.2637 10.2945 17.6465 10.301 17.0274 10.3032C16.8059 10.3032 16.7841 10.325 16.7823 10.595C16.7787 10.9892 16.7823 11.3812 16.7823 11.7754C16.7823 19.1626 16.7823 26.5497 16.7805 33.9369C16.7805 34.1852 16.8349 34.3921 16.9838 34.5706C17.0383 34.6381 17.0909 34.6752 17.1654 34.6773C17.2144 34.6773 17.2634 34.6773 17.3124 34.6773C24.4037 34.6773 31.4949 34.6773 38.5862 34.6773C38.9638 34.6773 39.1617 34.4313 39.1617 33.9674C39.1617 32.9895 39.1617 32.0117 39.1617 31.036C39.1617 30.9772 39.1617 30.9184 39.1654 30.8596C39.1799 30.6418 39.307 30.4567 39.4522 30.4393C39.6065 30.4197 39.7863 30.5874 39.8298 30.7965C39.8443 30.8662 39.8462 30.9402 39.8462 31.0099C39.8462 32.0465 39.8407 33.0832 39.8498 34.1198C39.8534 34.6686 39.6882 35.1151 39.3469 35.4679C39.1073 35.7162 38.8041 35.7336 38.51 35.7358C37.4588 35.7467 36.4095 35.7401 35.3583 35.7401C29.3672 35.7401 23.3743 35.7401 17.3832 35.7401C17.0201 35.7401 16.6879 35.6225 16.4374 35.2871C16.2649 35.0585 16.1596 34.7797 16.1142 34.477C16.0906 34.3245 16.0979 34.1634 16.0979 34.0066C16.0979 29.4136 16.0979 24.8227 16.0979 20.2297L16.1015 20.2319Z" fill="#3777BC"/>
<path id="Vector_2" d="M22.5247 25.4588C22.5247 23.355 22.5247 21.2491 22.5247 19.1453C22.5247 19.0146 22.5374 18.8861 22.5737 18.7598C22.6318 18.5551 22.7462 18.4811 22.9205 18.4832C23.4397 18.4898 23.9608 18.5072 24.4782 18.4789C24.854 18.4593 24.9302 18.9101 24.834 19.1976C24.7632 19.411 24.6143 19.4959 24.4346 19.5003C24.1169 19.5068 23.801 19.5003 23.4833 19.5025C23.2654 19.5025 23.2582 19.5112 23.2364 19.7769C23.2309 19.8487 23.2309 19.9206 23.2309 19.9925C23.2309 23.5989 23.2309 27.2054 23.2309 30.8119C23.2309 30.9687 23.2491 31.1255 23.2473 31.2823C23.2455 31.4347 23.2927 31.4892 23.4216 31.4848C23.761 31.4761 24.1005 31.4892 24.4382 31.4805C24.6833 31.4739 24.7868 31.5937 24.8558 31.8071C24.932 32.0467 24.8231 32.356 24.647 32.4736C24.5962 32.5084 24.5417 32.4997 24.4872 32.4997C23.9626 32.4997 23.4379 32.4997 22.9114 32.4997C22.7535 32.4997 22.6264 32.3756 22.5755 32.1948C22.5356 32.0554 22.5229 31.916 22.5229 31.7701C22.5229 29.6663 22.5229 27.5604 22.5229 25.4566L22.5247 25.4588Z" fill="#F0782D"/>
<path id="Vector_3" d="M33.4266 25.4871C33.4266 27.593 33.4266 29.699 33.4266 31.8049C33.4266 31.9574 33.4139 32.1011 33.3631 32.2448C33.3086 32.3973 33.2233 32.4975 33.0835 32.4975C32.5207 32.5018 31.9561 32.5018 31.3933 32.5018C31.2644 32.5018 31.199 32.3777 31.1427 32.2775C31.0538 32.1185 31.052 31.9225 31.1173 31.7505C31.1809 31.5828 31.2989 31.4826 31.4695 31.4848C31.8254 31.4913 32.1812 31.4804 32.537 31.4891C32.6569 31.4913 32.6968 31.4412 32.7059 31.2975C32.7349 30.8576 32.7204 30.4198 32.7204 29.9799C32.7204 26.6478 32.7204 23.3158 32.7204 19.9815C32.7204 19.8966 32.7204 19.8117 32.7204 19.7267C32.7168 19.5786 32.6623 19.5002 32.528 19.5024C32.2102 19.509 31.8925 19.509 31.5766 19.5024C31.2444 19.4959 31.061 19.2846 31.0865 18.8926C31.1028 18.6531 31.2299 18.4897 31.4296 18.4897C31.9543 18.4876 32.4808 18.4897 33.0054 18.4897C33.2596 18.4897 33.3431 18.5638 33.4067 18.8621C33.4266 18.9493 33.4284 19.0429 33.4284 19.1344C33.4284 21.2534 33.4284 23.3724 33.4284 25.4914L33.4266 25.4871Z" fill="#F0782D"/>
<path id="Vector_4" d="M35.3184 12.4833C35.8921 12.4833 36.4676 12.5029 37.0413 12.4746C37.3699 12.4572 37.5805 12.6292 37.7584 12.9232C37.8909 13.1432 37.9417 13.398 37.949 13.655C37.9617 14.1864 37.9672 14.7178 37.949 15.247C37.9327 15.7043 37.7656 16.0876 37.4425 16.3468C37.3608 16.4121 37.2519 16.4056 37.1556 16.4056C36.7726 16.4099 36.3895 16.4099 36.0064 16.4056C35.8031 16.4056 35.6833 16.301 35.6343 16.1007C35.5744 15.8589 35.6288 15.5431 35.7686 15.4364C35.8775 15.3537 36.0101 15.3602 36.1335 15.358C36.4349 15.3537 36.7344 15.3515 37.0358 15.358C37.1647 15.3624 37.2083 15.2992 37.2119 15.1511C37.2264 14.6851 37.2319 14.2212 37.2119 13.7573C37.2065 13.6267 37.1665 13.57 37.054 13.57C35.8884 13.5722 34.7247 13.57 33.5592 13.57C33.4176 13.57 33.354 13.6397 33.3558 13.8205C33.3631 14.2343 33.3558 14.6459 33.3595 15.0597C33.3595 15.284 33.4194 15.3537 33.6064 15.3537C33.9241 15.3559 34.24 15.3515 34.5577 15.3537C34.7737 15.3559 34.8954 15.4582 34.9426 15.6586C35.0079 15.933 34.9535 16.2357 34.8046 16.3511C34.7538 16.3903 34.6793 16.4012 34.6158 16.4012C34.2 16.399 33.7843 16.423 33.3704 16.3881C33.0926 16.3642 32.931 16.1508 32.7949 15.8872C32.6823 15.6716 32.6551 15.4299 32.6551 15.1925C32.6551 14.5718 32.6097 13.949 32.6968 13.3283C32.764 12.8426 33.1089 12.4746 33.5156 12.4746C34.1165 12.4746 34.7193 12.4746 35.3202 12.4746L35.3184 12.4833Z" fill="#F0782D"/>
<path id="Vector_5" d="M28.0092 29.4135C29.2456 29.4135 30.4819 29.4179 31.7183 29.4092C31.898 29.4092 32.0269 29.4658 32.105 29.6553C32.2012 29.8905 32.2012 30.1388 32.065 30.3369C31.9942 30.4415 31.8889 30.5351 31.7382 30.5351C29.2329 30.5286 26.7275 30.5264 24.2203 30.5351C23.9934 30.5351 23.7719 30.2302 23.7792 30.0037C23.7882 29.6858 23.9371 29.4005 24.2657 29.4048C25.513 29.4244 26.7602 29.4135 28.0074 29.4135H28.0092Z" fill="#F0782D"/>
<path id="Vector_6" d="M27.9675 24.5179C26.7312 24.5179 25.4966 24.5179 24.2603 24.5179C23.9789 24.5179 23.8918 24.446 23.8082 24.1563C23.752 23.9582 23.8337 23.638 23.9735 23.5052C24.0207 23.4594 24.0751 23.4616 24.1296 23.4616C24.3202 23.4594 24.5127 23.4594 24.7033 23.4594C27.038 23.4594 29.3727 23.4594 31.7074 23.4551C31.8799 23.4551 32.0306 23.4877 32.1032 23.6816C32.1849 23.9015 32.2048 24.1324 32.0669 24.3458C31.9779 24.4852 31.8599 24.52 31.7237 24.52C30.4711 24.52 29.2202 24.52 27.9675 24.52V24.5179Z" fill="#F0782D"/>
<path id="Vector_7" d="M27.9494 27.4864C26.7239 27.4864 25.4985 27.4864 24.273 27.4864C24.0933 27.4864 23.9099 27.4864 23.8391 27.2381C23.7701 26.992 23.7719 26.7524 23.948 26.5521C23.9825 26.5129 24.0116 26.4824 24.0552 26.478C24.1423 26.4671 24.2294 26.4519 24.3166 26.4519C26.7457 26.4519 29.1748 26.4519 31.6039 26.4519C31.6802 26.4519 31.7564 26.4563 31.8327 26.465C32.0269 26.4867 32.1413 26.6632 32.154 26.9593C32.1649 27.2076 32.0433 27.4276 31.8708 27.4646C31.8018 27.4798 31.7292 27.482 31.6584 27.482C30.422 27.482 29.1857 27.482 27.9494 27.482V27.4864Z" fill="#F0782D"/>
<path id="Vector_8" d="M27.9675 21.5016C26.7202 21.5016 25.473 21.5016 24.2257 21.5016C24.0206 21.5016 23.8935 21.4014 23.8372 21.1989C23.7737 20.9746 23.8245 20.7328 23.9589 20.5913C24.0224 20.5238 24.0914 20.5085 24.1695 20.5085C24.4273 20.5085 24.6833 20.5085 24.941 20.5085C27.1832 20.5085 29.4271 20.5085 31.6692 20.5042C31.8598 20.5042 32.0323 20.5412 32.1068 20.7546C32.1848 20.9833 32.154 21.2098 31.9942 21.4036C31.9107 21.5059 31.8217 21.5016 31.7255 21.5016C30.4728 21.5016 29.2201 21.5016 27.9675 21.5016Z" fill="#F0782D"/>
<path id="Vector_9" d="M27.9602 12.7861C27.0797 12.7861 26.1992 12.7861 25.3187 12.7861C25.079 12.7861 24.9501 12.6315 24.9374 12.3375C24.9265 12.0783 25.1008 11.8213 25.3042 11.7995C25.3368 11.7952 25.3695 11.7995 25.4022 11.7995C27.1251 11.7995 28.848 11.7995 30.5709 11.7995C30.7651 11.7995 30.9013 11.9063 30.9721 12.0892C31.052 12.2983 31.012 12.5596 30.8686 12.7404C30.8069 12.8188 30.7125 12.7883 30.6344 12.7883C29.743 12.7905 28.8516 12.7883 27.9602 12.7883V12.7861Z" fill="#F0782D"/>
<path id="Vector_10" d="M23.1601 13.9315C23.1837 14.1711 23.033 14.3366 22.9513 14.5282C22.797 14.8832 22.6118 15.2164 22.4485 15.5649C22.3668 15.7391 22.3214 15.9373 22.1453 16.0244C22.0218 16.0854 21.8512 16.0331 21.7749 15.8959C21.6369 15.6498 21.6569 15.4102 21.7785 15.1641C21.9583 14.7983 22.1362 14.428 22.3087 14.0556C22.3577 13.9511 22.3395 13.8335 22.2905 13.7355C22.0962 13.35 21.9074 12.9624 21.7313 12.566C21.646 12.3722 21.6442 12.1871 21.7531 12.0172C21.8276 11.8996 21.9038 11.7667 22.0654 11.7929C22.2015 11.8147 22.2742 11.9235 22.3323 12.0411C22.5683 12.5159 22.7952 12.9972 23.0203 13.4785C23.0857 13.6179 23.1765 13.7486 23.1601 13.9315Z" fill="#F0782D"/>
<path id="Vector_11" d="M17.986 13.9118C17.9569 13.7267 18.0532 13.5808 18.1167 13.4392C18.3273 12.9731 18.5542 12.518 18.7848 12.065C18.8538 11.93 18.9337 11.7928 19.0952 11.7949C19.2459 11.7971 19.3639 11.9169 19.4111 12.0911C19.4856 12.3699 19.3857 12.6007 19.2804 12.8272C19.1424 13.1278 19.0045 13.4283 18.8502 13.7158C18.743 13.9161 18.8084 14.086 18.8937 14.2406C19.0662 14.5499 19.1969 14.8874 19.3603 15.2032C19.4892 15.4537 19.4529 15.9459 19.1878 16.0461C19.1007 16.0787 18.9064 16.0308 18.8465 15.9088C18.5688 15.3426 18.2946 14.772 18.0241 14.1993C17.9842 14.1165 17.9733 14.012 17.986 13.9118Z" fill="#F0782D"/>
<path id="Vector_12" d="M21.3937 12.3852C21.3537 12.6814 21.2539 12.9537 21.1649 13.2302C21.0215 13.6767 20.869 14.1188 20.7219 14.5631C20.5948 14.9485 20.4805 15.3405 20.3407 15.7173C20.2953 15.8414 20.21 15.9982 20.0611 15.9569C19.9267 15.9177 19.8033 15.8371 19.7634 15.6433C19.7016 15.3384 19.8142 15.0814 19.8977 14.8135C19.9703 14.5761 20.0556 14.3453 20.1337 14.1101C20.2572 13.7442 20.3842 13.3783 20.5041 13.0103C20.6003 12.7141 20.6765 12.4114 20.7945 12.1217C20.8871 11.8931 21.0342 11.917 21.1794 11.9497C21.3156 11.9824 21.3628 12.1348 21.3918 12.2829C21.3973 12.3134 21.3918 12.3482 21.3918 12.3809L21.3937 12.3852Z" fill="#F0782D"/>
<path id="Vector_13" d="M36.6201 6.91456C36.8288 6.8514 36.9795 6.99296 37.0812 7.26518C37.181 7.53523 37.0231 7.89675 36.7798 7.94684C36.6763 7.96862 36.5728 7.96862 36.4712 7.96644C36.3169 7.96644 36.1734 7.9316 36.1099 7.73124C36.0445 7.52217 36.0427 7.31963 36.1317 7.11056C36.2334 6.87536 36.4058 6.92109 36.6182 6.91238L36.6201 6.91456Z" fill="#3777BC"/>
<path id="Vector_14" d="M33.2669 6.91681C33.4302 6.87107 33.6027 6.93641 33.6953 7.16072C33.7879 7.38504 33.7625 7.61589 33.6517 7.83149C33.6408 7.85327 33.6336 7.88158 33.6172 7.899C33.4575 8.07976 32.8693 7.95563 32.7621 7.72042C32.5879 7.33713 32.7876 6.91681 33.1452 6.91681C33.1724 6.91681 33.1997 6.91681 33.2669 6.91681Z" fill="#3777BC"/>
<path id="Vector_15" d="M34.8953 7.93161C34.5286 7.93161 34.358 7.73561 34.3979 7.35667C34.4197 7.1476 34.545 7.00822 34.7174 6.98426C34.8173 6.96902 34.9117 6.96684 35.0134 6.98208C35.302 7.02128 35.42 7.15849 35.4109 7.4808C35.4019 7.75956 35.2439 7.92726 34.9789 7.93161C34.9516 7.93161 34.9244 7.93161 34.8972 7.93161H34.8953Z" fill="#3777BC"/>
</g>
<defs>
<clipPath id="clip0_438_948">
<rect width="55" height="40" fill="white"/>
</clipPath>
</defs>
</svg>
