<svg width="48" height="48" viewBox="0 0 48 48" fill="none" xmlns="http://www.w3.org/2000/svg">
  <!-- Book base -->
  <path d="M8 10H40V38C40 39.1046 39.1046 40 38 40H10C8.89543 40 8 39.1046 8 38V10Z" fill="#4573df"/>
  <path d="M8 10H38V36H10C8.89543 36 8 35.1046 8 34V10Z" fill="#2d4fa2"/>
  
  <!-- Book pages -->
  <rect x="12" y="14" width="24" height="2" fill="#ffffff" opacity="0.8"/>
  <rect x="12" y="18" width="20" height="2" fill="#ffffff" opacity="0.6"/>
  <rect x="12" y="22" width="22" height="2" fill="#ffffff" opacity="0.6"/>
  <rect x="12" y="26" width="18" height="2" fill="#ffffff" opacity="0.6"/>
  
  <!-- Growth arrow -->
  <path d="M30 8L36 14L32 14L32 20L28 20L28 14L24 14L30 8Z" fill="#ff9800"/>
  
  <!-- Graduation cap on book -->
  <path d="M20 6L28 4L36 6L32 8L24 10L20 8V6Z" fill="#2d4fa2"/>
  <path d="M32 8V12L30 13L28 12V8" fill="#ff9800"/>
  
  <!-- Knowledge particles -->
  <circle cx="14" cy="32" r="1" fill="#667eea"/>
  <circle cx="18" cy="30" r="1" fill="#667eea"/>
  <circle cx="22" cy="32" r="1" fill="#ff9800"/>
  
  <!-- Book spine highlight -->
  <rect x="8" y="10" width="2" height="28" fill="#667eea" opacity="0.5"/>
</svg>
