<svg
  xmlns="http://www.w3.org/2000/svg"
  viewBox="0 0 31 28"
  width="31"
  height="28"
  role="img"
  aria-labelledby="cloudDevOpsTitle"
  class="cloud-devops-icon"
>
  <title id="cloudDevOpsTitle">Cloud DevOps Icon</title>
  <g clip-path="url(#clip0)">
    <!-- Cloud and DevOps System -->
    <path
      fill="#3C7ABE"
      fill-rule="evenodd"
      clip-rule="evenodd"
      d="M0 14.347C0 11.486 2.061 9.102 4.784 8.599a7.48 7.48 0 0 1-.052-.928C4.73 3.433 8.168 0 12.421 0c2.827 0 5.307 1.526 6.638 3.788.34-.069.697-.104 1.062-.104 2.496 0 4.593 1.665 5.254 3.936C28.54 7.976 30.991 10.646 30.991 13.888c0 3.45-2.775 6.25-6.22 6.31H16.144v2.167h1.305c.478 0 .87.39.87.867v1.318h5.184v-1.318c0-.478.392-.867.87-.867h3.914c.478 0 .87.39.87.867v3.901a.867.867 0 0 1-.87.867h-3.914a.867.867 0 0 1-.87-.867v-1.283h-5.184v1.283a.867.867 0 0 1-.87.867h-3.914a.867.867 0 0 1-.87-.867v-1.283H7.48v1.283a.867.867 0 0 1-.87.867H2.705a.867.867 0 0 1-.87-.867v-3.901c0-.478.392-.867.87-.867h3.914c.478 0 .87.39.87.867v1.318h5.184v-1.318c0-.478.392-.867.87-.867h1.305v-2.167H5.793C2.592 20.155 0 17.554 0 14.347zm24.755 4.55H5.81c-2.488-.034-4.506-2.054-4.506-4.55 0-2.219 1.6-4.074 3.713-4.472l1.2-.225-.148-1.205a6.2 6.2 0 0 1-.043-.771c0-3.52 2.862-6.372 6.393-6.372 2.349 0 4.402 1.257 5.516 3.147l.47.798.905-.173c.26-.052.53-.078.809-.078 1.896 0 3.497 1.266 4.001 3l.243.832.87.095c2.505.278 4.463 2.402 4.463 4.976 0 2.739-2.201 4.958-4.94 5.01zM13.978 23.674v3.034h3.044v-3.034h-3.044zM3.14 26.7v-3.034h3.044V26.7H3.14zm21.676-3.025v3.034h3.044v-3.034h-3.044z"
    />
  </g>
  <defs>
    <clipPath id="clip0">
      <rect width="31" height="28" fill="white" />
    </clipPath>
  </defs>
</svg>


